<?xml version="1.0" encoding="UTF-8"?>
<!DOCTYPE svg PUBLIC "-//W3C//DTD SVG 1.1//EN" "http://www.w3.org/Graphics/SVG/1.1/DTD/svg11.dtd">
<svg xmlns="http://www.w3.org/2000/svg" version="1.1" width="192px" height="150px" style="shape-rendering:geometricPrecision; text-rendering:geometricPrecision; image-rendering:optimizeQuality; fill-rule:evenodd; clip-rule:evenodd" xmlns:xlink="http://www.w3.org/1999/xlink">
<g><path style="opacity:0.29" fill="#d2d8c9" d="M 79.5,19.5 C 82.1057,20.439 84.1057,22.1057 85.5,24.5C 84.8333,24.1667 84.1667,23.8333 83.5,23.5C 82.1667,23.1667 80.8333,22.8333 79.5,22.5C 79.5,21.8333 79.1667,21.5 78.5,21.5C 75.0623,20.3138 71.3956,19.6472 67.5,19.5C 62.6638,20.5005 57.9972,20.5005 53.5,19.5C 62.1667,18.1667 70.8333,18.1667 79.5,19.5 Z"/></g>
<g><path style="opacity:0.949" fill="#a4b192" d="M 52.5,19.5 C 52.8333,19.5 53.1667,19.5 53.5,19.5C 57.9972,20.5005 62.6638,20.5005 67.5,19.5C 71.3956,19.6472 75.0623,20.3138 78.5,21.5C 67.1618,21.3335 55.8284,21.5001 44.5,22C 43.944,22.3826 43.6107,22.8826 43.5,23.5C 41.6115,24.604 39.9448,25.9373 38.5,27.5C 36.9699,28.2112 35.6366,29.2112 34.5,30.5C 35.398,27.6044 37.0647,25.271 39.5,23.5C 40.8083,22.7677 42.1416,21.9344 43.5,21C 46.6946,20.8195 49.6946,20.3195 52.5,19.5 Z"/></g>
<g><path style="opacity:0.718" fill="#ecebe2" d="M 52.5,19.5 C 49.6946,20.3195 46.6946,20.8195 43.5,21C 42.1416,21.9344 40.8083,22.7677 39.5,23.5C 31.8333,23.5 24.1667,23.5 16.5,23.5C 15.5342,27.0649 15.5342,30.5649 16.5,34C 15.695,35.1127 15.0283,36.2794 14.5,37.5C 14.1667,37.5 13.8333,37.5 13.5,37.5C 13.3341,32.4889 13.5007,27.4889 14,22.5C 14.5,22 15,21.5 15.5,21C 27.8934,19.5551 40.2267,19.0551 52.5,19.5 Z"/></g>
<g><path style="opacity:1" fill="#6e8458" d="M 78.5,21.5 C 79.1667,21.5 79.5,21.8333 79.5,22.5C 75.1667,22.5 70.8333,22.5 66.5,22.5C 58.7777,22.2329 51.111,22.5663 43.5,23.5C 43.6107,22.8826 43.944,22.3826 44.5,22C 55.8284,21.5001 67.1618,21.3335 78.5,21.5 Z"/></g>
<g><path style="opacity:1" fill="#6b6e3a" d="M 66.5,23.5 C 66.5,23.1667 66.5,22.8333 66.5,22.5C 70.8333,22.5 75.1667,22.5 79.5,22.5C 80.8333,22.8333 82.1667,23.1667 83.5,23.5C 84.5,25.5 85.5,27.5 86.5,29.5C 84.6776,29.8308 83.0109,30.4975 81.5,31.5C 79.3926,32.4682 77.0593,32.8016 74.5,32.5C 73.1764,29.8643 73.1764,27.1977 74.5,24.5C 71.6989,23.7957 69.0323,23.4624 66.5,23.5 Z"/></g>
<g><path style="opacity:1" fill="#f3efdf" d="M 109.5,20.5 C 109.5,24.8333 109.5,29.1667 109.5,33.5C 104.144,31.1289 98.477,29.7955 92.5,29.5C 88.7981,29.7742 86.4648,28.1075 85.5,24.5C 84.1057,22.1057 82.1057,20.439 79.5,19.5C 80.6948,19.3225 81.8615,18.9891 83,18.5C 91.9751,19.1274 100.808,19.7941 109.5,20.5 Z"/></g>
<g><path style="opacity:1" fill="#cec9b0" d="M 119.5,39.5 C 118.596,40.209 118.263,41.209 118.5,42.5C 124.366,41.7466 129.7,42.7466 134.5,45.5C 133.5,45.5 132.5,45.5 131.5,45.5C 130.508,45.6716 129.842,45.3382 129.5,44.5C 125.366,43.5151 121.032,43.1818 116.5,43.5C 116.739,41.5328 116.406,39.6995 115.5,38C 108.875,35.8423 102.208,34.0089 95.5,32.5C 94.3065,31.7281 93.3065,30.7281 92.5,29.5C 98.477,29.7955 104.144,31.1289 109.5,33.5C 110.37,30.9405 110.87,27.6071 111,23.5C 118.641,23.7801 126.475,24.4468 134.5,25.5C 135.439,29.7649 135.772,34.0983 135.5,38.5C 129.974,38.1786 124.64,38.5119 119.5,39.5 Z"/></g>
<g><path style="opacity:0.998" fill="#d7d2c3" d="M 109.5,20.5 C 116.841,20.3337 124.174,20.5003 131.5,21C 136.628,21.6211 138.961,24.4545 138.5,29.5C 138.396,31.7088 138.063,33.8755 137.5,36C 137.639,37.301 138.305,38.1344 139.5,38.5C 133.021,39.4907 126.354,39.824 119.5,39.5C 124.64,38.5119 129.974,38.1786 135.5,38.5C 135.772,34.0983 135.439,29.7649 134.5,25.5C 126.475,24.4468 118.641,23.7801 111,23.5C 110.87,27.6071 110.37,30.9405 109.5,33.5C 109.5,29.1667 109.5,24.8333 109.5,20.5 Z"/></g>
<g><path style="opacity:1" fill="#f4f0db" d="M 39.5,23.5 C 37.0647,25.271 35.398,27.6044 34.5,30.5C 30.3142,31.0149 27.6475,33.3482 26.5,37.5C 24.8333,37.5 23.1667,37.5 21.5,37.5C 19.5,37.5 17.5,37.5 15.5,37.5C 15.1667,37.5 14.8333,37.5 14.5,37.5C 15.0283,36.2794 15.695,35.1127 16.5,34C 15.5342,30.5649 15.5342,27.0649 16.5,23.5C 24.1667,23.5 31.8333,23.5 39.5,23.5 Z"/></g>
<g><path style="opacity:1" fill="#984a2a" d="M 53.5,25.5 C 54.7416,27.6112 54.7416,29.6112 53.5,31.5C 51.6531,32.5729 49.6531,32.5729 47.5,31.5C 47.1667,27.1667 49.1667,25.1667 53.5,25.5 Z"/></g>
<g><path style="opacity:1" fill="#516d2e" d="M 66.5,22.5 C 66.5,22.8333 66.5,23.1667 66.5,23.5C 61.0691,23.2798 57.9024,25.9464 57,31.5C 56.5045,29.5273 56.3379,27.5273 56.5,25.5C 55.5,25.5 54.5,25.5 53.5,25.5C 47.5065,23.4975 45.5065,25.4975 47.5,31.5C 47.9528,32.4584 48.6195,33.2917 49.5,34C 48.1387,35.5843 47.472,37.4176 47.5,39.5C 43.8183,39.3347 40.1516,39.5014 36.5,40C 35.944,40.3826 35.6107,40.8826 35.5,41.5C 32.235,40.5398 28.9017,40.5398 25.5,41.5C 25.4326,40.0413 25.7659,38.7079 26.5,37.5C 28.1454,36.5213 29.4787,35.188 30.5,33.5C 34.624,33.3689 37.2907,31.3689 38.5,27.5C 39.9448,25.9373 41.6115,24.604 43.5,23.5C 51.111,22.5663 58.7777,22.2329 66.5,22.5 Z"/></g>
<g><path style="opacity:1" fill="#ba3628" d="M 53.5,31.5 C 50.5,31.8333 49.1667,30.5 49.5,27.5C 50.8333,27.5 52.1667,27.5 53.5,27.5C 53.5,28.8333 53.5,30.1667 53.5,31.5 Z"/></g>
<g><path style="opacity:1" fill="#72602c" d="M 53.5,25.5 C 49.1667,25.1667 47.1667,27.1667 47.5,31.5C 45.5065,25.4975 47.5065,23.4975 53.5,25.5 Z"/></g>
<g><path style="opacity:1" fill="#a94227" d="M 81.5,31.5 C 79.5,31.5 77.5,31.5 75.5,31.5C 74.1555,25.3376 76.3222,23.3376 82,25.5C 82.6776,27.5976 82.5109,29.5976 81.5,31.5 Z"/></g>
<g><path style="opacity:1" fill="#d12824" d="M 77.5,26.5 C 78.5,26.5 79.5,26.5 80.5,26.5C 80.5,27.5 80.5,28.5 80.5,29.5C 79.5,29.5 78.5,29.5 77.5,29.5C 77.5,28.5 77.5,27.5 77.5,26.5 Z"/></g>
<g><path style="opacity:1" fill="#819563" d="M 83.5,23.5 C 84.1667,23.8333 84.8333,24.1667 85.5,24.5C 86.4648,28.1075 88.7981,29.7742 92.5,29.5C 93.3065,30.7281 94.3065,31.7281 95.5,32.5C 91.919,32.8624 88.919,31.8624 86.5,29.5C 85.5,27.5 84.5,25.5 83.5,23.5 Z"/></g>
<g><path style="opacity:1" fill="#859a6b" d="M 38.5,27.5 C 37.2907,31.3689 34.624,33.3689 30.5,33.5C 29.4787,35.188 28.1454,36.5213 26.5,37.5C 27.6475,33.3482 30.3142,31.0149 34.5,30.5C 35.6366,29.2112 36.9699,28.2112 38.5,27.5 Z"/></g>
<g><path style="opacity:1" fill="#a06749" d="M 15.5,37.5 C 17.5,37.5 19.5,37.5 21.5,37.5C 21.5,37.8333 21.5,38.1667 21.5,38.5C 19.8333,38.5 18.1667,38.5 16.5,38.5C 16.5,40.1667 16.5,41.8333 16.5,43.5C 16.1667,43.5 15.8333,43.5 15.5,43.5C 15.5,41.8333 15.5,40.1667 15.5,38.5C 15.5,38.1667 15.5,37.8333 15.5,37.5 Z"/></g>
<g><path style="opacity:1" fill="#c82e24" d="M 21.5,43.5 C 20.1667,44.8333 18.8333,44.8333 17.5,43.5C 17.5,42.1667 17.5,40.8333 17.5,39.5C 18.8333,39.5 20.1667,39.5 21.5,39.5C 21.5,40.8333 21.5,42.1667 21.5,43.5 Z"/></g>
<g><path style="opacity:1" fill="#48612c" d="M 66.5,23.5 C 69.0323,23.4624 71.6989,23.7957 74.5,24.5C 73.1764,27.1977 73.1764,29.8643 74.5,32.5C 75.6085,33.29 76.9419,33.79 78.5,34C 79.8333,36.3333 81.1667,38.6667 82.5,41C 86.2152,42.0061 88.8819,44.1727 90.5,47.5C 91.5,48 92.5,48.5 93.5,49C 93.1667,49.3333 92.8333,49.6667 92.5,50C 94.0581,50.21 95.3915,50.71 96.5,51.5C 94.5648,52.1495 92.5648,52.4828 90.5,52.5C 90.1583,51.6618 89.4916,51.3284 88.5,51.5C 88.5,50.8333 88.5,50.1667 88.5,49.5C 88.5858,48.5041 88.2524,47.6708 87.5,47C 84.5,46.6667 81.5,46.3333 78.5,46C 77.9011,44.3775 77.2344,42.8775 76.5,41.5C 75.4125,40.0002 74.0792,38.6669 72.5,37.5C 71.3112,36.5713 69.9778,36.238 68.5,36.5C 68.5,35.8333 68.1667,35.5 67.5,35.5C 67.1667,35.5 66.8333,35.5 66.5,35.5C 66.8493,32.5371 65.8493,30.2038 63.5,28.5C 61.5229,30.6423 59.8562,32.9756 58.5,35.5C 56.901,35.2322 55.5676,35.5655 54.5,36.5C 54.5,36.8333 54.5,37.1667 54.5,37.5C 54.1667,37.5 53.8333,37.5 53.5,37.5C 51.2704,38.775 49.937,40.775 49.5,43.5C 48.5084,43.3284 47.8417,43.6618 47.5,44.5C 41.9017,43.7827 38.5684,46.116 37.5,51.5C 36.5,51.8333 35.8333,52.5 35.5,53.5C 31.7406,54.5449 28.0739,55.8782 24.5,57.5C 18.9636,58.3385 17.6303,56.6719 20.5,52.5C 21.4006,50.2729 23.0672,49.2729 25.5,49.5C 26.1667,49.5 26.8333,49.5 27.5,49.5C 27.6107,50.1174 27.944,50.6174 28.5,51C 34.9177,52.6071 37.251,50.1071 35.5,43.5C 35.5,42.8333 35.5,42.1667 35.5,41.5C 35.6107,40.8826 35.944,40.3826 36.5,40C 40.1516,39.5014 43.8183,39.3347 47.5,39.5C 47.472,37.4176 48.1387,35.5843 49.5,34C 48.6195,33.2917 47.9528,32.4584 47.5,31.5C 49.6531,32.5729 51.6531,32.5729 53.5,31.5C 54.7416,29.6112 54.7416,27.6112 53.5,25.5C 54.5,25.5 55.5,25.5 56.5,25.5C 56.3379,27.5273 56.5045,29.5273 57,31.5C 57.9024,25.9464 61.0691,23.2798 66.5,23.5 Z"/></g>
<g><path style="opacity:1" fill="#d82b2f" d="M 54.5,38.5 C 59.5111,38.3341 64.5111,38.5007 69.5,39C 70.7101,40.0391 71.7101,41.2058 72.5,42.5C 66.6719,40.7908 60.6719,40.1241 54.5,40.5C 54.7373,41.791 54.404,42.791 53.5,43.5C 53.366,41.7085 53.6993,40.0418 54.5,38.5 Z"/></g>
<g><path style="opacity:1" fill="#6c5129" d="M 68.5,37.5 C 68.5,37.1667 68.5,36.8333 68.5,36.5C 69.9778,36.238 71.3112,36.5713 72.5,37.5C 74.0792,38.6669 75.4125,40.0002 76.5,41.5C 73.5881,40.5711 70.9214,39.2378 68.5,37.5 Z"/></g>
<g><path style="opacity:1" fill="#f4bfad" d="M 67.5,35.5 C 68.1667,35.5 68.5,35.8333 68.5,36.5C 68.5,36.8333 68.5,37.1667 68.5,37.5C 63.8333,37.5 59.1667,37.5 54.5,37.5C 54.5,37.1667 54.5,36.8333 54.5,36.5C 59.0323,36.8182 63.3656,36.4849 67.5,35.5 Z"/></g>
<g><path style="opacity:1" fill="#eee5cc" d="M 66.5,35.5 C 66.8333,35.5 67.1667,35.5 67.5,35.5C 63.3656,36.4849 59.0323,36.8182 54.5,36.5C 55.5676,35.5655 56.901,35.2322 58.5,35.5C 60.3737,34.3701 62.3737,33.3701 64.5,32.5C 65.1757,33.6016 65.8423,34.6016 66.5,35.5 Z"/></g>
<g><path style="opacity:1" fill="#b8c4a0" d="M 66.5,35.5 C 65.8423,34.6016 65.1757,33.6016 64.5,32.5C 62.3737,33.3701 60.3737,34.3701 58.5,35.5C 59.8562,32.9756 61.5229,30.6423 63.5,28.5C 65.8493,30.2038 66.8493,32.5371 66.5,35.5 Z"/></g>
<g><path style="opacity:1" fill="#f1efdd" d="M 139.5,38.5 C 145.813,39.4216 151.813,41.0883 157.5,43.5C 151.142,43.8149 144.976,44.8149 139,46.5C 137.467,46.2272 135.967,45.8938 134.5,45.5C 129.7,42.7466 124.366,41.7466 118.5,42.5C 118.263,41.209 118.596,40.209 119.5,39.5C 126.354,39.824 133.021,39.4907 139.5,38.5 Z"/></g>
<g><path style="opacity:1" fill="#a6432a" d="M 21.5,38.5 C 21.8333,38.5 22.1667,38.5 22.5,38.5C 22.7845,40.4147 22.4511,42.0813 21.5,43.5C 21.5,42.1667 21.5,40.8333 21.5,39.5C 20.1667,39.5 18.8333,39.5 17.5,39.5C 17.5,40.8333 17.5,42.1667 17.5,43.5C 17.1667,43.5 16.8333,43.5 16.5,43.5C 16.5,41.8333 16.5,40.1667 16.5,38.5C 18.1667,38.5 19.8333,38.5 21.5,38.5 Z"/></g>
<g><path style="opacity:1" fill="#626a33" d="M 21.5,38.5 C 21.5,38.1667 21.5,37.8333 21.5,37.5C 23.1667,37.5 24.8333,37.5 26.5,37.5C 25.7659,38.7079 25.4326,40.0413 25.5,41.5C 28.9017,40.5398 32.235,40.5398 35.5,41.5C 35.5,42.1667 35.5,42.8333 35.5,43.5C 35.1667,43.5 34.8333,43.5 34.5,43.5C 34.1667,43.5 33.8333,43.5 33.5,43.5C 28.1641,41.4955 26.1641,43.4955 27.5,49.5C 26.8333,49.5 26.1667,49.5 25.5,49.5C 25.3059,47.0882 23.9726,46.0882 21.5,46.5C 23.5923,43.9658 23.9256,41.2992 22.5,38.5C 22.1667,38.5 21.8333,38.5 21.5,38.5 Z"/></g>
<g><path style="opacity:1" fill="#ab3c29" d="M 53.5,38.5 C 53.8333,38.5 54.1667,38.5 54.5,38.5C 53.6993,40.0418 53.366,41.7085 53.5,43.5C 51.4348,43.953 49.7682,44.953 48.5,46.5C 47.5,46.5 46.5,46.5 45.5,46.5C 44.5,46.5 43.5,46.5 42.5,46.5C 44.1667,45.8333 45.8333,45.1667 47.5,44.5C 47.8417,43.6618 48.5084,43.3284 49.5,43.5C 50.4959,43.5858 51.3292,43.2524 52,42.5C 52.21,40.9419 52.71,39.6085 53.5,38.5 Z"/></g>
<g><path style="opacity:1" fill="#e1181d" d="M 72.5,42.5 C 72.8333,42.5 73.1667,42.5 73.5,42.5C 72.126,44.3783 70.126,45.3783 67.5,45.5C 65.5,44.8333 63.5,44.1667 61.5,43.5C 59.7613,44.3998 57.928,45.0665 56,45.5C 54.6244,45.3158 53.7911,44.6491 53.5,43.5C 54.404,42.791 54.7373,41.791 54.5,40.5C 60.6719,40.1241 66.6719,40.7908 72.5,42.5 Z"/></g>
<g><path style="opacity:1" fill="#526f31" d="M 86.5,29.5 C 88.919,31.8624 91.919,32.8624 95.5,32.5C 102.208,34.0089 108.875,35.8423 115.5,38C 116.406,39.6995 116.739,41.5328 116.5,43.5C 115.516,46.0513 114.516,48.7179 113.5,51.5C 112.5,52.1667 111.5,52.8333 110.5,53.5C 110.957,54.2975 111.624,54.6309 112.5,54.5C 112.5,54.8333 112.5,55.1667 112.5,55.5C 108.154,55.6657 103.821,55.499 99.5,55C 97.9371,54.2411 96.9371,53.0744 96.5,51.5C 95.3915,50.71 94.0581,50.21 92.5,50C 92.8333,49.6667 93.1667,49.3333 93.5,49C 92.5,48.5 91.5,48 90.5,47.5C 88.8819,44.1727 86.2152,42.0061 82.5,41C 81.1667,38.6667 79.8333,36.3333 78.5,34C 76.9419,33.79 75.6085,33.29 74.5,32.5C 77.0593,32.8016 79.3926,32.4682 81.5,31.5C 83.0109,30.4975 84.6776,29.8308 86.5,29.5 Z"/></g>
<g><path style="opacity:1" fill="#7c4c27" d="M 53.5,37.5 C 53.5,37.8333 53.5,38.1667 53.5,38.5C 52.71,39.6085 52.21,40.9419 52,42.5C 51.3292,43.2524 50.4959,43.5858 49.5,43.5C 49.937,40.775 51.2704,38.775 53.5,37.5 Z"/></g>
<g><path style="opacity:0.561" fill="#a9b79d" d="M 13.5,37.5 C 13.8333,37.5 14.1667,37.5 14.5,37.5C 14.8333,37.5 15.1667,37.5 15.5,37.5C 15.5,37.8333 15.5,38.1667 15.5,38.5C 14.1154,39.5736 12.9487,40.9069 12,42.5C 11.092,47.6835 11.592,52.6835 13.5,57.5C 10.5441,54.9078 9.21076,51.5745 9.5,47.5C 9.21076,43.4255 10.5441,40.0922 13.5,37.5 Z"/></g>
<g><path style="opacity:1" fill="#acaaa2" d="M 157.5,43.5 C 159.632,43.5544 160.965,44.5544 161.5,46.5C 161.167,46.5 160.833,46.5 160.5,46.5C 154.833,45.1667 149.167,45.1667 143.5,46.5C 142.609,47.1098 141.609,47.4431 140.5,47.5C 137.99,47.9465 135.99,47.2798 134.5,45.5C 135.967,45.8938 137.467,46.2272 139,46.5C 144.976,44.8149 151.142,43.8149 157.5,43.5 Z"/></g>
<g><path style="opacity:1" fill="#785d2b" d="M 22.5,38.5 C 23.9256,41.2992 23.5923,43.9658 21.5,46.5C 18.715,47.0838 17.0483,46.0838 16.5,43.5C 16.8333,43.5 17.1667,43.5 17.5,43.5C 18.8333,44.8333 20.1667,44.8333 21.5,43.5C 22.4511,42.0813 22.7845,40.4147 22.5,38.5 Z"/></g>
<g><path style="opacity:1" fill="#da262a" d="M 73.5,42.5 C 74.404,43.209 74.7373,44.209 74.5,45.5C 73.209,45.2627 72.209,45.596 71.5,46.5C 70.8333,46.5 70.1667,46.5 69.5,46.5C 68.5041,46.4142 67.6708,46.7476 67,47.5C 64.7724,45.8866 62.2724,45.22 59.5,45.5C 59.719,46.675 59.3857,47.675 58.5,48.5C 57.5832,47.8728 56.5832,47.5394 55.5,47.5C 53.3926,46.5318 51.0593,46.1984 48.5,46.5C 49.7682,44.953 51.4348,43.953 53.5,43.5C 53.7911,44.6491 54.6244,45.3158 56,45.5C 57.928,45.0665 59.7613,44.3998 61.5,43.5C 63.5,44.1667 65.5,44.8333 67.5,45.5C 70.126,45.3783 72.126,44.3783 73.5,42.5 Z"/></g>
<g><path style="opacity:1" fill="#c94e44" d="M 53.5,38.5 C 53.5,38.1667 53.5,37.8333 53.5,37.5C 53.8333,37.5 54.1667,37.5 54.5,37.5C 59.1667,37.5 63.8333,37.5 68.5,37.5C 70.9214,39.2378 73.5881,40.5711 76.5,41.5C 76.5,43.1667 76.5,44.8333 76.5,46.5C 74.8333,46.5 73.1667,46.5 71.5,46.5C 72.209,45.596 73.209,45.2627 74.5,45.5C 74.7373,44.209 74.404,43.209 73.5,42.5C 73.1667,42.5 72.8333,42.5 72.5,42.5C 71.7101,41.2058 70.7101,40.0391 69.5,39C 64.5111,38.5007 59.5111,38.3341 54.5,38.5C 54.1667,38.5 53.8333,38.5 53.5,38.5 Z"/></g>
<g><path style="opacity:1" fill="#4f4c46" d="M 131.5,45.5 C 132.5,45.5 133.5,45.5 134.5,45.5C 135.99,47.2798 137.99,47.9465 140.5,47.5C 137.056,49.0905 134.056,48.4238 131.5,45.5 Z"/></g>
<g><path style="opacity:1" fill="#7e4f2d" d="M 76.5,41.5 C 77.2344,42.8775 77.9011,44.3775 78.5,46C 81.5,46.3333 84.5,46.6667 87.5,47C 88.2524,47.6708 88.5858,48.5041 88.5,49.5C 87.8333,49.1667 87.1667,48.8333 86.5,48.5C 86.1667,48.5 85.8333,48.5 85.5,48.5C 83.0521,47.5269 80.3854,47.1936 77.5,47.5C 77.1667,47.5 76.8333,47.5 76.5,47.5C 76.5,47.1667 76.5,46.8333 76.5,46.5C 76.5,44.8333 76.5,43.1667 76.5,41.5 Z"/></g>
<g><path style="opacity:1" fill="#526e2e" d="M 15.5,43.5 C 15.8333,43.5 16.1667,43.5 16.5,43.5C 17.0483,46.0838 18.715,47.0838 21.5,46.5C 23.9726,46.0882 25.3059,47.0882 25.5,49.5C 23.0672,49.2729 21.4006,50.2729 20.5,52.5C 16.1138,53.4874 13.7805,51.8208 13.5,47.5C 13.5854,45.6672 14.2521,44.3339 15.5,43.5 Z"/></g>
<g><path style="opacity:1" fill="#814b28" d="M 47.5,44.5 C 45.8333,45.1667 44.1667,45.8333 42.5,46.5C 40.4727,47.8606 38.806,49.5273 37.5,51.5C 38.5684,46.116 41.9017,43.7827 47.5,44.5 Z"/></g>
<g><path style="opacity:1" fill="#de4949" d="M 69.5,46.5 C 68.5009,49.1741 66.8342,49.8408 64.5,48.5C 64.0831,47.8761 63.4164,47.5427 62.5,47.5C 61.2867,47.7472 60.62,48.4138 60.5,49.5C 59.5,49.5 58.5,49.5 57.5,49.5C 56.8333,49.1667 56.1667,48.8333 55.5,48.5C 55.5,48.1667 55.5,47.8333 55.5,47.5C 56.5832,47.5394 57.5832,47.8728 58.5,48.5C 59.3857,47.675 59.719,46.675 59.5,45.5C 62.2724,45.22 64.7724,45.8866 67,47.5C 67.6708,46.7476 68.5041,46.4142 69.5,46.5 Z"/></g>
<g><path style="opacity:1" fill="#c03528" d="M 103.5,49.5 C 102.833,49.5 102.5,49.1667 102.5,48.5C 102.062,44.0917 104.062,42.4251 108.5,43.5C 109.575,47.938 107.908,49.938 103.5,49.5 Z"/></g>
<g><path style="opacity:1" fill="#0b0e0b" d="M 118.5,44.5 C 122.167,44.5 125.833,44.5 129.5,44.5C 129.842,45.3382 130.508,45.6716 131.5,45.5C 134.056,48.4238 137.056,49.0905 140.5,47.5C 141.609,47.4431 142.609,47.1098 143.5,46.5C 148.875,46.1718 154.208,46.5052 159.5,47.5C 154.818,48.2177 150.151,48.8843 145.5,49.5C 144.207,51.6365 144.207,53.6365 145.5,55.5C 146.388,62.0533 148.055,68.3866 150.5,74.5C 150.5,75.5 150.5,76.5 150.5,77.5C 156.902,77.1818 163.235,77.1818 169.5,77.5C 163.919,78.8585 158.252,79.6918 152.5,80C 149.596,80.1328 147.262,81.2995 145.5,83.5C 145.167,83.5 144.833,83.5 144.5,83.5C 144.5,83.1667 144.5,82.8333 144.5,82.5C 145.164,80.1903 145.497,77.6903 145.5,75C 145.134,71.0736 144.467,67.2403 143.5,63.5C 142.5,63.5 141.5,63.5 140.5,63.5C 139.702,61.0337 138.369,59.0337 136.5,57.5C 135.613,51.2914 131.947,48.2914 125.5,48.5C 123.735,47.5386 121.735,47.2053 119.5,47.5C 118.596,46.791 118.263,45.791 118.5,44.5 Z"/></g>
<g><path style="opacity:1" fill="#71612c" d="M 107.5,41.5 C 102.165,41.4765 100.499,43.8098 102.5,48.5C 102.5,49.1667 102.833,49.5 103.5,49.5C 104.568,50.4345 105.901,50.7678 107.5,50.5C 102.737,52.2863 100.07,50.453 99.5,45C 100.999,40.8182 103.666,39.6515 107.5,41.5 Z"/></g>
<g><path style="opacity:1" fill="#353e3a" d="M 143.5,46.5 C 149.167,45.1667 154.833,45.1667 160.5,46.5C 160.67,47.8221 160.337,48.9887 159.5,50C 154.845,50.4992 150.179,50.6658 145.5,50.5C 145.5,52.1667 145.5,53.8333 145.5,55.5C 144.207,53.6365 144.207,51.6365 145.5,49.5C 150.151,48.8843 154.818,48.2177 159.5,47.5C 154.208,46.5052 148.875,46.1718 143.5,46.5 Z"/></g>
<g><path style="opacity:1" fill="#ffe9e7" d="M 76.5,47.5 C 76.8333,47.5 77.1667,47.5 77.5,47.5C 77.7373,48.791 77.404,49.791 76.5,50.5C 71.7863,50.2008 70.1196,52.2008 71.5,56.5C 78.0326,58.9535 77.6993,60.1202 70.5,60C 69.9221,58.583 68.9221,57.7496 67.5,57.5C 67.1667,57.5 66.8333,57.5 66.5,57.5C 66.1389,50.5277 69.4723,47.1943 76.5,47.5 Z"/></g>
<g><path style="opacity:1" fill="#88542b" d="M 107.5,41.5 C 111.386,44.3644 111.386,47.3644 107.5,50.5C 105.901,50.7678 104.568,50.4345 103.5,49.5C 107.908,49.938 109.575,47.938 108.5,43.5C 104.062,42.4251 102.062,44.0917 102.5,48.5C 100.499,43.8098 102.165,41.4765 107.5,41.5 Z"/></g>
<g><path style="opacity:1" fill="#705127" d="M 33.5,43.5 C 28.8415,43.0146 27.5081,44.848 29.5,49C 31.1341,49.4935 32.8008,49.6602 34.5,49.5C 34.5,47.5 34.5,45.5 34.5,43.5C 34.8333,43.5 35.1667,43.5 35.5,43.5C 37.251,50.1071 34.9177,52.6071 28.5,51C 27.944,50.6174 27.6107,50.1174 27.5,49.5C 26.1641,43.4955 28.1641,41.4955 33.5,43.5 Z"/></g>
<g><path style="opacity:1" fill="#b53928" d="M 33.5,43.5 C 33.8333,43.5 34.1667,43.5 34.5,43.5C 34.5,45.5 34.5,47.5 34.5,49.5C 32.8008,49.6602 31.1341,49.4935 29.5,49C 27.5081,44.848 28.8415,43.0146 33.5,43.5 Z"/></g>
<g><path style="opacity:1" fill="#e0605f" d="M 45.5,46.5 C 46.5,46.5 47.5,46.5 48.5,46.5C 51.0593,46.1984 53.3926,46.5318 55.5,47.5C 52.5,47.5 49.5,47.5 46.5,47.5C 46.5,52.1667 46.5,56.8333 46.5,61.5C 45.5128,56.6946 45.1795,51.6946 45.5,46.5 Z"/></g>
<g><path style="opacity:1" fill="#fec0bd" d="M 55.5,47.5 C 55.5,47.8333 55.5,48.1667 55.5,48.5C 52.8333,48.5 50.1667,48.5 47.5,48.5C 47.5,52.5 47.5,56.5 47.5,60.5C 48.5,60.5 49.5,60.5 50.5,60.5C 49.4324,61.4345 48.099,61.7678 46.5,61.5C 46.5,56.8333 46.5,52.1667 46.5,47.5C 49.5,47.5 52.5,47.5 55.5,47.5 Z"/></g>
<g><path style="opacity:1" fill="#475737" d="M 116.5,43.5 C 121.032,43.1818 125.366,43.5151 129.5,44.5C 125.833,44.5 122.167,44.5 118.5,44.5C 116.933,47.7199 115.266,51.0532 113.5,54.5C 113.167,54.5 112.833,54.5 112.5,54.5C 111.624,54.6309 110.957,54.2975 110.5,53.5C 111.5,52.8333 112.5,52.1667 113.5,51.5C 114.516,48.7179 115.516,46.0513 116.5,43.5 Z"/></g>
<g><path style="opacity:1" fill="#5a7041" d="M 15.5,38.5 C 15.5,40.1667 15.5,41.8333 15.5,43.5C 14.2521,44.3339 13.5854,45.6672 13.5,47.5C 13.7805,51.8208 16.1138,53.4874 20.5,52.5C 17.6303,56.6719 18.9636,58.3385 24.5,57.5C 23.6661,58.7479 22.3328,59.4146 20.5,59.5C 17.8906,59.5587 15.5572,58.892 13.5,57.5C 11.592,52.6835 11.092,47.6835 12,42.5C 12.9487,40.9069 14.1154,39.5736 15.5,38.5 Z"/></g>
<g><path style="opacity:1" fill="#fff9f5" d="M 63.5,57.5 C 62.5084,57.6716 61.8417,57.3382 61.5,56.5C 61.1866,53.7531 61.52,51.0865 62.5,48.5C 63.4841,51.4281 63.8174,54.4281 63.5,57.5 Z"/></g>
<g><path style="opacity:1" fill="#ffcccb" d="M 64.5,48.5 C 64.5,51.5 64.5,54.5 64.5,57.5C 64.1667,57.5 63.8333,57.5 63.5,57.5C 63.8174,54.4281 63.4841,51.4281 62.5,48.5C 61.52,51.0865 61.1866,53.7531 61.5,56.5C 60.5318,54.3926 60.1984,52.0593 60.5,49.5C 60.62,48.4138 61.2867,47.7472 62.5,47.5C 63.4164,47.5427 64.0831,47.8761 64.5,48.5 Z"/></g>
<g><path style="opacity:1" fill="#bec4aa" d="M 96.5,51.5 C 96.9371,53.0744 97.9371,54.2411 99.5,55C 103.821,55.499 108.154,55.6657 112.5,55.5C 112.826,63.6841 112.492,71.6841 111.5,79.5C 111.5,71.8333 111.5,64.1667 111.5,56.5C 107.154,56.6657 102.821,56.499 98.5,56C 95.4974,55.2514 92.8307,54.0848 90.5,52.5C 92.5648,52.4828 94.5648,52.1495 96.5,51.5 Z"/></g>
<g><path style="opacity:1" fill="#87978e" d="M 125.5,48.5 C 131.947,48.2914 135.613,51.2914 136.5,57.5C 136.392,59.5138 137.058,61.1805 138.5,62.5C 136.533,62.2606 134.699,62.5939 133,63.5C 132.503,66.146 132.336,68.8127 132.5,71.5C 128.12,67.8615 123.954,63.8615 120,59.5C 119.333,56.1667 119.333,52.8333 120,49.5C 121.699,48.5939 123.533,48.2606 125.5,48.5 Z"/></g>
<g><path style="opacity:1" fill="#fef7f4" d="M 55.5,48.5 C 56.8896,50.9998 56.7229,53.3332 55,55.5C 54.79,53.9419 54.29,52.6085 53.5,51.5C 52.5,51.5 51.5,51.5 50.5,51.5C 49.5489,52.9187 49.2155,54.5853 49.5,56.5C 50.8734,56.3433 52.2068,56.51 53.5,57C 51.8807,57.2355 50.8807,58.0689 50.5,59.5C 50.5,59.8333 50.5,60.1667 50.5,60.5C 49.5,60.5 48.5,60.5 47.5,60.5C 47.5,56.5 47.5,52.5 47.5,48.5C 50.1667,48.5 52.8333,48.5 55.5,48.5 Z"/></g>
<g><path style="opacity:1" fill="#da7f7d" d="M 69.5,46.5 C 70.1667,46.5 70.8333,46.5 71.5,46.5C 73.1667,46.5 74.8333,46.5 76.5,46.5C 76.5,46.8333 76.5,47.1667 76.5,47.5C 69.4723,47.1943 66.1389,50.5277 66.5,57.5C 65.8333,57.5 65.1667,57.5 64.5,57.5C 64.5,54.5 64.5,51.5 64.5,48.5C 66.8342,49.8408 68.5009,49.1741 69.5,46.5 Z"/></g>
<g><path style="opacity:1" fill="#1b2618" d="M 118.5,44.5 C 118.263,45.791 118.596,46.791 119.5,47.5C 119.167,48.1667 118.833,48.8333 118.5,49.5C 117.833,53.5 117.167,57.5 116.5,61.5C 116.663,59.1432 116.497,56.8098 116,54.5C 115.066,55.8584 114.232,57.1917 113.5,58.5C 113.5,57.1667 113.5,55.8333 113.5,54.5C 115.266,51.0532 116.933,47.7199 118.5,44.5 Z"/></g>
<g><path style="opacity:1" fill="#586f68" d="M 160.5,46.5 C 160.833,46.5 161.167,46.5 161.5,46.5C 164.488,56.1231 167.154,65.7897 169.5,75.5C 164.807,75.4359 160.141,75.7692 155.5,76.5C 153.545,76.2755 151.879,75.6089 150.5,74.5C 148.055,68.3866 146.388,62.0533 145.5,55.5C 145.5,53.8333 145.5,52.1667 145.5,50.5C 150.179,50.6658 154.845,50.4992 159.5,50C 160.337,48.9887 160.67,47.8221 160.5,46.5 Z"/></g>
<g><path style="opacity:1" fill="#fddadb" d="M 55.5,48.5 C 56.1667,48.8333 56.8333,49.1667 57.5,49.5C 58.3686,51.717 58.702,54.0504 58.5,56.5C 57.1667,57.1667 56.1667,58.1667 55.5,59.5C 53.8333,59.5 52.1667,59.5 50.5,59.5C 50.8807,58.0689 51.8807,57.2355 53.5,57C 52.2068,56.51 50.8734,56.3433 49.5,56.5C 49.2155,54.5853 49.5489,52.9187 50.5,51.5C 50.5,52.8333 50.5,54.1667 50.5,55.5C 51.5,55.5 52.5,55.5 53.5,55.5C 53.5,54.1667 53.5,52.8333 53.5,51.5C 54.29,52.6085 54.79,53.9419 55,55.5C 56.7229,53.3332 56.8896,50.9998 55.5,48.5 Z"/></g>
<g><path style="opacity:1" fill="#dd5b5b" d="M 77.5,47.5 C 80.3854,47.1936 83.0521,47.5269 85.5,48.5C 83.5,48.5 81.5,48.5 79.5,48.5C 79.4729,50.1993 78.8062,51.5326 77.5,52.5C 76.3569,52.9081 75.3569,53.5748 74.5,54.5C 75.9905,55.2436 77.4905,55.9103 79,56.5C 79.1667,57.3333 79.3333,58.1667 79.5,59C 78.9265,60.6067 78.2598,62.1067 77.5,63.5C 73.7002,63.1806 73.5335,62.1806 77,60.5C 77.49,59.2068 77.6567,57.8734 77.5,56.5C 75.8333,56.5 74.1667,56.5 72.5,56.5C 71.933,53.0886 73.2663,51.0886 76.5,50.5C 77.404,49.791 77.7373,48.791 77.5,47.5 Z"/></g>
<g><path style="opacity:1" fill="#3c403a" d="M 136.5,57.5 C 138.369,59.0337 139.702,61.0337 140.5,63.5C 139.833,63.5 139.167,63.5 138.5,63.5C 138.5,63.1667 138.5,62.8333 138.5,62.5C 137.058,61.1805 136.392,59.5138 136.5,57.5 Z"/></g>
<g><path style="opacity:0.267" fill="#bfc6c3" d="M 161.5,46.5 C 166.334,57.1728 170.334,68.1728 173.5,79.5C 172.5,79.5 171.5,79.5 170.5,79.5C 170.768,77.901 170.434,76.5676 169.5,75.5C 167.154,65.7897 164.488,56.1231 161.5,46.5 Z"/></g>
<g><path style="opacity:1" fill="#f5f1dd" d="M 35.5,53.5 C 35.6665,63.1724 35.4998,72.8391 35,82.5C 33.8525,83.4581 32.8525,83.1247 32,81.5C 31.3333,83.5 31.3333,85.5 32,87.5C 33.7295,85.3982 35.5628,85.5649 37.5,88C 33.1008,88.3118 32.1008,89.9785 34.5,93C 34.3552,93.772 34.0219,94.4387 33.5,95C 35.2861,95.1962 36.6195,96.0295 37.5,97.5C 32.6549,100.769 27.3216,101.936 21.5,101C 22.6341,99.984 22.3008,99.3173 20.5,99C 21.0219,98.4387 21.3552,97.772 21.5,97C 20.6977,85.5334 20.1977,74.0334 20,62.5C 18.6703,61.4178 17.1703,60.7512 15.5,60.5C 14.8333,59.5 14.1667,58.5 13.5,57.5C 15.5572,58.892 17.8906,59.5587 20.5,59.5C 22.3328,59.4146 23.6661,58.7479 24.5,57.5C 28.0739,55.8782 31.7406,54.5449 35.5,53.5 Z"/></g>
<g><path style="opacity:1" fill="#f5efdd" d="M 88.5,51.5 C 89.4916,51.3284 90.1583,51.6618 90.5,52.5C 92.8307,54.0848 95.4974,55.2514 98.5,56C 102.821,56.499 107.154,56.6657 111.5,56.5C 111.5,64.1667 111.5,71.8333 111.5,79.5C 111.5,80.1667 111.5,80.8333 111.5,81.5C 110.515,85.6344 110.182,89.9677 110.5,94.5C 105.588,94.6786 102.254,97.0119 100.5,101.5C 99.8333,101.833 99.1667,102.167 98.5,102.5C 83.163,102.667 67.8297,102.5 52.5,102C 48.4727,98.8231 44.1394,97.9898 39.5,99.5C 38.5084,99.3284 37.8417,99.6618 37.5,100.5C 30.7243,102.334 23.7243,103.001 16.5,102.5C 15.7088,88.5147 15.3755,74.5147 15.5,60.5C 17.1703,60.7512 18.6703,61.4178 20,62.5C 20.1977,74.0334 20.6977,85.5334 21.5,97C 21.3552,97.772 21.0219,98.4387 20.5,99C 22.3008,99.3173 22.6341,99.984 21.5,101C 27.3216,101.936 32.6549,100.769 37.5,97.5C 36.6195,96.0295 35.2861,95.1962 33.5,95C 34.0219,94.4387 34.3552,93.772 34.5,93C 32.1008,89.9785 33.1008,88.3118 37.5,88C 35.5628,85.5649 33.7295,85.3982 32,87.5C 31.3333,85.5 31.3333,83.5 32,81.5C 32.8525,83.1247 33.8525,83.4581 35,82.5C 35.4998,72.8391 35.6665,63.1724 35.5,53.5C 36.1667,64.1667 36.8333,74.8333 37.5,85.5C 37.8333,85.5 38.1667,85.5 38.5,85.5C 46.1376,86.8311 54.1376,87.4978 62.5,87.5C 70.5,87.3333 78.5,87.1667 86.5,87C 87,86.5 87.5,86 88,85.5C 88.4999,74.1716 88.6665,62.8382 88.5,51.5 Z"/></g>
<g><path style="opacity:1" fill="#e89194" d="M 57.5,49.5 C 58.5,49.5 59.5,49.5 60.5,49.5C 60.1984,52.0593 60.5318,54.3926 61.5,56.5C 61.8417,57.3382 62.5084,57.6716 63.5,57.5C 63.8333,57.5 64.1667,57.5 64.5,57.5C 64.7076,59.9201 64.3742,62.2534 63.5,64.5C 64.0047,65.9185 65.0047,66.5852 66.5,66.5C 66.5,68.8333 66.5,71.1667 66.5,73.5C 65.8333,73.5 65.1667,73.5 64.5,73.5C 64.7947,71.2646 64.4614,69.2646 63.5,67.5C 62.791,66.596 61.791,66.2627 60.5,66.5C 60.5,69.8333 60.5,73.1667 60.5,76.5C 59.8333,76.5 59.1667,76.5 58.5,76.5C 58.5,72.5 58.5,68.5 58.5,64.5C 59.5754,65.5624 60.5754,65.5624 61.5,64.5C 60.1667,63.1667 60.1667,61.8333 61.5,60.5C 60.9649,58.739 59.9649,57.4057 58.5,56.5C 58.702,54.0504 58.3686,51.717 57.5,49.5 Z"/></g>
<g><path style="opacity:1" fill="#f9b9ba" d="M 76.5,50.5 C 73.2663,51.0886 71.933,53.0886 72.5,56.5C 74.1667,56.5 75.8333,56.5 77.5,56.5C 77.6567,57.8734 77.49,59.2068 77,60.5C 73.5335,62.1806 73.7002,63.1806 77.5,63.5C 77.5,64.8333 77.5,66.1667 77.5,67.5C 75.8333,67.5 74.1667,67.5 72.5,67.5C 73.3984,66.8423 74.3984,66.1757 75.5,65.5C 72.7185,64.048 70.2185,64.3813 68,66.5C 67.5026,69.146 67.3359,71.8127 67.5,74.5C 66.8333,74.5 66.5,74.1667 66.5,73.5C 66.5,71.1667 66.5,68.8333 66.5,66.5C 67.4756,65.1851 68.4756,63.8518 69.5,62.5C 68.8256,60.8045 68.1589,59.1379 67.5,57.5C 68.9221,57.7496 69.9221,58.583 70.5,60C 77.6993,60.1202 78.0326,58.9535 71.5,56.5C 70.1196,52.2008 71.7863,50.2008 76.5,50.5 Z"/></g>
<g><path style="opacity:1" fill="#d83130" d="M 85.5,48.5 C 85.8333,48.5 86.1667,48.5 86.5,48.5C 86.8221,61.08 86.4888,73.58 85.5,86C 71.8374,86.4999 58.1707,86.6666 44.5,86.5C 57.6562,85.5044 70.9895,85.1711 84.5,85.5C 84.5,74.1667 84.5,62.8333 84.5,51.5C 82.1944,51.9926 79.861,52.3259 77.5,52.5C 78.8062,51.5326 79.4729,50.1993 79.5,48.5C 81.5,48.5 83.5,48.5 85.5,48.5 Z"/></g>
<g><path style="opacity:1" fill="#313e3b" d="M 118.5,49.5 C 118.666,56.8409 118.5,64.1742 118,71.5C 117.809,73.7078 117.309,75.7078 116.5,77.5C 116.5,72.1667 116.5,66.8333 116.5,61.5C 117.167,57.5 117.833,53.5 118.5,49.5 Z"/></g>
<g><path style="opacity:1" fill="#586e67" d="M 119.5,47.5 C 121.735,47.2053 123.735,47.5386 125.5,48.5C 123.533,48.2606 121.699,48.5939 120,49.5C 119.333,52.8333 119.333,56.1667 120,59.5C 123.954,63.8615 128.12,67.8615 132.5,71.5C 131.931,75.3293 132.598,78.6627 134.5,81.5C 134.5,81.8333 134.5,82.1667 134.5,82.5C 136.838,84.7426 139.504,85.0759 142.5,83.5C 142.389,84.1174 142.056,84.6174 141.5,85C 133.173,85.4997 124.84,85.6664 116.5,85.5C 116.5,82.8333 116.5,80.1667 116.5,77.5C 117.309,75.7078 117.809,73.7078 118,71.5C 118.5,64.1742 118.666,56.8409 118.5,49.5C 118.833,48.8333 119.167,48.1667 119.5,47.5 Z"/></g>
<g><path style="opacity:1" fill="#060706" d="M 116.5,61.5 C 116.5,66.8333 116.5,72.1667 116.5,77.5C 116.5,80.1667 116.5,82.8333 116.5,85.5C 124.84,85.6664 133.173,85.4997 141.5,85C 142.056,84.6174 142.389,84.1174 142.5,83.5C 143.167,83.5 143.833,83.5 144.5,83.5C 144.833,83.5 145.167,83.5 145.5,83.5C 145.178,89.358 145.511,95.0247 146.5,100.5C 146.739,102.467 146.406,104.301 145.5,106C 141.5,106.667 137.5,106.667 133.5,106C 129.418,97.7654 122.751,93.9321 113.5,94.5C 113.5,82.5 113.5,70.5 113.5,58.5C 114.232,57.1917 115.066,55.8584 116,54.5C 116.497,56.8098 116.663,59.1432 116.5,61.5 Z"/></g>
<g><path style="opacity:1" fill="#bbc3b5" d="M 138.5,62.5 C 138.5,62.8333 138.5,63.1667 138.5,63.5C 136.856,63.2865 135.356,63.6198 134,64.5C 133.374,70.1949 133.541,75.8615 134.5,81.5C 132.598,78.6627 131.931,75.3293 132.5,71.5C 132.336,68.8127 132.503,66.146 133,63.5C 134.699,62.5939 136.533,62.2606 138.5,62.5 Z"/></g>
<g><path style="opacity:1" fill="#edebdb" d="M 138.5,63.5 C 139.167,63.5 139.833,63.5 140.5,63.5C 141.877,65.2895 142.877,67.2895 143.5,69.5C 143.5,73.8333 143.5,78.1667 143.5,82.5C 140.5,82.5 137.5,82.5 134.5,82.5C 134.5,82.1667 134.5,81.8333 134.5,81.5C 133.541,75.8615 133.374,70.1949 134,64.5C 135.356,63.6198 136.856,63.2865 138.5,63.5 Z"/></g>
<g><path style="opacity:1" fill="#3b3a34" d="M 140.5,63.5 C 141.5,63.5 142.5,63.5 143.5,63.5C 144.467,67.2403 145.134,71.0736 145.5,75C 145.497,77.6903 145.164,80.1903 144.5,82.5C 144.818,77.9677 144.485,73.6344 143.5,69.5C 142.877,67.2895 141.877,65.2895 140.5,63.5 Z"/></g>
<g><path style="opacity:1" fill="#eca296" d="M 37.5,51.5 C 37.5,62.8333 37.5,74.1667 37.5,85.5C 36.8333,74.8333 36.1667,64.1667 35.5,53.5C 35.8333,52.5 36.5,51.8333 37.5,51.5 Z"/></g>
<g><path style="opacity:1" fill="#da4b47" d="M 42.5,46.5 C 43.5,46.5 44.5,46.5 45.5,46.5C 45.1795,51.6946 45.5128,56.6946 46.5,61.5C 46.5,62.1667 46.5,62.8333 46.5,63.5C 46.5,68.1667 46.5,72.8333 46.5,77.5C 45.71,76.3915 45.21,75.0581 45,73.5C 44.8319,64.8142 44.3319,56.1475 43.5,47.5C 42.1861,48.3128 41.0195,49.3128 40,50.5C 39.3333,61.5 39.3333,72.5 40,83.5C 40.5133,84.5266 41.0133,85.5266 41.5,86.5C 40.391,86.4431 39.391,86.1098 38.5,85.5C 38.1667,85.5 37.8333,85.5 37.5,85.5C 37.5,74.1667 37.5,62.8333 37.5,51.5C 38.806,49.5273 40.4727,47.8606 42.5,46.5 Z"/></g>
<g><path style="opacity:1" fill="#9f9f98" d="M 143.5,69.5 C 144.485,73.6344 144.818,77.9677 144.5,82.5C 144.5,82.8333 144.5,83.1667 144.5,83.5C 143.833,83.5 143.167,83.5 142.5,83.5C 139.504,85.0759 136.838,84.7426 134.5,82.5C 137.5,82.5 140.5,82.5 143.5,82.5C 143.5,78.1667 143.5,73.8333 143.5,69.5 Z"/></g>
<g><path style="opacity:1" fill="#dd1d23" d="M 46.5,77.5 C 53.3709,78.7767 60.3709,78.7767 67.5,77.5C 70.7431,78.58 74.0764,78.7466 77.5,78C 78.056,77.6174 78.3893,77.1174 78.5,76.5C 79.8858,74.3874 79.5524,72.3874 77.5,70.5C 78.4465,68.941 79.1132,67.2743 79.5,65.5C 79.2528,64.2867 78.5862,63.62 77.5,63.5C 78.2598,62.1067 78.9265,60.6067 79.5,59C 79.3333,58.1667 79.1667,57.3333 79,56.5C 77.4905,55.9103 75.9905,55.2436 74.5,54.5C 75.3569,53.5748 76.3569,52.9081 77.5,52.5C 79.861,52.3259 82.1944,51.9926 84.5,51.5C 84.5,62.8333 84.5,74.1667 84.5,85.5C 70.9895,85.1711 57.6562,85.5044 44.5,86.5C 43.5,86.5 42.5,86.5 41.5,86.5C 41.0133,85.5266 40.5133,84.5266 40,83.5C 39.3333,72.5 39.3333,61.5 40,50.5C 41.0195,49.3128 42.1861,48.3128 43.5,47.5C 44.3319,56.1475 44.8319,64.8142 45,73.5C 45.21,75.0581 45.71,76.3915 46.5,77.5 Z"/></g>
<g><path style="opacity:1" fill="#e77175" d="M 64.5,73.5 C 65.1667,73.5 65.8333,73.5 66.5,73.5C 66.5,74.1667 66.8333,74.5 67.5,74.5C 68.1667,75.1667 68.8333,75.8333 69.5,76.5C 71.6282,77.6291 73.9615,77.7958 76.5,77C 77.3366,75.9887 77.67,74.8221 77.5,73.5C 78.404,74.209 78.7373,75.209 78.5,76.5C 78.3893,77.1174 78.056,77.6174 77.5,78C 74.0764,78.7466 70.7431,78.58 67.5,77.5C 66.791,76.596 65.791,76.2627 64.5,76.5C 64.5,75.5 64.5,74.5 64.5,73.5 Z"/></g>
<g><path style="opacity:1" fill="#e04e4d" d="M 58.5,76.5 C 59.1667,76.5 59.8333,76.5 60.5,76.5C 61.8333,77.8333 63.1667,77.8333 64.5,76.5C 65.791,76.2627 66.791,76.596 67.5,77.5C 60.3709,78.7767 53.3709,78.7767 46.5,77.5C 50.64,76.8378 54.64,76.5045 58.5,76.5 Z"/></g>
<g><path style="opacity:1" fill="#f8bdbb" d="M 72.5,67.5 C 72.5,69.1667 72.5,70.8333 72.5,72.5C 74.4147,72.2155 76.0813,72.5489 77.5,73.5C 77.67,74.8221 77.3366,75.9887 76.5,77C 73.9615,77.7958 71.6282,77.6291 69.5,76.5C 71.604,76.7989 73.604,76.4656 75.5,75.5C 72.428,74.6976 70.7613,72.6976 70.5,69.5C 70.7472,68.2867 71.4138,67.62 72.5,67.5 Z"/></g>
<g><path style="opacity:1" fill="#fabbba" d="M 46.5,63.5 C 49.3297,63.6941 51.9963,64.3608 54.5,65.5C 54.5299,66.4972 54.0299,67.1639 53,67.5C 51.3745,66.7113 49.8745,65.7113 48.5,64.5C 47.1667,68.5 47.1667,72.5 48.5,76.5C 49.3857,75.675 49.719,74.675 49.5,73.5C 52.1667,74.5 54.8333,75.5 57.5,76.5C 57.5,72.5 57.5,68.5 57.5,64.5C 56.5,64.5 55.5,64.5 54.5,64.5C 54.5,64.1667 54.5,63.8333 54.5,63.5C 56.099,63.2322 57.4324,63.5655 58.5,64.5C 58.5,68.5 58.5,72.5 58.5,76.5C 54.64,76.5045 50.64,76.8378 46.5,77.5C 46.5,72.8333 46.5,68.1667 46.5,63.5 Z"/></g>
<g><path style="opacity:1" fill="#fff0f0" d="M 72.5,67.5 C 71.4138,67.62 70.7472,68.2867 70.5,69.5C 70.7613,72.6976 72.428,74.6976 75.5,75.5C 73.604,76.4656 71.604,76.7989 69.5,76.5C 68.8333,75.8333 68.1667,75.1667 67.5,74.5C 67.3359,71.8127 67.5026,69.146 68,66.5C 70.2185,64.3813 72.7185,64.048 75.5,65.5C 74.3984,66.1757 73.3984,66.8423 72.5,67.5 Z"/></g>
<g><path style="opacity:1" fill="#ffc9c9" d="M 63.5,67.5 C 64.4614,69.2646 64.7947,71.2646 64.5,73.5C 64.5,74.5 64.5,75.5 64.5,76.5C 63.1667,77.8333 61.8333,77.8333 60.5,76.5C 60.5,73.1667 60.5,69.8333 60.5,66.5C 61.791,66.2627 62.791,66.596 63.5,67.5 Z"/></g>
<g><path style="opacity:1" fill="#fffaf7" d="M 63.5,67.5 C 63.8174,70.5719 63.4841,73.5719 62.5,76.5C 62.1667,75 61.8333,73.5 61.5,72C 61.5687,70.0145 62.2353,68.5145 63.5,67.5 Z"/></g>
<g><path style="opacity:1" fill="#de5052" d="M 77.5,63.5 C 78.5862,63.62 79.2528,64.2867 79.5,65.5C 79.1132,67.2743 78.4465,68.941 77.5,70.5C 79.5524,72.3874 79.8858,74.3874 78.5,76.5C 78.7373,75.209 78.404,74.209 77.5,73.5C 76.0813,72.5489 74.4147,72.2155 72.5,72.5C 72.5,70.8333 72.5,69.1667 72.5,67.5C 74.1667,67.5 75.8333,67.5 77.5,67.5C 77.5,66.1667 77.5,64.8333 77.5,63.5 Z"/></g>
<g><path style="opacity:1" fill="#fdf4f1" d="M 54.5,65.5 C 54.5,65.1667 54.5,64.8333 54.5,64.5C 55.5,64.5 56.5,64.5 57.5,64.5C 57.5,68.5 57.5,72.5 57.5,76.5C 54.8333,75.5 52.1667,74.5 49.5,73.5C 49.719,74.675 49.3857,75.675 48.5,76.5C 47.1667,72.5 47.1667,68.5 48.5,64.5C 49.8745,65.7113 51.3745,66.7113 53,67.5C 54.0299,67.1639 54.5299,66.4972 54.5,65.5 Z"/></g>
<g><path style="opacity:1" fill="#da4b4e" d="M 64.5,57.5 C 65.1667,57.5 65.8333,57.5 66.5,57.5C 66.8333,57.5 67.1667,57.5 67.5,57.5C 68.1589,59.1379 68.8256,60.8045 69.5,62.5C 68.4756,63.8518 67.4756,65.1851 66.5,66.5C 65.0047,66.5852 64.0047,65.9185 63.5,64.5C 64.3742,62.2534 64.7076,59.9201 64.5,57.5 Z"/></g>
<g><path style="opacity:1" fill="#e16166" d="M 50.5,59.5 C 52.1667,59.5 53.8333,59.5 55.5,59.5C 54.4324,60.4345 53.099,60.7678 51.5,60.5C 51.5,61.5 51.5,62.5 51.5,63.5C 52.5,63.5 53.5,63.5 54.5,63.5C 54.5,63.8333 54.5,64.1667 54.5,64.5C 54.5,64.8333 54.5,65.1667 54.5,65.5C 51.9963,64.3608 49.3297,63.6941 46.5,63.5C 46.5,62.8333 46.5,62.1667 46.5,61.5C 48.099,61.7678 49.4324,61.4345 50.5,60.5C 50.5,60.1667 50.5,59.8333 50.5,59.5 Z"/></g>
<g><path style="opacity:1" fill="#d8282a" d="M 54.5,63.5 C 53.5,63.5 52.5,63.5 51.5,63.5C 51.5,62.5 51.5,61.5 51.5,60.5C 53.099,60.7678 54.4324,60.4345 55.5,59.5C 56.5832,59.4606 57.5832,59.1272 58.5,58.5C 59.731,59.6507 59.731,60.8173 58.5,62C 56.9419,62.21 55.6085,62.71 54.5,63.5 Z"/></g>
<g><path style="opacity:1" fill="#e1605f" d="M 58.5,56.5 C 59.9649,57.4057 60.9649,58.739 61.5,60.5C 60.1667,61.8333 60.1667,63.1667 61.5,64.5C 60.5754,65.5624 59.5754,65.5624 58.5,64.5C 57.4324,63.5655 56.099,63.2322 54.5,63.5C 55.6085,62.71 56.9419,62.21 58.5,62C 59.731,60.8173 59.731,59.6507 58.5,58.5C 57.5832,59.1272 56.5832,59.4606 55.5,59.5C 56.1667,58.1667 57.1667,57.1667 58.5,56.5 Z"/></g>
<g><path style="opacity:1" fill="#e79699" d="M 50.5,51.5 C 51.5,51.5 52.5,51.5 53.5,51.5C 53.5,52.8333 53.5,54.1667 53.5,55.5C 52.5,55.5 51.5,55.5 50.5,55.5C 50.5,54.1667 50.5,52.8333 50.5,51.5 Z"/></g>
<g><path style="opacity:1" fill="#484842" d="M 150.5,74.5 C 151.879,75.6089 153.545,76.2755 155.5,76.5C 160.141,75.7692 164.807,75.4359 169.5,75.5C 170.434,76.5676 170.768,77.901 170.5,79.5C 167.941,79.1984 165.607,79.5318 163.5,80.5C 158.838,80.9625 154.171,81.4625 149.5,82C 148.619,82.7083 147.953,83.5416 147.5,84.5C 146.512,89.6405 146.179,94.9738 146.5,100.5C 145.511,95.0247 145.178,89.358 145.5,83.5C 147.262,81.2995 149.596,80.1328 152.5,80C 158.252,79.6918 163.919,78.8585 169.5,77.5C 163.235,77.1818 156.902,77.1818 150.5,77.5C 150.5,76.5 150.5,75.5 150.5,74.5 Z"/></g>
<g><path style="opacity:0.983" fill="#dddacf" d="M 163.5,80.5 C 165.607,79.5318 167.941,79.1984 170.5,79.5C 171.5,79.5 172.5,79.5 173.5,79.5C 175.392,80.7017 177.226,82.035 179,83.5C 179.499,87.1516 179.665,90.8183 179.5,94.5C 179.167,94.5 178.833,94.5 178.5,94.5C 178.5,92.8333 178.5,91.1667 178.5,89.5C 174.932,89.7593 173.599,91.7593 174.5,95.5C 173.916,90.4665 172.916,85.4665 171.5,80.5C 168.833,80.5 166.167,80.5 163.5,80.5 Z"/></g>
<g><path style="opacity:1" fill="#f5f1e0" d="M 163.5,80.5 C 166.167,80.5 168.833,80.5 171.5,80.5C 172.916,85.4665 173.916,90.4665 174.5,95.5C 176.099,95.7678 177.432,95.4345 178.5,94.5C 178.833,94.5 179.167,94.5 179.5,94.5C 179.833,95.8333 180.167,97.1667 180.5,98.5C 176.774,98.8226 173.107,98.4892 169.5,97.5C 169.987,96.5539 170.32,95.5539 170.5,94.5C 168.432,91.7585 167.098,88.7585 166.5,85.5C 164.369,84.6862 162.036,84.1862 159.5,84C 161.093,83.0513 162.426,81.8846 163.5,80.5 Z"/></g>
<g><path style="opacity:1" fill="#ea7f78" d="M 86.5,48.5 C 87.1667,48.8333 87.8333,49.1667 88.5,49.5C 88.5,50.1667 88.5,50.8333 88.5,51.5C 88.6665,62.8382 88.4999,74.1716 88,85.5C 87.5,86 87,86.5 86.5,87C 78.5,87.1667 70.5,87.3333 62.5,87.5C 54.1376,87.4978 46.1376,86.8311 38.5,85.5C 39.391,86.1098 40.391,86.4431 41.5,86.5C 42.5,86.5 43.5,86.5 44.5,86.5C 58.1707,86.6666 71.8374,86.4999 85.5,86C 86.4888,73.58 86.8221,61.08 86.5,48.5 Z"/></g>
<g><path style="opacity:0.682" fill="#898881" d="M 175.5,84.5 C 176.5,84.5 177.5,84.5 178.5,84.5C 178.5,85.5 178.5,86.5 178.5,87.5C 175.433,87.8795 174.433,86.8795 175.5,84.5 Z"/></g>
<g><path style="opacity:1" fill="#9f9c93" d="M 178.5,94.5 C 177.432,95.4345 176.099,95.7678 174.5,95.5C 173.599,91.7593 174.932,89.7593 178.5,89.5C 178.5,91.1667 178.5,92.8333 178.5,94.5 Z"/></g>
<g><path style="opacity:1" fill="#b0ada1" d="M 111.5,81.5 C 111.819,86.3633 111.486,91.03 110.5,95.5C 106.404,96.2304 103.071,98.2304 100.5,101.5C 102.254,97.0119 105.588,94.6786 110.5,94.5C 110.182,89.9677 110.515,85.6344 111.5,81.5 Z"/></g>
<g><path style="opacity:0.999" fill="#404040" d="M 112.5,54.5 C 112.833,54.5 113.167,54.5 113.5,54.5C 113.5,55.8333 113.5,57.1667 113.5,58.5C 113.5,70.5 113.5,82.5 113.5,94.5C 122.751,93.9321 129.418,97.7654 133.5,106C 137.5,106.667 141.5,106.667 145.5,106C 146.406,104.301 146.739,102.467 146.5,100.5C 152.744,101.458 159.077,101.791 165.5,101.5C 169.857,101.414 174.19,101.08 178.5,100.5C 179.167,100.5 179.5,100.833 179.5,101.5C 179.665,104.85 179.498,108.183 179,111.5C 178.167,112.333 177.333,113.167 176.5,114C 171.547,114.995 166.547,115.662 161.5,116C 160.663,117.011 160.33,118.178 160.5,119.5C 160.167,119.5 159.833,119.5 159.5,119.5C 159.5,117.833 159.5,116.167 159.5,114.5C 149.167,114.5 138.833,114.5 128.5,114.5C 127.26,106.092 122.426,101.092 114,99.5C 111.056,99.8003 108.889,101.134 107.5,103.5C 106.542,103.953 105.708,104.619 105,105.5C 104.833,105.167 104.667,104.833 104.5,104.5C 105.526,102.169 106.86,100.169 108.5,98.5C 109.401,97.7095 110.068,96.7095 110.5,95.5C 111.486,91.03 111.819,86.3633 111.5,81.5C 111.5,80.8333 111.5,80.1667 111.5,79.5C 112.492,71.6841 112.826,63.6841 112.5,55.5C 112.5,55.1667 112.5,54.8333 112.5,54.5 Z"/></g>
<g><path style="opacity:1" fill="#dedbcf" d="M 163.5,80.5 C 162.426,81.8846 161.093,83.0513 159.5,84C 162.036,84.1862 164.369,84.6862 166.5,85.5C 167.098,88.7585 168.432,91.7585 170.5,94.5C 170.32,95.5539 169.987,96.5539 169.5,97.5C 173.107,98.4892 176.774,98.8226 180.5,98.5C 181.794,102.934 181.794,107.267 180.5,111.5C 180.813,107.958 180.479,104.625 179.5,101.5C 179.5,100.833 179.167,100.5 178.5,100.5C 174.313,99.3376 169.98,99.3376 165.5,100.5C 166.207,97.2139 166.54,93.8806 166.5,90.5C 164.901,90.2322 163.568,90.5655 162.5,91.5C 161.5,91.5 160.5,91.5 159.5,91.5C 156.859,89.6766 154.192,87.6766 151.5,85.5C 150.311,84.5713 148.978,84.238 147.5,84.5C 147.953,83.5416 148.619,82.7083 149.5,82C 154.171,81.4625 158.838,80.9625 163.5,80.5 Z"/></g>
<g><path style="opacity:1" fill="#6f6c5f" d="M 166.5,85.5 C 166.5,86.8333 166.5,88.1667 166.5,89.5C 163.833,89.5 161.167,89.5 158.5,89.5C 158.33,88.1779 158.663,87.0113 159.5,86C 161.81,85.5034 164.143,85.3367 166.5,85.5 Z"/></g>
<g><path style="opacity:1" fill="#bdb9ae" d="M 39.5,99.5 C 44.1394,97.9898 48.4727,98.8231 52.5,102C 67.8297,102.5 83.163,102.667 98.5,102.5C 83.3424,103.496 68.0091,103.83 52.5,103.5C 48.6487,100.749 44.3154,99.4153 39.5,99.5 Z"/></g>
<g><path style="opacity:1" fill="#f5f1e2" d="M 147.5,84.5 C 148.978,84.238 150.311,84.5713 151.5,85.5C 154.192,87.6766 156.859,89.6766 159.5,91.5C 158.659,93.3792 158.325,95.3792 158.5,97.5C 161.288,97.9231 163.288,96.9231 164.5,94.5C 164.145,93.4777 163.478,92.811 162.5,92.5C 162.5,92.1667 162.5,91.8333 162.5,91.5C 163.568,90.5655 164.901,90.2322 166.5,90.5C 166.54,93.8806 166.207,97.2139 165.5,100.5C 159.833,100.5 154.167,100.5 148.5,100.5C 147.658,95.213 147.324,89.8797 147.5,84.5 Z"/></g>
<g><path style="opacity:1" fill="#a7a39c" d="M 159.5,91.5 C 160.5,91.5 161.5,91.5 162.5,91.5C 162.5,91.8333 162.5,92.1667 162.5,92.5C 163.478,92.811 164.145,93.4777 164.5,94.5C 163.288,96.9231 161.288,97.9231 158.5,97.5C 158.325,95.3792 158.659,93.3792 159.5,91.5 Z"/></g>
<g><path style="opacity:1" fill="#4f4c47" d="M 162.5,92.5 C 162.762,93.9778 162.429,95.3112 161.5,96.5C 158.806,94.5365 159.139,93.2032 162.5,92.5 Z"/></g>
<g><path style="opacity:1" fill="#3f3f41" d="M 108.5,98.5 C 106.86,100.169 105.526,102.169 104.5,104.5C 104.667,104.833 104.833,105.167 105,105.5C 105.708,104.619 106.542,103.953 107.5,103.5C 114.25,100.607 119.75,102.273 124,108.5C 124.499,112.486 124.666,116.486 124.5,120.5C 123.82,123.393 122.487,125.893 120.5,128C 122.134,128.494 123.801,128.66 125.5,128.5C 125.158,129.338 124.492,129.672 123.5,129.5C 117.697,129.791 112.031,129.125 106.5,127.5C 103.788,123.637 101.788,119.471 100.5,115C 94.8333,114.333 89.1667,114.333 83.5,115C 82.6634,116.011 82.33,117.178 82.5,118.5C 82.5,118.833 82.5,119.167 82.5,119.5C 82.1667,119.5 81.8333,119.5 81.5,119.5C 81.5,118.167 81.5,116.833 81.5,115.5C 73.6841,114.508 65.6841,114.174 57.5,114.5C 58.2503,110.225 56.917,106.891 53.5,104.5C 69.1808,104.833 84.8475,104.499 100.5,103.5C 102.699,100.945 105.366,99.2785 108.5,98.5 Z"/></g>
<g><path style="opacity:1" fill="#bbbab2" d="M 147.5,84.5 C 147.324,89.8797 147.658,95.213 148.5,100.5C 154.167,100.5 159.833,100.5 165.5,100.5C 165.5,100.833 165.5,101.167 165.5,101.5C 159.077,101.791 152.744,101.458 146.5,100.5C 146.179,94.9738 146.512,89.6405 147.5,84.5 Z"/></g>
<g><path style="opacity:1" fill="#7f7f76" d="M 178.5,100.5 C 174.19,101.08 169.857,101.414 165.5,101.5C 165.5,101.167 165.5,100.833 165.5,100.5C 169.98,99.3376 174.313,99.3376 178.5,100.5 Z"/></g>
<g><path style="opacity:1" fill="#c2c0b7" d="M 37.5,100.5 C 36.8333,101.167 36.1667,101.833 35.5,102.5C 29.5907,103.455 23.5907,103.789 17.5,103.5C 17.5,106.833 17.5,110.167 17.5,113.5C 16.5184,110.038 16.185,106.371 16.5,102.5C 23.7243,103.001 30.7243,102.334 37.5,100.5 Z"/></g>
<g><path style="opacity:1" fill="#090a06" d="M 174.5,101.5 C 175.675,101.281 176.675,101.614 177.5,102.5C 172.552,104.848 167.552,105.014 162.5,103C 166.688,102.824 170.688,102.324 174.5,101.5 Z"/></g>
<g><path style="opacity:1" fill="#767672" d="M 35.5,102.5 C 30.2649,104.45 24.5982,105.117 18.5,104.5C 18.5,107.833 18.5,111.167 18.5,114.5C 17.8333,114.5 17.5,114.167 17.5,113.5C 17.5,110.167 17.5,106.833 17.5,103.5C 23.5907,103.789 29.5907,103.455 35.5,102.5 Z"/></g>
<g><path style="opacity:1" fill="#5f5e59" d="M 110.5,95.5 C 110.068,96.7095 109.401,97.7095 108.5,98.5C 105.366,99.2785 102.699,100.945 100.5,103.5C 84.8475,104.499 69.1808,104.833 53.5,104.5C 53.1667,104.5 52.8333,104.5 52.5,104.5C 52.5,104.167 52.5,103.833 52.5,103.5C 68.0091,103.83 83.3424,103.496 98.5,102.5C 99.1667,102.167 99.8333,101.833 100.5,101.5C 103.071,98.2304 106.404,96.2304 110.5,95.5 Z"/></g>
<g><path style="opacity:1" fill="#1f1f1f" d="M 109.5,109.5 C 112.466,109.11 115.132,109.777 117.5,111.5C 120.18,120.157 117.514,122.824 109.5,119.5C 108.334,116.163 108.334,112.83 109.5,109.5 Z"/></g>
<g><path style="opacity:0.188" fill="#9a9a9b" d="M 179.5,101.5 C 180.479,104.625 180.813,107.958 180.5,111.5C 179.71,112.794 178.71,113.961 177.5,115C 172.896,116.061 168.229,116.727 163.5,117C 162.309,117.698 161.309,118.531 160.5,119.5C 160.33,118.178 160.663,117.011 161.5,116C 166.547,115.662 171.547,114.995 176.5,114C 177.333,113.167 178.167,112.333 179,111.5C 179.498,108.183 179.665,104.85 179.5,101.5 Z"/></g>
<g><path style="opacity:0.999" fill="#070707" d="M 81.5,115.5 C 81.5,116.833 81.5,118.167 81.5,119.5C 76.7413,124.864 70.7413,126.864 63.5,125.5C 63.1667,125.5 62.8333,125.5 62.5,125.5C 59.4227,121.348 56.7561,121.682 54.5,126.5C 53.0222,126.762 51.6888,126.429 50.5,125.5C 51.2599,123.64 52.2599,121.973 53.5,120.5C 54.1663,116.979 54.8329,113.313 55.5,109.5C 56.4656,111.396 56.7989,113.396 56.5,115.5C 64.8333,115.5 73.1667,115.5 81.5,115.5 Z"/></g>
<g><path style="opacity:1" fill="#212123" d="M 52.5,104.5 C 52.8333,104.5 53.1667,104.5 53.5,104.5C 56.917,106.891 58.2503,110.225 57.5,114.5C 65.6841,114.174 73.6841,114.508 81.5,115.5C 73.1667,115.5 64.8333,115.5 56.5,115.5C 56.7989,113.396 56.4656,111.396 55.5,109.5C 54.8329,113.313 54.1663,116.979 53.5,120.5C 53.6655,116.486 53.4988,112.486 53,108.5C 52.5348,107.069 51.7014,105.903 50.5,105C 51.0944,104.536 51.7611,104.369 52.5,104.5 Z"/></g>
<g><path style="opacity:1" fill="#313132" d="M 159.5,119.5 C 159.167,119.5 158.833,119.5 158.5,119.5C 156.429,118.191 153.929,117.525 151,117.5C 145.503,117.056 140.003,116.722 134.5,116.5C 134.833,118.5 135.167,120.5 135.5,122.5C 134.571,121.064 133.405,119.731 132,118.5C 130.812,119.563 130.312,120.897 130.5,122.5C 130.167,122.5 129.833,122.5 129.5,122.5C 129.5,120.167 129.5,117.833 129.5,115.5C 128.5,115.5 127.5,115.5 126.5,115.5C 126.923,117.781 126.256,119.448 124.5,120.5C 124.666,116.486 124.499,112.486 124,108.5C 119.75,102.273 114.25,100.607 107.5,103.5C 108.889,101.134 111.056,99.8003 114,99.5C 122.426,101.092 127.26,106.092 128.5,114.5C 138.833,114.5 149.167,114.5 159.5,114.5C 159.5,116.167 159.5,117.833 159.5,119.5 Z"/></g>
<g><path style="opacity:0.447" fill="#8d8e8f" d="M 18.5,114.5 C 21.8499,114.335 25.1832,114.502 28.5,115C 30.1276,118.052 31.461,121.218 32.5,124.5C 30.3804,122.028 28.7137,119.194 27.5,116C 24.3054,115.819 21.3054,115.319 18.5,114.5 Z"/></g>
<g><path style="opacity:0.999" fill="#090909" d="M 158.5,119.5 C 157.911,122.276 156.578,124.61 154.5,126.5C 149.603,128.548 144.603,128.881 139.5,127.5C 138.833,127.5 138.5,127.167 138.5,126.5C 137.5,125.167 136.5,123.833 135.5,122.5C 135.167,120.5 134.833,118.5 134.5,116.5C 140.003,116.722 145.503,117.056 151,117.5C 153.929,117.525 156.429,118.191 158.5,119.5 Z"/></g>
<g><path style="opacity:0.043" fill="#8c8a88" d="M 135.5,122.5 C 136.5,123.833 137.5,125.167 138.5,126.5C 135.572,125.409 133.406,123.409 132,120.5C 131.722,121.416 131.222,122.082 130.5,122.5C 130.312,120.897 130.812,119.563 132,118.5C 133.405,119.731 134.571,121.064 135.5,122.5 Z"/></g>
<g><path style="opacity:1" fill="#403f40" d="M 39.5,99.5 C 44.3154,99.4153 48.6487,100.749 52.5,103.5C 52.5,103.833 52.5,104.167 52.5,104.5C 51.7611,104.369 51.0944,104.536 50.5,105C 51.7014,105.903 52.5348,107.069 53,108.5C 53.4988,112.486 53.6655,116.486 53.5,120.5C 52.2599,121.973 51.2599,123.64 50.5,125.5C 51.6888,126.429 53.0222,126.762 54.5,126.5C 54.5,126.833 54.5,127.167 54.5,127.5C 54.1583,128.338 53.4916,128.672 52.5,128.5C 45.3704,129.048 38.7038,127.715 32.5,124.5C 31.461,121.218 30.1276,118.052 28.5,115C 25.1832,114.502 21.8499,114.335 18.5,114.5C 18.5,111.167 18.5,107.833 18.5,104.5C 24.5982,105.117 30.2649,104.45 35.5,102.5C 36.1667,101.833 36.8333,101.167 37.5,100.5C 37.8417,99.6618 38.5084,99.3284 39.5,99.5 Z"/></g>
<g><path style="opacity:1" fill="#1f1e1e" d="M 38.5,109.5 C 46.2015,108.884 48.5348,112.217 45.5,119.5C 40.3895,121.733 37.3895,120.067 36.5,114.5C 36.9865,112.696 37.6532,111.029 38.5,109.5 Z"/></g>
<g><path style="opacity:0.282" fill="#767671" d="M 158.5,119.5 C 158.833,119.5 159.167,119.5 159.5,119.5C 159.833,119.5 160.167,119.5 160.5,119.5C 159.643,122.92 157.643,125.254 154.5,126.5C 156.578,124.61 157.911,122.276 158.5,119.5 Z"/></g>
<g><path style="opacity:0.196" fill="#5c5a58" d="M 81.5,119.5 C 81.8333,119.5 82.1667,119.5 82.5,119.5C 77.7166,127.085 71.3833,129.085 63.5,125.5C 70.7413,126.864 76.7413,124.864 81.5,119.5 Z"/></g>
<g><path style="opacity:1" fill="#181817" d="M 129.5,122.5 C 128.89,123.391 128.557,124.391 128.5,125.5C 127.833,126.833 126.833,127.833 125.5,128.5C 123.801,128.66 122.134,128.494 120.5,128C 122.487,125.893 123.82,123.393 124.5,120.5C 126.256,119.448 126.923,117.781 126.5,115.5C 127.5,115.5 128.5,115.5 129.5,115.5C 129.5,117.833 129.5,120.167 129.5,122.5 Z"/></g>
<g><path style="opacity:0.4" fill="#858485" d="M 106.5,127.5 C 104.807,126.525 103.307,125.192 102,123.5C 101.203,120.78 100.037,118.28 98.5,116C 93.8333,115.333 89.1667,115.333 84.5,116C 83.9341,116.995 83.2674,117.828 82.5,118.5C 82.33,117.178 82.6634,116.011 83.5,115C 89.1667,114.333 94.8333,114.333 100.5,115C 101.788,119.471 103.788,123.637 106.5,127.5 Z"/></g>
<g><path style="opacity:0.078" fill="#767271" d="M 129.5,122.5 C 129.833,122.5 130.167,122.5 130.5,122.5C 130.573,124.027 129.906,125.027 128.5,125.5C 128.557,124.391 128.89,123.391 129.5,122.5 Z"/></g>
<g><path style="opacity:0.102" fill="#6d6c69" d="M 62.5,125.5 C 60.9826,125.489 59.8159,124.823 59,123.5C 57.6288,125.041 56.1288,126.375 54.5,127.5C 54.5,127.167 54.5,126.833 54.5,126.5C 56.7561,121.682 59.4227,121.348 62.5,125.5 Z"/></g>
<g><path style="opacity:0.406" fill="#6d6967" d="M 32.5,124.5 C 38.7038,127.715 45.3704,129.048 52.5,128.5C 47.6842,129.65 42.6842,129.816 37.5,129C 35.3825,127.951 33.7158,126.451 32.5,124.5 Z"/></g>
<g><path style="opacity:0.4" fill="#7c7771" d="M 154.5,126.5 C 152.393,128.652 149.726,129.652 146.5,129.5C 143.845,129.56 141.511,128.893 139.5,127.5C 144.603,128.881 149.603,128.548 154.5,126.5 Z"/></g>
<g><path style="opacity:0.624" fill="#817f7d" d="M 106.5,127.5 C 112.031,129.125 117.697,129.791 123.5,129.5C 119.047,131.963 114.38,132.13 109.5,130C 108.058,129.623 107.058,128.79 106.5,127.5 Z"/></g>
</svg>
