<?xml version="1.0" encoding="UTF-8"?>
<!DOCTYPE svg PUBLIC "-//W3C//DTD SVG 1.1//EN" "http://www.w3.org/Graphics/SVG/1.1/DTD/svg11.dtd">
<svg xmlns="http://www.w3.org/2000/svg" version="1.1" width="109px" height="85px" style="shape-rendering:geometricPrecision; text-rendering:geometricPrecision; image-rendering:optimizeQuality; fill-rule:evenodd; clip-rule:evenodd" xmlns:xlink="http://www.w3.org/1999/xlink">
<g><path style="opacity:1" fill="#dcd8c2" d="M 35.5,14.5 C 48.3529,13.2868 61.3529,13.4535 74.5,15C 76.7441,17.3764 77.0774,20.0431 75.5,23C 79.8899,23.2593 83.8899,24.4259 87.5,26.5C 83.7845,26.3203 80.1178,26.6536 76.5,27.5C 73.3462,25.9741 70.0128,25.3075 66.5,25.5C 65.596,24.791 65.2627,23.791 65.5,22.5C 58.8732,21.6493 52.8732,19.316 47.5,15.5C 43.7016,14.5166 39.7016,14.1832 35.5,14.5 Z"/></g>
<g><path style="opacity:1" fill="#f3f1da" d="M 28.5,14.5 C 25.6799,18.4027 22.0133,21.0694 17.5,22.5C 16.8333,22.5 16.1667,22.5 15.5,22.5C 15.1667,22.5 14.8333,22.5 14.5,22.5C 14.5,19.8333 14.5,17.1667 14.5,14.5C 19.1667,14.5 23.8333,14.5 28.5,14.5 Z"/></g>
<g><path style="opacity:1" fill="#53672c" d="M 35.5,14.5 C 39.7016,14.1832 43.7016,14.5166 47.5,15.5C 52.8732,19.316 58.8732,21.6493 65.5,22.5C 65.2627,23.791 65.596,24.791 66.5,25.5C 66.5,25.8333 66.5,26.1667 66.5,26.5C 65.6554,27.6715 64.9887,29.0048 64.5,30.5C 64.5,31.1667 64.1667,31.5 63.5,31.5C 59.0102,31.6302 55.0102,30.9635 51.5,29.5C 49.0287,28.2641 47.0287,26.4308 45.5,24C 44.255,23.2086 42.9217,22.7086 41.5,22.5C 40.6799,20.8599 39.8466,19.1932 39,17.5C 38.6523,20.3424 37.1523,22.009 34.5,22.5C 32.8661,24.8513 30.5327,26.1847 27.5,26.5C 25.5648,25.8505 23.5648,25.5172 21.5,25.5C 21.5,26.8333 21.5,28.1667 21.5,29.5C 22.791,29.2627 23.791,29.596 24.5,30.5C 22.3296,31.7485 19.9963,32.7485 17.5,33.5C 16.4163,33.315 15.4163,32.9817 14.5,32.5C 13.8826,32.3893 13.3826,32.056 13,31.5C 12.3333,28.8333 12.3333,26.1667 13,23.5C 13.3826,22.944 13.8826,22.6107 14.5,22.5C 14.8333,22.5 15.1667,22.5 15.5,22.5C 15.5,23.5 15.5,24.5 15.5,25.5C 18.2476,25.5983 18.9143,24.5983 17.5,22.5C 22.0133,21.0694 25.6799,18.4027 28.5,14.5C 30.6687,13.9182 33.002,13.9182 35.5,14.5 Z"/></g>
<g><path style="opacity:1" fill="#f6e5cc" d="M 41.5,22.5 C 39.1667,22.5 36.8333,22.5 34.5,22.5C 37.1523,22.009 38.6523,20.3424 39,17.5C 39.8466,19.1932 40.6799,20.8599 41.5,22.5 Z"/></g>
<g><path style="opacity:1" fill="#ad3823" d="M 47.5,15.5 C 48.2341,16.7079 48.5674,18.0413 48.5,19.5C 47.5,19.5 46.5,19.5 45.5,19.5C 45.1568,17.5168 45.8235,16.1834 47.5,15.5 Z"/></g>
<g><path style="opacity:1" fill="#a44022" d="M 31.5,16.5 C 35.31,17.7542 35.31,18.7542 31.5,19.5C 31.5,18.5 31.5,17.5 31.5,16.5 Z"/></g>
<g><path style="opacity:1" fill="#b1332a" d="M 15.5,22.5 C 16.1667,22.5 16.8333,22.5 17.5,22.5C 18.9143,24.5983 18.2476,25.5983 15.5,25.5C 15.5,24.5 15.5,23.5 15.5,22.5 Z"/></g>
<g><path style="opacity:1" fill="#b3321e" d="M 58.5,25.5 C 59.5,25.5 60.5,25.5 61.5,25.5C 61.5,26.5 61.5,27.5 61.5,28.5C 60.5,28.5 59.5,28.5 58.5,28.5C 58.5,27.5 58.5,26.5 58.5,25.5 Z"/></g>
<g><path style="opacity:1" fill="#884421" d="M 27.5,26.5 C 27.2671,28.0618 26.6005,29.3951 25.5,30.5C 25.1667,30.5 24.8333,30.5 24.5,30.5C 23.791,29.596 22.791,29.2627 21.5,29.5C 21.5,28.1667 21.5,26.8333 21.5,25.5C 23.5648,25.5172 25.5648,25.8505 27.5,26.5 Z"/></g>
<g><path style="opacity:1" fill="#0a0c09" d="M 66.5,25.5 C 70.0128,25.3075 73.3462,25.9741 76.5,27.5C 80.1178,26.6536 83.7845,26.3203 87.5,26.5C 85.3647,28.369 82.6981,29.0356 79.5,28.5C 80.5,33.1667 81.5,37.8333 82.5,42.5C 85.7861,41.7929 89.1194,41.4595 92.5,41.5C 89.0722,43.4099 85.2388,44.7432 81,45.5C 80.502,48.4816 80.3354,51.4816 80.5,54.5C 79.8478,55.7251 78.6811,56.3917 77,56.5C 74.1658,56.0402 71.9991,54.5402 70.5,52C 68.1902,51.5034 65.8568,51.3367 63.5,51.5C 63.5,49.5 63.5,47.5 63.5,45.5C 63.5,40.8333 63.5,36.1667 63.5,31.5C 64.1667,31.5 64.5,31.1667 64.5,30.5C 65.4881,35.6405 65.8214,40.9738 65.5,46.5C 69.7016,46.8168 73.7016,46.4834 77.5,45.5C 78.7479,44.6661 79.4146,43.3328 79.5,41.5C 79.8284,38.4995 78.8284,36.1661 76.5,34.5C 75.3147,29.2315 71.9813,26.8982 66.5,27.5C 66.5,27.1667 66.5,26.8333 66.5,26.5C 66.5,26.1667 66.5,25.8333 66.5,25.5 Z"/></g>
<g><path style="opacity:1" fill="#81978c" d="M 66.5,27.5 C 71.9813,26.8982 75.3147,29.2315 76.5,34.5C 74.2407,35.344 73.2407,37.0107 73.5,39.5C 71.8568,37.0269 69.6902,35.0269 67,33.5C 66.5045,31.5273 66.3379,29.5273 66.5,27.5 Z"/></g>
<g><path style="opacity:1" fill="#d83637" d="M 34.5,22.5 C 36.8333,22.5 39.1667,22.5 41.5,22.5C 42.9217,22.7086 44.255,23.2086 45.5,24C 47.0287,26.4308 49.0287,28.2641 51.5,29.5C 51.6661,35.1764 51.4994,40.8431 51,46.5C 42.6667,47.8333 34.3333,47.8333 26,46.5C 25.5006,41.1771 25.334,35.8437 25.5,30.5C 26.6005,29.3951 27.2671,28.0618 27.5,26.5C 30.5327,26.1847 32.8661,24.8513 34.5,22.5 Z"/></g>
<g><path style="opacity:1" fill="#e9001b" d="M 30.5,42.5 C 31.1667,42.5 31.8333,42.5 32.5,42.5C 37.4053,43.4454 42.4053,43.7787 47.5,43.5C 47.4828,41.4352 47.1495,39.4352 46.5,37.5C 46.6716,36.5084 46.3382,35.8417 45.5,35.5C 45.5,35.1667 45.5,34.8333 45.5,34.5C 46.8333,33.8333 46.8333,33.1667 45.5,32.5C 45.7118,30.6159 46.7118,29.2826 48.5,28.5C 49.4959,34.4632 49.8293,40.4632 49.5,46.5C 42.1667,46.5 34.8333,46.5 27.5,46.5C 27.3379,44.4727 27.5045,42.4727 28,40.5C 28.7083,41.3805 29.5416,42.0472 30.5,42.5 Z"/></g>
<g><path style="opacity:1" fill="#f7d0d3" d="M 39.5,28.5 C 39.9227,30.7812 39.256,32.4479 37.5,33.5C 37.631,32.7611 37.4643,32.0944 37,31.5C 31.611,36.3096 29.4443,34.9762 30.5,27.5C 33.7131,27.19 36.7131,27.5233 39.5,28.5 Z"/></g>
<g><path style="opacity:1" fill="#ffe1e0" d="M 45.5,32.5 C 46.8333,33.1667 46.8333,33.8333 45.5,34.5C 41.5149,34.5601 39.8482,32.5601 40.5,28.5C 46.9769,26.7654 47.6436,27.5987 42.5,31C 43.2438,32.0386 44.2438,32.5386 45.5,32.5 Z"/></g>
<g><path style="opacity:1" fill="#567068" d="M 87.5,26.5 C 89.7387,31.2159 91.4054,36.2159 92.5,41.5C 89.1194,41.4595 85.7861,41.7929 82.5,42.5C 81.5,37.8333 80.5,33.1667 79.5,28.5C 82.6981,29.0356 85.3647,28.369 87.5,26.5 Z"/></g>
<g><path style="opacity:1" fill="#c6535b" d="M 39.5,28.5 C 39.8333,28.5 40.1667,28.5 40.5,28.5C 39.8482,32.5601 41.5149,34.5601 45.5,34.5C 45.5,34.8333 45.5,35.1667 45.5,35.5C 41.0917,35.062 39.4251,37.062 40.5,41.5C 40.1667,41.5 39.8333,41.5 39.5,41.5C 38.8333,36.1667 38.1667,36.1667 37.5,41.5C 37.1667,41.5 36.8333,41.5 36.5,41.5C 36.5,39.5 36.5,37.5 36.5,35.5C 37.3382,35.1583 37.6716,34.4916 37.5,33.5C 39.256,32.4479 39.9227,30.7812 39.5,28.5 Z"/></g>
<g><path style="opacity:1" fill="#e4e4d4" d="M 76.5,34.5 C 78.8284,36.1661 79.8284,38.4995 79.5,41.5C 79.4146,43.3328 78.7479,44.6661 77.5,45.5C 73.9319,45.2407 72.5985,43.2407 73.5,39.5C 73.2407,37.0107 74.2407,35.344 76.5,34.5 Z"/></g>
<g><path style="opacity:1" fill="#516960" d="M 66.5,26.5 C 66.5,26.8333 66.5,27.1667 66.5,27.5C 66.3379,29.5273 66.5045,31.5273 67,33.5C 69.6902,35.0269 71.8568,37.0269 73.5,39.5C 72.5985,43.2407 73.9319,45.2407 77.5,45.5C 73.7016,46.4834 69.7016,46.8168 65.5,46.5C 65.8214,40.9738 65.4881,35.6405 64.5,30.5C 64.9887,29.0048 65.6554,27.6715 66.5,26.5 Z"/></g>
<g><path style="opacity:1" fill="#eae6d8" d="M 92.5,41.5 C 95.8861,44.6482 97.5527,48.6482 97.5,53.5C 91.8791,54.3537 86.2124,54.687 80.5,54.5C 80.3354,51.4816 80.502,48.4816 81,45.5C 85.2388,44.7432 89.0722,43.4099 92.5,41.5 Z"/></g>
<g><path style="opacity:1" fill="#5c5243" d="M 86.5,46.5 C 87.9778,46.238 89.3112,46.5713 90.5,47.5C 89.8333,47.8333 89.1667,48.1667 88.5,48.5C 87.2867,48.2528 86.62,47.5862 86.5,46.5 Z"/></g>
<g><path style="opacity:1" fill="#f5eeda" d="M 51.5,29.5 C 55.0102,30.9635 59.0102,31.6302 63.5,31.5C 63.5,36.1667 63.5,40.8333 63.5,45.5C 62.8354,47.3691 62.1687,49.3691 61.5,51.5C 59.4835,52.1743 57.8168,53.3409 56.5,55C 47.0267,56.0504 37.6934,55.5504 28.5,53.5C 24.3451,55.1848 20.0118,55.8514 15.5,55.5C 15.5,54.8333 15.5,54.1667 15.5,53.5C 15.76,46.443 15.4267,39.443 14.5,32.5C 15.4163,32.9817 16.4163,33.315 17.5,33.5C 19.9963,32.7485 22.3296,31.7485 24.5,30.5C 24.8333,30.5 25.1667,30.5 25.5,30.5C 25.334,35.8437 25.5006,41.1771 26,46.5C 34.3333,47.8333 42.6667,47.8333 51,46.5C 51.4994,40.8431 51.6661,35.1764 51.5,29.5 Z"/></g>
<g><path style="opacity:1" fill="#d62b37" d="M 46.5,37.5 C 47.1495,39.4352 47.4828,41.4352 47.5,43.5C 42.4053,43.7787 37.4053,43.4454 32.5,42.5C 32.369,41.7611 32.5357,41.0944 33,40.5C 34.0407,42.3115 35.2073,42.6448 36.5,41.5C 36.8333,41.5 37.1667,41.5 37.5,41.5C 38.1667,42.8333 38.8333,42.8333 39.5,41.5C 39.8333,41.5 40.1667,41.5 40.5,41.5C 42.4844,42.6942 44.4844,42.6942 46.5,41.5C 45.675,40.6143 44.675,40.281 43.5,40.5C 43.5,39.5 43.5,38.5 43.5,37.5C 44.5,37.5 45.5,37.5 46.5,37.5 Z"/></g>
<g><path style="opacity:1" fill="#ffecf0" d="M 39.5,41.5 C 38.8333,42.8333 38.1667,42.8333 37.5,41.5C 38.1667,36.1667 38.8333,36.1667 39.5,41.5 Z"/></g>
<g><path style="opacity:1" fill="#fedfdd" d="M 45.5,35.5 C 46.3382,35.8417 46.6716,36.5084 46.5,37.5C 45.5,37.5 44.5,37.5 43.5,37.5C 43.5,38.5 43.5,39.5 43.5,40.5C 44.675,40.281 45.675,40.6143 46.5,41.5C 44.4844,42.6942 42.4844,42.6942 40.5,41.5C 39.4251,37.062 41.0917,35.062 45.5,35.5 Z"/></g>
<g><path style="opacity:1" fill="#fee9ea" d="M 36.5,35.5 C 36.5,37.5 36.5,39.5 36.5,41.5C 35.2073,42.6448 34.0407,42.3115 33,40.5C 32.5357,41.0944 32.369,41.7611 32.5,42.5C 31.8333,42.5 31.1667,42.5 30.5,42.5C 30.1924,40.076 30.5258,37.7427 31.5,35.5C 32.4776,35.9767 33.3109,36.6433 34,37.5C 34.4169,36.244 35.2502,35.5774 36.5,35.5 Z"/></g>
<g><path style="opacity:1" fill="#555041" d="M 87.5,49.5 C 88.7759,50.3864 88.7759,51.3864 87.5,52.5C 86.4376,51.5754 86.4376,50.5754 87.5,49.5 Z"/></g>
<g><path style="opacity:0.432" fill="#020201" d="M 15.5,53.5 C 15.5,54.1667 15.5,54.8333 15.5,55.5C 15.5,57.5 15.5,59.5 15.5,61.5C 19.4554,60.8625 22.122,62.3625 23.5,66C 22.9056,66.4643 22.2389,66.631 21.5,66.5C 19.4727,66.3379 17.4727,66.5045 15.5,67C 15.0426,67.414 14.7093,67.914 14.5,68.5C 17.0865,69.48 19.7531,69.8134 22.5,69.5C 30.3541,69.8459 34.5207,66.1792 35,58.5C 35.4828,59.448 35.6495,60.448 35.5,61.5C 42.979,61.984 50.3124,61.984 57.5,61.5C 57.4208,62.9305 57.7542,64.2638 58.5,65.5C 58.0431,66.2975 57.3764,66.6309 56.5,66.5C 55.8333,66.5 55.1667,66.5 54.5,66.5C 52.1073,65.79 49.6073,65.1233 47,64.5C 44.8646,66.2785 42.3646,66.9452 39.5,66.5C 37.2495,66.1814 35.2495,66.6814 33.5,68C 38.4889,68.4993 43.4889,68.6659 48.5,68.5C 50.6074,69.4682 52.9407,69.8016 55.5,69.5C 60.1595,70.1667 64.8262,70.3334 69.5,70C 70.056,69.6174 70.3893,69.1174 70.5,68.5C 73.8649,68.255 77.0316,68.9217 80,70.5C 82.0989,69.7135 84.2655,69.3801 86.5,69.5C 87.3696,71.0319 87.0362,72.5319 85.5,74C 78.8668,77.814 72.2002,81.314 65.5,84.5C 50.8333,84.5 36.1667,84.5 21.5,84.5C 18.6167,83.3939 15.7834,82.0606 13,80.5C 12.446,72.1397 12.7793,63.8064 14,55.5C 14.2784,54.5842 14.7784,53.9175 15.5,53.5 Z"/></g>
<g><path style="opacity:1" fill="#0c0b0a" d="M 86.5,64.5 C 86.5,64.8333 86.5,65.1667 86.5,65.5C 85.8333,65.8333 85.1667,66.1667 84.5,66.5C 79.9296,67.441 75.263,67.7744 70.5,67.5C 69.5768,68.3029 68.5768,68.4696 67.5,68C 69.2132,66.0749 70.5465,63.9082 71.5,61.5C 72.1667,62.5 72.8333,63.5 73.5,64.5C 75.6234,63.3063 77.9568,62.6397 80.5,62.5C 82.9522,62.5391 84.9522,63.2057 86.5,64.5 Z"/></g>
<g><path style="opacity:1" fill="#424141" d="M 63.5,45.5 C 63.5,47.5 63.5,49.5 63.5,51.5C 65.8568,51.3367 68.1902,51.5034 70.5,52C 71.9991,54.5402 74.1658,56.0402 77,56.5C 78.6811,56.3917 79.8478,55.7251 80.5,54.5C 86.2124,54.687 91.8791,54.3537 97.5,53.5C 97.6633,55.8568 97.4966,58.1902 97,60.5C 93.0787,60.9441 89.5787,62.2774 86.5,64.5C 84.9522,63.2057 82.9522,62.5391 80.5,62.5C 77.9568,62.6397 75.6234,63.3063 73.5,64.5C 72.8333,63.5 72.1667,62.5 71.5,61.5C 70.5465,63.9082 69.2132,66.0749 67.5,68C 68.5768,68.4696 69.5768,68.3029 70.5,67.5C 70.5,67.8333 70.5,68.1667 70.5,68.5C 70.3893,69.1174 70.056,69.6174 69.5,70C 64.8262,70.3334 60.1595,70.1667 55.5,69.5C 56.1098,68.609 56.4431,67.609 56.5,66.5C 57.3764,66.6309 58.0431,66.2975 58.5,65.5C 57.7542,64.2638 57.4208,62.9305 57.5,61.5C 50.3124,61.984 42.979,61.984 35.5,61.5C 35.6495,60.448 35.4828,59.448 35,58.5C 34.5207,66.1792 30.3541,69.8459 22.5,69.5C 22.4431,68.391 22.1098,67.391 21.5,66.5C 22.2389,66.631 22.9056,66.4643 23.5,66C 22.122,62.3625 19.4554,60.8625 15.5,61.5C 15.5,59.5 15.5,57.5 15.5,55.5C 20.0118,55.8514 24.3451,55.1848 28.5,53.5C 37.6934,55.5504 47.0267,56.0504 56.5,55C 57.8168,53.3409 59.4835,52.1743 61.5,51.5C 62.1687,49.3691 62.8354,47.3691 63.5,45.5 Z"/></g>
<g><path style="opacity:0.898" fill="#484644" d="M 54.5,66.5 C 52.2646,66.2053 50.2646,66.5386 48.5,67.5C 45.2869,67.81 42.2869,67.4767 39.5,66.5C 42.3646,66.9452 44.8646,66.2785 47,64.5C 49.6073,65.1233 52.1073,65.79 54.5,66.5 Z"/></g>
<g><path style="opacity:1" fill="#e4e0da" d="M 39.5,66.5 C 42.2869,67.4767 45.2869,67.81 48.5,67.5C 53.8333,67.8333 53.8333,68.1667 48.5,68.5C 43.4889,68.6659 38.4889,68.4993 33.5,68C 35.2495,66.6814 37.2495,66.1814 39.5,66.5 Z"/></g>
<g><path style="opacity:0.969" fill="#9a9691" d="M 48.5,67.5 C 50.2646,66.5386 52.2646,66.2053 54.5,66.5C 55.1667,66.5 55.8333,66.5 56.5,66.5C 56.4431,67.609 56.1098,68.609 55.5,69.5C 52.9407,69.8016 50.6074,69.4682 48.5,68.5C 53.8333,68.1667 53.8333,67.8333 48.5,67.5 Z"/></g>
<g><path style="opacity:0.106" fill="#dfdede" d="M 86.5,65.5 C 90.2108,67.1451 90.2108,68.4785 86.5,69.5C 85.8333,68.5 85.1667,67.5 84.5,66.5C 85.1667,66.1667 85.8333,65.8333 86.5,65.5 Z"/></g>
<g><path style="opacity:0.955" fill="#b1b1ac" d="M 21.5,66.5 C 22.1098,67.391 22.4431,68.391 22.5,69.5C 19.7531,69.8134 17.0865,69.48 14.5,68.5C 14.7093,67.914 15.0426,67.414 15.5,67C 17.4727,66.5045 19.4727,66.3379 21.5,66.5 Z"/></g>
<g><path style="opacity:0.914" fill="#646260" d="M 84.5,66.5 C 85.1667,67.5 85.8333,68.5 86.5,69.5C 84.2655,69.3801 82.0989,69.7135 80,70.5C 77.0316,68.9217 73.8649,68.255 70.5,68.5C 70.5,68.1667 70.5,67.8333 70.5,67.5C 75.263,67.7744 79.9296,67.441 84.5,66.5 Z"/></g>
</svg>
