<!DOCTYPE svg PUBLIC "-//W3C//DTD SVG 1.1//EN" "http://www.w3.org/Graphics/SVG/1.1/DTD/svg11.dtd"[]><svg xmlns="http://www.w3.org/2000/svg" version="1.1" width="205" height="140" style="shape-rendering:geometricPrecision; text-rendering:geometricPrecision; image-rendering:optimizeQuality; fill-rule:evenodd; clip-rule:evenodd" xmlns:xlink="http://www.w3.org/1999/xlink" viewBox="0 0 603 414"><g><path style="opacity:1" fill="#cdc6b0" d="M 209.5,-0.5 C 324.167,-0.5 438.833,-0.5 553.5,-0.5C 566.689,0.544131 580.022,1.7108 593.5,3C 594.807,4.94349 594.807,6.77682 593.5,8.5C 593.5,7.5 593.5,6.5 593.5,5.5C 469.167,5.5 344.833,5.5 220.5,5.5C 225.167,97.5004 229.833,189.5 234.5,281.5C 232.246,280.876 230.579,279.543 229.5,277.5C 230.163,275.359 230.497,273.025 230.5,270.5C 227.308,214.858 224.474,159.192 222,103.5C 222.487,93.0537 219.654,83.7203 213.5,75.5C 214.139,74.9032 214.472,74.0698 214.5,73C 212.267,48.5408 210.6,24.0408 209.5,-0.5 Z" /></g><g><path style="opacity:1" fill="#f9f3de" d="M 593.5,8.5 C 593.232,23.1863 592.565,37.853 591.5,52.5C 591.028,58.8162 589.694,64.9829 587.5,71C 587.417,80.8746 587.417,90.5412 587.5,100C 586.925,104.901 585.925,109.734 584.5,114.5C 583.761,136.207 582.595,157.873 581,179.5C 579.884,182.561 579.051,185.728 578.5,189C 578.752,191.468 579.086,193.968 579.5,196.5C 578.975,197.192 578.308,197.692 577.5,198C 578.72,199.525 579.387,201.359 579.5,203.5C 579.333,205.167 579.167,206.833 579,208.5C 577.633,207.476 576.8,207.976 576.5,210C 575.894,213.475 576.561,216.809 578.5,220C 577.685,227.443 577.685,234.776 578.5,242C 577.997,257.119 576.664,272.119 574.5,287C 575.863,292.224 575.529,297.391 573.5,302.5C 571.225,303.107 568.891,303.441 566.5,303.5C 545.176,302.736 523.843,302.236 502.5,302C 501.36,300.027 500.027,298.193 498.5,296.5C 494.369,299.805 490.869,298.471 488,292.5C 487.667,293.167 487.333,293.833 487,294.5C 485.806,293.57 484.473,292.903 483,292.5C 473.08,291.647 463.247,291.647 453.5,292.5C 442.682,293.586 432.682,296.919 423.5,302.5C 366.829,302.833 310.163,302.5 253.5,301.5C 247.82,294.155 241.487,287.488 234.5,281.5C 229.833,189.5 225.167,97.5004 220.5,5.5C 344.833,5.5 469.167,5.5 593.5,5.5C 593.5,6.5 593.5,7.5 593.5,8.5 Z" /></g><g><path style="opacity:1" fill="#df1a1e" d="M 494.5,79.5 C 494.667,133.501 494.5,187.501 494,241.5C 492.812,242.563 492.312,243.897 492.5,245.5C 492.5,246.167 492.167,246.5 491.5,246.5C 432.166,246.667 372.832,246.5 313.5,246C 312.953,245.075 312.287,244.242 311.5,243.5C 310.333,184.503 310.167,125.503 311,66.5C 311.652,64.2769 313.152,63.1102 315.5,63C 373.167,62.3333 430.833,62.3333 488.5,63C 491.2,63.9673 493.034,65.8006 494,68.5C 494.499,72.1516 494.665,75.8183 494.5,79.5 Z" /></g><g><path style="opacity:1" fill="#f5f0dc" d="M 213.5,75.5 C 219.654,83.7203 222.487,93.0537 222,103.5C 224.474,159.192 227.308,214.858 230.5,270.5C 230.497,273.025 230.163,275.359 229.5,277.5C 225.165,274.689 220.665,272.022 216,269.5C 215.819,266.305 215.319,263.305 214.5,260.5C 210.245,209.238 206.745,157.905 204,106.5C 203.268,96.1602 198.101,89.3269 188.5,86C 165.481,81.7264 142.814,83.0597 120.5,90C 115.008,92.5787 109.675,95.412 104.5,98.5C 99.4054,95.6278 94.072,93.6278 88.5,92.5C 101.878,82.4838 116.878,75.6504 133.5,72C 155.293,66.9901 177.293,65.6567 199.5,68C 204.962,69.2278 209.629,71.7278 213.5,75.5 Z" /></g><g><path style="opacity:0.999" fill="#030302" d="M 214.5,260.5 C 214.5,263.167 214.5,265.833 214.5,268.5C 188.604,259.416 163.27,260.916 138.5,273C 128.921,278.585 120.587,285.585 113.5,294C 99.5164,294.999 85.5164,295.499 71.5,295.5C 71.5,290.167 71.5,284.833 71.5,279.5C 71.7121,260.159 71.8787,240.826 72,221.5C 70.669,219.004 68.8356,217.004 66.5,215.5C 69.4886,178.224 77.8219,142.224 91.5,107.5C 89.4962,103.49 86.1629,101.49 81.5,101.5C 82.7181,97.6172 85.0515,94.6172 88.5,92.5C 94.072,93.6278 99.4054,95.6278 104.5,98.5C 109.675,95.412 115.008,92.5787 120.5,90C 142.814,83.0597 165.481,81.7264 188.5,86C 198.101,89.3269 203.268,96.1602 204,106.5C 206.745,157.905 210.245,209.238 214.5,260.5 Z" /></g><g><path style="opacity:1" fill="#cf433b" d="M 488.5,61.5 C 492.089,62.0922 494.422,64.0922 495.5,67.5C 495.5,71.5 495.5,75.5 495.5,79.5C 495.167,79.5 494.833,79.5 494.5,79.5C 494.665,75.8183 494.499,72.1516 494,68.5C 493.034,65.8006 491.2,63.9673 488.5,63C 430.833,62.3333 373.167,62.3333 315.5,63C 313.152,63.1102 311.652,64.2769 311,66.5C 310.167,125.503 310.333,184.503 311.5,243.5C 312.287,244.242 312.953,245.075 313.5,246C 372.832,246.5 432.166,246.667 491.5,246.5C 491.389,247.117 491.056,247.617 490.5,248C 431.5,248.667 372.5,248.667 313.5,248C 312,246.5 310.5,245 309,243.5C 308.008,183.751 308.341,124.084 310,64.5C 310.833,63.6667 311.667,62.8333 312.5,62C 371.166,61.5 429.832,61.3333 488.5,61.5 Z" /></g><g><path style="opacity:1" fill="#899a92" d="M 194.5,114.5 C 194.808,116.924 194.474,119.257 193.5,121.5C 192.201,122.09 191.368,123.09 191,124.5C 163.779,153.729 136.445,183.062 109,212.5C 107.871,214.141 106.371,215.141 104.5,215.5C 106.18,213.473 107.347,211.139 108,208.5C 108.778,190.167 109.111,171.833 109,153.5C 108.906,144.542 104.74,141.209 96.5,143.5C 96.1667,143.5 95.8333,143.5 95.5,143.5C 98.031,132.075 101.864,121.075 107,110.5C 111.655,105.087 117.488,101.587 124.5,100C 145.3,94.2552 166.3,93.2552 187.5,97C 193.059,101.503 195.392,107.337 194.5,114.5 Z" /></g><g><path style="opacity:1" fill="#546a64" d="M 81.5,101.5 C 86.1629,101.49 89.4962,103.49 91.5,107.5C 77.8219,142.224 69.4886,178.224 66.5,215.5C 60.4883,213.009 54.155,212.009 47.5,212.5C 54.8633,177.909 64.3633,143.909 76,110.5C 77.3571,107.102 79.1904,104.102 81.5,101.5 Z" /></g><g><path style="opacity:1" fill="#546c65" d="M 194.5,114.5 C 196.741,151.689 199.074,189.022 201.5,226.5C 166.158,226.285 130.825,226.619 95.5,227.5C 98.5,223.5 101.5,219.5 104.5,215.5C 106.371,215.141 107.871,214.141 109,212.5C 136.445,183.062 163.779,153.729 191,124.5C 191.368,123.09 192.201,122.09 193.5,121.5C 194.474,119.257 194.808,116.924 194.5,114.5 Z" /></g><g><path style="opacity:1" fill="#f8f3de" d="M 95.5,143.5 C 95.8333,143.5 96.1667,143.5 96.5,143.5C 98.1667,143.5 99.8333,143.5 101.5,143.5C 101.313,145.564 100.813,147.564 100,149.5C 99.9192,171.199 99.2525,192.866 98,214.5C 96.6569,215.214 95.3236,214.88 94,213.5C 91.5571,214.285 89.0571,214.119 86.5,213C 85.3588,210.217 83.5255,208.05 81,206.5C 80.5002,196.839 80.3335,187.172 80.5,177.5C 80.51,167.457 83.01,158.124 88,149.5C 90.1057,146.882 92.6057,144.882 95.5,143.5 Z" /></g><g><path style="opacity:1" fill="#e1e6dc" d="M 96.5,143.5 C 104.74,141.209 108.906,144.542 109,153.5C 109.111,171.833 108.778,190.167 108,208.5C 107.347,211.139 106.18,213.473 104.5,215.5C 98.1889,216.427 91.8556,216.594 85.5,216C 84.6266,214.955 83.6266,214.122 82.5,213.5C 81.5902,211.981 80.7568,210.315 80,208.5C 79.1748,197.992 79.3415,187.658 80.5,177.5C 80.3335,187.172 80.5002,196.839 81,206.5C 83.5255,208.05 85.3588,210.217 86.5,213C 89.0571,214.119 91.5571,214.285 94,213.5C 95.3236,214.88 96.6569,215.214 98,214.5C 99.2525,192.866 99.9192,171.199 100,149.5C 100.813,147.564 101.313,145.564 101.5,143.5C 99.8333,143.5 98.1667,143.5 96.5,143.5 Z" /></g><g><path style="opacity:1" fill="#bfc5d0" d="M 102.5,145.5 C 105.346,145.809 106.846,147.475 107,150.5C 107.99,171.242 107.324,191.909 105,212.5C 103.644,213.38 102.144,213.714 100.5,213.5C 100.007,190.778 100.674,168.112 102.5,145.5 Z" /></g><g><path style="opacity:1" fill="#f6f0dd" d="M 47.5,212.5 C 54.155,212.009 60.4883,213.009 66.5,215.5C 68.8356,217.004 70.669,219.004 72,221.5C 71.8787,240.826 71.7121,260.159 71.5,279.5C 70.5119,284.64 70.1786,289.974 70.5,295.5C 66.6286,295.185 62.9619,295.518 59.5,296.5C 44.1814,297.468 28.8481,298.135 13.5,298.5C 13.5,294.167 13.5,289.833 13.5,285.5C 14.2758,273.134 15.4424,260.8 17,248.5C 19.0341,229.631 29.2007,217.631 47.5,212.5 Z" /></g><g><path style="opacity:1" fill="#879690" d="M 82.5,213.5 C 83.6266,214.122 84.6266,214.955 85.5,216C 91.8556,216.594 98.1889,216.427 104.5,215.5C 101.5,219.5 98.5,223.5 95.5,227.5C 91.1667,227.5 86.8333,227.5 82.5,227.5C 82.5,222.833 82.5,218.167 82.5,213.5 Z" /></g><g><path style="opacity:1" fill="#ddd9ca" d="M 591.5,52.5 C 586.38,136.661 581.38,220.661 576.5,304.5C 551.5,304.5 526.5,304.5 501.5,304.5C 487.001,295.267 471.001,291.267 453.5,292.5C 463.247,291.647 473.08,291.647 483,292.5C 484.473,292.903 485.806,293.57 487,294.5C 487.333,293.833 487.667,293.167 488,292.5C 490.869,298.471 494.369,299.805 498.5,296.5C 500.027,298.193 501.36,300.027 502.5,302C 523.843,302.236 545.176,302.736 566.5,303.5C 568.891,303.441 571.225,303.107 573.5,302.5C 575.529,297.391 575.863,292.224 574.5,287C 576.664,272.119 577.997,257.119 578.5,242C 577.685,234.776 577.685,227.443 578.5,220C 576.561,216.809 575.894,213.475 576.5,210C 576.8,207.976 577.633,207.476 579,208.5C 579.167,206.833 579.333,205.167 579.5,203.5C 579.387,201.359 578.72,199.525 577.5,198C 578.308,197.692 578.975,197.192 579.5,196.5C 579.086,193.968 578.752,191.468 578.5,189C 579.051,185.728 579.884,182.561 581,179.5C 582.595,157.873 583.761,136.207 584.5,114.5C 585.925,109.734 586.925,104.901 587.5,100C 587.417,90.5412 587.417,80.8746 587.5,71C 589.694,64.9829 591.028,58.8162 591.5,52.5 Z" /></g><g><path style="opacity:1" fill="#27221f" d="M 34.5,240.5 C 40.678,240.107 46.678,240.94 52.5,243C 57.5431,244.881 57.7097,246.715 53,248.5C 46.3915,246.982 39.8915,247.315 33.5,249.5C 32.0638,246.232 32.3971,243.232 34.5,240.5 Z" /></g><g><path style="opacity:1" fill="#fde3d1" d="M 488.5,61.5 C 429.832,61.3333 371.166,61.5 312.5,62C 311.667,62.8333 310.833,63.6667 310,64.5C 308.341,124.084 308.008,183.751 309,243.5C 310.5,245 312,246.5 313.5,248C 372.5,248.667 431.5,248.667 490.5,248C 491.056,247.617 491.389,247.117 491.5,246.5C 492.167,246.5 492.5,246.167 492.5,245.5C 493.79,244.942 494.623,243.942 495,242.5C 495.5,188.168 495.667,133.834 495.5,79.5C 495.5,75.5 495.5,71.5 495.5,67.5C 496.167,106.002 496.833,144.669 497.5,183.5C 498.72,183.887 499.387,184.72 499.5,186C 499.227,202.072 499.227,218.072 499.5,234C 497.939,237.686 496.772,241.519 496,245.5C 494.842,245.998 494.009,246.831 493.5,248C 494.885,249.597 495.551,251.43 495.5,253.5C 493.234,253.141 491.401,253.808 490,255.5C 489.667,254.833 489.333,254.167 489,253.5C 488.333,254.833 487.667,254.833 487,253.5C 485.637,255.784 484.137,255.951 482.5,254C 484.559,252.815 484.726,251.648 483,250.5C 467.912,251.343 452.912,251.343 438,250.5C 433.747,250.442 429.58,250.942 425.5,252C 427.377,252.576 429.211,252.409 431,251.5C 432.722,251.611 432.888,252.111 431.5,253C 426.167,253.667 420.833,253.667 415.5,253C 418.226,252.818 420.893,252.318 423.5,251.5C 386.838,250.667 350.171,250.167 313.5,250C 310.781,248.403 308.614,246.237 307,243.5C 306.833,194.497 306.333,145.497 305.5,96.5C 304.269,97.6507 304.269,98.8173 305.5,100C 305,100.5 304.5,101 304,101.5C 303.333,96.8333 303.333,92.1667 304,87.5C 304.182,90.2263 304.682,92.8929 305.5,95.5C 306.332,86.5184 306.832,77.5184 307,68.5C 307.796,64.7233 309.63,61.5566 312.5,59C 339.869,58.6629 367.202,58.4963 394.5,58.5C 425.989,59.6946 457.323,60.6946 488.5,61.5 Z" /></g><g><path style="opacity:1" fill="#ca423a" d="M 494.5,79.5 C 494.833,79.5 495.167,79.5 495.5,79.5C 495.667,133.834 495.5,188.168 495,242.5C 494.623,243.942 493.79,244.942 492.5,245.5C 492.312,243.897 492.812,242.563 494,241.5C 494.5,187.501 494.667,133.501 494.5,79.5 Z" /></g><g><path style="opacity:1" fill="#d32e2f" d="M 358.5,189.5 C 363.267,196.852 367.934,204.352 372.5,212C 376.821,212.499 381.154,212.666 385.5,212.5C 380.684,213.65 375.684,213.816 370.5,213C 368.393,210.439 365.726,208.606 362.5,207.5C 361.17,205.653 361.503,204.153 363.5,203C 362.363,200.543 360.863,198.376 359,196.5C 358.826,201.684 358.326,206.684 357.5,211.5C 357.175,203.981 357.508,196.648 358.5,189.5 Z" /></g><g><path style="opacity:1" fill="#d72e2e" d="M 434.5,212.5 C 444.12,214.772 453.12,213.272 461.5,208C 462.574,207.261 463.241,206.261 463.5,205C 461.377,201.213 458.877,197.713 456,194.5C 451.036,198.054 445.536,199.221 439.5,198C 438.944,197.617 438.611,197.117 438.5,196.5C 443.846,197.146 448.846,196.312 453.5,194C 455.81,193.503 458.143,193.337 460.5,193.5C 460.343,194.873 460.51,196.207 461,197.5C 463.172,197.933 465.339,198.266 467.5,198.5C 469.429,201.225 469.929,204.225 469,207.5C 468.667,207.167 468.333,206.833 468,206.5C 465.689,208.11 463.189,209.443 460.5,210.5C 459.548,212.045 459.215,213.712 459.5,215.5C 451.525,214.801 443.525,214.301 435.5,214C 434.944,213.617 434.611,213.117 434.5,212.5 Z" /></g><g><path style="opacity:1" fill="#ce6665" d="M 358.5,189.5 C 357.508,196.648 357.175,203.981 357.5,211.5C 357.158,212.338 356.492,212.672 355.5,212.5C 355.5,212.167 355.5,211.833 355.5,211.5C 356.329,203.677 356.829,195.677 357,187.5C 357.717,188.044 358.217,188.711 358.5,189.5 Z" /></g><g><path style="opacity:1" fill="#ffdfdc" d="M 358.5,164.5 C 357.163,163.685 356.163,162.518 355.5,161C 351.179,160.501 346.846,160.334 342.5,160.5C 342.5,177.5 342.5,194.5 342.5,211.5C 346.833,211.5 351.167,211.5 355.5,211.5C 355.5,211.833 355.5,212.167 355.5,212.5C 350.833,212.5 346.167,212.5 341.5,212.5C 341.5,194.833 341.5,177.167 341.5,159.5C 346.511,159.334 351.511,159.501 356.5,160C 357.582,161.33 358.249,162.83 358.5,164.5 Z" /></g><g><path style="opacity:1" fill="#d3615e" d="M 416.5,181.5 C 416.007,188.095 417.007,194.429 419.5,200.5C 417.689,198.615 416.522,196.281 416,193.5C 415.188,189.311 415.355,185.311 416.5,181.5 Z" /></g><g><path style="opacity:1" fill="#d64e4e" d="M 409.5,169.5 C 411.483,183.795 412.15,198.462 411.5,213.5C 405.402,214.117 399.735,213.45 394.5,211.5C 399.267,212.797 403.934,212.797 408.5,211.5C 409.496,197.677 409.829,183.677 409.5,169.5 Z" /></g><g><path style="opacity:1" fill="#ffe2e0" d="M 395.5,169.5 C 395.833,183.5 396.167,197.5 396.5,211.5C 400.5,211.5 404.5,211.5 408.5,211.5C 403.934,212.797 399.267,212.797 394.5,211.5C 394.171,197.323 394.504,183.323 395.5,169.5 Z" /></g><g><path style="opacity:1" fill="#d34a48" d="M 436.5,175.5 C 434.016,180.725 433.516,186.058 435,191.5C 436.176,193.196 437.343,194.862 438.5,196.5C 432.569,193.292 430.403,188.292 432,181.5C 432.792,178.894 434.292,176.894 436.5,175.5 Z" /></g><g><path style="opacity:1" fill="#cc5f61" d="M 386.5,160.5 C 387.497,177.325 387.83,194.325 387.5,211.5C 387.158,212.338 386.492,212.672 385.5,212.5C 386.485,195.244 386.819,177.91 386.5,160.5 Z" /></g><g><path style="opacity:1" fill="#d1403e" d="M 459.5,171.5 C 459.703,173.39 459.037,174.89 457.5,176C 453.455,176.208 449.455,175.708 445.5,174.5C 442.483,174.768 439.483,175.102 436.5,175.5C 442.196,171.702 448.03,171.702 454,175.5C 455.981,174.35 457.814,173.016 459.5,171.5 Z" /></g><g><path style="opacity:1" fill="#d73131" d="M 362.5,169.5 C 361.407,167.651 360.074,165.984 358.5,164.5C 358.249,162.83 357.582,161.33 356.5,160C 351.511,159.501 346.511,159.334 341.5,159.5C 341.5,177.167 341.5,194.833 341.5,212.5C 346.167,212.5 350.833,212.5 355.5,212.5C 350.933,214.285 345.933,215.118 340.5,215C 339.953,215.925 339.287,216.758 338.5,217.5C 337.827,200.603 337.16,183.769 336.5,167C 338.34,164.174 339.006,161.007 338.5,157.5C 345.791,156.608 353.124,156.274 360.5,156.5C 360.52,158.143 359.853,159.476 358.5,160.5C 361.195,162.905 362.528,165.905 362.5,169.5 Z" /></g><g><path style="opacity:1" fill="#fdfdfc" d="M 395.5,169.5 C 400.167,169.5 404.833,169.5 409.5,169.5C 409.829,183.677 409.496,197.677 408.5,211.5C 404.5,211.5 400.5,211.5 396.5,211.5C 396.167,197.5 395.833,183.5 395.5,169.5 Z" /></g><g><path style="opacity:1" fill="#fed6d5" d="M 372.5,159.5 C 372.832,168.525 372.498,177.525 371.5,186.5C 370.081,185.995 369.415,184.995 369.5,183.5C 370.117,183.611 370.617,183.944 371,184.5C 371.171,175.99 371.671,167.657 372.5,159.5 Z" /></g><g><path style="opacity:1" fill="#fdfbfa" d="M 372.5,159.5 C 377.363,159.181 382.03,159.514 386.5,160.5C 386.819,177.91 386.485,195.244 385.5,212.5C 381.154,212.666 376.821,212.499 372.5,212C 367.934,204.352 363.267,196.852 358.5,189.5C 358.217,188.711 357.717,188.044 357,187.5C 356.829,195.677 356.329,203.677 355.5,211.5C 351.167,211.5 346.833,211.5 342.5,211.5C 342.5,194.5 342.5,177.5 342.5,160.5C 346.846,160.334 351.179,160.501 355.5,161C 356.163,162.518 357.163,163.685 358.5,164.5C 360.074,165.984 361.407,167.651 362.5,169.5C 362.5,169.833 362.5,170.167 362.5,170.5C 365.1,174.701 367.434,179.034 369.5,183.5C 369.415,184.995 370.081,185.995 371.5,186.5C 372.498,177.525 372.832,168.525 372.5,159.5 Z" /></g><g><path style="opacity:1" fill="#fdf8f7" d="M 449.5,158.5 C 451.435,159.15 453.435,159.483 455.5,159.5C 457.519,160.933 459.686,162.267 462,163.5C 461.571,166.171 460.737,168.838 459.5,171.5C 457.814,173.016 455.981,174.35 454,175.5C 448.03,171.702 442.196,171.702 436.5,175.5C 434.292,176.894 432.792,178.894 432,181.5C 430.403,188.292 432.569,193.292 438.5,196.5C 438.611,197.117 438.944,197.617 439.5,198C 445.536,199.221 451.036,198.054 456,194.5C 458.877,197.713 461.377,201.213 463.5,205C 463.241,206.261 462.574,207.261 461.5,208C 453.12,213.272 444.12,214.772 434.5,212.5C 432.02,210.897 429.354,209.397 426.5,208C 424.034,205.521 421.701,203.021 419.5,200.5C 417.007,194.429 416.007,188.095 416.5,181.5C 417.776,170.273 423.776,162.939 434.5,159.5C 439.463,158.746 444.463,158.413 449.5,158.5 Z" /></g><g><path style="opacity:1" fill="#e3908e" d="M 440.5,157.5 C 443.713,157.19 446.713,157.523 449.5,158.5C 444.463,158.413 439.463,158.746 434.5,159.5C 436.102,157.926 438.102,157.259 440.5,157.5 Z" /></g><g><path style="opacity:1" fill="#d43333" d="M 387.5,211.5 C 387.83,194.325 387.497,177.325 386.5,160.5C 382.03,159.514 377.363,159.181 372.5,159.5C 371.671,167.657 371.171,175.99 371,184.5C 370.617,183.944 370.117,183.611 369.5,183.5C 367.434,179.034 365.1,174.701 362.5,170.5C 363.583,170.539 364.583,170.873 365.5,171.5C 366.205,173.672 367.205,175.672 368.5,177.5C 369.794,171.141 369.794,164.808 368.5,158.5C 375.122,154.408 381.622,154.741 388,159.5C 388.829,177.005 388.662,194.338 387.5,211.5 Z" /></g><g><path style="opacity:1" fill="#d63835" d="M 463.5,141.5 C 464.468,143.607 464.802,145.941 464.5,148.5C 458.13,151.345 451.464,153.512 444.5,155C 448.691,155.579 452.357,157.079 455.5,159.5C 453.435,159.483 451.435,159.15 449.5,158.5C 446.713,157.523 443.713,157.19 440.5,157.5C 440.918,156.778 441.584,156.278 442.5,156C 439.223,153.685 435.556,152.351 431.5,152C 430.748,151.329 430.414,150.496 430.5,149.5C 441.696,153.051 452.363,151.884 462.5,146C 463.38,144.644 463.714,143.144 463.5,141.5 Z" /></g><g><path style="opacity:1" fill="#cb3f3e" d="M 375.5,141.5 C 374.909,142.151 374.243,142.818 373.5,143.5C 368.544,144.494 363.544,144.827 358.5,144.5C 358.425,147.206 358.092,149.873 357.5,152.5C 351.729,153.113 346.396,152.446 341.5,150.5C 346.5,150.5 351.5,150.5 356.5,150.5C 356.5,148.167 356.5,145.833 356.5,143.5C 360.371,143.815 364.038,143.482 367.5,142.5C 370.167,142.167 372.833,141.833 375.5,141.5 Z" /></g><g><path style="opacity:1" fill="#fef6f3" d="M 407.5,148.5 C 410.635,153.594 409.968,158.094 405.5,162C 397.539,163.209 393.872,159.709 394.5,151.5C 398.039,147.464 402.372,146.464 407.5,148.5 Z" /></g><g><path style="opacity:1" fill="#d15155" d="M 407.5,148.5 C 402.372,146.464 398.039,147.464 394.5,151.5C 394.137,149.089 395.137,147.589 397.5,147C 400.5,146.333 403.5,146.333 406.5,147C 407.056,147.383 407.389,147.883 407.5,148.5 Z" /></g><g><path style="opacity:1" fill="#ce4140" d="M 388.5,115.5 C 389.645,119.311 389.812,123.311 389,127.5C 387.541,130.77 386.374,134.103 385.5,137.5C 384.167,137.5 382.833,137.5 381.5,137.5C 386.831,131.241 389.164,123.907 388.5,115.5 Z" /></g><g><path style="opacity:1" fill="#ce3f3c" d="M 431.5,98.5 C 431.5,98.8333 431.5,99.1667 431.5,99.5C 416.705,107.873 412.372,120.207 418.5,136.5C 417.288,135.77 416.288,134.77 415.5,133.5C 413.736,125.195 414.403,117.195 417.5,109.5C 420.172,107.575 421.172,104.908 420.5,101.5C 424.453,101.346 428.119,100.346 431.5,98.5 Z" /></g><g><path style="opacity:1" fill="#d04a48" d="M 409.5,97.5 C 410.831,104.468 411.497,111.802 411.5,119.5C 411.492,127.076 411.159,134.576 410.5,142C 404.916,142.806 399.416,142.639 394,141.5C 393.173,126.994 393.339,112.661 394.5,98.5C 394.333,112.504 394.5,126.504 395,140.5C 399.737,141.469 404.57,141.803 409.5,141.5C 409.5,126.833 409.5,112.167 409.5,97.5 Z" /></g><g><path style="opacity:1" fill="#fee1dd" d="M 341.5,97.5 C 350.349,97.1736 359.016,97.507 367.5,98.5C 359.167,98.5 350.833,98.5 342.5,98.5C 342.5,115.5 342.5,132.5 342.5,149.5C 345.85,149.665 349.183,149.498 352.5,149C 354.229,147.211 354.896,145.044 354.5,142.5C 358.833,142.5 363.167,142.5 367.5,142.5C 364.038,143.482 360.371,143.815 356.5,143.5C 356.5,145.833 356.5,148.167 356.5,150.5C 351.5,150.5 346.5,150.5 341.5,150.5C 341.5,132.833 341.5,115.167 341.5,97.5 Z" /></g><g><path style="opacity:1" fill="#d03638" d="M 375.5,99.5 C 378.167,99.5 380.833,99.5 383.5,99.5C 383.595,102.358 384.762,104.691 387,106.5C 387.953,109.432 388.453,112.432 388.5,115.5C 387.539,111.485 385.706,107.819 383,104.5C 380.176,103.182 377.676,101.515 375.5,99.5 Z" /></g><g><path style="opacity:1" fill="#fdf9f7" d="M 449.5,97.5 C 454.496,98.1658 458.829,100.166 462.5,103.5C 460.755,107.408 458.422,110.908 455.5,114C 453.212,114.418 451.212,113.751 449.5,112C 437.291,110.217 431.457,115.384 432,127.5C 432.697,129.584 433.864,131.251 435.5,132.5C 437.576,135.702 440.576,137.035 444.5,136.5C 448.482,136.504 452.149,135.504 455.5,133.5C 458.521,135.854 461.188,138.521 463.5,141.5C 463.714,143.144 463.38,144.644 462.5,146C 452.363,151.884 441.696,153.051 430.5,149.5C 428.188,147.364 425.688,145.364 423,143.5C 421.476,141.102 419.976,138.769 418.5,136.5C 412.372,120.207 416.705,107.873 431.5,99.5C 437.378,97.9349 443.378,97.2683 449.5,97.5 Z" /></g><g><path style="opacity:1" fill="#fbc1c1" d="M 449.5,97.5 C 443.378,97.2683 437.378,97.9349 431.5,99.5C 431.5,99.1667 431.5,98.8333 431.5,98.5C 432.791,98.7373 433.791,98.404 434.5,97.5C 439.645,96.3093 444.645,96.3093 449.5,97.5 Z" /></g><g><path style="opacity:1" fill="#fef7f6" d="M 409.5,97.5 C 409.5,112.167 409.5,126.833 409.5,141.5C 404.57,141.803 399.737,141.469 395,140.5C 394.5,126.504 394.333,112.504 394.5,98.5C 399.405,97.5546 404.405,97.2213 409.5,97.5 Z" /></g><g><path style="opacity:1" fill="#fdfbfa" d="M 367.5,98.5 C 370.167,98.8333 372.833,99.1667 375.5,99.5C 377.676,101.515 380.176,103.182 383,104.5C 385.706,107.819 387.539,111.485 388.5,115.5C 389.164,123.907 386.831,131.241 381.5,137.5C 379.118,138.351 377.118,139.684 375.5,141.5C 372.833,141.833 370.167,142.167 367.5,142.5C 363.167,142.5 358.833,142.5 354.5,142.5C 354.896,145.044 354.229,147.211 352.5,149C 349.183,149.498 345.85,149.665 342.5,149.5C 342.5,132.5 342.5,115.5 342.5,98.5C 350.833,98.5 359.167,98.5 367.5,98.5 Z" /></g><g><path style="opacity:1" fill="#c53c3d" d="M 363.5,112.5 C 366.491,112.166 368.824,113.166 370.5,115.5C 371.117,115.611 371.617,115.944 372,116.5C 373.724,121.731 372.224,125.565 367.5,128C 364.183,128.498 360.85,128.665 357.5,128.5C 357.5,123.167 357.5,117.833 357.5,112.5C 359.5,112.5 361.5,112.5 363.5,112.5 Z" /></g><g><path style="opacity:1" fill="#e18283" d="M 363.5,112.5 C 361.5,112.5 359.5,112.5 357.5,112.5C 357.5,117.833 357.5,123.167 357.5,128.5C 356.511,123.025 356.178,117.358 356.5,111.5C 359.059,111.198 361.393,111.532 363.5,112.5 Z" /></g><g><path style="opacity:1" fill="#e0191f" d="M 370.5,115.5 C 372.595,120.521 371.262,124.354 366.5,127C 364.167,127.667 361.833,127.667 359.5,127C 358.533,122.599 358.2,118.099 358.5,113.5C 362.7,113.19 366.7,113.857 370.5,115.5 Z" /></g><g><path style="opacity:1" fill="#cd4242" d="M 435.5,132.5 C 433.864,131.251 432.697,129.584 432,127.5C 431.457,115.384 437.291,110.217 449.5,112C 451.212,113.751 453.212,114.418 455.5,114C 458.422,110.908 460.755,107.408 462.5,103.5C 458.829,100.166 454.496,98.1658 449.5,97.5C 444.645,96.3093 439.645,96.3093 434.5,97.5C 434.918,96.7784 435.584,96.2784 436.5,96C 445.839,94.215 454.506,95.715 462.5,100.5C 463.781,107.564 461.114,112.564 454.5,115.5C 451.29,114.646 448.124,113.646 445,112.5C 442.221,113.224 439.554,114.224 437,115.5C 435.801,118.018 434.635,120.518 433.5,123C 434.106,126.199 434.773,129.366 435.5,132.5 Z" /></g><g><path style="opacity:1" fill="#cb3735" d="M 341.5,97.5 C 352.326,96.341 363.326,96.1743 374.5,97C 375.252,97.6708 375.586,98.5041 375.5,99.5C 372.833,99.1667 370.167,98.8333 367.5,98.5C 359.016,97.507 350.349,97.1736 341.5,97.5 Z" /></g><g><path style="opacity:1" fill="#fbfbf9" d="M 47.5,257.5 C 53.9798,259.767 56.9798,264.433 56.5,271.5C 56.4496,278.268 53.7829,283.601 48.5,287.5C 45.0613,287.747 41.728,287.414 38.5,286.5C 34.3718,284.614 34.0384,282.947 37.5,281.5C 43.5765,278.097 45.0765,273.097 42,266.5C 40.3621,264.266 38.1955,262.933 35.5,262.5C 36.422,260.184 38.0887,258.517 40.5,257.5C 42.8333,256.167 45.1667,256.167 47.5,257.5 Z" /></g><g><path style="opacity:0.999" fill="#414042" d="M 214.5,260.5 C 215.319,263.305 215.819,266.305 216,269.5C 220.665,272.022 225.165,274.689 229.5,277.5C 230.579,279.543 232.246,280.876 234.5,281.5C 241.487,287.488 247.82,294.155 253.5,301.5C 310.163,302.5 366.829,302.833 423.5,302.5C 411.44,314.288 404.44,328.622 402.5,345.5C 351.069,346.452 299.402,346.786 247.5,346.5C 246.167,346.5 244.833,346.5 243.5,346.5C 240.4,318.787 225.733,300.287 199.5,291C 154.925,285.921 127.925,305.254 118.5,349C 118.164,350.03 117.497,350.53 116.5,350.5C 91.5951,350.445 66.7617,350.445 42,350.5C 23.4677,351.636 13.1344,342.969 11,324.5C 9.92545,311.184 10.7588,298.184 13.5,285.5C 13.5,289.833 13.5,294.167 13.5,298.5C 28.8481,298.135 44.1814,297.468 59.5,296.5C 63.7016,296.817 67.7016,296.483 71.5,295.5C 85.5164,295.499 99.5164,294.999 113.5,294C 120.587,285.585 128.921,278.585 138.5,273C 163.27,260.916 188.604,259.416 214.5,268.5C 214.5,265.833 214.5,263.167 214.5,260.5 Z" /></g><g><path style="opacity:1" fill="#cdc7b2" d="M 40.5,257.5 C 38.0887,258.517 36.422,260.184 35.5,262.5C 34.2101,263.058 33.3768,264.058 33,265.5C 32.3333,270.167 32.3333,274.833 33,279.5C 34.049,281.107 35.549,281.773 37.5,281.5C 34.0384,282.947 34.3718,284.614 38.5,286.5C 33.0612,287.702 28.8945,285.702 26,280.5C 21.0017,268.165 24.835,260.165 37.5,256.5C 38.7261,256.52 39.7261,256.853 40.5,257.5 Z" /></g><g><path style="opacity:1" fill="#262323" d="M 35.5,262.5 C 38.1955,262.933 40.3621,264.266 42,266.5C 45.0765,273.097 43.5765,278.097 37.5,281.5C 35.549,281.773 34.049,281.107 33,279.5C 32.3333,274.833 32.3333,270.167 33,265.5C 33.3768,264.058 34.2101,263.058 35.5,262.5 Z" /></g><g><path style="opacity:1" fill="#d1ceba" d="M 47.5,257.5 C 48.2506,256.427 49.2506,256.26 50.5,257C 61.545,263.816 63.3784,272.65 56,283.5C 53.8149,285.54 51.3149,286.874 48.5,287.5C 53.7829,283.601 56.4496,278.268 56.5,271.5C 56.9798,264.433 53.9798,259.767 47.5,257.5 Z" /></g><g><path style="opacity:1" fill="#aca99e" d="M 71.5,279.5 C 71.5,284.833 71.5,290.167 71.5,295.5C 67.7016,296.483 63.7016,296.817 59.5,296.5C 62.9619,295.518 66.6286,295.185 70.5,295.5C 70.1786,289.974 70.5119,284.64 71.5,279.5 Z" /></g><g><path style="opacity:0.983" fill="#040405" d="M 247.5,346.5 C 244.598,347.606 241.598,348.772 238.5,350C 237.131,351.719 236.131,353.552 235.5,355.5C 235.333,329.296 223.666,310.463 200.5,299C 174.935,291.633 154.102,298.466 138,319.5C 129.785,333.026 126.285,347.693 127.5,363.5C 126.683,361.031 126.183,358.365 126,355.5C 122.819,353.662 119.653,351.995 116.5,350.5C 117.497,350.53 118.164,350.03 118.5,349C 127.925,305.254 154.925,285.921 199.5,291C 225.733,300.287 240.4,318.787 243.5,346.5C 244.833,346.5 246.167,346.5 247.5,346.5 Z" /></g><g><path style="opacity:0.989" fill="#090808" d="M 453.5,292.5 C 471.001,291.267 487.001,295.267 501.5,304.5C 506.6,311.44 511.1,318.773 515,326.5C 517.582,332.577 519.082,338.91 519.5,345.5C 526.833,345.5 534.167,345.5 541.5,345.5C 533.765,346.827 525.932,346.827 518,345.5C 517.283,346.044 516.783,346.711 516.5,347.5C 513.145,325.315 501.478,309.148 481.5,299C 452.704,291.592 430.537,300.425 415,325.5C 412.188,332.77 410.021,340.104 408.5,347.5C 407.082,345.692 405.082,345.025 402.5,345.5C 404.44,328.622 411.44,314.288 423.5,302.5C 432.682,296.919 442.682,293.586 453.5,292.5 Z" /></g><g><path style="opacity:1" fill="#404042" d="M 235.5,355.5 C 234.92,373.323 227.92,387.989 214.5,399.5C 208.375,402.034 202.375,404.868 196.5,408C 194.231,408.758 192.064,408.591 190,407.5C 189.167,408.333 188.333,409.167 187.5,410C 182.833,410.667 178.167,410.667 173.5,410C 169.218,408.843 164.884,408.01 160.5,407.5C 141.291,399.118 130.291,384.451 127.5,363.5C 126.285,347.693 129.785,333.026 138,319.5C 154.102,298.466 174.935,291.633 200.5,299C 223.666,310.463 235.333,329.296 235.5,355.5 Z" /></g><g><path style="opacity:1" fill="#404042" d="M 516.5,347.5 C 517.672,364.181 513.006,378.847 502.5,391.5C 501.167,391.5 499.833,391.5 498.5,391.5C 498.762,392.978 498.429,394.311 497.5,395.5C 494.423,397.183 492.09,399.516 490.5,402.5C 487.753,405.207 484.42,406.873 480.5,407.5C 475.261,408.808 469.927,409.808 464.5,410.5C 457.872,409.395 451.206,408.728 444.5,408.5C 441.514,406.767 438.514,404.934 435.5,403C 434.207,402.51 432.873,402.343 431.5,402.5C 413.468,388.383 405.802,370.05 408.5,347.5C 410.021,340.104 412.188,332.77 415,325.5C 430.537,300.425 452.704,291.592 481.5,299C 501.478,309.148 513.145,325.315 516.5,347.5 Z" /></g><g><path style="opacity:1" fill="#404042" d="M 501.5,304.5 C 526.5,304.5 551.5,304.5 576.5,304.5C 575.367,318.157 574.367,331.823 573.5,345.5C 562.781,345.962 552.114,345.962 541.5,345.5C 534.167,345.5 526.833,345.5 519.5,345.5C 519.082,338.91 517.582,332.577 515,326.5C 511.1,318.773 506.6,311.44 501.5,304.5 Z" /></g><g><path style="opacity:1" fill="#211f20" d="M 458.5,330.5 C 466.954,329.149 473.787,331.816 479,338.5C 486.552,354.079 483.052,366.245 468.5,375C 459.878,377.238 453.044,374.738 448,367.5C 441.725,355.232 443.225,343.898 452.5,333.5C 454.604,332.481 456.604,331.481 458.5,330.5 Z" /></g><g><path style="opacity:1" fill="#211f20" d="M 177.5,329.5 C 188.728,328.577 196.561,333.243 201,343.5C 204.029,356.084 200.529,366.251 190.5,374C 177.387,377.886 168.554,373.386 164,360.5C 161.314,346.637 165.814,336.304 177.5,329.5 Z" /></g><g><path style="opacity:1" fill="#474d2f" d="M 502.5,391.5 C 499.729,396.545 495.729,400.211 490.5,402.5C 492.09,399.516 494.423,397.183 497.5,395.5C 498.429,394.311 498.762,392.978 498.5,391.5C 499.833,391.5 501.167,391.5 502.5,391.5 Z" /></g><g><path style="opacity:1" fill="#48502a" d="M 431.5,402.5 C 432.873,402.343 434.207,402.51 435.5,403C 438.514,404.934 441.514,406.767 444.5,408.5C 439.494,407.829 435.161,405.829 431.5,402.5 Z" /></g><g><path style="opacity:0.933" fill="#48512c" d="M 214.5,399.5 C 197.921,412.598 179.921,415.265 160.5,407.5C 164.884,408.01 169.218,408.843 173.5,410C 178.167,410.667 182.833,410.667 187.5,410C 188.333,409.167 189.167,408.333 190,407.5C 192.064,408.591 194.231,408.758 196.5,408C 202.375,404.868 208.375,402.034 214.5,399.5 Z" /></g><g><path style="opacity:0.837" fill="#434b2b" d="M 480.5,407.5 C 474.485,410.624 467.985,411.957 461,411.5C 455.109,411.917 449.609,410.917 444.5,408.5C 451.206,408.728 457.872,409.395 464.5,410.5C 469.927,409.808 475.261,408.808 480.5,407.5 Z" /></g></svg>