<!DOCTYPE svg PUBLIC "-//W3C//DTD SVG 1.1//EN" "http://www.w3.org/Graphics/SVG/1.1/DTD/svg11.dtd"[]><svg xmlns="http://www.w3.org/2000/svg" version="1.1" width="244" height="163" style="shape-rendering:geometricPrecision; text-rendering:geometricPrecision; image-rendering:optimizeQuality; fill-rule:evenodd; clip-rule:evenodd" xmlns:xlink="http://www.w3.org/1999/xlink" viewBox="0 0 611 408"><g><path style="opacity:1" fill="#cec9b0" d="M 238.5,-0.5 C 245.167,-0.5 251.833,-0.5 258.5,-0.5C 262.354,92.5641 266.354,185.564 270.5,278.5C 268.597,278.204 266.93,277.537 265.5,276.5C 266.812,274.257 267.478,271.59 267.5,268.5C 264.59,211.503 261.757,154.503 259,97.5C 255.594,86.427 248.427,78.927 237.5,75C 212.629,67.891 187.295,65.2243 161.5,67C 160.354,67.6449 159.354,68.4783 158.5,69.5C 155.916,68.6072 153.249,68.2739 150.5,68.5C 153.228,67.7948 156.061,67.1281 159,66.5C 158.171,53.8729 157.671,41.2062 157.5,28.5C 157.334,22.8236 157.501,17.1569 158,11.5C 158.374,10.5838 158.874,9.75044 159.5,9C 172.195,6.68525 184.862,4.85192 197.5,3.5C 211.293,2.03492 224.959,0.701592 238.5,-0.5 Z" /></g><g><path style="opacity:1" fill="#f9f3de" d="M 258.5,-0.5 C 310.833,-0.5 363.167,-0.5 415.5,-0.5C 416.167,0.833333 416.833,0.833333 417.5,-0.5C 418.5,-0.5 419.5,-0.5 420.5,-0.5C 421.167,0.833333 421.833,0.833333 422.5,-0.5C 442.5,-0.5 462.5,-0.5 482.5,-0.5C 525.006,0.235365 567.673,0.902032 610.5,1.5C 610.5,6.83333 610.5,12.1667 610.5,17.5C 609.167,18.1667 609.167,18.8333 610.5,19.5C 610.5,20.8333 610.5,22.1667 610.5,23.5C 609.167,24.1667 609.167,24.8333 610.5,25.5C 610.5,27.5 610.5,29.5 610.5,31.5C 606.249,120.115 602.583,209.115 599.5,298.5C 598.539,300.265 598.205,302.265 598.5,304.5C 580.167,304.5 561.833,304.5 543.5,304.5C 543.167,304.5 542.833,304.5 542.5,304.5C 534.65,293.084 523.65,287.751 509.5,288.5C 494.147,288.845 480.813,294.179 469.5,304.5C 411.491,304.265 353.491,303.432 295.5,302C 288.884,292.214 280.551,284.38 270.5,278.5C 266.354,185.564 262.354,92.5641 258.5,-0.5 Z" /></g><g><path style="opacity:0.965" fill="#a5a195" d="M 197.5,3.5 C 184.862,4.85192 172.195,6.68525 159.5,9C 158.874,9.75044 158.374,10.5838 158,11.5C 157.501,17.1569 157.334,22.8236 157.5,28.5C 156.81,23.767 156.144,18.9336 155.5,14C 155.546,11.5639 155.879,9.06394 156.5,6.5C 170.139,5.42979 183.806,4.42979 197.5,3.5 Z" /></g><g><path style="opacity:1" fill="#cc4a41" d="M 523.5,63.5 C 522.167,63.5 520.833,63.5 519.5,63.5C 519.5,62.8333 519.167,62.5 518.5,62.5C 462.002,61.501 405.336,61.1677 348.5,61.5C 348.918,60.7784 349.584,60.2784 350.5,60C 407.166,59.9206 463.833,60.254 520.5,61C 521.942,61.3768 522.942,62.2101 523.5,63.5 Z" /></g><g><path style="opacity:1" fill="#df191d" d="M 518.5,62.5 C 519.167,62.5 519.5,62.8333 519.5,63.5C 520.209,64.404 521.209,64.7373 522.5,64.5C 522.436,118.586 522.436,172.586 522.5,226.5C 521.167,226.5 519.833,226.5 518.5,226.5C 518.456,223.519 518.123,223.186 517.5,225.5C 518.472,228.464 518.638,231.464 518,234.5C 516.294,235.308 515.461,236.641 515.5,238.5C 459.498,238.5 403.498,238.833 347.5,239.5C 346.167,238.833 345.167,237.833 344.5,236.5C 344.925,179.461 345.592,122.461 346.5,65.5C 347.5,64.8333 348.5,64.1667 349.5,63.5C 405.829,62.5 462.163,62.1667 518.5,62.5 Z" /></g><g><path style="opacity:0.999" fill="#030303" d="M 249.5,256.5 C 249.5,261.833 249.5,267.167 249.5,272.5C 231.287,270.109 213.953,272.942 197.5,281C 192.2,284.575 187.367,288.742 183,293.5C 177.957,301.087 172.79,308.587 167.5,316C 153.833,316.667 140.167,316.667 126.5,316C 125.069,315.535 123.903,314.701 123,313.5C 122.788,307.752 122.288,302.085 121.5,296.5C 122.418,273.173 122.585,249.839 122,226.5C 118.273,222.888 113.773,220.721 108.5,220C 82.8775,217.17 57.2109,215.003 31.5,213.5C 32.4174,210.583 33.084,207.583 33.5,204.5C 58.5664,205.685 83.5664,207.685 108.5,210.5C 113.724,177.936 122.224,146.27 134,115.5C 134.667,112.167 134.667,108.833 134,105.5C 131.276,104.108 128.443,102.942 125.5,102C 106.969,98.998 88.3021,97.498 69.5,97.5C 71.7881,93.5442 74.7881,90.2109 78.5,87.5C 99.45,87.9114 120.117,90.4114 140.5,95C 144.409,96.7819 147.742,99.2819 150.5,102.5C 174.095,85.9339 200.095,79.7672 228.5,84C 237.333,88.8492 242.167,96.3492 243,106.5C 246.575,156.438 248.741,206.438 249.5,256.5 Z" /></g><g><path style="opacity:1" fill="#889991" d="M 230.5,116.5 C 230.827,121.214 230.493,125.88 229.5,130.5C 210.517,149.303 191.183,167.636 171.5,185.5C 171.906,177.083 171.406,168.749 170,160.5C 164.941,155.219 158.774,152.553 151.5,152.5C 152.595,136.377 157.928,121.877 167.5,109C 182.829,98.5814 199.829,93.5814 218.5,94C 223.573,95.4056 227.073,98.5723 229,103.5C 230.075,107.77 230.575,112.103 230.5,116.5 Z" /></g><g><path style="opacity:1" fill="#fdf9f8" d="M 415.5,101.5 C 416.167,102.5 416.833,103.5 417.5,104.5C 425.556,129.125 416.556,140.792 390.5,139.5C 390.5,141.833 390.5,144.167 390.5,146.5C 385.5,146.5 380.5,146.5 375.5,146.5C 375.333,129.83 375.5,113.163 376,96.5C 386.883,94.9153 397.717,95.4153 408.5,98C 410.886,99.1932 413.22,100.36 415.5,101.5 Z" /></g><g><path style="opacity:1" fill="#fdf8f6" d="M 491.5,105.5 C 489.854,107.812 487.854,109.812 485.5,111.5C 468.892,105.96 462.059,111.627 465,128.5C 466.129,130.141 467.629,131.141 469.5,131.5C 469.611,132.117 469.944,132.617 470.5,133C 476.111,133.951 481.444,133.117 486.5,130.5C 489.625,133.39 492.292,136.723 494.5,140.5C 494.137,141.183 493.804,141.85 493.5,142.5C 489.519,144.987 485.185,146.654 480.5,147.5C 467.008,149.749 457.008,145.082 450.5,133.5C 450.5,132.833 450.167,132.5 449.5,132.5C 448.708,126.87 448.375,121.203 448.5,115.5C 450.657,105.344 456.657,98.6773 466.5,95.5C 473.617,94.011 480.617,94.511 487.5,97C 491.971,98.4397 493.305,101.273 491.5,105.5 Z" /></g><g><path style="opacity:1" fill="#566c65" d="M 69.5,97.5 C 88.3021,97.498 106.969,98.998 125.5,102C 128.443,102.942 131.276,104.108 134,105.5C 134.667,108.833 134.667,112.167 134,115.5C 122.224,146.27 113.724,177.936 108.5,210.5C 83.5664,207.685 58.5664,205.685 33.5,204.5C 40.2764,169.671 50.7764,136.004 65,103.5C 65.8136,100.823 67.3136,98.8233 69.5,97.5 Z" /></g><g><path style="opacity:1" fill="#cd3536" d="M 491.5,105.5 C 491.064,107.746 490.397,109.913 489.5,112C 483.667,112.383 478,112.049 472.5,111C 470.14,113.605 467.64,116.105 465,118.5C 465.311,123.148 466.811,127.482 469.5,131.5C 467.629,131.141 466.129,130.141 465,128.5C 462.059,111.627 468.892,105.96 485.5,111.5C 487.854,109.812 489.854,107.812 491.5,105.5 Z" /></g><g><path style="opacity:1" fill="#d43f37" d="M 348.5,61.5 C 405.336,61.1677 462.002,61.501 518.5,62.5C 462.163,62.1667 405.829,62.5 349.5,63.5C 348.5,64.1667 347.5,64.8333 346.5,65.5C 345.592,122.461 344.925,179.461 344.5,236.5C 343.335,179.668 343.168,122.668 344,65.5C 344.748,63.249 346.248,61.9156 348.5,61.5 Z" /></g><g><path style="opacity:1" fill="#d5514f" d="M 427.5,95.5 C 432.567,94.1757 437.734,94.1757 443,95.5C 443.667,109.5 443.667,123.5 443,137.5C 442.617,138.056 442.117,138.389 441.5,138.5C 436.637,138.819 431.97,138.486 427.5,137.5C 432.167,137.5 436.833,137.5 441.5,137.5C 441.5,123.5 441.5,109.5 441.5,95.5C 436.833,95.5 432.167,95.5 427.5,95.5 Z" /></g><g><path style="opacity:1" fill="#cc3c3a" d="M 415.5,101.5 C 413.22,100.36 410.886,99.1932 408.5,98C 397.717,95.4153 386.883,94.9153 376,96.5C 375.5,113.163 375.333,129.83 375.5,146.5C 380.5,146.5 385.5,146.5 390.5,146.5C 390.5,144.167 390.5,141.833 390.5,139.5C 416.556,140.792 425.556,129.125 417.5,104.5C 419.027,104.427 420.027,105.094 420.5,106.5C 422.937,114.339 422.937,122.339 420.5,130.5C 415.902,134.896 410.569,138.396 404.5,141C 400.833,141.333 397.167,141.667 393.5,142C 392.833,144 392.167,146 391.5,148C 385.916,148.806 380.416,148.639 375,147.5C 374.333,130.167 374.333,112.833 375,95.5C 386.09,94.3467 397.257,94.18 408.5,95C 411.33,96.728 413.663,98.8947 415.5,101.5 Z" /></g><g><path style="opacity:1" fill="#d92626" d="M 401.5,111.5 C 404.704,112.378 406.37,114.545 406.5,118C 406.478,120.183 405.478,121.683 403.5,122.5C 399.747,124.139 395.747,124.806 391.5,124.5C 391.334,120.486 391.501,116.486 392,112.5C 392.956,111.106 394.289,110.439 396,110.5C 397.825,110.943 399.658,111.277 401.5,111.5 Z" /></g><g><path style="opacity:1" fill="#c14649" d="M 401.5,111.5 C 399.658,111.277 397.825,110.943 396,110.5C 394.289,110.439 392.956,111.106 392,112.5C 391.501,116.486 391.334,120.486 391.5,124.5C 395.747,124.806 399.747,124.139 403.5,122.5C 402.942,123.79 401.942,124.623 400.5,125C 397.183,125.498 393.85,125.665 390.5,125.5C 390.5,120.167 390.5,114.833 390.5,109.5C 393.518,109.335 396.518,109.502 399.5,110C 400.416,110.278 401.082,110.778 401.5,111.5 Z" /></g><g><path style="opacity:1" fill="#d15654" d="M 448.5,115.5 C 448.375,121.203 448.708,126.87 449.5,132.5C 448.883,132.389 448.383,132.056 448,131.5C 447.183,125.984 447.349,120.65 448.5,115.5 Z" /></g><g><path style="opacity:1" fill="#576c65" d="M 230.5,116.5 C 231.942,157.004 233.276,197.671 234.5,238.5C 204.139,239.377 173.805,240.71 143.5,242.5C 143.769,238.069 143.436,233.735 142.5,229.5C 149.745,230.072 156.745,229.072 163.5,226.5C 165.919,224.246 167.752,221.579 169,218.5C 169.886,207.486 170.72,196.486 171.5,185.5C 191.183,167.636 210.517,149.303 229.5,130.5C 230.493,125.88 230.827,121.214 230.5,116.5 Z" /></g><g><path style="opacity:1" fill="#da2c2c" d="M 466.5,95.5 C 456.657,98.6773 450.657,105.344 448.5,115.5C 447.349,120.65 447.183,125.984 448,131.5C 448.383,132.056 448.883,132.389 449.5,132.5C 450.167,132.5 450.5,132.833 450.5,133.5C 450.343,134.873 450.51,136.207 451,137.5C 453.859,140.616 456.692,143.616 459.5,146.5C 458.448,146.649 457.448,146.483 456.5,146C 454.343,143.271 452.01,141.437 449.5,140.5C 447.202,143.28 445.202,146.28 443.5,149.5C 445.339,153.822 444.006,156.489 439.5,157.5C 439.297,159.044 438.63,160.378 437.5,161.5C 439.332,162.057 440.665,163.057 441.5,164.5C 436.833,164.5 432.167,164.5 427.5,164.5C 429.305,162.803 431.639,161.97 434.5,162C 432.866,161.506 431.199,161.34 429.5,161.5C 429.78,158.612 428.447,157.112 425.5,157C 426.342,154.932 426.342,152.765 425.5,150.5C 425.594,148.311 426.261,146.311 427.5,144.5C 425.368,143.402 423.202,142.402 421,141.5C 419.798,139.323 419.298,136.989 419.5,134.5C 420.833,134.5 422.167,134.5 423.5,134.5C 423.128,137.022 423.961,139.022 426,140.5C 426.167,140 426.333,139.5 426.5,139C 425.009,135.03 424.009,130.864 423.5,126.5C 422.479,127.901 421.479,129.235 420.5,130.5C 422.937,122.339 422.937,114.339 420.5,106.5C 421.5,106.5 422.5,106.5 423.5,106.5C 423.338,108.527 423.505,110.527 424,112.5C 424.333,112.167 424.667,111.833 425,111.5C 424.878,105.74 425.711,100.407 427.5,95.5C 427.5,109.5 427.5,123.5 427.5,137.5C 431.97,138.486 436.637,138.819 441.5,138.5C 441.309,144.604 442.642,144.77 445.5,139C 450.207,138.505 450.707,136.672 447,133.5C 445.825,124.254 446.659,115.254 449.5,106.5C 448.422,103.187 449.422,100.521 452.5,98.5C 453.429,97.3112 453.762,95.9778 453.5,94.5C 455.492,94.3285 457.158,94.9951 458.5,96.5C 461.084,95.6072 463.751,95.2739 466.5,95.5 Z" /></g><g><path style="opacity:1" fill="#fefbfa" d="M 427.5,95.5 C 432.167,95.5 436.833,95.5 441.5,95.5C 441.5,109.5 441.5,123.5 441.5,137.5C 436.833,137.5 432.167,137.5 427.5,137.5C 427.5,123.5 427.5,109.5 427.5,95.5 Z" /></g><g><path style="opacity:1" fill="#fdf3f1" d="M 439.5,157.5 C 429.757,160.26 425.924,156.594 428,146.5C 432.632,142.302 436.965,142.636 441,147.5C 441.843,151.103 441.343,154.436 439.5,157.5 Z" /></g><g><path style="opacity:1" fill="#d25554" d="M 450.5,133.5 C 457.008,145.082 467.008,149.749 480.5,147.5C 477.038,148.482 473.371,148.815 469.5,148.5C 465.921,148.684 462.587,148.017 459.5,146.5C 456.692,143.616 453.859,140.616 451,137.5C 450.51,136.207 450.343,134.873 450.5,133.5 Z" /></g><g><path style="opacity:1" fill="#c93b3b" d="M 493.5,142.5 C 492.71,143.794 491.71,144.961 490.5,146C 483.627,149.317 476.627,150.151 469.5,148.5C 473.371,148.815 477.038,148.482 480.5,147.5C 485.185,146.654 489.519,144.987 493.5,142.5 Z" /></g><g><path style="opacity:1" fill="#f7f1de" d="M 265.5,276.5 C 260.626,274.875 255.626,273.875 250.5,273.5C 250.822,267.642 250.489,261.975 249.5,256.5C 248.741,206.438 246.575,156.438 243,106.5C 242.167,96.3492 237.333,88.8492 228.5,84C 200.095,79.7672 174.095,85.9339 150.5,102.5C 147.742,99.2819 144.409,96.7819 140.5,95C 120.117,90.4114 99.45,87.9114 78.5,87.5C 86.638,80.9363 95.9713,76.7697 106.5,75C 121.002,71.6664 135.669,69.4998 150.5,68.5C 153.249,68.2739 155.916,68.6072 158.5,69.5C 159.354,68.4783 160.354,67.6449 161.5,67C 187.295,65.2243 212.629,67.891 237.5,75C 248.427,78.927 255.594,86.427 259,97.5C 261.757,154.503 264.59,211.503 267.5,268.5C 267.478,271.59 266.812,274.257 265.5,276.5 Z" /></g><g><path style="opacity:1" fill="#fdf7f5" d="M 491.5,158.5 C 492.412,159.738 492.579,161.072 492,162.5C 490.575,166.055 488.241,168.722 485,170.5C 480.29,168.754 475.457,168.254 470.5,169C 467.591,170.406 465.591,172.572 464.5,175.5C 462.063,182.125 463.73,187.625 469.5,192C 473.689,192.812 477.689,192.645 481.5,191.5C 483.258,191.123 484.925,190.456 486.5,189.5C 488.216,190.549 489.549,191.882 490.5,193.5C 490.833,194.5 491.5,195.167 492.5,195.5C 492.703,197.044 493.37,198.378 494.5,199.5C 490.632,204.101 485.632,206.601 479.5,207C 471.218,208.596 463.885,206.763 457.5,201.5C 446.734,191.025 444.734,179.025 451.5,165.5C 462.858,152.426 476.191,150.092 491.5,158.5 Z" /></g><g><path style="opacity:1" fill="#fdfcfb" d="M 376.5,155.5 C 380.846,155.334 385.179,155.501 389.5,156C 392.312,159.812 394.979,163.646 397.5,167.5C 399.066,171.728 401.066,175.728 403.5,179.5C 403.56,180.043 403.893,180.376 404.5,180.5C 405.498,172.528 405.831,164.528 405.5,156.5C 409.833,156.5 414.167,156.5 418.5,156.5C 418.5,172.833 418.5,189.167 418.5,205.5C 414.354,206.647 410.02,206.814 405.5,206C 404.956,205.283 404.289,204.783 403.5,204.5C 400.767,198.702 397.767,193.035 394.5,187.5C 394.109,184.06 392.276,181.727 389,180.5C 388.13,181.108 387.63,181.941 387.5,183C 388.612,189.795 388.778,196.629 388,203.5C 384.35,205.046 380.516,205.713 376.5,205.5C 376.5,188.833 376.5,172.167 376.5,155.5 Z" /></g><g><path style="opacity:1" fill="#ce3433" d="M 491.5,158.5 C 476.191,150.092 462.858,152.426 451.5,165.5C 451.244,163.088 452.244,161.421 454.5,160.5C 453.5,159.667 452.5,158.833 451.5,158C 457.034,157.723 462.034,156.056 466.5,153C 472.5,152.333 478.5,152.333 484.5,153C 487.572,153.907 489.905,155.74 491.5,158.5 Z" /></g><g><path style="opacity:1" fill="#f8f3df" d="M 151.5,152.5 C 158.774,152.553 164.941,155.219 170,160.5C 171.406,168.749 171.906,177.083 171.5,185.5C 170.72,196.486 169.886,207.486 169,218.5C 167.752,221.579 165.919,224.246 163.5,226.5C 156.745,229.072 149.745,230.072 142.5,229.5C 136.727,229.231 133.227,226.231 132,220.5C 131.333,209.833 131.333,199.167 132,188.5C 132.184,175.992 136.35,165.159 144.5,156C 146.577,154.295 148.91,153.128 151.5,152.5 Z" /></g><g><path style="opacity:1" fill="#fef5f4" d="M 427.5,164.5 C 432.167,164.5 436.833,164.5 441.5,164.5C 442.647,178.092 442.814,191.758 442,205.5C 437.263,206.469 432.43,206.803 427.5,206.5C 427.5,192.5 427.5,178.5 427.5,164.5 Z" /></g><g><path style="opacity:1" fill="#d03636" d="M 491.5,158.5 C 492.5,158.5 493.5,158.5 494.5,158.5C 494.421,159.93 494.754,161.264 495.5,162.5C 492.635,164.743 491.302,167.743 491.5,171.5C 488.751,171.274 486.084,171.607 483.5,172.5C 476.34,169.183 470.007,170.183 464.5,175.5C 465.591,172.572 467.591,170.406 470.5,169C 475.457,168.254 480.29,168.754 485,170.5C 488.241,168.722 490.575,166.055 492,162.5C 492.579,161.072 492.412,159.738 491.5,158.5 Z" /></g><g><path style="opacity:1" fill="#d74f46" d="M 523.5,64.5 C 524.222,64.9175 524.722,65.5842 525,66.5C 525.667,122.5 525.667,178.5 525,234.5C 524.392,236.066 523.558,237.4 522.5,238.5C 523.488,180.529 523.821,122.529 523.5,64.5 Z" /></g><g><path style="opacity:1" fill="#c93839" d="M 418.5,155.5 C 413.833,155.5 409.167,155.5 404.5,155.5C 404.826,163.684 404.492,171.684 403.5,179.5C 401.066,175.728 399.066,171.728 397.5,167.5C 399.343,168.246 400.676,169.579 401.5,171.5C 402.086,171.291 402.586,170.957 403,170.5C 403.499,164.843 403.666,159.176 403.5,153.5C 408.944,152.892 413.944,153.558 418.5,155.5 Z" /></g><g><path style="opacity:1" fill="#ffe6e4" d="M 376.5,155.5 C 376.5,172.167 376.5,188.833 376.5,205.5C 380.516,205.713 384.35,205.046 388,203.5C 388.778,196.629 388.612,189.795 387.5,183C 387.63,181.941 388.13,181.108 389,180.5C 392.276,181.727 394.109,184.06 394.5,187.5C 394.167,187.5 393.833,187.5 393.5,187.5C 392.928,185.745 392.094,184.078 391,182.5C 390.5,190.159 390.334,197.826 390.5,205.5C 385.595,206.445 380.595,206.779 375.5,206.5C 375.17,189.325 375.503,172.325 376.5,155.5 Z" /></g><g><path style="opacity:1" fill="#ffe0dd" d="M 418.5,155.5 C 419.497,171.992 419.83,188.658 419.5,205.5C 419.167,205.5 418.833,205.5 418.5,205.5C 418.5,189.167 418.5,172.833 418.5,156.5C 414.167,156.5 409.833,156.5 405.5,156.5C 405.831,164.528 405.498,172.528 404.5,180.5C 403.893,180.376 403.56,180.043 403.5,179.5C 404.492,171.684 404.826,163.684 404.5,155.5C 409.167,155.5 413.833,155.5 418.5,155.5 Z" /></g><g><path style="opacity:1" fill="#c04642" d="M 464.5,175.5 C 463.713,187.713 469.38,193.047 481.5,191.5C 477.689,192.645 473.689,192.812 469.5,192C 463.73,187.625 462.063,182.125 464.5,175.5 Z" /></g><g><path style="opacity:1" fill="#cb4746" d="M 490.5,193.5 C 489.549,191.882 488.216,190.549 486.5,189.5C 484.925,190.456 483.258,191.123 481.5,191.5C 483.914,188.194 486.747,187.86 490,190.5C 490.483,191.448 490.649,192.448 490.5,193.5 Z" /></g><g><path style="opacity:1" fill="#b94744" d="M 393.5,187.5 C 391.853,193.265 390.853,199.265 390.5,205.5C 390.334,197.826 390.5,190.159 391,182.5C 392.094,184.078 392.928,185.745 393.5,187.5 Z" /></g><g><path style="opacity:1" fill="#cf3335" d="M 393.5,187.5 C 393.833,187.5 394.167,187.5 394.5,187.5C 397.767,193.035 400.767,198.702 403.5,204.5C 401.926,204.063 400.759,203.063 400,201.5C 397.153,197.832 394.986,193.832 393.5,189.5C 392.504,195.798 392.17,202.132 392.5,208.5C 386.402,209.117 380.735,208.45 375.5,206.5C 380.595,206.779 385.595,206.445 390.5,205.5C 390.853,199.265 391.853,193.265 393.5,187.5 Z" /></g><g><path style="opacity:1" fill="#cb3232" d="M 403.5,204.5 C 404.289,204.783 404.956,205.283 405.5,206C 410.02,206.814 414.354,206.647 418.5,205.5C 418.833,205.5 419.167,205.5 419.5,205.5C 419.5,206.5 419.5,207.5 419.5,208.5C 414.456,208.827 409.456,208.494 404.5,207.5C 403.873,206.583 403.539,205.583 403.5,204.5 Z" /></g><g><path style="opacity:1" fill="#cc2f2f" d="M 492.5,195.5 C 495.626,196.806 496.793,199.14 496,202.5C 488.864,207.326 480.864,209.326 472,208.5C 467.352,208.563 463.018,207.563 459,205.5C 458.209,204.255 457.709,202.922 457.5,201.5C 463.885,206.763 471.218,208.596 479.5,207C 485.632,206.601 490.632,204.101 494.5,199.5C 493.37,198.378 492.703,197.044 492.5,195.5 Z" /></g><g><path style="opacity:1" fill="#f7f2de" d="M 31.5,213.5 C 57.2109,215.003 82.8775,217.17 108.5,220C 113.773,220.721 118.273,222.888 122,226.5C 122.585,249.839 122.418,273.173 121.5,296.5C 102.18,297.28 82.8465,297.28 63.5,296.5C 45.4441,295.985 27.4441,294.652 9.5,292.5C 7.03136,291.683 4.36469,291.183 1.5,291C 0.944043,290.617 0.610709,290.117 0.5,289.5C 0.208839,283.077 0.542172,276.744 1.5,270.5C 2.46138,268.735 2.79472,266.735 2.5,264.5C 2.5,263.833 2.5,263.167 2.5,262.5C 3.26791,261.737 3.76791,260.737 4,259.5C 4.39877,259.728 4.56544,260.062 4.5,260.5C 4.03925,265.812 6.03925,269.812 10.5,272.5C 10.2007,275.642 8.53408,277.809 5.5,279C 9.55428,278.993 12.721,277.16 15,273.5C 15.9914,269.868 16.8248,266.201 17.5,262.5C 16.5872,258.411 14.5872,254.911 11.5,252C 8.2277,251.563 6.56104,249.73 6.5,246.5C 6.5,245.5 6.5,244.5 6.5,243.5C 7.16667,243.5 7.83333,243.5 8.5,243.5C 9.91866,244.451 11.5853,244.784 13.5,244.5C 13.8016,241.941 13.4682,239.607 12.5,237.5C 11.3995,236.395 10.7329,235.062 10.5,233.5C 14.8953,224.105 21.8953,217.438 31.5,213.5 Z" /></g><g><path style="opacity:1" fill="#231f1d" d="M 10.5,233.5 C 10.7329,235.062 11.3995,236.395 12.5,237.5C 12.5,239.5 12.5,241.5 12.5,243.5C 11.1667,243.5 9.83333,243.5 8.5,243.5C 7.83333,243.5 7.16667,243.5 6.5,243.5C 4.49495,238.894 5.82828,235.561 10.5,233.5 Z" /></g><g><path style="opacity:1" fill="#d62825" d="M 519.5,63.5 C 520.833,63.5 522.167,63.5 523.5,63.5C 523.5,63.8333 523.5,64.1667 523.5,64.5C 523.821,122.529 523.488,180.529 522.5,238.5C 522.5,239.167 522.167,239.5 521.5,239.5C 504.693,240.125 488.026,240.791 471.5,241.5C 430.499,241.667 389.499,241.5 348.5,241C 347.944,240.617 347.611,240.117 347.5,239.5C 403.498,238.833 459.498,238.5 515.5,238.5C 515.461,236.641 516.294,235.308 518,234.5C 518.638,231.464 518.472,228.464 517.5,225.5C 518.123,223.186 518.456,223.519 518.5,226.5C 519.833,226.5 521.167,226.5 522.5,226.5C 522.436,172.586 522.436,118.586 522.5,64.5C 521.209,64.7373 520.209,64.404 519.5,63.5 Z" /></g><g><path style="opacity:1" fill="#ef8079" d="M 521.5,239.5 C 521.082,240.222 520.416,240.722 519.5,241C 503.503,241.5 487.503,241.667 471.5,241.5C 488.026,240.791 504.693,240.125 521.5,239.5 Z" /></g><g><path style="opacity:1" fill="#2b2723" d="M 52.5,238.5 C 61.6861,237.604 70.3528,239.271 78.5,243.5C 79.4287,244.689 79.762,246.022 79.5,247.5C 73.8388,246.836 68.1721,246.17 62.5,245.5C 58.0361,245.46 53.7027,246.127 49.5,247.5C 49.5,244.833 49.5,242.167 49.5,239.5C 50.791,239.737 51.791,239.404 52.5,238.5 Z" /></g><g><path style="opacity:1" fill="#817a6e" d="M 12.5,237.5 C 13.4682,239.607 13.8016,241.941 13.5,244.5C 11.5853,244.784 9.91866,244.451 8.5,243.5C 9.83333,243.5 11.1667,243.5 12.5,243.5C 12.5,241.5 12.5,239.5 12.5,237.5 Z" /></g><g><path style="opacity:1" fill="#e5dfcb" d="M 55.5,255.5 C 49.192,258.214 46.5253,263.047 47.5,270C 46.8735,278.262 50.2068,284.096 57.5,287.5C 45.1045,289.291 38.4378,283.791 37.5,271C 37.9916,258.988 43.9916,253.821 55.5,255.5 Z" /></g><g><path style="opacity:1" fill="#fcfcfa" d="M 70.5,259.5 C 63.9852,259.85 60.6518,263.35 60.5,270C 61.024,276.934 64.6907,280.434 71.5,280.5C 68.6951,286.23 64.0285,288.564 57.5,287.5C 50.2068,284.096 46.8735,278.262 47.5,270C 46.5253,263.047 49.192,258.214 55.5,255.5C 61.5768,252.543 66.5768,253.876 70.5,259.5 Z" /></g><g><path style="opacity:1" fill="#262324" d="M 10.5,272.5 C 6.03925,269.812 4.03925,265.812 4.5,260.5C 10.2443,252.439 13.2443,253.772 13.5,264.5C 13.3961,266.709 13.0628,268.876 12.5,271C 12.1639,272.03 11.4972,272.53 10.5,272.5 Z" /></g><g><path style="opacity:1" fill="#262321" d="M 70.5,259.5 C 74.4003,264.869 75.4003,270.869 73.5,277.5C 73.0576,278.739 72.3909,279.739 71.5,280.5C 64.6907,280.434 61.024,276.934 60.5,270C 60.6518,263.35 63.9852,259.85 70.5,259.5 Z" /></g><g><path style="opacity:0.302" fill="#62615d" d="M 2.5,264.5 C 2.79472,266.735 2.46138,268.735 1.5,270.5C 1.06178,270.565 0.728446,270.399 0.5,270C 1.10936,268.052 1.77602,266.218 2.5,264.5 Z" /></g><g><path style="opacity:1" fill="#ded9cc" d="M 6.5,246.5 C 6.56104,249.73 8.2277,251.563 11.5,252C 14.5872,254.911 16.5872,258.411 17.5,262.5C 16.8248,266.201 15.9914,269.868 15,273.5C 12.721,277.16 9.55428,278.993 5.5,279C 8.53408,277.809 10.2007,275.642 10.5,272.5C 11.4972,272.53 12.1639,272.03 12.5,271C 13.0628,268.876 13.3961,266.709 13.5,264.5C 13.2443,253.772 10.2443,252.439 4.5,260.5C 4.56544,260.062 4.39877,259.728 4,259.5C 3.76791,260.737 3.26791,261.737 2.5,262.5C 2.96076,256.836 4.2941,251.503 6.5,246.5 Z" /></g><g><path style="opacity:0.982" fill="#080707" d="M 542.5,304.5 C 544.759,307.938 547.259,311.271 550,314.5C 555.477,324.077 557.977,334.41 557.5,345.5C 556.833,346.5 556.167,347.5 555.5,348.5C 556.045,326.08 547.045,308.914 528.5,297C 501.861,288.738 482.028,296.905 469,321.5C 465.911,328.525 464.077,335.858 463.5,343.5C 461.812,340.661 459.312,338.661 456,337.5C 454.251,339.223 453.084,341.223 452.5,343.5C 453.051,336.63 454.551,329.963 457,323.5C 460.629,316.725 464.796,310.392 469.5,304.5C 480.813,294.179 494.147,288.845 509.5,288.5C 523.65,287.751 534.65,293.084 542.5,304.5 Z" /></g><g><path style="opacity:0.991" fill="#060607" d="M 290.5,331.5 C 289.5,330.167 288.5,330.167 287.5,331.5C 277.838,303.328 258.505,292.495 229.5,299C 208.818,309.54 198.151,326.374 197.5,349.5C 197.5,347.833 197.5,346.167 197.5,344.5C 195.486,344.392 193.82,345.058 192.5,346.5C 193.826,326.011 202.826,309.845 219.5,298C 243.575,286.262 264.075,290.762 281,311.5C 285.002,317.835 288.169,324.502 290.5,331.5 Z" /></g><g><path style="opacity:1" fill="#404042" d="M 555.5,348.5 C 555.329,359.35 551.996,369.016 545.5,377.5C 540.709,378.107 537.709,380.774 536.5,385.5C 531.744,388.684 526.744,391.184 521.5,393C 520.619,393.708 519.953,394.542 519.5,395.5C 489.813,400.023 471.313,387.356 464,357.5C 463.501,352.845 463.334,348.179 463.5,343.5C 464.077,335.858 465.911,328.525 469,321.5C 482.028,296.905 501.861,288.738 528.5,297C 547.045,308.914 556.045,326.08 555.5,348.5 Z" /></g><g><path style="opacity:0.999" fill="#404042" d="M 287.5,331.5 C 291.725,347.126 290.058,362.126 282.5,376.5C 278.946,376.85 275.612,376.184 272.5,374.5C 271.614,375.325 271.281,376.325 271.5,377.5C 273.167,377.5 274.833,377.5 276.5,377.5C 276.838,380.157 276.171,382.49 274.5,384.5C 269.51,385.993 264.51,387.493 259.5,389C 258.216,390.297 258.383,391.464 260,392.5C 261.726,391.424 263.559,391.257 265.5,392C 261.931,393.942 258.598,396.108 255.5,398.5C 231.992,404.001 214.492,396.001 203,374.5C 199.238,366.593 197.404,358.259 197.5,349.5C 198.151,326.374 208.818,309.54 229.5,299C 258.505,292.495 277.838,303.328 287.5,331.5 Z" /></g><g><path style="opacity:1" fill="#404042" d="M 249.5,256.5 C 250.489,261.975 250.822,267.642 250.5,273.5C 255.626,273.875 260.626,274.875 265.5,276.5C 266.93,277.537 268.597,278.204 270.5,278.5C 280.551,284.38 288.884,292.214 295.5,302C 353.491,303.432 411.491,304.265 469.5,304.5C 464.796,310.392 460.629,316.725 457,323.5C 454.551,329.963 453.051,336.63 452.5,343.5C 399.669,345.265 346.669,345.598 293.5,344.5C 292.178,340.23 291.178,335.897 290.5,331.5C 288.169,324.502 285.002,317.835 281,311.5C 264.075,290.762 243.575,286.262 219.5,298C 202.826,309.845 193.826,326.011 192.5,346.5C 192.389,347.117 192.056,347.617 191.5,348C 146.521,350.84 101.521,351.173 56.5,349C 42.7113,348.268 29.0446,346.601 15.5,344C 8.53698,342.172 3.20365,338.338 -0.5,332.5C -0.5,318.167 -0.5,303.833 -0.5,289.5C -0.166667,289.5 0.166667,289.5 0.5,289.5C 0.610709,290.117 0.944043,290.617 1.5,291C 4.36469,291.183 7.03136,291.683 9.5,292.5C 8.16667,292.5 6.83333,292.5 5.5,292.5C 5.37531,299.216 8.70864,303.049 15.5,304C 28.8501,307.218 42.1835,307.218 55.5,304C 57.3703,302.634 59.3703,301.467 61.5,300.5C 62.7051,299.423 63.3718,298.09 63.5,296.5C 82.8465,297.28 102.18,297.28 121.5,296.5C 122.288,302.085 122.788,307.752 123,313.5C 123.903,314.701 125.069,315.535 126.5,316C 140.167,316.667 153.833,316.667 167.5,316C 172.79,308.587 177.957,301.087 183,293.5C 187.367,288.742 192.2,284.575 197.5,281C 213.953,272.942 231.287,270.109 249.5,272.5C 249.5,267.167 249.5,261.833 249.5,256.5 Z" /></g><g><path style="opacity:1" fill="#090908" d="M 9.5,292.5 C 27.4441,294.652 45.4441,295.985 63.5,296.5C 63.3718,298.09 62.7051,299.423 61.5,300.5C 59.3703,301.467 57.3703,302.634 55.5,304C 42.1835,307.218 28.8501,307.218 15.5,304C 8.70864,303.049 5.37531,299.216 5.5,292.5C 6.83333,292.5 8.16667,292.5 9.5,292.5 Z" /></g><g><path style="opacity:1" fill="#79776f" d="M 599.5,298.5 C 599.5,300.833 599.5,303.167 599.5,305.5C 580.659,305.83 561.993,305.497 543.5,304.5C 561.833,304.5 580.167,304.5 598.5,304.5C 598.205,302.265 598.539,300.265 599.5,298.5 Z" /></g><g><path style="opacity:1" fill="#3f3f41" d="M 542.5,304.5 C 542.833,304.5 543.167,304.5 543.5,304.5C 561.993,305.497 580.659,305.83 599.5,305.5C 599.475,318.799 598.475,331.966 596.5,345C 584.787,345.187 573.121,345.687 561.5,346.5C 560.264,345.754 558.93,345.421 557.5,345.5C 557.977,334.41 555.477,324.077 550,314.5C 547.259,311.271 544.759,307.938 542.5,304.5 Z" /></g><g><path style="opacity:1" fill="#211f20" d="M 505.5,325.5 C 517.133,323.951 524.299,328.951 527,340.5C 528.574,351.851 524.408,360.351 514.5,366C 507.382,367.855 501.882,365.689 498,359.5C 496.667,356.833 495.333,354.167 494,351.5C 492.51,340.28 496.343,331.614 505.5,325.5 Z" /></g><g><path style="opacity:1" fill="#211f20" d="M 238.5,327.5 C 251.068,325.553 258.568,330.886 261,343.5C 262.338,354.998 257.838,363.165 247.5,368C 237.3,368.48 231.134,363.647 229,353.5C 228.404,348.12 228.738,342.787 230,337.5C 232.614,333.91 235.448,330.576 238.5,327.5 Z" /></g><g><path style="opacity:1" fill="#424337" d="M 282.5,376.5 C 276.483,387.519 267.483,394.852 255.5,398.5C 258.598,396.108 261.931,393.942 265.5,392C 263.559,391.257 261.726,391.424 260,392.5C 258.383,391.464 258.216,390.297 259.5,389C 264.51,387.493 269.51,385.993 274.5,384.5C 276.171,382.49 276.838,380.157 276.5,377.5C 274.833,377.5 273.167,377.5 271.5,377.5C 271.281,376.325 271.614,375.325 272.5,374.5C 275.612,376.184 278.946,376.85 282.5,376.5 Z" /></g><g><path style="opacity:1" fill="#454d2c" d="M 545.5,377.5 C 539.294,387.037 530.627,393.037 519.5,395.5C 519.953,394.542 520.619,393.708 521.5,393C 526.744,391.184 531.744,388.684 536.5,385.5C 537.709,380.774 540.709,378.107 545.5,377.5 Z" /></g></svg>