<!DOCTYPE svg PUBLIC "-//W3C//DTD SVG 1.1//EN" "http://www.w3.org/Graphics/SVG/1.1/DTD/svg11.dtd"[]><svg xmlns="http://www.w3.org/2000/svg" version="1.1" width="306" height="203" style="shape-rendering:geometricPrecision; text-rendering:geometricPrecision; image-rendering:optimizeQuality; fill-rule:evenodd; clip-rule:evenodd" xmlns:xlink="http://www.w3.org/1999/xlink" viewBox="0 0 613 407"><g><path style="opacity:0.993" fill="#37343e" d="M 316.5,68.5 C 316.167,68.5 315.833,68.5 315.5,68.5C 315.5,56.5 315.5,44.5 315.5,32.5C 308.167,32.5 300.833,32.5 293.5,32.5C 285.833,32.5 278.167,32.5 270.5,32.5C 268.833,32.5 267.167,32.5 265.5,32.5C 265.5,29.8333 265.5,27.1667 265.5,24.5C 265.5,22.1667 265.5,19.8333 265.5,17.5C 283.847,16.0574 302.181,16.224 320.5,18C 322.888,20.3059 323.888,23.1392 323.5,26.5C 323.984,29.5752 322.984,31.9085 320.5,33.5C 318.216,32.584 317.049,33.584 317,36.5C 316.5,47.1615 316.333,57.8281 316.5,68.5 Z" /></g><g><path style="opacity:0.006" fill="#09070d" d="M 265.5,24.5 C 265.5,27.1667 265.5,29.8333 265.5,32.5C 267.167,32.5 268.833,32.5 270.5,32.5C 270.5,38.1667 270.5,43.8333 270.5,49.5C 266.5,49.5 262.5,49.5 258.5,49.5C 258.5,49.1667 258.5,48.8333 258.5,48.5C 262.167,48.5 265.833,48.5 269.5,48.5C 269.827,43.456 269.494,38.456 268.5,33.5C 267.522,33.9767 266.689,34.6433 266,35.5C 264.3,31.7713 264.133,28.1046 265.5,24.5 Z" /></g><g><path style="opacity:1" fill="#decda7" d="M 292.5,83.5 C 292.477,69.8224 292.81,56.1557 293.5,42.5C 294.586,42.38 295.253,41.7133 295.5,40.5C 294.452,38.5896 294.452,36.7562 295.5,35C 301.504,34.6997 307.504,34.8663 313.5,35.5C 313.097,52.0827 313.097,68.416 313.5,84.5C 306.412,84.7955 299.412,84.4621 292.5,83.5 Z" /></g><g><path style="opacity:0.427" fill="#312f35" d="M 183.5,43.5 C 184.097,42.8614 184.93,42.528 186,42.5C 190.335,43.0084 194.501,43.6751 198.5,44.5C 193.453,44.6625 188.453,44.3292 183.5,43.5 Z" /></g><g><path style="opacity:0.224" fill="#3b3640" d="M 202.5,44.5 C 206.661,44.758 210.661,44.758 214.5,44.5C 218.002,45.0111 221.335,45.6778 224.5,46.5C 221.5,46.5 218.5,46.5 215.5,46.5C 214.833,45.1667 214.167,45.1667 213.5,46.5C 209.663,46.0691 205.997,45.4025 202.5,44.5 Z" /></g><g><path style="opacity:1" fill="#b4a7be" d="M 183.5,43.5 C 188.453,44.3292 193.453,44.6625 198.5,44.5C 199.833,44.5 201.167,44.5 202.5,44.5C 205.997,45.4025 209.663,46.0691 213.5,46.5C 240.244,75.4191 266.911,104.586 293.5,134C 292.29,135.039 291.29,136.206 290.5,137.5C 281.491,138.501 272.491,138.501 263.5,137.5C 241.448,111.288 219.615,84.9544 198,58.5C 192.908,53.5781 188.075,48.5781 183.5,43.5 Z" /></g><g><path style="opacity:1" fill="#dcccb2" d="M 293.5,32.5 C 300.833,32.5 308.167,32.5 315.5,32.5C 315.5,44.5 315.5,56.5 315.5,68.5C 315.5,74.1667 315.5,79.8333 315.5,85.5C 307.826,85.6664 300.159,85.4997 292.5,85C 291.944,84.6174 291.611,84.1174 291.5,83.5C 291.833,83.5 292.167,83.5 292.5,83.5C 299.412,84.4621 306.412,84.7955 313.5,84.5C 313.097,68.416 313.097,52.0827 313.5,35.5C 307.504,34.8663 301.504,34.6997 295.5,35C 294.452,36.7562 294.452,38.5896 295.5,40.5C 295.253,41.7133 294.586,42.38 293.5,42.5C 293.5,39.1667 293.5,35.8333 293.5,32.5 Z" /></g><g><path style="opacity:1" fill="#ece5d4" d="M 270.5,32.5 C 278.167,32.5 285.833,32.5 293.5,32.5C 293.5,35.8333 293.5,39.1667 293.5,42.5C 292.81,56.1557 292.477,69.8224 292.5,83.5C 292.167,83.5 291.833,83.5 291.5,83.5C 284.854,77.1882 278.187,70.8549 271.5,64.5C 270.506,59.544 270.173,54.544 270.5,49.5C 270.5,43.8333 270.5,38.1667 270.5,32.5 Z" /></g><g><path style="opacity:0.985" fill="#35333d" d="M 183.5,43.5 C 188.075,48.5781 192.908,53.5781 198,58.5C 219.615,84.9544 241.448,111.288 263.5,137.5C 272.491,138.501 281.491,138.501 290.5,137.5C 293.698,136.964 296.365,137.631 298.5,139.5C 296.197,141.325 293.864,143.158 291.5,145C 282.173,145.5 272.839,145.666 263.5,145.5C 238.202,114.868 212.536,84.5343 186.5,54.5C 164.869,79.1356 143.202,103.802 121.5,128.5C 119.598,131.337 118.931,134.671 119.5,138.5C 112.882,140.408 107.882,138.408 104.5,132.5C 129.742,101.922 156.075,72.2549 183.5,43.5 Z" /></g><g><path style="opacity:1" fill="#b4a7bc" d="M 258.5,49.5 C 262.5,49.5 266.5,49.5 270.5,49.5C 270.173,54.544 270.506,59.544 271.5,64.5C 278.187,70.8549 284.854,77.1882 291.5,83.5C 291.611,84.1174 291.944,84.6174 292.5,85C 300.159,85.4997 307.826,85.6664 315.5,85.5C 315.5,79.8333 315.5,74.1667 315.5,68.5C 315.833,68.5 316.167,68.5 316.5,68.5C 324.466,74.798 331.799,81.798 338.5,89.5C 333.834,93.3339 329.334,97.3339 325,101.5C 323.775,101.138 322.609,100.638 321.5,100C 318.395,95.7754 315.061,91.7754 311.5,88C 310.5,87.3333 309.5,87.3333 308.5,88C 313.878,92.79 318.545,98.1234 322.5,104C 318.605,108.72 314.605,113.22 310.5,117.5C 309.635,118.583 308.635,118.749 307.5,118C 287.806,94.6779 267.472,72.0113 246.5,50C 250.486,49.5012 254.486,49.3345 258.5,49.5 Z" /></g><g><path style="opacity:1" fill="#b5a7be" d="M 215.5,46.5 C 218.5,46.5 221.5,46.5 224.5,46.5C 229.927,46.2175 235.26,46.5509 240.5,47.5C 262.863,70.0298 284.363,93.3631 305,117.5C 305.982,118.759 306.315,120.092 306,121.5C 302.333,125.167 298.667,128.833 295,132.5C 269.002,103.336 242.502,74.6697 215.5,46.5 Z" /></g><g><path style="opacity:0.37" fill="#49454f" d="M 344.5,94.5 C 358.295,95.1328 371.962,95.7995 385.5,96.5C 383.833,96.5 382.167,96.5 380.5,96.5C 368.5,96.5 356.5,96.5 344.5,96.5C 344.5,95.8333 344.5,95.1667 344.5,94.5 Z" /></g><g><path style="opacity:0.253" fill="#5d5760" d="M 413.5,96.5 C 415.089,95.3789 416.756,95.5456 418.5,97C 426.677,97.1708 434.677,97.6708 442.5,98.5C 433.416,98.8044 424.416,98.4711 415.5,97.5C 415.158,96.6618 414.492,96.3284 413.5,96.5 Z" /></g><g><path style="opacity:1" fill="#9b8da6" d="M 215.5,46.5 C 242.502,74.6697 269.002,103.336 295,132.5C 298.667,128.833 302.333,125.167 306,121.5C 306.315,120.092 305.982,118.759 305,117.5C 284.363,93.3631 262.863,70.0298 240.5,47.5C 246.27,47.9337 252.27,48.2671 258.5,48.5C 258.5,48.8333 258.5,49.1667 258.5,49.5C 254.486,49.3345 250.486,49.5012 246.5,50C 267.472,72.0113 287.806,94.6779 307.5,118C 308.635,118.749 309.635,118.583 310.5,117.5C 314.605,113.22 318.605,108.72 322.5,104C 318.545,98.1234 313.878,92.79 308.5,88C 309.5,87.3333 310.5,87.3333 311.5,88C 315.061,91.7754 318.395,95.7754 321.5,100C 322.609,100.638 323.775,101.138 325,101.5C 329.334,97.3339 333.834,93.3339 338.5,89.5C 341.089,90.4194 343.089,92.086 344.5,94.5C 344.5,95.1667 344.5,95.8333 344.5,96.5C 328.459,110.212 313.126,124.545 298.5,139.5C 296.365,137.631 293.698,136.964 290.5,137.5C 291.29,136.206 292.29,135.039 293.5,134C 266.911,104.586 240.244,75.4191 213.5,46.5C 214.167,45.1667 214.833,45.1667 215.5,46.5 Z" /></g><g><path style="opacity:1" fill="#b4a7be" d="M 344.5,96.5 C 356.5,96.5 368.5,96.5 380.5,96.5C 382.969,97.3171 385.635,97.8171 388.5,98C 368.695,118.805 348.529,139.305 328,159.5C 325.59,162.397 323.423,165.397 321.5,168.5C 316.5,168.5 311.5,168.5 306.5,168.5C 303.359,167.679 300.025,167.179 296.5,167C 309.681,154.749 322.514,142.249 335,129.5C 335.688,128.668 335.521,128.002 334.5,127.5C 321.041,140.459 307.708,153.625 294.5,167C 289.177,167.499 283.844,167.666 278.5,167.5C 275.287,167.19 272.287,167.523 269.5,168.5C 268.903,168.265 268.57,167.765 268.5,167C 270.351,165.317 272.017,163.484 273.5,161.5C 279.32,157.179 284.653,152.345 289.5,147C 283.175,146.5 276.842,146.334 270.5,146.5C 267.941,146.802 265.607,146.468 263.5,145.5C 272.839,145.666 282.173,145.5 291.5,145C 293.864,143.158 296.197,141.325 298.5,139.5C 313.126,124.545 328.459,110.212 344.5,96.5 Z" /></g><g><path style="opacity:1" fill="#95899e" d="M 390.5,97.5 C 390.5,97.1667 390.5,96.8333 390.5,96.5C 398.262,96.6958 405.929,96.6958 413.5,96.5C 414.492,96.3284 415.158,96.6618 415.5,97.5C 394.548,121.62 372.715,144.953 350,167.5C 349.5,167.333 349,167.167 348.5,167C 370.065,144.524 391.398,121.858 412.5,99C 405.229,97.6997 397.896,97.1997 390.5,97.5 Z" /></g><g><path style="opacity:1" fill="#ece6d3" d="M 263.5,145.5 C 265.607,146.468 267.941,146.802 270.5,146.5C 270.5,151.5 270.5,156.5 270.5,161.5C 271.5,161.5 272.5,161.5 273.5,161.5C 272.017,163.484 270.351,165.317 268.5,167C 268.57,167.765 268.903,168.265 269.5,168.5C 269.833,169.833 270.167,171.167 270.5,172.5C 270.5,186.5 270.5,200.5 270.5,214.5C 254.658,214.17 238.991,214.504 223.5,215.5C 220.247,220.259 216.413,224.592 212,228.5C 211.5,218.839 211.334,209.172 211.5,199.5C 193.674,198.503 175.674,198.17 157.5,198.5C 156.169,206.639 155.502,215.139 155.5,224C 155.5,232.673 155.834,241.173 156.5,249.5C 168.505,249.333 180.505,249.5 192.5,250C 181.667,262.167 170.833,274.333 160,286.5C 159.333,287.5 159.333,288.5 160,289.5C 161.685,291.017 163.185,292.684 164.5,294.5C 167.645,295.803 170.645,295.803 173.5,294.5C 174.15,294.804 174.817,295.137 175.5,295.5C 176.498,303.472 176.831,311.472 176.5,319.5C 178.167,319.5 179.833,319.5 181.5,319.5C 181.5,330.167 181.5,340.833 181.5,351.5C 179.833,351.5 178.167,351.5 176.5,351.5C 176.973,341.335 176.473,331.335 175,321.5C 174.83,331.342 174.33,341.009 173.5,350.5C 173.5,340.5 173.5,330.5 173.5,320.5C 167.833,320.5 162.167,320.5 156.5,320.5C 156.5,342.833 156.5,365.167 156.5,387.5C 150.923,387.856 145.59,388.856 140.5,390.5C 139.833,390.5 139.167,390.5 138.5,390.5C 132.926,388.547 126.926,387.88 120.5,388.5C 121.662,335.571 121.828,282.571 121,229.5C 120.819,226.305 120.319,223.305 119.5,220.5C 119.329,199.901 119.329,179.234 119.5,158.5C 120.189,148.599 120.856,138.599 121.5,128.5C 143.202,103.802 164.869,79.1356 186.5,54.5C 212.536,84.5343 238.202,114.868 263.5,145.5 Z" /></g><g><path style="opacity:1" fill="#dfcda7" d="M 479.5,175.5 C 480.326,209.071 480.326,242.404 479.5,275.5C 479.335,299.21 479.335,322.876 479.5,346.5C 478.513,351.305 478.179,356.305 478.5,361.5C 474.5,361.833 474.5,362.167 478.5,362.5C 478.19,365.713 478.523,368.713 479.5,371.5C 480.833,371.833 480.833,372.167 479.5,372.5C 456.464,372.126 433.464,372.792 410.5,374.5C 406.833,374.333 403.167,374.167 399.5,374C 403.377,373.743 407.043,372.743 410.5,371C 404.936,369.15 399.269,369.15 393.5,371C 392.594,372.699 392.261,374.533 392.5,376.5C 390.079,376.878 387.746,377.545 385.5,378.5C 385.5,353.5 385.5,328.5 385.5,303.5C 387.001,324.981 388.001,346.648 388.5,368.5C 389.008,342.027 389.841,315.693 391,289.5C 391.503,294.19 392.17,298.857 393,303.5C 393.167,325.508 393.667,347.508 394.5,369.5C 396.002,368.917 397.335,368.084 398.5,367C 397.777,339.554 396.777,312.054 395.5,284.5C 395.404,273.503 396.07,262.67 397.5,252C 397.333,247.833 397.167,243.667 397,239.5C 395,237.167 395,234.833 397,232.5C 396.872,212.874 397.706,193.374 399.5,174C 399.167,173.5 398.833,173 398.5,172.5C 397.167,173.5 395.833,174.5 394.5,175.5C 394.027,194.889 393.027,214.222 391.5,233.5C 392.33,238.143 392.997,242.81 393.5,247.5C 392.348,255.114 391.681,262.781 391.5,270.5C 391.85,276.189 392.017,281.856 392,287.5C 391.586,287.957 391.086,288.291 390.5,288.5C 390.167,282 389.833,275.5 389.5,269C 389.641,237.851 389.808,206.684 390,175.5C 392.195,172.817 391.862,170.483 389,168.5C 388.333,169.167 387.667,169.833 387,170.5C 386.832,190.338 386.332,210.004 385.5,229.5C 385.83,209.326 385.497,189.326 384.5,169.5C 401.558,152.444 418.225,135.11 434.5,117.5C 436.118,115.215 438.118,113.215 440.5,111.5C 453.476,128.106 465.976,145.106 478,162.5C 479.367,166.7 479.867,171.033 479.5,175.5 Z" /></g><g><path style="opacity:1" fill="#b5a7be" d="M 390.5,97.5 C 397.896,97.1997 405.229,97.6997 412.5,99C 391.398,121.858 370.065,144.524 348.5,167C 349,167.167 349.5,167.333 350,167.5C 372.715,144.953 394.548,121.62 415.5,97.5C 424.416,98.4711 433.416,98.8044 442.5,98.5C 442.291,99.9217 441.791,101.255 441,102.5C 436.918,106.076 433.418,110.076 430.5,114.5C 412.034,132.133 394.034,150.3 376.5,169C 358.847,168.717 341.181,168.551 323.5,168.5C 346.261,145.077 368.594,121.41 390.5,97.5 Z" /></g><g><path style="opacity:1" fill="#9f91a8" d="M 390.5,96.5 C 390.5,96.8333 390.5,97.1667 390.5,97.5C 368.594,121.41 346.261,145.077 323.5,168.5C 322.833,168.5 322.167,168.5 321.5,168.5C 323.423,165.397 325.59,162.397 328,159.5C 348.529,139.305 368.695,118.805 388.5,98C 385.635,97.8171 382.969,97.3171 380.5,96.5C 382.167,96.5 383.833,96.5 385.5,96.5C 387.475,96.1778 389.142,96.1778 390.5,96.5 Z" /></g><g><path style="opacity:1" fill="#383541" d="M 161.5,125.5 C 178.167,125.5 194.833,125.5 211.5,125.5C 211.5,142.167 211.5,158.833 211.5,175.5C 200.654,175.172 189.987,175.506 179.5,176.5C 171.833,176.5 164.167,176.5 156.5,176.5C 156.5,159.5 156.5,142.5 156.5,125.5C 158.167,125.5 159.833,125.5 161.5,125.5 Z" /></g><g><path style="opacity:1" fill="#423d3d" d="M 434.5,117.5 C 418.225,135.11 401.558,152.444 384.5,169.5C 382.734,171.771 380.734,173.937 378.5,176C 356.68,175.938 335.013,175.438 313.5,174.5C 334.836,174.667 356.169,174.5 377.5,174C 377.167,173.667 376.833,173.333 376.5,173C 379.612,171.057 382.279,168.557 384.5,165.5C 385.325,164.614 386.325,164.281 387.5,164.5C 387.833,162.5 388.167,160.5 388.5,158.5C 390.288,158.785 391.955,158.452 393.5,157.5C 397.632,151.029 402.965,146.029 409.5,142.5C 409.343,141.127 409.51,139.793 410,138.5C 413.414,134.416 417.414,131.082 422,128.5C 424.142,126.382 425.642,123.882 426.5,121C 427.745,120.209 429.078,119.709 430.5,119.5C 431.467,118.194 432.801,117.527 434.5,117.5 Z" /></g><g><path style="opacity:0.97" fill="#35323b" d="M 442.5,98.5 C 458.557,120.256 474.39,142.256 490,164.5C 490.481,168.734 488.981,172.234 485.5,175C 483.527,175.495 481.527,175.662 479.5,175.5C 479.867,171.033 479.367,166.7 478,162.5C 465.976,145.106 453.476,128.106 440.5,111.5C 438.118,113.215 436.118,115.215 434.5,117.5C 432.801,117.527 431.467,118.194 430.5,119.5C 430.822,117.525 430.822,115.858 430.5,114.5C 433.418,110.076 436.918,106.076 441,102.5C 441.791,101.255 442.291,99.9217 442.5,98.5 Z" /></g><g><path style="opacity:1" fill="#b3a7be" d="M 188.5,128.5 C 195.5,128.5 202.5,128.5 209.5,128.5C 209.5,141.833 209.5,155.167 209.5,168.5C 202.5,168.5 195.5,168.5 188.5,168.5C 188.5,155.167 188.5,141.833 188.5,128.5 Z" /></g><g><path style="opacity:0.145" fill="#626058" d="M 121.5,128.5 C 120.856,138.599 120.189,148.599 119.5,158.5C 119.5,151.833 119.5,145.167 119.5,138.5C 118.931,134.671 119.598,131.337 121.5,128.5 Z" /></g><g><path style="opacity:1" fill="#ddceab" d="M 270.5,146.5 C 276.842,146.334 283.175,146.5 289.5,147C 284.653,152.345 279.32,157.179 273.5,161.5C 272.5,161.5 271.5,161.5 270.5,161.5C 270.5,156.5 270.5,151.5 270.5,146.5 Z" /></g><g><path style="opacity:1" fill="#b1a6bb" d="M 163.5,128.5 C 170.422,128.188 177.256,128.521 184,129.5C 184.5,142.496 184.667,155.496 184.5,168.5C 177.5,168.5 170.5,168.5 163.5,168.5C 163.5,155.167 163.5,141.833 163.5,128.5 Z" /></g><g><path style="opacity:1" fill="#94899f" d="M 306.5,168.5 C 296.985,168.827 287.652,168.494 278.5,167.5C 283.844,167.666 289.177,167.499 294.5,167C 307.708,153.625 321.041,140.459 334.5,127.5C 335.521,128.002 335.688,128.668 335,129.5C 322.514,142.249 309.681,154.749 296.5,167C 300.025,167.179 303.359,167.679 306.5,168.5 Z" /></g><g><path style="opacity:1" fill="#b4b0a8" d="M 179.5,176.5 C 189.987,175.506 200.654,175.172 211.5,175.5C 211.5,158.833 211.5,142.167 211.5,125.5C 194.833,125.5 178.167,125.5 161.5,125.5C 177.995,124.668 194.662,124.168 211.5,124C 206.459,122.992 206.792,122.492 212.5,122.5C 212.5,140.5 212.5,158.5 212.5,176.5C 201.5,176.5 190.5,176.5 179.5,176.5 Z" /></g><g><path style="opacity:1" fill="#3a3744" d="M 430.5,114.5 C 430.822,115.858 430.822,117.525 430.5,119.5C 429.078,119.709 427.745,120.209 426.5,121C 425.642,123.882 424.142,126.382 422,128.5C 417.414,131.082 413.414,134.416 410,138.5C 409.51,139.793 409.343,141.127 409.5,142.5C 402.965,146.029 397.632,151.029 393.5,157.5C 391.955,158.452 390.288,158.785 388.5,158.5C 388.167,160.5 387.833,162.5 387.5,164.5C 386.325,164.281 385.325,164.614 384.5,165.5C 382.279,168.557 379.612,171.057 376.5,173C 376.833,173.333 377.167,173.667 377.5,174C 356.169,174.5 334.836,174.667 313.5,174.5C 303.167,174.5 292.833,174.5 282.5,174.5C 278.439,173.994 274.439,173.327 270.5,172.5C 270.167,171.167 269.833,169.833 269.5,168.5C 272.287,167.523 275.287,167.19 278.5,167.5C 287.652,168.494 296.985,168.827 306.5,168.5C 311.5,168.5 316.5,168.5 321.5,168.5C 322.167,168.5 322.833,168.5 323.5,168.5C 341.181,168.551 358.847,168.717 376.5,169C 394.034,150.3 412.034,132.133 430.5,114.5 Z" /></g><g><path style="opacity:1" fill="#eee7d1" d="M 424.5,160.5 C 432.5,160.5 440.5,160.5 448.5,160.5C 448.5,176.167 448.5,191.833 448.5,207.5C 440.5,207.5 432.5,207.5 424.5,207.5C 424.5,191.833 424.5,176.167 424.5,160.5 Z" /></g><g><path style="opacity:1" fill="#eee7d4" d="M 384.5,169.5 C 385.497,189.326 385.83,209.326 385.5,229.5C 385.5,254.167 385.5,278.833 385.5,303.5C 385.5,328.5 385.5,353.5 385.5,378.5C 385.5,378.833 385.5,379.167 385.5,379.5C 381.206,380.352 376.873,381.018 372.5,381.5C 369.918,381.975 367.918,381.308 366.5,379.5C 366.5,351.167 366.5,322.833 366.5,294.5C 370.816,294.418 373.816,292.418 375.5,288.5C 376.573,287.749 376.74,286.749 376,285.5C 352.195,262.695 328.695,239.528 305.5,216C 297.656,215.829 289.989,215.329 282.5,214.5C 282.5,201.167 282.5,187.833 282.5,174.5C 292.833,174.5 303.167,174.5 313.5,174.5C 335.013,175.438 356.68,175.938 378.5,176C 380.734,173.937 382.734,171.771 384.5,169.5 Z" /></g><g><path style="opacity:1" fill="#decea7" d="M 270.5,172.5 C 274.439,173.327 278.439,173.994 282.5,174.5C 282.5,187.833 282.5,201.167 282.5,214.5C 278.5,214.5 274.5,214.5 270.5,214.5C 270.5,200.5 270.5,186.5 270.5,172.5 Z" /></g><g><path style="opacity:1" fill="#b5a7be" d="M 223.5,215.5 C 238.991,214.504 254.658,214.17 270.5,214.5C 274.5,214.5 278.5,214.5 282.5,214.5C 289.989,215.329 297.656,215.829 305.5,216C 328.695,239.528 352.195,262.695 376,285.5C 376.74,286.749 376.573,287.749 375.5,288.5C 356.863,286.513 337.863,285.846 318.5,286.5C 297.957,261.785 276.124,238.118 253,215.5C 252.5,215.667 252,215.833 251.5,216C 273.829,238.818 295.163,262.318 315.5,286.5C 307.826,286.666 300.159,286.5 292.5,286C 270.412,261.744 247.412,238.244 223.5,215.5 Z" /></g><g><path style="opacity:1" fill="#b2ada9" d="M 157.5,198.5 C 156.515,215.423 156.182,232.423 156.5,249.5C 155.834,241.173 155.5,232.673 155.5,224C 155.502,215.139 156.169,206.639 157.5,198.5 Z" /></g><g><path style="opacity:1" fill="#efe7d3" d="M 426.5,230.5 C 433.755,230.187 440.921,230.52 448,231.5C 448.5,246.83 448.667,262.163 448.5,277.5C 440.833,277.5 433.167,277.5 425.5,277.5C 425.183,261.756 425.516,246.089 426.5,230.5 Z" /></g><g><path style="opacity:1" fill="#ede7d4" d="M 239.5,241.5 C 253.795,258.129 268.795,274.129 284.5,289.5C 284.53,322.261 284.53,354.928 284.5,387.5C 284.957,388.298 285.624,388.631 286.5,388.5C 286.5,389.167 286.5,389.833 286.5,390.5C 272.569,390.363 258.569,390.363 244.5,390.5C 244.5,389.833 244.5,389.167 244.5,388.5C 246.298,382.579 247.131,376.246 247,369.5C 247.5,355.837 247.667,342.171 247.5,328.5C 248.473,326.052 248.806,323.385 248.5,320.5C 244.298,320.183 240.298,320.517 236.5,321.5C 226.422,321.348 216.422,322.014 206.5,323.5C 205.649,336.853 205.982,350.186 207.5,363.5C 207.198,371.918 207.531,380.252 208.5,388.5C 205.302,387.964 202.635,388.631 200.5,390.5C 189.806,390.709 179.14,390.375 168.5,389.5C 168.5,389.167 168.5,388.833 168.5,388.5C 170.167,388.5 171.833,388.5 173.5,388.5C 173.5,375.833 173.5,363.167 173.5,350.5C 174.33,341.009 174.83,331.342 175,321.5C 176.473,331.335 176.973,341.335 176.5,351.5C 178.167,351.5 179.833,351.5 181.5,351.5C 181.5,340.833 181.5,330.167 181.5,319.5C 179.833,319.5 178.167,319.5 176.5,319.5C 176.831,311.472 176.498,303.472 175.5,295.5C 174.817,295.137 174.15,294.804 173.5,294.5C 173.335,291.15 173.502,287.817 174,284.5C 191.393,265.61 208.226,246.277 224.5,226.5C 229.161,231.827 234.161,236.827 239.5,241.5 Z" /></g><g><path style="opacity:1" fill="#3a3642" d="M 211.5,199.5 C 211.334,209.172 211.5,218.839 212,228.5C 216.413,224.592 220.247,220.259 223.5,215.5C 247.412,238.244 270.412,261.744 292.5,286C 300.159,286.5 307.826,286.666 315.5,286.5C 316.5,286.5 317.5,286.5 318.5,286.5C 337.863,285.846 356.863,286.513 375.5,288.5C 373.816,292.418 370.816,294.418 366.5,294.5C 340.498,294.667 314.498,294.5 288.5,294C 286.93,292.603 285.596,291.103 284.5,289.5C 268.795,274.129 253.795,258.129 239.5,241.5C 239.804,240.85 240.137,240.183 240.5,239.5C 238.51,237.344 236.343,235.344 234,233.5C 231.76,230.179 229.427,226.846 227,223.5C 224.334,224.893 221.834,226.559 219.5,228.5C 218.571,229.689 218.238,231.022 218.5,232.5C 216.345,232.372 214.345,232.872 212.5,234C 213.167,234.333 213.833,234.667 214.5,235C 211.353,237.918 208.686,241.251 206.5,245C 202.667,245.5 200.5,247.667 200,251.5C 198.667,247.5 197.333,247.5 196,251.5C 193.266,250.638 193.099,249.805 195.5,249C 183.167,248.667 170.833,248.333 158.5,248C 158.222,232.25 158.222,216.417 158.5,200.5C 161.385,200.194 164.052,200.527 166.5,201.5C 165.5,201.5 164.5,201.5 163.5,201.5C 163.5,214.833 163.5,228.167 163.5,241.5C 170.5,241.5 177.5,241.5 184.5,241.5C 184.667,228.496 184.5,215.496 184,202.5C 179.263,201.531 174.43,201.197 169.5,201.5C 183.311,200.114 197.311,199.448 211.5,199.5 Z" /></g><g><path style="opacity:1" fill="#b1a5bb" d="M 189.5,201.5 C 195.893,201.207 202.227,201.54 208.5,202.5C 209.666,212.483 209.832,222.483 209,232.5C 206.128,235.037 203.628,237.87 201.5,241C 197.179,241.499 192.846,241.666 188.5,241.5C 188.186,228.087 188.519,214.754 189.5,201.5 Z" /></g><g><path style="opacity:1" fill="#b2a7bc" d="M 166.5,201.5 C 167.5,201.5 168.5,201.5 169.5,201.5C 174.43,201.197 179.263,201.531 184,202.5C 184.5,215.496 184.667,228.496 184.5,241.5C 177.5,241.5 170.5,241.5 163.5,241.5C 163.5,228.167 163.5,214.833 163.5,201.5C 164.5,201.5 165.5,201.5 166.5,201.5 Z" /></g><g><path style="opacity:1" fill="#a092a9" d="M 318.5,286.5 C 317.5,286.5 316.5,286.5 315.5,286.5C 295.163,262.318 273.829,238.818 251.5,216C 252,215.833 252.5,215.667 253,215.5C 276.124,238.118 297.957,261.785 318.5,286.5 Z" /></g><g><path style="opacity:1" fill="#3a383f" d="M 157.5,198.5 C 175.674,198.17 193.674,198.503 211.5,199.5C 197.311,199.448 183.311,200.114 169.5,201.5C 168.5,201.5 167.5,201.5 166.5,201.5C 164.052,200.527 161.385,200.194 158.5,200.5C 158.222,216.417 158.222,232.25 158.5,248C 170.833,248.333 183.167,248.667 195.5,249C 193.099,249.805 193.266,250.638 196,251.5C 197.333,247.5 198.667,247.5 200,251.5C 200.5,247.667 202.667,245.5 206.5,245C 208.686,241.251 211.353,237.918 214.5,235C 213.833,234.667 213.167,234.333 212.5,234C 214.345,232.872 216.345,232.372 218.5,232.5C 218.238,231.022 218.571,229.689 219.5,228.5C 221.834,226.559 224.334,224.893 227,223.5C 229.427,226.846 231.76,230.179 234,233.5C 236.343,235.344 238.51,237.344 240.5,239.5C 240.137,240.183 239.804,240.85 239.5,241.5C 234.161,236.827 229.161,231.827 224.5,226.5C 208.226,246.277 191.393,265.61 174,284.5C 173.502,287.817 173.335,291.15 173.5,294.5C 170.645,295.803 167.645,295.803 164.5,294.5C 163.185,292.684 161.685,291.017 160,289.5C 159.333,288.5 159.333,287.5 160,286.5C 170.833,274.333 181.667,262.167 192.5,250C 180.505,249.5 168.505,249.333 156.5,249.5C 156.182,232.423 156.515,215.423 157.5,198.5 Z" /></g><g><path style="opacity:1" fill="#a092a9" d="M 284.5,216.5 C 291.988,223.432 299.488,230.432 307,237.5C 315.547,247.724 324.547,257.724 334,267.5C 334.749,268.635 334.583,269.635 333.5,270.5C 317.179,252.512 300.846,234.512 284.5,216.5 Z" /></g><g><path style="opacity:1" fill="#3c3842" d="M 221.5,265.5 C 239.376,265.857 245.876,274.523 241,291.5C 235.597,298.947 228.43,301.447 219.5,299C 206.754,290.361 205.421,280.361 215.5,269C 217.432,267.541 219.432,266.375 221.5,265.5 Z" /></g><g><path style="opacity:1" fill="#b1a7bb" d="M 223.5,268.5 C 237.826,269.502 242.16,276.502 236.5,289.5C 226.256,297.782 218.756,295.782 214,283.5C 213.333,281.167 213.333,278.833 214,276.5C 216.161,272.495 219.328,269.829 223.5,268.5 Z" /></g><g><path style="opacity:1" fill="#dfcea6" d="M 366.5,379.5 C 367.918,381.308 369.918,381.975 372.5,381.5C 364.059,383.123 355.392,384.123 346.5,384.5C 343.425,384.407 341.425,385.74 340.5,388.5C 339.167,388.5 337.833,388.5 336.5,388.5C 320.342,387.504 304.009,387.17 287.5,387.5C 287.147,363.815 286.814,340.148 286.5,316.5C 286.816,311.08 287.816,305.914 289.5,301C 287.963,299.89 287.297,298.39 287.5,296.5C 308.351,296.793 329.185,296.46 350,295.5C 354.413,295.951 358.747,296.618 363,297.5C 364.279,312.671 364.445,327.838 363.5,343C 364.04,348.871 364.707,354.704 365.5,360.5C 364.805,363.28 363.805,365.947 362.5,368.5C 363.711,369.874 364.711,371.374 365.5,373C 363.799,374.86 362.799,377.027 362.5,379.5C 363.833,379.5 365.167,379.5 366.5,379.5 Z" /></g><g><path style="opacity:1" fill="#decea5" d="M 385.5,303.5 C 385.5,278.833 385.5,254.167 385.5,229.5C 386.332,210.004 386.832,190.338 387,170.5C 387.667,169.833 388.333,169.167 389,168.5C 391.862,170.483 392.195,172.817 390,175.5C 389.808,206.684 389.641,237.851 389.5,269C 389.833,275.5 390.167,282 390.5,288.5C 391.086,288.291 391.586,287.957 392,287.5C 392.017,281.856 391.85,276.189 391.5,270.5C 391.681,262.781 392.348,255.114 393.5,247.5C 392.997,242.81 392.33,238.143 391.5,233.5C 393.027,214.222 394.027,194.889 394.5,175.5C 395.833,174.5 397.167,173.5 398.5,172.5C 398.833,173 399.167,173.5 399.5,174C 397.706,193.374 396.872,212.874 397,232.5C 395,234.833 395,237.167 397,239.5C 397.167,243.667 397.333,247.833 397.5,252C 396.07,262.67 395.404,273.503 395.5,284.5C 396.777,312.054 397.777,339.554 398.5,367C 397.335,368.084 396.002,368.917 394.5,369.5C 393.667,347.508 393.167,325.508 393,303.5C 392.17,298.857 391.503,294.19 391,289.5C 389.841,315.693 389.008,342.027 388.5,368.5C 388.001,346.648 387.001,324.981 385.5,303.5 Z" /></g><g><path style="opacity:1" fill="#d2bb8b" d="M 424.5,300.5 C 432.42,300.185 440.253,300.518 448,301.5C 448.667,317.5 448.667,333.5 448,349.5C 440.333,348.833 432.667,348.167 425,347.5C 424.5,331.837 424.333,316.17 424.5,300.5 Z" /></g><g><path style="opacity:1" fill="#a39f9a" d="M 236.5,321.5 C 240.298,320.517 244.298,320.183 248.5,320.5C 248.806,323.385 248.473,326.052 247.5,328.5C 247.5,327.833 247.5,327.167 247.5,326.5C 247.5,324.833 247.5,323.167 247.5,321.5C 243.833,321.5 240.167,321.5 236.5,321.5 Z" /></g><g><path style="opacity:0.75" fill="#796f5f" d="M 479.5,275.5 C 480.682,299.226 480.682,322.892 479.5,346.5C 479.335,322.876 479.335,299.21 479.5,275.5 Z" /></g><g><path style="opacity:1" fill="#ded0b0" d="M 284.5,289.5 C 285.596,291.103 286.93,292.603 288.5,294C 314.498,294.5 340.498,294.667 366.5,294.5C 366.5,322.833 366.5,351.167 366.5,379.5C 365.167,379.5 363.833,379.5 362.5,379.5C 362.799,377.027 363.799,374.86 365.5,373C 364.711,371.374 363.711,369.874 362.5,368.5C 363.805,365.947 364.805,363.28 365.5,360.5C 364.707,354.704 364.04,348.871 363.5,343C 364.445,327.838 364.279,312.671 363,297.5C 358.747,296.618 354.413,295.951 350,295.5C 329.185,296.46 308.351,296.793 287.5,296.5C 287.297,298.39 287.963,299.89 289.5,301C 287.816,305.914 286.816,311.08 286.5,316.5C 286.814,340.148 287.147,363.815 287.5,387.5C 304.009,387.17 320.342,387.504 336.5,388.5C 319.833,388.5 303.167,388.5 286.5,388.5C 285.624,388.631 284.957,388.298 284.5,387.5C 284.53,354.928 284.53,322.261 284.5,289.5 Z" /></g><g><path style="opacity:1" fill="#d1ba8b" d="M 337.5,318.5 C 343.758,318.19 349.924,318.524 356,319.5C 356.5,328.494 356.666,337.494 356.5,346.5C 349.5,346.5 342.5,346.5 335.5,346.5C 334.903,336.903 335.569,327.57 337.5,318.5 Z" /></g><g><path style="opacity:1" fill="#d1ba8a" d="M 303.5,319.5 C 310.09,319.189 316.59,319.522 323,320.5C 323.5,329.16 323.666,337.827 323.5,346.5C 316.833,346.5 310.167,346.5 303.5,346.5C 303.5,337.5 303.5,328.5 303.5,319.5 Z" /></g><g><path style="opacity:1" fill="#363441" d="M 247.5,326.5 C 247.5,327.167 247.5,327.833 247.5,328.5C 246.769,333.855 246.102,339.355 245.5,345C 244.576,346.811 243.743,346.645 243,344.5C 242.617,345.056 242.117,345.389 241.5,345.5C 241.5,348.5 241.5,351.5 241.5,354.5C 242.833,354.5 244.167,354.5 245.5,354.5C 245.992,358.457 245.325,362.123 243.5,365.5C 244.52,371.97 244.52,378.637 243.5,385.5C 234.215,386.64 224.881,386.806 215.5,386C 214,385.167 212.833,384 212,382.5C 210.509,371.869 209.342,361.202 208.5,350.5C 208.292,345.343 208.958,340.343 210.5,335.5C 210.392,334.558 210.059,333.725 209.5,333C 210.964,331.136 211.964,328.969 212.5,326.5C 218.569,324.284 224.736,323.951 231,325.5C 233.616,324.347 236.282,323.347 239,322.5C 241.354,322.892 243.854,322.892 246.5,322.5C 246.232,324.099 246.566,325.432 247.5,326.5 Z" /></g><g><path style="opacity:0.609" fill="#c5c793" d="M 119.5,220.5 C 120.319,223.305 120.819,226.305 121,229.5C 121.828,282.571 121.662,335.571 120.5,388.5C 119.501,332.669 119.168,276.669 119.5,220.5 Z" /></g><g><path style="opacity:0.752" fill="#8c826d" d="M 479.5,346.5 C 480.435,355.033 480.435,363.366 479.5,371.5C 478.523,368.713 478.19,365.713 478.5,362.5C 474.5,362.167 474.5,361.833 478.5,361.5C 478.179,356.305 478.513,351.305 479.5,346.5 Z" /></g><g><path style="opacity:1" fill="#3b383c" d="M 173.5,350.5 C 173.5,363.167 173.5,375.833 173.5,388.5C 171.833,388.5 170.167,388.5 168.5,388.5C 164.4,388.763 160.4,388.43 156.5,387.5C 156.5,365.167 156.5,342.833 156.5,320.5C 162.167,320.5 167.833,320.5 173.5,320.5C 173.5,330.5 173.5,340.5 173.5,350.5 Z" /></g><g><path style="opacity:1" fill="#353440" d="M 167.5,322.5 C 170.286,322.956 171.619,324.623 171.5,327.5C 170.513,339.794 170.513,352.127 171.5,364.5C 170.905,370.826 170.405,377.159 170,383.5C 169.057,385.954 167.224,386.954 164.5,386.5C 161.131,387.197 159.297,385.864 159,382.5C 158.133,362.77 157.633,343.103 157.5,323.5C 159.92,323.292 162.253,323.626 164.5,324.5C 165.739,324.058 166.739,323.391 167.5,322.5 Z" /></g><g><path style="opacity:1" fill="#dad09e" d="M 479.5,372.5 C 474.36,373.488 469.026,373.821 463.5,373.5C 437.329,373.427 411.329,375.427 385.5,379.5C 385.5,379.167 385.5,378.833 385.5,378.5C 387.746,377.545 390.079,376.878 392.5,376.5C 392.261,374.533 392.594,372.699 393.5,371C 399.269,369.15 404.936,369.15 410.5,371C 407.043,372.743 403.377,373.743 399.5,374C 403.167,374.167 406.833,374.333 410.5,374.5C 433.464,372.792 456.464,372.126 479.5,372.5 Z" /></g><g><path style="opacity:1" fill="#403e42" d="M 236.5,321.5 C 240.167,321.5 243.833,321.5 247.5,321.5C 247.5,323.167 247.5,324.833 247.5,326.5C 246.566,325.432 246.232,324.099 246.5,322.5C 243.854,322.892 241.354,322.892 239,322.5C 236.282,323.347 233.616,324.347 231,325.5C 224.736,323.951 218.569,324.284 212.5,326.5C 211.964,328.969 210.964,331.136 209.5,333C 210.059,333.725 210.392,334.558 210.5,335.5C 208.958,340.343 208.292,345.343 208.5,350.5C 209.342,361.202 210.509,371.869 212,382.5C 212.833,384 214,385.167 215.5,386C 224.881,386.806 234.215,386.64 243.5,385.5C 244.52,378.637 244.52,371.97 243.5,365.5C 245.325,362.123 245.992,358.457 245.5,354.5C 244.167,354.5 242.833,354.5 241.5,354.5C 241.5,351.5 241.5,348.5 241.5,345.5C 242.117,345.389 242.617,345.056 243,344.5C 243.743,346.645 244.576,346.811 245.5,345C 246.102,339.355 246.769,333.855 247.5,328.5C 247.667,342.171 247.5,355.837 247,369.5C 247.131,376.246 246.298,382.579 244.5,388.5C 232.884,387.542 221.217,387.209 209.5,387.5C 209.05,379.335 208.384,371.335 207.5,363.5C 205.982,350.186 205.649,336.853 206.5,323.5C 216.422,322.014 226.422,321.348 236.5,321.5 Z" /></g><g><path style="opacity:1" fill="#a8a1b2" d="M 236.5,354.5 C 243.982,356.254 244.482,359.254 238,363.5C 233.049,360.904 232.549,357.904 236.5,354.5 Z" /></g><g><path style="opacity:1" fill="#b1a7bc" d="M 241.5,345.5 C 232.171,345.078 222.837,344.745 213.5,344.5C 213.5,339.167 213.5,333.833 213.5,328.5C 222.5,328.5 231.5,328.5 240.5,328.5C 241.032,334.152 241.365,339.819 241.5,345.5 Z" /></g><g><path style="opacity:0.2" fill="#a8b25a" d="M 463.5,373.5 C 423.787,376.24 384.12,380.74 344.5,387C 342.867,387.48 341.534,388.313 340.5,389.5C 340.5,389.167 340.5,388.833 340.5,388.5C 341.425,385.74 343.425,384.407 346.5,384.5C 355.392,384.123 364.059,383.123 372.5,381.5C 376.873,381.018 381.206,380.352 385.5,379.5C 411.329,375.427 437.329,373.427 463.5,373.5 Z" /></g><g><path style="opacity:1" fill="#c5c2be" d="M 207.5,363.5 C 208.384,371.335 209.05,379.335 209.5,387.5C 209.5,388.167 209.167,388.5 208.5,388.5C 207.531,380.252 207.198,371.918 207.5,363.5 Z" /></g><g><path style="opacity:0.389" fill="#9c9a90" d="M 120.5,388.5 C 126.926,387.88 132.926,388.547 138.5,390.5C 133.156,390.666 127.823,390.499 122.5,390C 121.584,389.722 120.918,389.222 120.5,388.5 Z" /></g><g><path style="opacity:0.471" fill="#999892" d="M 156.5,387.5 C 160.4,388.43 164.4,388.763 168.5,388.5C 168.5,388.833 168.5,389.167 168.5,389.5C 159.348,390.494 150.015,390.827 140.5,390.5C 145.59,388.856 150.923,387.856 156.5,387.5 Z" /></g><g><path style="opacity:0.429" fill="#939292" d="M 209.5,387.5 C 221.217,387.209 232.884,387.542 244.5,388.5C 244.5,389.167 244.5,389.833 244.5,390.5C 229.833,390.5 215.167,390.5 200.5,390.5C 202.635,388.631 205.302,387.964 208.5,388.5C 209.167,388.5 209.5,388.167 209.5,387.5 Z" /></g><g><path style="opacity:0.167" fill="#9a9588" d="M 286.5,388.5 C 303.167,388.5 319.833,388.5 336.5,388.5C 337.833,388.5 339.167,388.5 340.5,388.5C 340.5,388.833 340.5,389.167 340.5,389.5C 322.699,389.818 304.699,390.151 286.5,390.5C 286.5,389.833 286.5,389.167 286.5,388.5 Z" /></g></svg>