<?xml version="1.0" encoding="UTF-8"?>
<!DOCTYPE svg PUBLIC "-//W3C//DTD SVG 1.1//EN" "http://www.w3.org/Graphics/SVG/1.1/DTD/svg11.dtd">
<svg xmlns="http://www.w3.org/2000/svg" version="1.1" width="170px" height="251px" style="shape-rendering:geometricPrecision; text-rendering:geometricPrecision; image-rendering:optimizeQuality; fill-rule:evenodd; clip-rule:evenodd" xmlns:xlink="http://www.w3.org/1999/xlink">
<g><path style="opacity:0.482" fill="#c1c089" d="M 100.5,12.5 C 101.167,12.5 101.5,12.8333 101.5,13.5C 101.5,14.1667 101.5,14.8333 101.5,15.5C 100.167,15.5 98.8333,15.5 97.5,15.5C 97.5,16.8333 97.5,18.1667 97.5,19.5C 97.1667,19.5 96.8333,19.5 96.5,19.5C 96.4051,15.7754 96.2384,12.1087 96,8.5C 97.3712,10.0414 98.8712,11.3747 100.5,12.5 Z"/></g>
<g><path style="opacity:0.078" fill="#fdf9d9" d="M 101.5,13.5 C 103.25,14.6594 104.25,16.326 104.5,18.5C 103.272,17.6935 102.272,16.6935 101.5,15.5C 101.5,14.8333 101.5,14.1667 101.5,13.5 Z"/></g>
<g><path style="opacity:0.855" fill="#d2bf5b" d="M 101.5,15.5 C 102.272,16.6935 103.272,17.6935 104.5,18.5C 104.427,20.0269 105.094,21.0269 106.5,21.5C 106.5,22.8333 106.5,24.1667 106.5,25.5C 103.948,22.7601 101.615,19.7601 99.5,16.5C 98.8326,19.6417 98.166,22.6417 97.5,25.5C 97.5,23.5 97.5,21.5 97.5,19.5C 97.5,18.1667 97.5,16.8333 97.5,15.5C 98.8333,15.5 100.167,15.5 101.5,15.5 Z"/></g>
<g><path style="opacity:0.024" fill="#f4f5cf" d="M 100.5,12.5 C 98.8712,11.3747 97.3712,10.0414 96,8.5C 96.2384,12.1087 96.4051,15.7754 96.5,19.5C 96.7947,21.7354 96.4614,23.7354 95.5,25.5C 95.9503,19.6715 95.2836,14.0049 93.5,8.5C 94.0347,6.8987 95.0347,6.3987 96.5,7C 98.4641,8.45095 99.7974,10.2843 100.5,12.5 Z"/></g>
<g><path style="opacity:0.125" fill="#f4f3c5" d="M 104.5,18.5 C 105.906,18.9731 106.573,19.9731 106.5,21.5C 105.094,21.0269 104.427,20.0269 104.5,18.5 Z"/></g>
<g><path style="opacity:0.631" fill="#d9d494" d="M 106.5,21.5 C 108.008,23.1815 109.008,25.1815 109.5,27.5C 107.973,27.573 106.973,26.9063 106.5,25.5C 106.5,24.1667 106.5,22.8333 106.5,21.5 Z"/></g>
<g><path style="opacity:0.059" fill="#faf5c9" d="M 111.5,31.5 C 112.931,32.7804 113.598,34.4471 113.5,36.5C 112.069,35.2196 111.402,33.5529 111.5,31.5 Z"/></g>
<g><path style="opacity:0.976" fill="#d3c16c" d="M 109.5,27.5 C 110.674,28.5137 111.34,29.847 111.5,31.5C 111.402,33.5529 112.069,35.2196 113.5,36.5C 113.5,37.8333 113.5,39.1667 113.5,40.5C 112.833,39.8333 112.167,39.1667 111.5,38.5C 110.578,34.8881 109.911,31.2215 109.5,27.5 Z"/></g>
<g><path style="opacity:0.42" fill="#ebe1ad" d="M 113.5,36.5 C 115.898,40.403 117.231,44.7363 117.5,49.5C 116.317,46.4328 114.983,43.4328 113.5,40.5C 113.5,39.1667 113.5,37.8333 113.5,36.5 Z"/></g>
<g><path style="opacity:1" fill="#eac537" d="M 106.5,25.5 C 106.973,26.9063 107.973,27.573 109.5,27.5C 109.911,31.2215 110.578,34.8881 111.5,38.5C 110.542,38.0472 109.708,37.3805 109,36.5C 109.293,32.4316 107.959,29.0982 105,26.5C 104.667,26.8333 104.333,27.1667 104,27.5C 103.261,25.7795 102.427,24.1128 101.5,22.5C 99.2648,31.0968 96.9315,39.4301 94.5,47.5C 95.1732,40.1139 96.1732,32.7805 97.5,25.5C 98.166,22.6417 98.8326,19.6417 99.5,16.5C 101.615,19.7601 103.948,22.7601 106.5,25.5 Z"/></g>
<g><path style="opacity:1" fill="#f4c214" d="M 111.5,38.5 C 112.167,39.1667 112.833,39.8333 113.5,40.5C 117.019,53.9087 118.353,67.5754 117.5,81.5C 115.629,81.8588 114.129,82.8588 113,84.5C 110.65,87.527 109.15,90.8603 108.5,94.5C 108.5,94.8333 108.5,95.1667 108.5,95.5C 106.777,97.78 106.111,100.447 106.5,103.5C 104.716,102.28 103.05,102.28 101.5,103.5C 100.833,102.833 100.167,102.167 99.5,101.5C 99.3465,99.0301 98.3465,97.0301 96.5,95.5C 94.9018,88.2003 93.4018,80.8669 92,73.5C 91.5462,64.7755 92.0462,56.1088 93.5,47.5C 93.8333,47.5 94.1667,47.5 94.5,47.5C 96.9315,39.4301 99.2648,31.0968 101.5,22.5C 102.427,24.1128 103.261,25.7795 104,27.5C 104.333,27.1667 104.667,26.8333 105,26.5C 107.959,29.0982 109.293,32.4316 109,36.5C 109.708,37.3805 110.542,38.0472 111.5,38.5 Z"/></g>
<g><path style="opacity:0.357" fill="#cdc87f" d="M 96.5,19.5 C 96.8333,19.5 97.1667,19.5 97.5,19.5C 97.5,21.5 97.5,23.5 97.5,25.5C 96.1732,32.7805 95.1732,40.1139 94.5,47.5C 94.1667,47.5 93.8333,47.5 93.5,47.5C 90.3223,58.5324 89.6556,69.8658 91.5,81.5C 91.1667,81.5 90.8333,81.5 90.5,81.5C 90.0269,80.0937 89.0269,79.427 87.5,79.5C 87.5,79.1667 87.5,78.8333 87.5,78.5C 88.3285,71.6787 88.8285,64.6787 89,57.5C 91.6165,46.9172 93.7832,36.2505 95.5,25.5C 96.4614,23.7354 96.7947,21.7354 96.5,19.5 Z"/></g>
<g><path style="opacity:0.604" fill="#cdbc60" d="M 113.5,40.5 C 114.983,43.4328 116.317,46.4328 117.5,49.5C 117.646,53.3875 118.313,57.0542 119.5,60.5C 119.5,60.8333 119.5,61.1667 119.5,61.5C 119.5,67.1667 119.5,72.8333 119.5,78.5C 119.5,78.8333 119.5,79.1667 119.5,79.5C 118.833,80.1667 118.167,80.8333 117.5,81.5C 118.353,67.5754 117.019,53.9087 113.5,40.5 Z"/></g>
<g><path style="opacity:0.075" fill="#f4f1bd" d="M 117.5,49.5 C 119.082,52.8756 119.749,56.5422 119.5,60.5C 118.313,57.0542 117.646,53.3875 117.5,49.5 Z"/></g>
<g><path style="opacity:0.325" fill="#abecdb" d="M 148.5,66.5 C 146.485,67.9238 144.152,68.5905 141.5,68.5C 143.515,67.0762 145.848,66.4095 148.5,66.5 Z"/></g>
<g><path style="opacity:0.073" fill="#c2edd9" d="M 155.5,86.5 C 158.398,80.0358 160.731,73.3692 162.5,66.5C 158.167,66.5 153.833,66.5 149.5,66.5C 153.964,64.6182 158.631,64.2848 163.5,65.5C 163.649,68.6074 163.149,71.6074 162,74.5C 160.582,79.0099 158.415,83.0099 155.5,86.5 Z"/></g>
<g><path style="opacity:0.467" fill="#addcc5" d="M 119.5,61.5 C 120.166,66.3489 120.833,71.3489 121.5,76.5C 127.963,73.2668 134.629,70.6001 141.5,68.5C 134.531,72.3897 127.198,75.723 119.5,78.5C 119.5,72.8333 119.5,67.1667 119.5,61.5 Z"/></g>
<g><path style="opacity:1" fill="#dfc644" d="M 93.5,47.5 C 92.0462,56.1088 91.5462,64.7755 92,73.5C 93.4018,80.8669 94.9018,88.2003 96.5,95.5C 95.3127,93.9275 94.3127,92.2608 93.5,90.5C 92.8333,87.5 92.1667,84.5 91.5,81.5C 89.6556,69.8658 90.3223,58.5324 93.5,47.5 Z"/></g>
<g><path style="opacity:0.698" fill="#6f9180" d="M 82.5,77.5 C 82.5,77.8333 82.5,78.1667 82.5,78.5C 75.8333,78.5 69.1667,78.5 62.5,78.5C 68.9933,76.3712 75.66,76.0379 82.5,77.5 Z"/></g>
<g><path style="opacity:0.133" fill="#9cbba3" d="M 82.5,78.5 C 82.5,78.1667 82.5,77.8333 82.5,77.5C 84.2915,77.366 85.9582,77.6993 87.5,78.5C 87.5,78.8333 87.5,79.1667 87.5,79.5C 85.7839,79.3713 84.1172,79.038 82.5,78.5 Z"/></g>
<g><path style="opacity:1" fill="#3da89b" d="M 148.5,66.5 C 148.833,66.5 149.167,66.5 149.5,66.5C 153.833,66.5 158.167,66.5 162.5,66.5C 160.731,73.3692 158.398,80.0358 155.5,86.5C 154.175,87.9526 153.342,87.6192 153,85.5C 151.293,87.9088 150.46,90.5755 150.5,93.5C 146.403,93.8687 144.236,96.202 144,100.5C 143.667,100.167 143.333,99.8333 143,99.5C 142.51,100.793 142.343,102.127 142.5,103.5C 142.5,104.167 142.167,104.5 141.5,104.5C 140.833,105.167 140.167,105.833 139.5,106.5C 136.066,106.728 133.066,108.395 130.5,111.5C 126.833,112.167 123.167,112.833 119.5,113.5C 119.672,112.508 119.338,111.842 118.5,111.5C 118.5,109.833 118.5,108.167 118.5,106.5C 115.722,106.978 113.722,105.978 112.5,103.5C 111.264,102.754 109.93,102.421 108.5,102.5C 108.5,101.5 108.5,100.5 108.5,99.5C 109.868,97.4357 110.868,95.1024 111.5,92.5C 115.863,89.152 118.53,84.8187 119.5,79.5C 119.5,79.1667 119.5,78.8333 119.5,78.5C 127.198,75.723 134.531,72.3897 141.5,68.5C 144.152,68.5905 146.485,67.9238 148.5,66.5 Z"/></g>
<g><path style="opacity:1" fill="#25430a" d="M 90.5,81.5 C 90.8333,81.5 91.1667,81.5 91.5,81.5C 92.1667,84.5 92.8333,87.5 93.5,90.5C 93.5,90.8333 93.5,91.1667 93.5,91.5C 92.8333,90.8333 92.1667,90.1667 91.5,89.5C 90.9916,87.1346 90.3249,84.8013 89.5,82.5C 89.6236,81.8933 89.9569,81.56 90.5,81.5 Z"/></g>
<g><path style="opacity:1" fill="#144137" d="M 62.5,78.5 C 69.1667,78.5 75.8333,78.5 82.5,78.5C 84.1172,79.038 85.7839,79.3713 87.5,79.5C 89.0269,79.427 90.0269,80.0937 90.5,81.5C 89.9569,81.56 89.6236,81.8933 89.5,82.5C 90.3249,84.8013 90.9916,87.1346 91.5,89.5C 79.984,87.319 68.984,88.819 58.5,94C 42.6252,106.386 42.6252,118.719 58.5,131C 57.6195,131.708 56.9528,132.542 56.5,133.5C 54.8014,133.62 53.1347,133.954 51.5,134.5C 49.6663,133.246 47.6663,132.579 45.5,132.5C 44.7377,130.738 43.4044,129.738 41.5,129.5C 40.0892,127.086 38.0892,125.419 35.5,124.5C 35.5,123.167 34.8333,122.5 33.5,122.5C 33.5,122.167 33.5,121.833 33.5,121.5C 33.573,119.973 32.9063,118.973 31.5,118.5C 30.7659,117.292 30.4326,115.959 30.5,114.5C 30.4672,110.131 30.8005,105.798 31.5,101.5C 35.597,95.5679 40.597,90.4012 46.5,86C 52.0447,83.7249 57.3781,81.2249 62.5,78.5 Z"/></g>
<g><path style="opacity:0.169" fill="#96b4a2" d="M 62.5,78.5 C 57.3781,81.2249 52.0447,83.7249 46.5,86C 40.597,90.4012 35.597,95.5679 31.5,101.5C 36.4464,91.0599 44.4464,83.8933 55.5,80C 57.74,79.023 60.0733,78.523 62.5,78.5 Z"/></g>
<g><path style="opacity:1" fill="#bbcd55" d="M 117.5,81.5 C 114.048,85.6021 111.048,89.9355 108.5,94.5C 109.15,90.8603 110.65,87.527 113,84.5C 114.129,82.8588 115.629,81.8588 117.5,81.5 Z"/></g>
<g><path style="opacity:1" fill="#2b7e72" d="M 91.5,89.5 C 92.1667,90.1667 92.8333,90.8333 93.5,91.5C 94.0303,96.0903 95.3637,100.424 97.5,104.5C 96.8865,106.283 95.7198,107.616 94,108.5C 93.1509,114.962 93.6509,121.295 95.5,127.5C 86.7919,127.299 78.1252,127.799 69.5,129C 65.8909,129.701 62.5575,130.868 59.5,132.5C 58.791,133.404 57.791,133.737 56.5,133.5C 56.9528,132.542 57.6195,131.708 58.5,131C 42.6252,118.719 42.6252,106.386 58.5,94C 68.984,88.819 79.984,87.319 91.5,89.5 Z"/></g>
<g><path style="opacity:1" fill="#c7d256" d="M 96.5,95.5 C 98.3465,97.0301 99.3465,99.0301 99.5,101.5C 97.461,100.089 96.461,98.089 96.5,95.5 Z"/></g>
<g><path style="opacity:1" fill="#47a166" d="M 119.5,79.5 C 118.53,84.8187 115.863,89.152 111.5,92.5C 110.868,95.1024 109.868,97.4357 108.5,99.5C 108.5,98.1667 108.5,96.8333 108.5,95.5C 108.5,95.1667 108.5,94.8333 108.5,94.5C 111.048,89.9355 114.048,85.6021 117.5,81.5C 118.167,80.8333 118.833,80.1667 119.5,79.5 Z"/></g>
<g><path style="opacity:0.902" fill="#60b5a0" d="M 155.5,86.5 C 152.31,93.0258 147.976,98.6924 142.5,103.5C 142.343,102.127 142.51,100.793 143,99.5C 143.333,99.8333 143.667,100.167 144,100.5C 144.236,96.202 146.403,93.8687 150.5,93.5C 150.46,90.5755 151.293,87.9088 153,85.5C 153.342,87.6192 154.175,87.9526 155.5,86.5 Z"/></g>
<g><path style="opacity:1" fill="#407d38" d="M 93.5,90.5 C 94.3127,92.2608 95.3127,93.9275 96.5,95.5C 96.461,98.089 97.461,100.089 99.5,101.5C 99.5,102.833 99.5,104.167 99.5,105.5C 98.8333,105.167 98.1667,104.833 97.5,104.5C 95.3637,100.424 94.0303,96.0903 93.5,91.5C 93.5,91.1667 93.5,90.8333 93.5,90.5 Z"/></g>
<g><path style="opacity:1" fill="#98c15d" d="M 108.5,95.5 C 108.5,96.8333 108.5,98.1667 108.5,99.5C 107.833,100.833 107.167,102.167 106.5,103.5C 106.111,100.447 106.777,97.78 108.5,95.5 Z"/></g>
<g><path style="opacity:1" fill="#c3b752" d="M 99.5,101.5 C 100.167,102.167 100.833,102.833 101.5,103.5C 101.167,104.167 100.833,104.833 100.5,105.5C 100.5,106.167 100.167,106.5 99.5,106.5C 99.5,106.167 99.5,105.833 99.5,105.5C 99.5,104.167 99.5,102.833 99.5,101.5 Z"/></g>
<g><path style="opacity:1" fill="#f0ab37" d="M 106.5,103.5 C 106.5,103.833 106.5,104.167 106.5,104.5C 104.435,104.517 102.435,104.85 100.5,105.5C 100.833,104.833 101.167,104.167 101.5,103.5C 103.05,102.28 104.716,102.28 106.5,103.5 Z"/></g>
<g><path style="opacity:1" fill="#568b6d" d="M 108.5,99.5 C 108.5,100.5 108.5,101.5 108.5,102.5C 109.93,102.421 111.264,102.754 112.5,103.5C 113.722,105.978 115.722,106.978 118.5,106.5C 118.5,108.167 118.5,109.833 118.5,111.5C 117.527,109.861 116.194,108.527 114.5,107.5C 114.167,107.5 113.833,107.5 113.5,107.5C 113.027,106.094 112.027,105.427 110.5,105.5C 109.432,104.566 108.099,104.232 106.5,104.5C 106.5,104.167 106.5,103.833 106.5,103.5C 107.167,102.167 107.833,100.833 108.5,99.5 Z"/></g>
<g><path style="opacity:1" fill="#ac674a" d="M 110.5,105.5 C 112.027,105.427 113.027,106.094 113.5,107.5C 111.973,107.573 110.973,106.906 110.5,105.5 Z"/></g>
<g><path style="opacity:0.129" fill="#92af9a" d="M 31.5,101.5 C 30.8005,105.798 30.4672,110.131 30.5,114.5C 29.8401,113.036 29.5068,111.369 29.5,109.5C 29.3817,106.514 30.0483,103.848 31.5,101.5 Z"/></g>
<g><path style="opacity:1" fill="#ca5034" d="M 106.5,104.5 C 108.099,104.232 109.432,104.566 110.5,105.5C 105.569,104.312 102.236,105.978 100.5,110.5C 98.9519,110.821 98.2852,111.821 98.5,113.5C 98.2895,116.752 98.9562,119.752 100.5,122.5C 99.391,122.443 98.391,122.11 97.5,121.5C 97.0074,119.194 96.6741,116.861 96.5,114.5C 96.9255,111.881 97.9255,109.547 99.5,107.5C 99.5,107.167 99.5,106.833 99.5,106.5C 100.167,106.5 100.5,106.167 100.5,105.5C 102.435,104.85 104.435,104.517 106.5,104.5 Z"/></g>
<g><path style="opacity:0.467" fill="#82a190" d="M 141.5,104.5 C 141.665,107.85 141.498,111.183 141,114.5C 140.678,117.666 139.511,120.333 137.5,122.5C 139.087,117.304 139.754,111.97 139.5,106.5C 140.167,105.833 140.833,105.167 141.5,104.5 Z"/></g>
<g><path style="opacity:1" fill="#c22d1d" d="M 110.5,105.5 C 110.973,106.906 111.973,107.573 113.5,107.5C 113.833,107.5 114.167,107.5 114.5,107.5C 116.442,111.576 116.942,115.909 116,120.5C 114.434,123.267 112.267,125.267 109.5,126.5C 105.64,126.946 102.64,125.613 100.5,122.5C 98.9562,119.752 98.2895,116.752 98.5,113.5C 99.3764,113.369 100.043,113.702 100.5,114.5C 99.5949,118.799 101.428,121.466 106,122.5C 112.992,121.539 115.492,117.539 113.5,110.5C 110.797,110.045 108.13,109.378 105.5,108.5C 103.617,108.876 102.117,109.876 101,111.5C 100.601,111.272 100.435,110.938 100.5,110.5C 102.236,105.978 105.569,104.312 110.5,105.5 Z"/></g>
<g><path style="opacity:1" fill="#8a6650" d="M 99.5,107.5 C 97.9255,109.547 96.9255,111.881 96.5,114.5C 95.5655,115.568 95.2322,116.901 95.5,118.5C 94.1241,115.067 94.6241,111.734 97,108.5C 97.6708,107.748 98.5041,107.414 99.5,107.5 Z"/></g>
<g><path style="opacity:1" fill="#af1e21" d="M 98.5,113.5 C 98.2852,111.821 98.9519,110.821 100.5,110.5C 100.435,110.938 100.601,111.272 101,111.5C 102.117,109.876 103.617,108.876 105.5,108.5C 108.13,109.378 110.797,110.045 113.5,110.5C 115.492,117.539 112.992,121.539 106,122.5C 101.428,121.466 99.5949,118.799 100.5,114.5C 100.043,113.702 99.3764,113.369 98.5,113.5 Z"/></g>
<g><path style="opacity:1" fill="#b5634f" d="M 114.5,107.5 C 116.194,108.527 117.527,109.861 118.5,111.5C 119.396,116.915 118.063,121.582 114.5,125.5C 112.883,126.038 111.216,126.371 109.5,126.5C 112.267,125.267 114.434,123.267 116,120.5C 116.942,115.909 116.442,111.576 114.5,107.5 Z"/></g>
<g><path style="opacity:1" fill="#174439" d="M 139.5,106.5 C 139.754,111.97 139.087,117.304 137.5,122.5C 137.672,123.492 137.338,124.158 136.5,124.5C 134.413,125.585 133.08,127.251 132.5,129.5C 132.5,130.167 132.167,130.5 131.5,130.5C 129.801,130.34 128.134,130.506 126.5,131C 127.167,131.333 127.833,131.667 128.5,132C 126.833,132.333 125.167,132.667 123.5,133C 124.756,133.417 125.423,134.25 125.5,135.5C 123.297,135.396 121.297,134.73 119.5,133.5C 122.591,130.204 125.591,126.704 128.5,123C 130.185,119.362 130.851,115.529 130.5,111.5C 133.066,108.395 136.066,106.728 139.5,106.5 Z"/></g>
<g><path style="opacity:0.075" fill="#afc6ba" d="M 31.5,118.5 C 32.9063,118.973 33.573,119.973 33.5,121.5C 32.0937,121.027 31.427,120.027 31.5,118.5 Z"/></g>
<g><path style="opacity:0.2" fill="#b0c4a0" d="M 33.5,122.5 C 34.8333,122.5 35.5,123.167 35.5,124.5C 34.5,124.167 33.8333,123.5 33.5,122.5 Z"/></g>
<g><path style="opacity:0.294" fill="#9bb7a5" d="M 35.5,124.5 C 38.0892,125.419 40.0892,127.086 41.5,129.5C 38.9108,128.581 36.9108,126.914 35.5,124.5 Z"/></g>
<g><path style="opacity:0.106" fill="#91b1a2" d="M 136.5,124.5 C 135.92,126.749 134.587,128.415 132.5,129.5C 133.08,127.251 134.413,125.585 136.5,124.5 Z"/></g>
<g><path style="opacity:1" fill="#3e775d" d="M 97.5,104.5 C 98.1667,104.833 98.8333,105.167 99.5,105.5C 99.5,105.833 99.5,106.167 99.5,106.5C 99.5,106.833 99.5,107.167 99.5,107.5C 98.5041,107.414 97.6708,107.748 97,108.5C 94.6241,111.734 94.1241,115.067 95.5,118.5C 95.427,120.027 96.0937,121.027 97.5,121.5C 97.7376,123.404 98.7376,124.738 100.5,125.5C 101.692,127.922 103.692,128.922 106.5,128.5C 109.726,128.652 112.393,127.652 114.5,125.5C 118.063,121.582 119.396,116.915 118.5,111.5C 119.338,111.842 119.672,112.508 119.5,113.5C 120.165,118.771 119.165,123.604 116.5,128C 115.552,128.483 114.552,128.649 113.5,128.5C 113.5,129.5 113.5,130.5 113.5,131.5C 112.5,131.5 111.5,131.5 110.5,131.5C 110.167,131.5 109.833,131.5 109.5,131.5C 107.162,129.96 104.495,129.294 101.5,129.5C 101.167,129.5 100.833,129.5 100.5,129.5C 98.9724,128.691 97.3057,128.024 95.5,127.5C 93.6509,121.295 93.1509,114.962 94,108.5C 95.7198,107.616 96.8865,106.283 97.5,104.5 Z"/></g>
<g><path style="opacity:0.941" fill="#74634a" d="M 100.5,125.5 C 102.307,126.615 104.307,127.281 106.5,127.5C 107.726,127.48 108.726,127.147 109.5,126.5C 111.216,126.371 112.883,126.038 114.5,125.5C 112.393,127.652 109.726,128.652 106.5,128.5C 103.692,128.922 101.692,127.922 100.5,125.5 Z"/></g>
<g><path style="opacity:1" fill="#bd5c4d" d="M 97.5,121.5 C 98.391,122.11 99.391,122.443 100.5,122.5C 102.64,125.613 105.64,126.946 109.5,126.5C 108.726,127.147 107.726,127.48 106.5,127.5C 104.307,127.281 102.307,126.615 100.5,125.5C 98.7376,124.738 97.7376,123.404 97.5,121.5 Z"/></g>
<g><path style="opacity:1" fill="#b1624b" d="M 96.5,114.5 C 96.6741,116.861 97.0074,119.194 97.5,121.5C 96.0937,121.027 95.427,120.027 95.5,118.5C 95.2322,116.901 95.5655,115.568 96.5,114.5 Z"/></g>
<g><path style="opacity:1" fill="#2e7d73" d="M 130.5,111.5 C 130.851,115.529 130.185,119.362 128.5,123C 125.591,126.704 122.591,130.204 119.5,133.5C 117.958,132.699 116.292,132.366 114.5,132.5C 112.901,132.768 111.568,132.434 110.5,131.5C 111.5,131.5 112.5,131.5 113.5,131.5C 113.5,130.5 113.5,129.5 113.5,128.5C 114.552,128.649 115.552,128.483 116.5,128C 119.165,123.604 120.165,118.771 119.5,113.5C 123.167,112.833 126.833,112.167 130.5,111.5 Z"/></g>
<g><path style="opacity:0.224" fill="#c4eac8" d="M 101.5,129.5 C 104.495,129.294 107.162,129.96 109.5,131.5C 106.572,131.435 103.905,130.768 101.5,129.5 Z"/></g>
<g><path style="opacity:0.227" fill="#91ada0" d="M 41.5,129.5 C 43.4044,129.738 44.7377,130.738 45.5,132.5C 43.5956,132.262 42.2623,131.262 41.5,129.5 Z"/></g>
<g><path style="opacity:0.039" fill="#abd5c6" d="M 95.5,127.5 C 97.3057,128.024 98.9724,128.691 100.5,129.5C 86.6285,127.798 72.9619,128.798 59.5,132.5C 62.5575,130.868 65.8909,129.701 69.5,129C 78.1252,127.799 86.7919,127.299 95.5,127.5 Z"/></g>
<g><path style="opacity:0.612" fill="#8ab39e" d="M 114.5,132.5 C 116.292,132.366 117.958,132.699 119.5,133.5C 121.297,134.73 123.297,135.396 125.5,135.5C 121.479,136.391 117.812,135.391 114.5,132.5 Z"/></g>
<g><path style="opacity:0.975" fill="#507561" d="M 131.5,130.5 C 130.089,132.914 128.089,134.581 125.5,135.5C 125.423,134.25 124.756,133.417 123.5,133C 125.167,132.667 126.833,132.333 128.5,132C 127.833,131.667 127.167,131.333 126.5,131C 128.134,130.506 129.801,130.34 131.5,130.5 Z"/></g>
<g><path style="opacity:0.239" fill="#8eac9c" d="M 45.5,132.5 C 47.6663,132.579 49.6663,133.246 51.5,134.5C 53.1347,133.954 54.8014,133.62 56.5,133.5C 52.7467,136.958 49.08,136.625 45.5,132.5 Z"/></g>
</svg>
