<?xml version="1.0" encoding="UTF-8"?>
<!DOCTYPE svg PUBLIC "-//W3C//DTD SVG 1.1//EN" "http://www.w3.org/Graphics/SVG/1.1/DTD/svg11.dtd">
<svg xmlns="http://www.w3.org/2000/svg" version="1.1" width="165px" height="191px" style="shape-rendering:geometricPrecision; text-rendering:geometricPrecision; image-rendering:optimizeQuality; fill-rule:evenodd; clip-rule:evenodd" xmlns:xlink="http://www.w3.org/1999/xlink">
<g><path style="opacity:1" fill="#4c3433" d="M 124.5,56.5 C 123.833,56.5 123.167,56.5 122.5,56.5C 123.907,51.1568 123.241,46.1568 120.5,41.5C 120.047,39.4348 119.047,37.7682 117.5,36.5C 116.502,31.163 113.836,26.8297 109.5,23.5C 108.021,22.241 106.354,21.241 104.5,20.5C 101.204,18.1792 97.8708,15.8458 94.5,13.5C 92.3718,12.3709 90.0385,12.2042 87.5,13C 82.7691,18.2334 77.1024,22.0667 70.5,24.5C 68.3274,27.1722 65.8274,29.5055 63,31.5C 62.2086,32.745 61.7086,34.0783 61.5,35.5C 61.5,35.8333 61.5,36.1667 61.5,36.5C 59.7868,37.6354 59.1201,39.302 59.5,41.5C 58.8333,40.1667 58.1667,38.8333 57.5,37.5C 61.4113,28.4243 68.078,22.2577 77.5,19C 80.1667,16.3333 82.8333,13.6667 85.5,11C 88.0766,9.74962 90.7433,9.41629 93.5,10C 108.155,15.9886 117.989,26.4886 123,41.5C 124.526,46.6169 125.026,51.6169 124.5,56.5 Z"/></g>
<g><path style="opacity:1" fill="#aa3437" d="M 94.5,13.5 C 92.2646,13.2053 90.2646,13.5386 88.5,14.5C 85.9558,15.7079 84.6225,17.7079 84.5,20.5C 79.9848,21.5628 75.6515,23.2295 71.5,25.5C 70.7025,25.9569 70.3691,26.6236 70.5,27.5C 66.8537,29.4819 63.8537,32.1485 61.5,35.5C 61.7086,34.0783 62.2086,32.745 63,31.5C 65.8274,29.5055 68.3274,27.1722 70.5,24.5C 77.1024,22.0667 82.7691,18.2334 87.5,13C 90.0385,12.2042 92.3718,12.3709 94.5,13.5 Z"/></g>
<g><path style="opacity:1" fill="#c9241d" d="M 88.5,14.5 C 90.2646,13.5386 92.2646,13.2053 94.5,13.5C 97.8708,15.8458 101.204,18.1792 104.5,20.5C 102.45,20.0388 100.45,19.3721 98.5,18.5C 97.3247,19.8549 96.3247,19.6883 95.5,18C 95.8333,17.6667 96.1667,17.3333 96.5,17C 94.0607,15.3897 91.394,14.5564 88.5,14.5 Z"/></g>
<g><path style="opacity:1" fill="#e91504" d="M 95.5,31.5 C 96.0852,33.922 97.5852,35.5887 100,36.5C 100.181,39.6946 100.681,42.6946 101.5,45.5C 101.5,47.8333 101.5,50.1667 101.5,52.5C 97.6742,51.9252 94.0075,50.7585 90.5,49C 90.8333,48.6667 91.1667,48.3333 91.5,48C 88.854,47.5026 86.1873,47.3359 83.5,47.5C 81.5615,45.8372 79.2282,45.1706 76.5,45.5C 75.4863,44.3263 74.153,43.6596 72.5,43.5C 70.6221,42.7924 68.9555,41.6257 67.5,40C 65.2922,39.8091 63.2922,39.3091 61.5,38.5C 61.5,37.8333 61.5,37.1667 61.5,36.5C 61.5,36.1667 61.5,35.8333 61.5,35.5C 63.8537,32.1485 66.8537,29.4819 70.5,27.5C 75.0575,25.6888 79.5575,23.6888 84,21.5C 85.3012,22.0981 86.1345,23.0981 86.5,24.5C 85.1091,26.9358 85.6091,27.6025 88,26.5C 90.3996,28.4146 92.8996,30.0812 95.5,31.5 Z"/></g>
<g><path style="opacity:1" fill="#e41a0c" d="M 88.5,14.5 C 91.394,14.5564 94.0607,15.3897 96.5,17C 96.1667,17.3333 95.8333,17.6667 95.5,18C 96.3247,19.6883 97.3247,19.8549 98.5,18.5C 100.45,19.3721 102.45,20.0388 104.5,20.5C 106.354,21.241 108.021,22.241 109.5,23.5C 112.206,27.8587 114.873,32.1921 117.5,36.5C 118.468,42.0345 119.802,47.3678 121.5,52.5C 120.606,57.8385 119.272,62.8385 117.5,67.5C 117.759,63.7604 117.426,60.0938 116.5,56.5C 114.106,53.1034 111.106,50.4367 107.5,48.5C 105.883,44.4162 105.05,40.0828 105,35.5C 104.29,34.0267 103.124,33.3601 101.5,33.5C 98.8959,31.4 96.3959,29.0666 94,26.5C 93.8184,28.3302 94.3184,29.9969 95.5,31.5C 92.8996,30.0812 90.3996,28.4146 88,26.5C 85.6091,27.6025 85.1091,26.9358 86.5,24.5C 86.1345,23.0981 85.3012,22.0981 84,21.5C 79.5575,23.6888 75.0575,25.6888 70.5,27.5C 70.3691,26.6236 70.7025,25.9569 71.5,25.5C 75.6515,23.2295 79.9848,21.5628 84.5,20.5C 84.6225,17.7079 85.9558,15.7079 88.5,14.5 Z"/></g>
<g><path style="opacity:1" fill="#ae3f43" d="M 109.5,23.5 C 113.836,26.8297 116.502,31.163 117.5,36.5C 114.873,32.1921 112.206,27.8587 109.5,23.5 Z"/></g>
<g><path style="opacity:1" fill="#500405" d="M 101.5,33.5 C 102.506,34.3957 102.506,35.0623 101.5,35.5C 99.5,34.1667 97.5,32.8333 95.5,31.5C 94.3184,29.9969 93.8184,28.3302 94,26.5C 96.3959,29.0666 98.8959,31.4 101.5,33.5 Z"/></g>
<g><path style="opacity:1" fill="#bb3038" d="M 61.5,38.5 C 63.2922,39.3091 65.2922,39.8091 67.5,40C 68.9555,41.6257 70.6221,42.7924 72.5,43.5C 68.7538,41.8403 64.7538,40.507 60.5,39.5C 60.6236,38.8933 60.9569,38.56 61.5,38.5 Z"/></g>
<g><path style="opacity:1" fill="#c2201f" d="M 95.5,31.5 C 97.5,32.8333 99.5,34.1667 101.5,35.5C 101.5,38.8333 101.5,42.1667 101.5,45.5C 100.681,42.6946 100.181,39.6946 100,36.5C 97.5852,35.5887 96.0852,33.922 95.5,31.5 Z"/></g>
<g><path style="opacity:1" fill="#873e42" d="M 61.5,36.5 C 61.5,37.1667 61.5,37.8333 61.5,38.5C 60.9569,38.56 60.6236,38.8933 60.5,39.5C 64.7538,40.507 68.7538,41.8403 72.5,43.5C 74.153,43.6596 75.4863,44.3263 76.5,45.5C 72.4619,45.449 68.7952,44.449 65.5,42.5C 64.0813,41.5489 62.4147,41.2155 60.5,41.5C 60.1667,41.5 59.8333,41.5 59.5,41.5C 59.1201,39.302 59.7868,37.6354 61.5,36.5 Z"/></g>
<g><path style="opacity:1" fill="#656467" d="M 60.5,41.5 C 62.4147,41.2155 64.0813,41.5489 65.5,42.5C 65.5,43.5 65.5,44.5 65.5,45.5C 64.7321,44.7375 64.2321,43.7375 64,42.5C 61.6194,43.435 59.1194,43.7683 56.5,43.5C 57.8333,42.8333 59.1667,42.1667 60.5,41.5 Z"/></g>
<g><path style="opacity:1" fill="#a43636" d="M 101.5,33.5 C 103.124,33.3601 104.29,34.0267 105,35.5C 105.05,40.0828 105.883,44.4162 107.5,48.5C 105.827,47.657 104.66,46.3237 104,44.5C 103.667,42.1667 103.333,39.8333 103,37.5C 102.503,40.146 102.336,42.8127 102.5,45.5C 102.167,45.5 101.833,45.5 101.5,45.5C 101.5,42.1667 101.5,38.8333 101.5,35.5C 102.506,35.0623 102.506,34.3957 101.5,33.5 Z"/></g>
<g><path style="opacity:1" fill="#cedddf" d="M 65.5,45.5 C 68.5,46.1667 71.5,46.8333 74.5,47.5C 72.5,47.5 70.5,47.5 68.5,47.5C 66.6107,55.2974 67.6107,62.6307 71.5,69.5C 64.5337,67.7066 57.5337,66.0399 50.5,64.5C 46.3178,63.5147 44.8178,60.8481 46,56.5C 47.5302,52.9099 48.8635,49.2432 50,45.5C 51.897,43.9837 54.0637,43.317 56.5,43.5C 59.1194,43.7683 61.6194,43.435 64,42.5C 64.2321,43.7375 64.7321,44.7375 65.5,45.5 Z"/></g>
<g><path style="opacity:1" fill="#8e3136" d="M 120.5,41.5 C 123.241,46.1568 123.907,51.1568 122.5,56.5C 122.443,57.609 122.11,58.609 121.5,59.5C 121.664,62.1873 121.497,64.854 121,67.5C 119.36,71.2778 118.193,71.2778 117.5,67.5C 119.272,62.8385 120.606,57.8385 121.5,52.5C 121.058,48.8455 120.724,45.1788 120.5,41.5 Z"/></g>
<g><path style="opacity:1" fill="#872a20" d="M 76.5,45.5 C 79.2282,45.1706 81.5615,45.8372 83.5,47.5C 80.8478,47.5905 78.5145,46.9238 76.5,45.5 Z"/></g>
<g><path style="opacity:1" fill="#d53c40" d="M 117.5,36.5 C 119.047,37.7682 120.047,39.4348 120.5,41.5C 120.724,45.1788 121.058,48.8455 121.5,52.5C 119.802,47.3678 118.468,42.0345 117.5,36.5 Z"/></g>
<g><path style="opacity:1" fill="#e2f6fa" d="M 74.5,47.5 C 86.5922,51.2098 98.2588,56.0432 109.5,62C 110.894,63.7395 111.561,65.7395 111.5,68C 110.669,71.8279 109.836,75.6612 109,79.5C 107.649,81.0097 105.982,82.0097 104,82.5C 97.4697,79.4853 90.9697,76.3186 84.5,73C 80.2785,71.3616 75.9451,70.1949 71.5,69.5C 67.6107,62.6307 66.6107,55.2974 68.5,47.5C 70.5,47.5 72.5,47.5 74.5,47.5 Z"/></g>
<g><path style="opacity:1" fill="#2c2e2f" d="M 57.5,37.5 C 58.1667,38.8333 58.8333,40.1667 59.5,41.5C 59.8333,41.5 60.1667,41.5 60.5,41.5C 59.1667,42.1667 57.8333,42.8333 56.5,43.5C 54.0637,43.317 51.897,43.9837 50,45.5C 48.8635,49.2432 47.5302,52.9099 46,56.5C 44.8178,60.8481 46.3178,63.5147 50.5,64.5C 49.1667,64.5 47.8333,64.5 46.5,64.5C 46.5,65.5 46.5,66.5 46.5,67.5C 45.8333,66.8333 45.1667,66.1667 44.5,65.5C 42.1256,62.0677 42.1256,58.5677 44.5,55C 43.7069,53.9148 43.0402,52.7481 42.5,51.5C 45.2423,49.2211 47.2423,46.3878 48.5,43C 52.0584,41.7932 55.0584,39.9599 57.5,37.5 Z"/></g>
<g><path style="opacity:1" fill="#d6201c" d="M 101.5,45.5 C 101.833,45.5 102.167,45.5 102.5,45.5C 103.631,48.2553 105.298,50.5886 107.5,52.5C 107.5,54.1667 107.5,55.8333 107.5,57.5C 104.996,56.3608 102.33,55.6941 99.5,55.5C 93.897,53.1949 88.5637,50.5283 83.5,47.5C 86.1873,47.3359 88.854,47.5026 91.5,48C 91.1667,48.3333 90.8333,48.6667 90.5,49C 94.0075,50.7585 97.6742,51.9252 101.5,52.5C 101.5,50.1667 101.5,47.8333 101.5,45.5 Z"/></g>
<g><path style="opacity:1" fill="#410e0e" d="M 107.5,48.5 C 109.555,50.5549 111.221,52.8883 112.5,55.5C 111.167,55.5 110.5,56.1667 110.5,57.5C 109.935,55.58 108.935,53.9133 107.5,52.5C 105.298,50.5886 103.631,48.2553 102.5,45.5C 102.336,42.8127 102.503,40.146 103,37.5C 103.333,39.8333 103.667,42.1667 104,44.5C 104.66,46.3237 105.827,47.657 107.5,48.5 Z"/></g>
<g><path style="opacity:1" fill="#963d3f" d="M 107.5,52.5 C 108.935,53.9133 109.935,55.58 110.5,57.5C 106.456,59.0643 102.79,58.3976 99.5,55.5C 102.33,55.6941 104.996,56.3608 107.5,57.5C 107.5,55.8333 107.5,54.1667 107.5,52.5 Z"/></g>
<g><path style="opacity:1" fill="#b03635" d="M 107.5,48.5 C 111.106,50.4367 114.106,53.1034 116.5,56.5C 117.426,60.0938 117.759,63.7604 117.5,67.5C 116.144,64.4233 115.311,61.0899 115,57.5C 114.292,56.6195 113.458,55.9528 112.5,55.5C 111.221,52.8883 109.555,50.5549 107.5,48.5 Z"/></g>
<g><path style="opacity:1" fill="#292423" d="M 65.5,42.5 C 68.7952,44.449 72.4619,45.449 76.5,45.5C 78.5145,46.9238 80.8478,47.5905 83.5,47.5C 88.5637,50.5283 93.897,53.1949 99.5,55.5C 102.79,58.3976 106.456,59.0643 110.5,57.5C 110.5,56.1667 111.167,55.5 112.5,55.5C 113.458,55.9528 114.292,56.6195 115,57.5C 115.311,61.0899 116.144,64.4233 117.5,67.5C 118.193,71.2778 119.36,71.2778 121,67.5C 121.497,64.854 121.664,62.1873 121.5,59.5C 122.167,61.5 122.833,63.5 123.5,65.5C 127.047,67.2027 130.213,69.5361 133,72.5C 134.608,75.7932 134.775,79.1266 133.5,82.5C 130.524,84.562 127.857,87.062 125.5,90C 121.864,91.8985 118.197,91.8985 114.5,90C 111.898,87.8685 109.232,86.0352 106.5,84.5C 106.167,84.5 105.833,84.5 105.5,84.5C 103.735,83.5386 101.735,83.2053 99.5,83.5C 88.445,75.8134 76.1117,71.4801 62.5,70.5C 61.609,69.8902 60.609,69.5569 59.5,69.5C 55.9662,67.0743 52.2996,66.4076 48.5,67.5C 48.1667,67.5 47.8333,67.5 47.5,67.5C 47.1667,67.5 46.8333,67.5 46.5,67.5C 46.5,66.5 46.5,65.5 46.5,64.5C 47.8333,64.5 49.1667,64.5 50.5,64.5C 57.5337,66.0399 64.5337,67.7066 71.5,69.5C 75.9451,70.1949 80.2785,71.3616 84.5,73C 90.9697,76.3186 97.4697,79.4853 104,82.5C 105.982,82.0097 107.649,81.0097 109,79.5C 109.836,75.6612 110.669,71.8279 111.5,68C 111.561,65.7395 110.894,63.7395 109.5,62C 98.2588,56.0432 86.5922,51.2098 74.5,47.5C 71.5,46.8333 68.5,46.1667 65.5,45.5C 65.5,44.5 65.5,43.5 65.5,42.5 Z"/></g>
<g><path style="opacity:0.396" fill="#a29a9e" d="M 122.5,56.5 C 123.167,56.5 123.833,56.5 124.5,56.5C 123.597,59.3915 123.264,62.3915 123.5,65.5C 122.833,63.5 122.167,61.5 121.5,59.5C 122.11,58.609 122.443,57.609 122.5,56.5 Z"/></g>
<g><path style="opacity:0.557" fill="#a19f97" d="M 44.5,65.5 C 45.1667,66.1667 45.8333,66.8333 46.5,67.5C 46.6716,68.4916 46.3382,69.1583 45.5,69.5C 43.3796,68.5967 43.0462,67.2633 44.5,65.5 Z"/></g>
<g><path style="opacity:1" fill="#d9cd5c" d="M 48.5,67.5 C 52.2996,66.4076 55.9662,67.0743 59.5,69.5C 59.5,70.8333 58.8333,71.5 57.5,71.5C 57.4226,70.2502 56.756,69.4169 55.5,69C 53.1873,68.338 50.854,67.838 48.5,67.5 Z"/></g>
<g><path style="opacity:1" fill="#f3df1b" d="M 47.5,67.5 C 47.8333,67.5 48.1667,67.5 48.5,67.5C 50.854,67.838 53.1873,68.338 55.5,69C 56.756,69.4169 57.4226,70.2502 57.5,71.5C 57.5,71.8333 57.5,72.1667 57.5,72.5C 53.8796,75.2916 51.7129,78.9583 51,83.5C 49.2739,84.5762 47.4406,84.7429 45.5,84C 46.4558,80.6064 46.7892,77.1064 46.5,73.5C 47.1495,71.5648 47.4828,69.5648 47.5,67.5 Z"/></g>
<g><path style="opacity:0.684" fill="#e0db7c" d="M 46.5,67.5 C 46.8333,67.5 47.1667,67.5 47.5,67.5C 47.4828,69.5648 47.1495,71.5648 46.5,73.5C 44.9462,77.5667 44.2796,81.9 44.5,86.5C 46.4147,86.2155 48.0813,86.5489 49.5,87.5C 47.8333,87.5 46.1667,87.5 44.5,87.5C 44.1667,87.5 43.8333,87.5 43.5,87.5C 43.2678,81.3841 43.9345,75.3841 45.5,69.5C 46.3382,69.1583 46.6716,68.4916 46.5,67.5 Z"/></g>
<g><path style="opacity:1" fill="#e0edf0" d="M 122.5,69.5 C 128.847,70.004 131.68,73.3374 131,79.5C 129.989,78.6634 128.822,78.33 127.5,78.5C 128.158,85.9961 124.825,89.1627 117.5,88C 111.941,86.5421 110.108,83.0421 112,77.5C 112.619,74.9682 113.619,72.6349 115,70.5C 117.937,74.3648 120.437,74.0315 122.5,69.5 Z"/></g>
<g><path style="opacity:1" fill="#f2c9b3" d="M 59.5,69.5 C 60.609,69.5569 61.609,69.8902 62.5,70.5C 70.7464,72.9874 79.0798,75.6541 87.5,78.5C 88.0253,79.1924 88.6919,79.6924 89.5,80C 87.6183,80.1981 85.9516,80.6981 84.5,81.5C 83.0779,81.7496 82.0779,82.583 81.5,84C 85.1165,84.6203 87.7832,85.7869 89.5,87.5C 87.2646,87.2053 85.2646,87.5386 83.5,88.5C 82.2264,89.1894 82.2264,90.0228 83.5,91C 86.687,91.0006 89.5203,91.8339 92,93.5C 92.804,92.1955 93.9707,91.5288 95.5,91.5C 97.8838,92.0124 100.217,92.6791 102.5,93.5C 104.7,92.5437 105.033,93.2104 103.5,95.5C 102.307,95.9704 101.64,96.9704 101.5,98.5C 103.701,102.733 102.701,105.733 98.5,107.5C 96.2248,111.685 94.5581,116.018 93.5,120.5C 92.5,120.5 91.5,120.5 90.5,120.5C 89.448,120.351 88.448,120.517 87.5,121C 85.5296,123.316 83.1963,125.149 80.5,126.5C 79.5713,125.311 79.238,123.978 79.5,122.5C 76.3192,122.002 73.6525,122.835 71.5,125C 68.947,125.851 66.6137,125.518 64.5,124C 67.095,123.111 69.095,121.611 70.5,119.5C 74.0419,119.813 77.3752,119.479 80.5,118.5C 81.4916,118.672 82.1583,118.338 82.5,117.5C 85.2109,115.725 87.2109,113.391 88.5,110.5C 89.4812,108.691 90.9812,107.357 93,106.5C 95.0374,98.306 92.204,95.806 84.5,99C 82.034,101.579 82.034,104.079 84.5,106.5C 79.3214,106.802 74.3214,106.135 69.5,104.5C 69.5,103.5 69.5,102.5 69.5,101.5C 72.518,103.463 75.8513,103.963 79.5,103C 80.8825,101.539 80.5492,100.706 78.5,100.5C 76.5,100.5 74.5,100.5 72.5,100.5C 72.6494,96.2533 71.1494,92.92 68,90.5C 64.8977,85.5598 66.0644,82.3931 71.5,81C 69.6992,80.6827 69.3659,80.016 70.5,79C 68.7471,76.8001 66.4138,75.6334 63.5,75.5C 62.1667,75.6667 60.8333,75.8333 59.5,76C 58.2264,76.9772 58.2264,77.8106 59.5,78.5C 58.5592,80.0495 57.8925,81.7162 57.5,83.5C 56.2502,83.4226 55.4169,82.756 55,81.5C 54.8091,83.7078 54.3091,85.7078 53.5,87.5C 53.3354,84.4816 53.502,81.4816 54,78.5C 55.4424,76.6089 56.6091,74.6089 57.5,72.5C 57.5,72.1667 57.5,71.8333 57.5,71.5C 58.8333,71.5 59.5,70.8333 59.5,69.5 Z"/></g>
<g><path style="opacity:1" fill="#42291e" d="M 57.5,83.5 C 57.8925,81.7162 58.5592,80.0495 59.5,78.5C 61.7638,77.7814 64.0971,77.448 66.5,77.5C 66.5,78.5 66.5,79.5 66.5,80.5C 64.4727,80.3379 62.4727,80.5045 60.5,81C 59.9221,82.417 58.9221,83.2504 57.5,83.5 Z"/></g>
<g><path style="opacity:1" fill="#f2dd45" d="M 57.5,72.5 C 56.6091,74.6089 55.4424,76.6089 54,78.5C 53.502,81.4816 53.3354,84.4816 53.5,87.5C 52.5,87.5 51.5,87.5 50.5,87.5C 50.1667,87.5 49.8333,87.5 49.5,87.5C 48.0813,86.5489 46.4147,86.2155 44.5,86.5C 44.2796,81.9 44.9462,77.5667 46.5,73.5C 46.7892,77.1064 46.4558,80.6064 45.5,84C 47.4406,84.7429 49.2739,84.5762 51,83.5C 51.7129,78.9583 53.8796,75.2916 57.5,72.5 Z"/></g>
<g><path style="opacity:0.039" fill="#fbfaf2" d="M 105.5,84.5 C 105.833,84.5 106.167,84.5 106.5,84.5C 107.234,85.7079 107.567,87.0413 107.5,88.5C 106.833,88.1667 106.167,87.8333 105.5,87.5C 105.5,86.5 105.5,85.5 105.5,84.5 Z"/></g>
<g><path style="opacity:1" fill="#cec356" d="M 99.5,83.5 C 101.735,83.2053 103.735,83.5386 105.5,84.5C 105.5,85.5 105.5,86.5 105.5,87.5C 103.5,87.5 101.5,87.5 99.5,87.5C 98.1667,86.1667 98.1667,84.8333 99.5,83.5 Z"/></g>
<g><path style="opacity:1" fill="#392b20" d="M 89.5,87.5 C 89.9175,88.2216 90.5842,88.7216 91.5,89C 88.633,89.8007 85.9664,89.6341 83.5,88.5C 85.2646,87.5386 87.2646,87.2053 89.5,87.5 Z"/></g>
<g><path style="opacity:1" fill="#251e10" d="M 44.5,87.5 C 46.1667,87.5 47.8333,87.5 49.5,87.5C 49.8333,87.5 50.1667,87.5 50.5,87.5C 50.8333,88.1667 51.1667,88.8333 51.5,89.5C 51.2648,90.0967 50.7648,90.4301 50,90.5C 47.5521,90.3005 45.7188,89.3005 44.5,87.5 Z"/></g>
<g><path style="opacity:1" fill="#dbbcac" d="M 62.5,70.5 C 76.1117,71.4801 88.445,75.8134 99.5,83.5C 98.1667,84.8333 98.1667,86.1667 99.5,87.5C 98.3744,88.8583 98.3744,90.1916 99.5,91.5C 102.33,88.6699 104.664,89.0032 106.5,92.5C 105.999,94.8357 104.999,96.8357 103.5,98.5C 103.5,97.5 103.5,96.5 103.5,95.5C 105.033,93.2104 104.7,92.5437 102.5,93.5C 100.217,92.6791 97.8838,92.0124 95.5,91.5C 93.9707,91.5288 92.804,92.1955 92,93.5C 89.5203,91.8339 86.687,91.0006 83.5,91C 82.2264,90.0228 82.2264,89.1894 83.5,88.5C 85.9664,89.6341 88.633,89.8007 91.5,89C 90.5842,88.7216 89.9175,88.2216 89.5,87.5C 87.7832,85.7869 85.1165,84.6203 81.5,84C 82.0779,82.583 83.0779,81.7496 84.5,81.5C 85.9516,80.6981 87.6183,80.1981 89.5,80C 88.6919,79.6924 88.0253,79.1924 87.5,78.5C 79.0798,75.6541 70.7464,72.9874 62.5,70.5 Z"/></g>
<g><path style="opacity:1" fill="#29150d" d="M 84.5,81.5 C 87.9079,80.828 90.5745,81.828 92.5,84.5C 91.8902,85.5051 91.2236,85.3385 90.5,84C 88.1667,83.6667 85.8333,83.3333 83.5,83C 84.056,82.6174 84.3893,82.1174 84.5,81.5 Z"/></g>
<g><path style="opacity:1" fill="#efcbb8" d="M 78.5,100.5 C 71.9991,103.198 68.8325,100.864 69,93.5C 67.5246,96.2666 67.6912,98.9332 69.5,101.5C 69.5,102.5 69.5,103.5 69.5,104.5C 74.3214,106.135 79.3214,106.802 84.5,106.5C 85.791,106.263 86.791,106.596 87.5,107.5C 87.6716,108.492 87.3382,109.158 86.5,109.5C 79.2395,107.535 71.5729,106.868 63.5,107.5C 63.19,106.262 62.69,106.262 62,107.5C 61.2599,108.749 61.4265,109.749 62.5,110.5C 63.5116,111.872 64.5116,113.205 65.5,114.5C 65.5,115.167 65.8333,115.5 66.5,115.5C 67.1667,117.5 68.5,118.833 70.5,119.5C 69.095,121.611 67.095,123.111 64.5,124C 66.6137,125.518 68.947,125.851 71.5,125C 73.6525,122.835 76.3192,122.002 79.5,122.5C 79.238,123.978 79.5713,125.311 80.5,126.5C 83.1963,125.149 85.5296,123.316 87.5,121C 88.448,120.517 89.448,120.351 90.5,120.5C 89.7336,124.46 87.0669,127.293 82.5,129C 77.6486,129.174 72.9819,129.674 68.5,130.5C 60.3329,126.658 54.9996,120.324 52.5,111.5C 48.1277,109.094 45.4611,105.428 44.5,100.5C 45.1174,100.611 45.6174,100.944 46,101.5C 46.49,100.207 46.6567,98.8734 46.5,97.5C 46.6168,95.5165 45.9501,93.8498 44.5,92.5C 47.1667,91.8333 49.8333,91.1667 52.5,90.5C 52.3764,89.8933 52.0431,89.56 51.5,89.5C 51.1667,88.8333 50.8333,88.1667 50.5,87.5C 51.5,87.5 52.5,87.5 53.5,87.5C 54.3091,85.7078 54.8091,83.7078 55,81.5C 55.4169,82.756 56.2502,83.4226 57.5,83.5C 58.9221,83.2504 59.9221,82.417 60.5,81C 62.4727,80.5045 64.4727,80.3379 66.5,80.5C 66.5,79.5 66.5,78.5 66.5,77.5C 64.0971,77.448 61.7638,77.7814 59.5,78.5C 58.2264,77.8106 58.2264,76.9772 59.5,76C 60.8333,75.8333 62.1667,75.6667 63.5,75.5C 66.4138,75.6334 68.7471,76.8001 70.5,79C 69.3659,80.016 69.6992,80.6827 71.5,81C 66.0644,82.3931 64.8977,85.5598 68,90.5C 71.1494,92.92 72.6494,96.2533 72.5,100.5C 74.5,100.5 76.5,100.5 78.5,100.5 Z"/></g>
<g><path style="opacity:1" fill="#2e221b" d="M 61.5,85.5 C 62.5,85.5 63.5,85.5 64.5,85.5C 64.5,87.1667 64.5,88.8333 64.5,90.5C 63.5,90.5 62.5,90.5 61.5,90.5C 61.5,88.8333 61.5,87.1667 61.5,85.5 Z"/></g>
<g><path style="opacity:1" fill="#232121" d="M 46.5,97.5 C 46.6567,98.8734 46.49,100.207 46,101.5C 45.6174,100.944 45.1174,100.611 44.5,100.5C 43.6618,100.158 43.3284,99.4916 43.5,98.5C 42.6713,95.5314 42.5046,92.5314 43,89.5C 43.0036,92.7916 44.1703,95.4582 46.5,97.5 Z"/></g>
<g><path style="opacity:1" fill="#ada49f" d="M 43.5,87.5 C 43.8333,87.5 44.1667,87.5 44.5,87.5C 45.7188,89.3005 47.5521,90.3005 50,90.5C 50.7648,90.4301 51.2648,90.0967 51.5,89.5C 52.0431,89.56 52.3764,89.8933 52.5,90.5C 49.8333,91.1667 47.1667,91.8333 44.5,92.5C 45.9501,93.8498 46.6168,95.5165 46.5,97.5C 44.1703,95.4582 43.0036,92.7916 43,89.5C 42.5046,92.5314 42.6713,95.5314 43.5,98.5C 39.6497,94.7922 39.6497,91.1255 43.5,87.5 Z"/></g>
<g><path style="opacity:1" fill="#2b2218" d="M 78.5,100.5 C 80.5492,100.706 80.8825,101.539 79.5,103C 75.8513,103.963 72.518,103.463 69.5,101.5C 67.6912,98.9332 67.5246,96.2666 69,93.5C 68.8325,100.864 71.9991,103.198 78.5,100.5 Z"/></g>
<g><path style="opacity:1" fill="#1e231f" d="M 99.5,87.5 C 101.5,87.5 103.5,87.5 105.5,87.5C 106.167,87.8333 106.833,88.1667 107.5,88.5C 107.5,88.8333 107.5,89.1667 107.5,89.5C 107.664,92.1873 107.497,94.854 107,97.5C 106.502,99.5444 105.335,100.878 103.5,101.5C 103.5,100.5 103.5,99.5 103.5,98.5C 104.999,96.8357 105.999,94.8357 106.5,92.5C 104.664,89.0032 102.33,88.6699 99.5,91.5C 98.3744,90.1916 98.3744,88.8583 99.5,87.5 Z"/></g>
<g><path style="opacity:0.867" fill="#b1b8b8" d="M 107.5,89.5 C 110.066,94.1944 109.733,98.861 106.5,103.5C 104.821,103.715 103.821,103.048 103.5,101.5C 105.335,100.878 106.502,99.5444 107,97.5C 107.497,94.854 107.664,92.1873 107.5,89.5 Z"/></g>
<g><path style="opacity:1" fill="#edab93" d="M 88.5,110.5 C 88.7373,109.209 88.404,108.209 87.5,107.5C 86.791,106.596 85.791,106.263 84.5,106.5C 82.034,104.079 82.034,101.579 84.5,99C 92.204,95.806 95.0374,98.306 93,106.5C 90.9812,107.357 89.4812,108.691 88.5,110.5 Z"/></g>
<g><path style="opacity:1" fill="#eeac93" d="M 55.5,97.5 C 62.4797,95.9533 65.4797,98.62 64.5,105.5C 62.0712,105.585 60.0712,106.585 58.5,108.5C 53.2917,106.001 52.2917,102.335 55.5,97.5 Z"/></g>
<g><path style="opacity:1" fill="#807770" d="M 63.5,107.5 C 63.5569,108.609 63.8902,109.609 64.5,110.5C 63.8333,110.5 63.1667,110.5 62.5,110.5C 61.4265,109.749 61.2599,108.749 62,107.5C 62.69,106.262 63.19,106.262 63.5,107.5 Z"/></g>
<g><path style="opacity:1" fill="#efedec" d="M 63.5,107.5 C 71.5729,106.868 79.2395,107.535 86.5,109.5C 82.0335,111.215 77.3669,111.882 72.5,111.5C 69.7938,111.425 67.1272,111.092 64.5,110.5C 63.8902,109.609 63.5569,108.609 63.5,107.5 Z"/></g>
<g><path style="opacity:1" fill="#464747" d="M 87.5,107.5 C 88.404,108.209 88.7373,109.209 88.5,110.5C 87.2109,113.391 85.2109,115.725 82.5,117.5C 82.5,116.833 82.5,116.167 82.5,115.5C 83.4778,115.189 84.1445,114.522 84.5,113.5C 80.3525,112.833 76.3525,112.166 72.5,111.5C 77.3669,111.882 82.0335,111.215 86.5,109.5C 87.3382,109.158 87.6716,108.492 87.5,107.5 Z"/></g>
<g><path style="opacity:1" fill="#dbcdc4" d="M 103.5,95.5 C 103.5,96.5 103.5,97.5 103.5,98.5C 103.5,99.5 103.5,100.5 103.5,101.5C 103.821,103.048 104.821,103.715 106.5,103.5C 105.956,107.712 103.623,110.378 99.5,111.5C 96.7016,117.602 93.0349,123.102 88.5,128C 82.2007,131.55 75.534,132.383 68.5,130.5C 72.9819,129.674 77.6486,129.174 82.5,129C 87.0669,127.293 89.7336,124.46 90.5,120.5C 91.5,120.5 92.5,120.5 93.5,120.5C 94.5581,116.018 96.2248,111.685 98.5,107.5C 102.701,105.733 103.701,102.733 101.5,98.5C 101.64,96.9704 102.307,95.9704 103.5,95.5 Z"/></g>
<g><path style="opacity:1" fill="#1b181d" d="M 62.5,110.5 C 63.1667,110.5 63.8333,110.5 64.5,110.5C 67.1272,111.092 69.7938,111.425 72.5,111.5C 76.3525,112.166 80.3525,112.833 84.5,113.5C 84.1445,114.522 83.4778,115.189 82.5,115.5C 76.8623,114.78 71.1956,114.447 65.5,114.5C 64.5116,113.205 63.5116,111.872 62.5,110.5 Z"/></g>
<g><path style="opacity:1" fill="#9e404e" d="M 65.5,114.5 C 71.1956,114.447 76.8623,114.78 82.5,115.5C 82.5,116.167 82.5,116.833 82.5,117.5C 82.1583,118.338 81.4916,118.672 80.5,118.5C 80.2089,117.351 79.3756,116.684 78,116.5C 74.2079,115.69 70.3745,115.356 66.5,115.5C 65.8333,115.5 65.5,115.167 65.5,114.5 Z"/></g>
<g><path style="opacity:1" fill="#d2252a" d="M 66.5,115.5 C 70.3745,115.356 74.2079,115.69 78,116.5C 79.3756,116.684 80.2089,117.351 80.5,118.5C 77.3752,119.479 74.0419,119.813 70.5,119.5C 68.5,118.833 67.1667,117.5 66.5,115.5 Z"/></g>
</svg>
