<?xml version="1.0" encoding="UTF-8"?>
<!DOCTYPE svg PUBLIC "-//W3C//DTD SVG 1.1//EN" "http://www.w3.org/Graphics/SVG/1.1/DTD/svg11.dtd">
<svg xmlns="http://www.w3.org/2000/svg" version="1.1" width="395px" height="486px" style="shape-rendering:geometricPrecision; text-rendering:geometricPrecision; image-rendering:optimizeQuality; fill-rule:evenodd; clip-rule:evenodd" xmlns:xlink="http://www.w3.org/1999/xlink">
<g><path style="opacity:1" fill="#eb1600" d="M 237.5,45.5 C 243.331,48.5812 248.998,51.9145 254.5,55.5C 257.167,58.1667 259.833,60.8333 262.5,63.5C 265.839,67.6779 269.006,72.0112 272,76.5C 272.671,77.2524 273.504,77.5858 274.5,77.5C 276.754,83.9649 279.754,89.9649 283.5,95.5C 284.205,100.891 284.205,106.224 283.5,111.5C 284.5,111.5 285.5,111.5 286.5,111.5C 286.98,116.822 287.313,122.155 287.5,127.5C 285.112,128.219 283.612,129.885 283,132.5C 282.187,137.707 282.687,142.707 284.5,147.5C 284.247,149.858 283.914,152.192 283.5,154.5C 282.5,154.5 281.5,154.5 280.5,154.5C 280.734,144.821 279.067,135.488 275.5,126.5C 274.234,125.638 272.901,124.971 271.5,124.5C 270.167,122.833 268.833,121.167 267.5,119.5C 266.089,117.086 264.089,115.419 261.5,114.5C 259.148,111.458 257.148,108.124 255.5,104.5C 254.833,97.5 254.167,90.5 253.5,83.5C 251.827,81.9137 249.827,81.2471 247.5,81.5C 242.848,78.5137 238.848,74.8471 235.5,70.5C 234.885,65.5886 232.218,62.5886 227.5,61.5C 227.018,64.8306 228.018,67.4973 230.5,69.5C 232.193,72.1841 233.86,74.8508 235.5,77.5C 233.217,75.1141 230.717,73.7807 228,73.5C 226.489,69.237 224.489,65.237 222,61.5C 220.333,62.8333 218.667,62.8333 217,61.5C 216.493,60.0039 216.993,58.8373 218.5,58C 217.91,56.4905 217.244,54.9905 216.5,53.5C 215.914,53.7093 215.414,54.0426 215,54.5C 214.751,53.376 214.251,52.376 213.5,51.5C 212.41,52.3914 212.41,53.3914 213.5,54.5C 211.48,54.813 209.48,55.1464 207.5,55.5C 208.415,53.2459 209.748,51.2459 211.5,49.5C 213.806,47.8606 215.806,45.8606 217.5,43.5C 219.671,41.8284 222.171,40.8284 225,40.5C 229.604,41.3071 233.771,42.9737 237.5,45.5 Z"/></g>
<g><path style="opacity:1" fill="#ed1500" d="M 235.5,77.5 C 238.526,80.1954 241.526,82.8621 244.5,85.5C 245.172,86.2674 246.005,86.9341 247,87.5C 247.173,93.3482 247.673,99.0149 248.5,104.5C 249.973,107.447 251.473,110.447 253,113.5C 255.664,114.998 257.83,116.998 259.5,119.5C 260.344,123.099 260.677,126.766 260.5,130.5C 258.097,130.552 255.764,130.219 253.5,129.5C 251.833,128.833 250.167,128.167 248.5,127.5C 248.167,127.5 247.833,127.5 247.5,127.5C 245.434,125.801 243.1,124.468 240.5,123.5C 238.901,123.768 237.568,123.434 236.5,122.5C 233.992,120.076 230.992,118.41 227.5,117.5C 226.826,115.976 225.826,114.642 224.5,113.5C 220.591,112.085 216.591,111.085 212.5,110.5C 212.389,109.883 212.056,109.383 211.5,109C 206.177,106.851 200.843,105.017 195.5,103.5C 190.94,102.246 186.273,100.912 181.5,99.5C 180.05,98.1502 179.383,96.4835 179.5,94.5C 174.489,94.6659 169.489,94.4993 164.5,94C 165.412,91.7492 166.412,89.5825 167.5,87.5C 167.5,87.1667 167.5,86.8333 167.5,86.5C 170.994,84.4996 173.16,81.4996 174,77.5C 176.998,75.6671 179.498,73.3338 181.5,70.5C 181.5,69.8333 181.833,69.5 182.5,69.5C 185.386,66.6973 188.719,64.5306 192.5,63C 194.568,62.3131 196.568,62.4798 198.5,63.5C 199.386,62.675 199.719,61.675 199.5,60.5C 201.833,60.5 204.167,60.5 206.5,60.5C 206.366,58.7085 206.699,57.0418 207.5,55.5C 209.48,55.1464 211.48,54.813 213.5,54.5C 212.41,53.3914 212.41,52.3914 213.5,51.5C 214.251,52.376 214.751,53.376 215,54.5C 215.414,54.0426 215.914,53.7093 216.5,53.5C 217.244,54.9905 217.91,56.4905 218.5,58C 216.993,58.8373 216.493,60.0039 217,61.5C 218.667,62.8333 220.333,62.8333 222,61.5C 224.489,65.237 226.489,69.237 228,73.5C 230.717,73.7807 233.217,75.1141 235.5,77.5 Z"/></g>
<g><path style="opacity:1" fill="#231717" d="M 280.5,77.5 C 280.987,81.8672 281.653,86.2005 282.5,90.5C 281.109,88.0404 279.942,85.3738 279,82.5C 277.951,80.3825 276.451,78.7158 274.5,77.5C 274.167,76.1667 273.833,74.8333 273.5,73.5C 268.455,66.1212 262.122,60.1212 254.5,55.5C 248.998,51.9145 243.331,48.5812 237.5,45.5C 234.633,41.0547 230.467,39.0547 225,39.5C 221.294,38.9311 218.794,40.2644 217.5,43.5C 215.806,45.8606 213.806,47.8606 211.5,49.5C 208.069,51.0952 205.402,53.5952 203.5,57C 197.488,58.5579 191.821,60.8912 186.5,64C 184.536,65.451 183.203,67.2843 182.5,69.5C 181.833,69.5 181.5,69.8333 181.5,70.5C 174.517,73.794 169.851,79.1273 167.5,86.5C 167.5,86.8333 167.5,87.1667 167.5,87.5C 164.338,89.649 163.004,92.4823 163.5,96C 168.167,96.3333 172.833,96.6667 177.5,97C 178.87,98.4413 179.87,100.108 180.5,102C 184.17,102.548 187.837,103.048 191.5,103.5C 191.5,103.833 191.5,104.167 191.5,104.5C 187.445,104.824 183.445,104.491 179.5,103.5C 178.968,101.259 177.635,99.7589 175.5,99C 171.167,98.6667 166.833,98.3333 162.5,98C 161.13,95.1669 161.464,92.5002 163.5,90C 162.473,89.4867 161.473,88.9867 160.5,88.5C 162.14,84.5591 164.306,80.8924 167,77.5C 172.167,71.6667 177.667,66.1667 183.5,61C 188.774,57.5302 194.44,54.8636 200.5,53C 205.833,47.6667 211.167,42.3333 216.5,37C 223.807,33.6018 230.807,34.2685 237.5,39C 252.108,46.9436 264.942,57.1102 276,69.5C 277.777,72.0594 279.277,74.7261 280.5,77.5 Z"/></g>
<g><path style="opacity:1" fill="#b8120f" d="M 211.5,49.5 C 209.748,51.2459 208.415,53.2459 207.5,55.5C 206.699,57.0418 206.366,58.7085 206.5,60.5C 204.167,60.5 201.833,60.5 199.5,60.5C 199.719,61.675 199.386,62.675 198.5,63.5C 196.568,62.4798 194.568,62.3131 192.5,63C 188.719,64.5306 185.386,66.6973 182.5,69.5C 183.203,67.2843 184.536,65.451 186.5,64C 191.821,60.8912 197.488,58.5579 203.5,57C 205.402,53.5952 208.069,51.0952 211.5,49.5 Z"/></g>
<g><path style="opacity:1" fill="#4f0305" d="M 254.5,55.5 C 262.122,60.1212 268.455,66.1212 273.5,73.5C 269.833,70.1667 266.167,66.8333 262.5,63.5C 259.833,60.8333 257.167,58.1667 254.5,55.5 Z"/></g>
<g><path style="opacity:1" fill="#850b0d" d="M 237.5,45.5 C 233.771,42.9737 229.604,41.3071 225,40.5C 222.171,40.8284 219.671,41.8284 217.5,43.5C 218.794,40.2644 221.294,38.9311 225,39.5C 230.467,39.0547 234.633,41.0547 237.5,45.5 Z"/></g>
<g><path style="opacity:1" fill="#c2151a" d="M 262.5,63.5 C 266.167,66.8333 269.833,70.1667 273.5,73.5C 273.833,74.8333 274.167,76.1667 274.5,77.5C 273.504,77.5858 272.671,77.2524 272,76.5C 269.006,72.0112 265.839,67.6779 262.5,63.5 Z"/></g>
<g><path style="opacity:1" fill="#3a0804" d="M 235.5,70.5 C 233.871,69.3747 232.371,68.0414 231,66.5C 230.517,67.448 230.351,68.448 230.5,69.5C 228.018,67.4973 227.018,64.8306 227.5,61.5C 232.218,62.5886 234.885,65.5886 235.5,70.5 Z"/></g>
<g><path style="opacity:1" fill="#76070d" d="M 181.5,70.5 C 179.498,73.3338 176.998,75.6671 174,77.5C 173.16,81.4996 170.994,84.4996 167.5,86.5C 169.851,79.1273 174.517,73.794 181.5,70.5 Z"/></g>
<g><path style="opacity:1" fill="#a00f1c" d="M 274.5,77.5 C 276.451,78.7158 277.951,80.3825 279,82.5C 279.942,85.3738 281.109,88.0404 282.5,90.5C 283.301,92.0418 283.634,93.7085 283.5,95.5C 279.754,89.9649 276.754,83.9649 274.5,77.5 Z"/></g>
<g><path style="opacity:1" fill="#c11409" d="M 247.5,81.5 C 249.827,81.2471 251.827,81.9137 253.5,83.5C 254.167,90.5 254.833,97.5 255.5,104.5C 257.148,108.124 259.148,111.458 261.5,114.5C 257.365,111.704 254.365,108.038 252.5,103.5C 252.666,97.1579 252.5,90.8246 252,84.5C 251.617,83.944 251.117,83.6107 250.5,83.5C 248.973,83.573 247.973,82.9063 247.5,81.5 Z"/></g>
<g><path style="opacity:1" fill="#a81110" d="M 167.5,87.5 C 166.412,89.5825 165.412,91.7492 164.5,94C 169.489,94.4993 174.489,94.6659 179.5,94.5C 179.383,96.4835 180.05,98.1502 181.5,99.5C 186.273,100.912 190.94,102.246 195.5,103.5C 194.167,103.5 192.833,103.5 191.5,103.5C 187.837,103.048 184.17,102.548 180.5,102C 179.87,100.108 178.87,98.4413 177.5,97C 172.833,96.6667 168.167,96.3333 163.5,96C 163.004,92.4823 164.338,89.649 167.5,87.5 Z"/></g>
<g><path style="opacity:1" fill="#640300" d="M 250.5,83.5 C 251.117,83.6107 251.617,83.944 252,84.5C 252.5,90.8246 252.666,97.1579 252.5,103.5C 251.761,96.9657 251.094,90.2991 250.5,83.5 Z"/></g>
<g><path style="opacity:1" fill="#640503" d="M 244.5,85.5 C 245.822,85.33 246.989,85.6634 248,86.5C 248.499,92.4908 248.666,98.4908 248.5,104.5C 247.673,99.0149 247.173,93.3482 247,87.5C 246.005,86.9341 245.172,86.2674 244.5,85.5 Z"/></g>
<g><path style="opacity:1" fill="#1b1b1b" d="M 280.5,77.5 C 289.205,92.6513 293.705,108.985 294,126.5C 292.92,128.996 291.586,131.33 290,133.5C 289.503,135.81 289.337,138.143 289.5,140.5C 289.42,143.781 290.087,146.781 291.5,149.5C 303.246,150.409 310.079,156.743 312,168.5C 312.577,172.888 312.244,177.221 311,181.5C 308.46,182.876 306.46,182.21 305,179.5C 300.499,195.249 290.332,200.416 274.5,195C 268.946,192.735 264.946,188.901 262.5,183.5C 260.905,182.566 259.239,182.566 257.5,183.5C 256.833,183.5 256.167,183.5 255.5,183.5C 252.098,183.658 248.764,183.324 245.5,182.5C 244.791,181.596 243.791,181.263 242.5,181.5C 220.203,166.739 195.536,158.072 168.5,155.5C 167.791,154.596 166.791,154.263 165.5,154.5C 158.754,151.802 151.754,149.468 144.5,147.5C 143.261,147.942 142.261,148.609 141.5,149.5C 139.973,149.427 138.973,150.094 138.5,151.5C 137.167,151.5 135.833,151.5 134.5,151.5C 134.865,148.921 134.865,146.588 134.5,144.5C 131.854,142.602 130.52,139.935 130.5,136.5C 130.998,132.335 131.998,128.335 133.5,124.5C 134.043,124.44 134.376,124.107 134.5,123.5C 132.506,121.184 131.506,118.518 131.5,115.5C 132.918,113.692 134.918,113.025 137.5,113.5C 137.953,109.307 139.119,105.307 141,101.5C 145.488,98.9982 150.321,97.3316 155.5,96.5C 157.192,93.7692 158.858,91.1025 160.5,88.5C 161.473,88.9867 162.473,89.4867 163.5,90C 161.464,92.5002 161.13,95.1669 162.5,98C 166.833,98.3333 171.167,98.6667 175.5,99C 177.635,99.7589 178.968,101.259 179.5,103.5C 183.445,104.491 187.445,104.824 191.5,104.5C 198.267,107.311 205.267,109.311 212.5,110.5C 217.582,112.54 222.582,114.873 227.5,117.5C 229.651,120.415 232.651,122.082 236.5,122.5C 237.568,123.434 238.901,123.768 240.5,123.5C 242.121,125.942 244.454,127.275 247.5,127.5C 247.833,127.5 248.167,127.5 248.5,127.5C 252.145,132.405 257.145,135.071 263.5,135.5C 264.182,134.757 264.849,134.091 265.5,133.5C 267.478,136.333 269.311,139.333 271,142.5C 272.036,145.753 272.703,149.086 273,152.5C 273.5,152 274,151.5 274.5,151C 273.371,144.445 271.871,137.945 270,131.5C 269,129.833 268,128.167 267,126.5C 266.648,128.247 266.148,129.914 265.5,131.5C 264.5,131.5 263.5,131.5 262.5,131.5C 262.5,127.833 262.5,124.167 262.5,120.5C 266.296,121.416 269.296,123.416 271.5,126.5C 272.974,127.436 273.974,128.77 274.5,130.5C 275.503,135.205 276.503,139.872 277.5,144.5C 279.061,147.943 279.894,151.61 280,155.5C 281.756,156.985 282.923,156.652 283.5,154.5C 286.193,151.461 287.193,147.794 286.5,143.5C 285.873,138.48 286.706,133.813 289,129.5C 289.333,130.167 289.667,130.833 290,131.5C 290.513,128.506 291.68,125.839 293.5,123.5C 293.119,120.959 292.286,118.626 291,116.5C 291.602,109.074 289.435,102.741 284.5,97.5C 284.672,96.5084 284.338,95.8417 283.5,95.5C 283.634,93.7085 283.301,92.0418 282.5,90.5C 281.653,86.2005 280.987,81.8672 280.5,77.5 Z M 265.5,133.5 C 265.5,132.833 265.5,132.167 265.5,131.5C 266.148,129.914 266.648,128.247 267,126.5C 268,128.167 269,129.833 270,131.5C 271.871,137.945 273.371,144.445 274.5,151C 274,151.5 273.5,152 273,152.5C 272.703,149.086 272.036,145.753 271,142.5C 269.311,139.333 267.478,136.333 265.5,133.5 Z"/></g>
<g><path style="opacity:1" fill="#d3e2e4" d="M 191.5,108.5 C 188.15,108.335 184.817,108.502 181.5,109C 178.701,116.915 177.868,125.082 179,133.5C 180.994,139.814 182.827,146.147 184.5,152.5C 167.791,150.126 151.624,145.793 136,139.5C 135.798,134.75 136.465,130.083 138,125.5C 140.799,118.632 143.132,111.632 145,104.5C 154.588,101.685 164.421,100.352 174.5,100.5C 173.667,102.752 173.667,104.919 174.5,107C 180.348,107.173 186.015,107.673 191.5,108.5 Z"/></g>
<g><path style="opacity:1" fill="#5f0604" d="M 191.5,104.5 C 191.5,104.167 191.5,103.833 191.5,103.5C 192.833,103.5 194.167,103.5 195.5,103.5C 200.843,105.017 206.177,106.851 211.5,109C 212.056,109.383 212.389,109.883 212.5,110.5C 205.267,109.311 198.267,107.311 191.5,104.5 Z"/></g>
<g><path style="opacity:1" fill="#c9131b" d="M 283.5,95.5 C 284.338,95.8417 284.672,96.5084 284.5,97.5C 285.736,102.292 287.236,106.959 289,111.5C 289.667,115.833 289.667,120.167 289,124.5C 288.768,125.737 288.268,126.737 287.5,127.5C 287.313,122.155 286.98,116.822 286.5,111.5C 285.5,111.5 284.5,111.5 283.5,111.5C 284.205,106.224 284.205,100.891 283.5,95.5 Z"/></g>
<g><path style="opacity:1" fill="#e4f7fc" d="M 191.5,108.5 C 201.388,111.297 211.054,114.797 220.5,119C 234.196,126.18 248.196,132.847 262.5,139C 267.15,143.574 268.65,149.074 267,155.5C 265.501,162.338 263.501,169.004 261,175.5C 256.03,180.283 250.53,180.783 244.5,177C 225.993,165.249 205.993,157.082 184.5,152.5C 182.827,146.147 180.994,139.814 179,133.5C 177.868,125.082 178.701,116.915 181.5,109C 184.817,108.502 188.15,108.335 191.5,108.5 Z"/></g>
<g><path style="opacity:1" fill="#b41206" d="M 212.5,110.5 C 216.591,111.085 220.591,112.085 224.5,113.5C 225.826,114.642 226.826,115.976 227.5,117.5C 222.582,114.873 217.582,112.54 212.5,110.5 Z"/></g>
<g><path style="opacity:1" fill="#2c0a07" d="M 235.5,70.5 C 238.848,74.8471 242.848,78.5137 247.5,81.5C 247.973,82.9063 248.973,83.573 250.5,83.5C 251.094,90.2991 251.761,96.9657 252.5,103.5C 254.365,108.038 257.365,111.704 261.5,114.5C 262.911,116.914 264.911,118.581 267.5,119.5C 268.833,121.167 270.167,122.833 271.5,124.5C 271.5,125.167 271.5,125.833 271.5,126.5C 269.296,123.416 266.296,121.416 262.5,120.5C 262.5,124.167 262.5,127.833 262.5,131.5C 263.5,131.5 264.5,131.5 265.5,131.5C 265.5,132.167 265.5,132.833 265.5,133.5C 264.849,134.091 264.182,134.757 263.5,135.5C 257.145,135.071 252.145,132.405 248.5,127.5C 250.167,128.167 251.833,128.833 253.5,129.5C 255.503,131.982 258.169,132.982 261.5,132.5C 261.666,128.486 261.499,124.486 261,120.5C 260.617,119.944 260.117,119.611 259.5,119.5C 257.83,116.998 255.664,114.998 253,113.5C 251.473,110.447 249.973,107.447 248.5,104.5C 248.666,98.4908 248.499,92.4908 248,86.5C 246.989,85.6634 245.822,85.33 244.5,85.5C 241.526,82.8621 238.526,80.1954 235.5,77.5C 233.86,74.8508 232.193,72.1841 230.5,69.5C 230.351,68.448 230.517,67.448 231,66.5C 232.371,68.0414 233.871,69.3747 235.5,70.5 Z"/></g>
<g><path style="opacity:1" fill="#7f7f7f" d="M 131.5,115.5 C 131.506,118.518 132.506,121.184 134.5,123.5C 134.376,124.107 134.043,124.44 133.5,124.5C 131.909,122.319 130.576,119.986 129.5,117.5C 129.747,116.287 130.414,115.62 131.5,115.5 Z"/></g>
<g><path style="opacity:1" fill="#900b05" d="M 261.5,114.5 C 264.089,115.419 266.089,117.086 267.5,119.5C 264.911,118.581 262.911,116.914 261.5,114.5 Z"/></g>
<g><path style="opacity:1" fill="#540401" d="M 227.5,117.5 C 230.992,118.41 233.992,120.076 236.5,122.5C 232.651,122.082 229.651,120.415 227.5,117.5 Z"/></g>
<g><path style="opacity:1" fill="#250b0b" d="M 284.5,97.5 C 289.435,102.741 291.602,109.074 291,116.5C 292.286,118.626 293.119,120.959 293.5,123.5C 291.68,125.839 290.513,128.506 290,131.5C 289.667,130.833 289.333,130.167 289,129.5C 286.706,133.813 285.873,138.48 286.5,143.5C 285.163,141.651 284.497,139.484 284.5,137C 285.102,133.648 286.102,130.481 287.5,127.5C 288.268,126.737 288.768,125.737 289,124.5C 289.667,120.167 289.667,115.833 289,111.5C 287.236,106.959 285.736,102.292 284.5,97.5 Z"/></g>
<g><path style="opacity:1" fill="#7d0902" d="M 240.5,123.5 C 243.1,124.468 245.434,125.801 247.5,127.5C 244.454,127.275 242.121,125.942 240.5,123.5 Z"/></g>
<g><path style="opacity:1" fill="#a91313" d="M 259.5,119.5 C 260.117,119.611 260.617,119.944 261,120.5C 261.499,124.486 261.666,128.486 261.5,132.5C 258.169,132.982 255.503,131.982 253.5,129.5C 255.764,130.219 258.097,130.552 260.5,130.5C 260.677,126.766 260.344,123.099 259.5,119.5 Z"/></g>
<g><path style="opacity:1" fill="#c11407" d="M 271.5,124.5 C 272.901,124.971 274.234,125.638 275.5,126.5C 279.067,135.488 280.734,144.821 280.5,154.5C 281.5,154.5 282.5,154.5 283.5,154.5C 282.923,156.652 281.756,156.985 280,155.5C 279.894,151.61 279.061,147.943 277.5,144.5C 278.09,139.36 277.09,134.693 274.5,130.5C 273.974,128.77 272.974,127.436 271.5,126.5C 271.5,125.833 271.5,125.167 271.5,124.5 Z"/></g>
<g><path style="opacity:1" fill="#400403" d="M 274.5,130.5 C 277.09,134.693 278.09,139.36 277.5,144.5C 276.503,139.872 275.503,135.205 274.5,130.5 Z"/></g>
<g><path style="opacity:1" fill="#c71425" d="M 287.5,127.5 C 286.102,130.481 285.102,133.648 284.5,137C 284.497,139.484 285.163,141.651 286.5,143.5C 287.193,147.794 286.193,151.461 283.5,154.5C 283.914,152.192 284.247,149.858 284.5,147.5C 282.687,142.707 282.187,137.707 283,132.5C 283.612,129.885 285.112,128.219 287.5,127.5 Z"/></g>
<g><path style="opacity:0.592" fill="#636464" d="M 289.5,140.5 C 290.913,143.219 291.58,146.219 291.5,149.5C 290.087,146.781 289.42,143.781 289.5,140.5 Z"/></g>
<g><path style="opacity:1" fill="#888680" d="M 134.5,144.5 C 134.865,146.588 134.865,148.921 134.5,151.5C 135.833,151.5 137.167,151.5 138.5,151.5C 138.5,152.833 138.5,154.167 138.5,155.5C 138.167,155.5 137.833,155.5 137.5,155.5C 132.655,152.825 131.655,149.159 134.5,144.5 Z"/></g>
<g><path style="opacity:1" fill="#f4e007" d="M 165.5,154.5 C 161.85,157.528 158.85,161.195 156.5,165.5C 152.963,168.245 151.296,171.912 151.5,176.5C 150.778,176.918 150.278,177.584 150,178.5C 149.501,182.152 149.335,185.818 149.5,189.5C 149.179,191.048 148.179,191.715 146.5,191.5C 145.29,191.068 144.29,190.401 143.5,189.5C 140.375,188.521 137.042,188.187 133.5,188.5C 133.072,179.383 133.738,170.383 135.5,161.5C 136.167,159.5 136.833,157.5 137.5,155.5C 137.833,155.5 138.167,155.5 138.5,155.5C 139.201,153.412 140.201,151.412 141.5,149.5C 142.261,148.609 143.261,147.942 144.5,147.5C 151.754,149.468 158.754,151.802 165.5,154.5 Z"/></g>
<g><path style="opacity:1" fill="#958c3b" d="M 141.5,149.5 C 140.201,151.412 139.201,153.412 138.5,155.5C 138.5,154.167 138.5,152.833 138.5,151.5C 138.973,150.094 139.973,149.427 141.5,149.5 Z"/></g>
<g><path style="opacity:1" fill="#f4cbb4" d="M 168.5,155.5 C 195.536,158.072 220.203,166.739 242.5,181.5C 241.521,184.625 241.187,187.958 241.5,191.5C 239.9,193.571 239.4,195.905 240,198.5C 241.49,199.728 242.99,199.728 244.5,198.5C 247.43,197.701 250.43,197.368 253.5,197.5C 253.129,203.28 252.129,208.946 250.5,214.5C 250.216,216.415 250.549,218.081 251.5,219.5C 251.5,220.5 251.5,221.5 251.5,222.5C 252.833,222.5 254.167,222.5 255.5,222.5C 255.047,223.458 254.381,224.292 253.5,225C 254.811,227.274 254.811,229.44 253.5,231.5C 253.762,230.022 253.429,228.689 252.5,227.5C 250.073,229.959 247.073,230.959 243.5,230.5C 246.581,230.211 248.581,228.544 249.5,225.5C 246.773,222.033 245.106,218.033 244.5,213.5C 244.667,212.5 244.833,211.5 245,210.5C 245.368,211.91 246.201,212.91 247.5,213.5C 248.681,211.865 248.681,210.198 247.5,208.5C 247.977,207.522 248.643,206.689 249.5,206C 246.437,202.762 242.771,200.596 238.5,199.5C 236.336,199.998 234.669,201.164 233.5,203C 236.278,204.392 239.278,204.892 242.5,204.5C 242.611,208.349 241.278,211.516 238.5,214C 239.724,216.39 240.224,218.89 240,221.5C 238.984,220.366 238.317,220.699 238,222.5C 237.333,221.167 236.667,221.167 236,222.5C 236.135,220.575 236.302,218.575 236.5,216.5C 235.5,216.5 234.5,216.5 233.5,216.5C 233.817,213.454 232.484,211.787 229.5,211.5C 226.408,208.645 222.741,207.812 218.5,209C 216.286,211.221 213.953,213.388 211.5,215.5C 207.374,224.267 210.04,228.601 219.5,228.5C 219.5,228.833 219.5,229.167 219.5,229.5C 203.34,230.818 187.34,230.818 171.5,229.5C 171.5,228.833 171.5,228.167 171.5,227.5C 171.833,227.5 172.167,227.5 172.5,227.5C 174.485,227.141 175.151,226.308 174.5,225C 175.135,221.394 176.802,218.394 179.5,216C 177.766,213.3 175.432,211.3 172.5,210C 173.683,207.845 173.35,205.845 171.5,204C 172.167,203.333 172.833,202.667 173.5,202C 170.518,201.502 167.518,201.335 164.5,201.5C 165.15,195.831 164.65,190.165 163,184.5C 161.598,186.973 160.098,186.973 158.5,184.5C 157.277,181.003 157.277,177.503 158.5,174C 157.313,171.276 156.647,168.443 156.5,165.5C 161.29,164.362 165.623,162.195 169.5,159C 169.833,158.667 170.167,158.333 170.5,158C 169.244,157.583 168.577,156.75 168.5,155.5 Z"/></g>
<g><path style="opacity:1" fill="#f3f4f4" d="M 292.5,189.5 C 290.621,189.607 290.288,189.107 291.5,188C 290.484,187.481 289.818,186.647 289.5,185.5C 291.402,179.838 291.402,174.338 289.5,169C 289.974,166.251 290.974,163.751 292.5,161.5C 290.625,160.591 289.292,159.257 288.5,157.5C 288.685,155.11 290.018,154.11 292.5,154.5C 301.398,155.898 306.398,161.065 307.5,170C 307.333,171.167 307.167,172.333 307,173.5C 304.646,171.152 301.979,170.486 299,171.5C 300.165,177.17 299.165,182.503 296,187.5C 295.184,188.823 294.017,189.489 292.5,189.5 Z"/></g>
<g><path style="opacity:1" fill="#f8d19f" d="M 165.5,154.5 C 166.791,154.263 167.791,154.596 168.5,155.5C 168.577,156.75 169.244,157.583 170.5,158C 170.167,158.333 169.833,158.667 169.5,159C 165.623,162.195 161.29,164.362 156.5,165.5C 158.85,161.195 161.85,157.528 165.5,154.5 Z"/></g>
<g><path style="opacity:1" fill="#e2f5f9" d="M 288.5,157.5 C 289.292,159.257 290.625,160.591 292.5,161.5C 290.974,163.751 289.974,166.251 289.5,169C 291.402,174.338 291.402,179.838 289.5,185.5C 289.818,186.647 290.484,187.481 291.5,188C 290.288,189.107 290.621,189.607 292.5,189.5C 284.499,192.872 276.999,191.872 270,186.5C 267.92,183.526 266.753,180.193 266.5,176.5C 267.971,170.098 269.971,163.932 272.5,158C 274.744,155.651 275.911,156.151 276,159.5C 277.182,161.357 278.849,162.357 281,162.5C 283.886,161.454 286.386,159.787 288.5,157.5 Z"/></g>
<g><path style="opacity:1" fill="#584639" d="M 177.5,171.5 C 174.167,171.5 170.833,171.5 167.5,171.5C 170.833,168.833 174.167,168.833 177.5,171.5 Z"/></g>
<g><path style="opacity:1" fill="#543f3b" d="M 177.5,171.5 C 178.434,172.568 178.768,173.901 178.5,175.5C 174.766,175.323 171.099,175.656 167.5,176.5C 167.611,175.883 167.944,175.383 168.5,175C 171.482,174.502 174.482,174.335 177.5,174.5C 177.5,173.5 177.5,172.5 177.5,171.5 Z"/></g>
<g><path style="opacity:1" fill="#211916" d="M 167.5,171.5 C 170.833,171.5 174.167,171.5 177.5,171.5C 177.5,172.5 177.5,173.5 177.5,174.5C 174.482,174.335 171.482,174.502 168.5,175C 167.944,175.383 167.611,175.883 167.5,176.5C 166.504,176.414 165.671,176.748 165,177.5C 164.573,180.942 162.74,182.442 159.5,182C 158.941,181.275 158.608,180.442 158.5,179.5C 159.922,175.078 162.922,172.412 167.5,171.5 Z"/></g>
<g><path style="opacity:1" fill="#1e1613" d="M 226.5,185.5 C 224.667,182.711 222,181.378 218.5,181.5C 215.734,182.088 213.067,182.588 210.5,183C 209.663,181.989 209.33,180.822 209.5,179.5C 216.461,175.199 223.128,175.866 229.5,181.5C 230.614,182.723 230.781,184.056 230,185.5C 228.708,186.791 227.542,186.791 226.5,185.5 Z"/></g>
<g><path style="opacity:0.925" fill="#e2dc68" d="M 135.5,161.5 C 133.738,170.383 133.072,179.383 133.5,188.5C 137.042,188.187 140.375,188.521 143.5,189.5C 140.167,189.5 136.833,189.5 133.5,189.5C 133.167,189.5 132.833,189.5 132.5,189.5C 130.609,179.731 131.609,170.398 135.5,161.5 Z"/></g>
<g><path style="opacity:1" fill="#f7d765" d="M 151.5,176.5 C 151.116,181.01 150.449,185.343 149.5,189.5C 149.335,185.818 149.501,182.152 150,178.5C 150.278,177.584 150.778,176.918 151.5,176.5 Z"/></g>
<g><path style="opacity:1" fill="#cba699" d="M 209.5,179.5 C 209.33,180.822 209.663,181.989 210.5,183C 213.067,182.588 215.734,182.088 218.5,181.5C 222,181.378 224.667,182.711 226.5,185.5C 220.203,184.68 213.869,184.347 207.5,184.5C 207.077,182.219 207.744,180.552 209.5,179.5 Z"/></g>
<g><path style="opacity:1" fill="#e7d705" d="M 245.5,182.5 C 248.764,183.324 252.098,183.658 255.5,183.5C 255.5,185.5 255.5,187.5 255.5,189.5C 252.167,189.5 248.833,189.5 245.5,189.5C 244.5,189.5 243.5,189.5 242.5,189.5C 242.5,187.167 242.5,184.833 242.5,182.5C 243.5,182.5 244.5,182.5 245.5,182.5 Z"/></g>
<g><path style="opacity:1" fill="#d8c34f" d="M 242.5,181.5 C 243.791,181.263 244.791,181.596 245.5,182.5C 244.5,182.5 243.5,182.5 242.5,182.5C 242.5,184.833 242.5,187.167 242.5,189.5C 243.5,189.5 244.5,189.5 245.5,189.5C 244.486,190.674 243.153,191.34 241.5,191.5C 241.187,187.958 241.521,184.625 242.5,181.5 Z"/></g>
<g><path style="opacity:0.208" fill="#c5c69a" d="M 255.5,183.5 C 256.167,183.5 256.833,183.5 257.5,183.5C 257.155,187.115 257.822,190.448 259.5,193.5C 257.833,192.5 256.5,191.167 255.5,189.5C 255.5,187.5 255.5,185.5 255.5,183.5 Z"/></g>
<g><path style="opacity:1" fill="#10191f" d="M 172.5,186.5 C 173.641,189.64 173.808,192.973 173,196.5C 171.057,197.807 169.223,197.807 167.5,196.5C 167.335,193.482 167.502,190.482 168,187.5C 169.356,186.62 170.856,186.286 172.5,186.5 Z"/></g>
<g><path style="opacity:1" fill="#292d2c" d="M 213.5,189.5 C 218.041,189.052 222.374,189.719 226.5,191.5C 227.583,192.365 227.749,193.365 227,194.5C 221.626,194.699 216.126,194.699 210.5,194.5C 210.31,192.041 211.31,190.374 213.5,189.5 Z"/></g>
<g><path style="opacity:1" fill="#152022" d="M 133.5,189.5 C 136.833,189.5 140.167,189.5 143.5,189.5C 144.29,190.401 145.29,191.068 146.5,191.5C 146.5,192.167 146.833,192.5 147.5,192.5C 147.5,194.167 147.5,195.833 147.5,197.5C 144.766,196.279 141.933,195.279 139,194.5C 136.813,194.788 134.646,195.122 132.5,195.5C 131.738,201.959 133.738,207.293 138.5,211.5C 138.5,211.833 138.5,212.167 138.5,212.5C 138.993,214.806 139.326,217.139 139.5,219.5C 138.448,219.649 137.448,219.483 136.5,219C 135.273,216.438 133.606,214.272 131.5,212.5C 129.303,206.685 128.47,200.685 129,194.5C 130.11,192.963 131.61,192.297 133.5,192.5C 133.5,191.5 133.5,190.5 133.5,189.5 Z"/></g>
<g><path style="opacity:1" fill="#4f4b44" d="M 172.5,186.5 C 170.856,186.286 169.356,186.62 168,187.5C 167.502,190.482 167.335,193.482 167.5,196.5C 166.359,193.36 166.192,190.027 167,186.5C 169.09,183.983 170.923,183.983 172.5,186.5 Z"/></g>
<g><path style="opacity:1" fill="#6f7a80" d="M 132.5,189.5 C 132.833,189.5 133.167,189.5 133.5,189.5C 133.5,190.5 133.5,191.5 133.5,192.5C 131.61,192.297 130.11,192.963 129,194.5C 128.47,200.685 129.303,206.685 131.5,212.5C 127.009,206.854 125.842,200.52 128,193.5C 129.371,191.959 130.871,190.625 132.5,189.5 Z"/></g>
<g><path style="opacity:1" fill="#d6af9c" d="M 147.5,192.5 C 150.897,193.967 151.23,195.967 148.5,198.5C 141.295,199.677 137.962,204.01 138.5,211.5C 133.738,207.293 131.738,201.959 132.5,195.5C 134.646,195.122 136.813,194.788 139,194.5C 141.933,195.279 144.766,196.279 147.5,197.5C 147.5,195.833 147.5,194.167 147.5,192.5 Z"/></g>
<g><path style="opacity:1" fill="#bb9e91" d="M 250.5,214.5 C 252.129,208.946 253.129,203.28 253.5,197.5C 250.43,197.368 247.43,197.701 244.5,198.5C 244.73,195.535 246.397,194.202 249.5,194.5C 255.574,194.642 257.74,197.642 256,203.5C 254.1,207.3 252.267,210.967 250.5,214.5 Z"/></g>
<g><path style="opacity:1" fill="#182223" d="M 245.5,189.5 C 248.833,189.5 252.167,189.5 255.5,189.5C 256.5,191.167 257.833,192.5 259.5,193.5C 260.397,198.14 260.564,202.806 260,207.5C 257.953,210.964 256.287,214.63 255,218.5C 253.989,219.337 252.822,219.67 251.5,219.5C 250.549,218.081 250.216,216.415 250.5,214.5C 252.267,210.967 254.1,207.3 256,203.5C 257.74,197.642 255.574,194.642 249.5,194.5C 246.397,194.202 244.73,195.535 244.5,198.5C 242.99,199.728 241.49,199.728 240,198.5C 239.4,195.905 239.9,193.571 241.5,191.5C 243.153,191.34 244.486,190.674 245.5,189.5 Z"/></g>
<g><path style="opacity:1" fill="#a6aeb2" d="M 259.5,193.5 C 261.587,196.069 262.921,199.069 263.5,202.5C 262.567,209.986 259.901,216.653 255.5,222.5C 254.167,222.5 252.833,222.5 251.5,222.5C 251.5,221.5 251.5,220.5 251.5,219.5C 252.822,219.67 253.989,219.337 255,218.5C 256.287,214.63 257.953,210.964 260,207.5C 260.564,202.806 260.397,198.14 259.5,193.5 Z"/></g>
<g><path style="opacity:0.969" fill="#b0aba7" d="M 131.5,212.5 C 133.606,214.272 135.273,216.438 136.5,219C 137.448,219.483 138.448,219.649 139.5,219.5C 139.326,217.139 138.993,214.806 138.5,212.5C 139.496,212.414 140.329,212.748 141,213.5C 141.497,215.81 141.663,218.143 141.5,220.5C 140.778,221.551 139.778,222.218 138.5,222.5C 134.693,220.225 132.359,216.892 131.5,212.5 Z"/></g>
<g><path style="opacity:1" fill="#f1d1c1" d="M 141.5,220.5 C 141.351,221.552 141.517,222.552 142,223.5C 147.076,226.031 151.076,229.697 154,234.5C 156.384,235.141 157.884,236.641 158.5,239C 156.019,242.327 155.853,245.827 158,249.5C 162.467,258.634 169.467,264.967 179,268.5C 179.414,268.043 179.914,267.709 180.5,267.5C 181.141,269.296 182.141,270.796 183.5,272C 190.761,273.348 198.094,273.848 205.5,273.5C 198.345,274.655 191.012,274.822 183.5,274C 181.35,272.41 179.017,271.743 176.5,272C 177.056,272.383 177.389,272.883 177.5,273.5C 171.277,270.116 166.11,265.449 162,259.5C 156.886,251.607 152.553,243.274 149,234.5C 141.588,234.043 138.088,230.043 138.5,222.5C 139.778,222.218 140.778,221.551 141.5,220.5 Z"/></g>
<g><path style="opacity:1" fill="#f6ccb5" d="M 156.5,165.5 C 156.647,168.443 157.313,171.276 158.5,174C 157.277,177.503 157.277,181.003 158.5,184.5C 160.098,186.973 161.598,186.973 163,184.5C 164.65,190.165 165.15,195.831 164.5,201.5C 167.518,201.335 170.518,201.502 173.5,202C 172.833,202.667 172.167,203.333 171.5,204C 173.35,205.845 173.683,207.845 172.5,210C 175.432,211.3 177.766,213.3 179.5,216C 176.802,218.394 175.135,221.394 174.5,225C 175.151,226.308 174.485,227.141 172.5,227.5C 174.35,223.355 174.85,219.021 174,214.5C 169.869,208.885 164.369,207.052 157.5,209C 151.888,213.176 150.055,218.676 152,225.5C 155.269,230.947 160.102,232.947 166.5,231.5C 166.229,233.38 166.896,234.713 168.5,235.5C 170.31,239.014 172.643,242.347 175.5,245.5C 175.833,246.5 176.5,247.167 177.5,247.5C 179.373,250.449 182.039,252.449 185.5,253.5C 185.611,254.117 185.944,254.617 186.5,255C 192.167,255.667 197.833,255.667 203.5,255C 204.942,254.623 205.942,253.79 206.5,252.5C 207.167,252.5 207.5,252.167 207.5,251.5C 208.833,251.5 209.5,250.833 209.5,249.5C 215.68,245.995 220.013,240.995 222.5,234.5C 223.364,233.312 224.364,232.145 225.5,231C 229.963,230.537 232.463,228.037 233,223.5C 233.988,218.773 232.822,214.773 229.5,211.5C 232.484,211.787 233.817,213.454 233.5,216.5C 234.5,216.5 235.5,216.5 236.5,216.5C 236.302,218.575 236.135,220.575 236,222.5C 236.667,221.167 237.333,221.167 238,222.5C 238.317,220.699 238.984,220.366 240,221.5C 240.224,218.89 239.724,216.39 238.5,214C 241.278,211.516 242.611,208.349 242.5,204.5C 239.278,204.892 236.278,204.392 233.5,203C 234.669,201.164 236.336,199.998 238.5,199.5C 242.771,200.596 246.437,202.762 249.5,206C 248.643,206.689 247.977,207.522 247.5,208.5C 248.681,210.198 248.681,211.865 247.5,213.5C 246.201,212.91 245.368,211.91 245,210.5C 244.833,211.5 244.667,212.5 244.5,213.5C 245.106,218.033 246.773,222.033 249.5,225.5C 248.581,228.544 246.581,230.211 243.5,230.5C 242.115,231.574 240.949,232.907 240,234.5C 235.256,249.531 226.756,261.698 214.5,271C 211.526,271.993 208.526,272.826 205.5,273.5C 198.094,273.848 190.761,273.348 183.5,272C 182.141,270.796 181.141,269.296 180.5,267.5C 179.914,267.709 179.414,268.043 179,268.5C 169.467,264.967 162.467,258.634 158,249.5C 155.853,245.827 156.019,242.327 158.5,239C 157.884,236.641 156.384,235.141 154,234.5C 151.076,229.697 147.076,226.031 142,223.5C 141.517,222.552 141.351,221.552 141.5,220.5C 141.663,218.143 141.497,215.81 141,213.5C 140.329,212.748 139.496,212.414 138.5,212.5C 138.5,212.167 138.5,211.833 138.5,211.5C 137.962,204.01 141.295,199.677 148.5,198.5C 151.23,195.967 150.897,193.967 147.5,192.5C 146.833,192.5 146.5,192.167 146.5,191.5C 148.179,191.715 149.179,191.048 149.5,189.5C 150.449,185.343 151.116,181.01 151.5,176.5C 151.296,171.912 152.963,168.245 156.5,165.5 Z"/></g>
<g><path style="opacity:1" fill="#e24a4b" d="M 206.5,252.5 C 205.942,253.79 204.942,254.623 203.5,255C 197.833,255.667 192.167,255.667 186.5,255C 185.944,254.617 185.611,254.117 185.5,253.5C 192.618,255.1 199.618,254.767 206.5,252.5 Z"/></g>
<g><path style="opacity:1" fill="#e3181d" d="M 191.5,245.5 C 196.396,246.169 201.396,247.002 206.5,248C 207.337,249.011 207.67,250.178 207.5,251.5C 207.5,252.167 207.167,252.5 206.5,252.5C 199.618,254.767 192.618,255.1 185.5,253.5C 182.039,252.449 179.373,250.449 177.5,247.5C 181.919,246.028 186.586,245.362 191.5,245.5 Z"/></g>
<g><path style="opacity:1" fill="#a11b2b" d="M 191.5,245.5 C 196.511,245.334 201.511,245.501 206.5,246C 207.044,246.717 207.711,247.217 208.5,247.5C 208.328,248.492 208.662,249.158 209.5,249.5C 209.5,250.833 208.833,251.5 207.5,251.5C 207.67,250.178 207.337,249.011 206.5,248C 201.396,247.002 196.396,246.169 191.5,245.5 Z"/></g>
<g><path style="opacity:1" fill="#941828" d="M 191.5,245.5 C 186.586,245.362 181.919,246.028 177.5,247.5C 176.5,247.167 175.833,246.5 175.5,245.5C 178.781,244.148 182.281,243.481 186,243.5C 188.295,243.547 190.129,244.213 191.5,245.5 Z"/></g>
<g><path style="opacity:1" fill="#0f1a23" d="M 168.5,228.5 C 170.344,230.279 171.01,232.612 170.5,235.5C 172.167,235.5 173.833,235.5 175.5,235.5C 180.038,236.678 184.705,237.678 189.5,238.5C 197.342,239.355 205.342,239.522 213.5,239C 214.276,240.77 214.11,242.603 213,244.5C 211.249,245.222 209.749,246.222 208.5,247.5C 207.711,247.217 207.044,246.717 206.5,246C 201.511,245.501 196.511,245.334 191.5,245.5C 190.129,244.213 188.295,243.547 186,243.5C 182.281,243.481 178.781,244.148 175.5,245.5C 172.643,242.347 170.31,239.014 168.5,235.5C 167.377,233.021 167.377,230.688 168.5,228.5 Z"/></g>
<g><path style="opacity:1" fill="#1e282c" d="M 219.5,228.5 C 220.5,228.5 221.5,228.5 222.5,228.5C 222.5,230.5 222.5,232.5 222.5,234.5C 220.013,240.995 215.68,245.995 209.5,249.5C 208.662,249.158 208.328,248.492 208.5,247.5C 209.749,246.222 211.249,245.222 213,244.5C 214.11,242.603 214.276,240.77 213.5,239C 205.342,239.522 197.342,239.355 189.5,238.5C 197.958,238.881 206.291,238.047 214.5,236C 217.534,234.809 219.201,232.642 219.5,229.5C 219.5,229.167 219.5,228.833 219.5,228.5 Z"/></g>
<g><path style="opacity:1" fill="#868a90" d="M 168.5,228.5 C 169.209,227.596 170.209,227.263 171.5,227.5C 171.5,228.167 171.5,228.833 171.5,229.5C 170.933,232.911 172.266,234.911 175.5,235.5C 173.833,235.5 172.167,235.5 170.5,235.5C 171.01,232.612 170.344,230.279 168.5,228.5 Z"/></g>
<g><path style="opacity:1" fill="#f1f0ee" d="M 219.5,229.5 C 219.201,232.642 217.534,234.809 214.5,236C 206.291,238.047 197.958,238.881 189.5,238.5C 184.705,237.678 180.038,236.678 175.5,235.5C 172.266,234.911 170.933,232.911 171.5,229.5C 187.34,230.818 203.34,230.818 219.5,229.5 Z"/></g>
<g><path style="opacity:1" fill="#cbab9b" d="M 205.5,215.5 C 206.598,216.601 206.765,217.934 206,219.5C 203.05,223.64 199.05,225.307 194,224.5C 191.833,224.333 189.667,224.167 187.5,224C 186.285,221.904 185.451,222.071 185,224.5C 184.467,221.495 183.3,218.828 181.5,216.5C 187.386,222.568 194.386,224.068 202.5,221C 204.607,219.736 205.607,217.903 205.5,215.5 Z"/></g>
<g><path style="opacity:1" fill="#172123" d="M 180.5,200.5 C 184.513,201.196 185.513,203.363 183.5,207C 183.758,209.009 184.425,210.843 185.5,212.5C 185.916,214.752 187.249,216.252 189.5,217C 194.996,217.849 200.329,217.349 205.5,215.5C 205.607,217.903 204.607,219.736 202.5,221C 194.386,224.068 187.386,222.568 181.5,216.5C 181.167,215.833 180.833,215.167 180.5,214.5C 179.222,209.802 179.222,205.135 180.5,200.5 Z"/></g>
<g><path style="opacity:1" fill="#9a8581" d="M 185.5,212.5 C 191.044,216.643 197.044,217.31 203.5,214.5C 204.416,214.543 205.083,214.876 205.5,215.5C 200.329,217.349 194.996,217.849 189.5,217C 187.249,216.252 185.916,214.752 185.5,212.5 Z"/></g>
<g><path style="opacity:1" fill="#f3ab90" d="M 229.5,211.5 C 232.822,214.773 233.988,218.773 233,223.5C 232.463,228.037 229.963,230.537 225.5,231C 224.364,232.145 223.364,233.312 222.5,234.5C 222.5,232.5 222.5,230.5 222.5,228.5C 221.5,228.5 220.5,228.5 219.5,228.5C 210.04,228.601 207.374,224.267 211.5,215.5C 213.953,213.388 216.286,211.221 218.5,209C 222.741,207.812 226.408,208.645 229.5,211.5 Z"/></g>
<g><path style="opacity:1" fill="#f3ab90" d="M 172.5,227.5 C 172.167,227.5 171.833,227.5 171.5,227.5C 170.209,227.263 169.209,227.596 168.5,228.5C 167.377,230.688 167.377,233.021 168.5,235.5C 166.896,234.713 166.229,233.38 166.5,231.5C 160.102,232.947 155.269,230.947 152,225.5C 150.055,218.676 151.888,213.176 157.5,209C 164.369,207.052 169.869,208.885 174,214.5C 174.85,219.021 174.35,223.355 172.5,227.5 Z"/></g>
<g><path style="opacity:1" fill="#6b6660" d="M 180.5,200.5 C 179.222,205.135 179.222,209.802 180.5,214.5C 179.883,214.389 179.383,214.056 179,213.5C 177.451,209.519 177.285,205.519 178.5,201.5C 178.957,200.702 179.624,200.369 180.5,200.5 Z"/></g>
<g><path style="opacity:1" fill="#c5bfbc" d="M 253.5,231.5 C 250.427,233.83 246.927,235.497 243,236.5C 237.683,250.301 229.516,262.135 218.5,272C 211.707,276.709 204.207,278.542 196,277.5C 192.167,277.333 188.333,277.167 184.5,277C 181.826,276.33 179.493,275.163 177.5,273.5C 177.389,272.883 177.056,272.383 176.5,272C 179.017,271.743 181.35,272.41 183.5,274C 191.012,274.822 198.345,274.655 205.5,273.5C 208.526,272.826 211.526,271.993 214.5,271C 226.756,261.698 235.256,249.531 240,234.5C 240.949,232.907 242.115,231.574 243.5,230.5C 247.073,230.959 250.073,229.959 252.5,227.5C 253.429,228.689 253.762,230.022 253.5,231.5 Z"/></g>
</svg>
