<?xml version="1.0" encoding="UTF-8"?>
<!DOCTYPE svg PUBLIC "-//W3C//DTD SVG 1.1//EN" "http://www.w3.org/Graphics/SVG/1.1/DTD/svg11.dtd">
<svg xmlns="http://www.w3.org/2000/svg" version="1.1" width="500px" height="500px" style="shape-rendering:geometricPrecision; text-rendering:geometricPrecision; image-rendering:optimizeQuality; fill-rule:evenodd; clip-rule:evenodd" xmlns:xlink="http://www.w3.org/1999/xlink">
<g><path style="opacity:0.01" fill="#fefffe" d="M 327.5,110.5 C 327.5,110.167 327.5,109.833 327.5,109.5C 327.073,106.763 327.74,106.93 329.5,110C 328.906,110.464 328.239,110.631 327.5,110.5 Z"/></g>
<g><path style="opacity:0.004" fill="#fefffe" d="M 323.5,113.5 C 324.833,114.167 324.833,114.167 323.5,113.5 Z"/></g>
<g><path style="opacity:0.831" fill="#949494" d="M 327.5,109.5 C 327.5,109.833 327.5,110.167 327.5,110.5C 328.247,113.899 329.247,117.233 330.5,120.5C 328.797,119.34 328.131,120.007 328.5,122.5C 327.778,122.082 327.278,121.416 327,120.5C 326.444,122.595 325.944,122.762 325.5,121C 326.054,118.828 326.054,116.495 325.5,114C 325.569,112.014 326.235,110.514 327.5,109.5 Z"/></g>
<g><path style="opacity:0.518" fill="#adadad" d="M 343.5,123.5 C 342.71,122.391 342.21,121.058 342,119.5C 341.506,121.134 341.34,122.801 341.5,124.5C 340.17,121.56 340.337,118.56 342,115.5C 343.079,118.063 343.579,120.729 343.5,123.5 Z"/></g>
<g><path style="opacity:0.015" fill="#e9e9e9" d="M 341.5,126.5 C 342.249,127.531 342.915,128.698 343.5,130C 340.261,129.554 337.261,128.221 334.5,126C 332.536,124.549 331.203,122.716 330.5,120.5C 331.222,120.082 331.722,119.416 332,118.5C 332.49,119.793 332.657,121.127 332.5,122.5C 333.5,122.5 334.5,122.5 335.5,122.5C 335.5,123.5 335.5,124.5 335.5,125.5C 337.722,125.178 339.556,125.845 341,127.5C 341.399,127.272 341.565,126.938 341.5,126.5 Z"/></g>
<g><path style="opacity:0.725" fill="#8d8d8d" d="M 359.5,127.5 C 358.549,128.919 358.216,130.585 358.5,132.5C 357.203,130.307 357.203,127.973 358.5,125.5C 359.298,125.957 359.631,126.624 359.5,127.5 Z"/></g>
<g><path style="opacity:0.009" fill="#d4d4d4" d="M 331.5,126.5 C 332.5,126.833 333.167,127.5 333.5,128.5C 332.127,128.657 330.793,128.49 329.5,128C 330.416,127.722 331.082,127.222 331.5,126.5 Z"/></g>
<g><path style="opacity:0.188" fill="#c8c8c8" d="M 344.5,125.5 C 345.906,125.973 346.573,126.973 346.5,128.5C 345.094,128.027 344.427,127.027 344.5,125.5 Z"/></g>
<g><path style="opacity:0.004" fill="#e5e5e5" d="M 359.5,127.5 C 361.698,127.409 362.031,128.075 360.5,129.5C 359.662,129.158 359.328,128.492 359.5,127.5 Z"/></g>
<g><path style="opacity:0.015" fill="#d9d9d9" d="M 315.5,135.5 C 314.778,135.082 314.278,134.416 314,133.5C 313.536,134.094 313.369,134.761 313.5,135.5C 311.974,134.895 310.974,133.729 310.5,132C 313.703,130.322 315.37,131.489 315.5,135.5 Z"/></g>
<g><path style="opacity:0.408" fill="#9a9a9a" d="M 335.5,130.5 C 337.027,130.427 338.027,131.094 338.5,132.5C 336.973,132.573 335.973,131.906 335.5,130.5 Z"/></g>
<g><path style="opacity:0.006" fill="#eeeeee" d="M 338.5,132.5 C 339.71,132.932 340.71,133.599 341.5,134.5C 339.821,134.715 338.821,134.048 338.5,132.5 Z"/></g>
<g><path style="opacity:0.004" fill="#fefffe" d="M 316.5,134.5 C 317.833,135.167 317.833,135.167 316.5,134.5 Z"/></g>
<g><path style="opacity:0.008" fill="#fefffe" d="M 364.5,134.5 C 365.833,135.167 365.833,135.167 364.5,134.5 Z"/></g>
<g><path style="opacity:0.749" fill="#7d7d7d" d="M 315.5,135.5 C 315.833,135.5 316.167,135.5 316.5,135.5C 316.5,135.833 316.5,136.167 316.5,136.5C 316.833,137.167 317.167,137.833 317.5,138.5C 316.662,138.842 316.328,139.508 316.5,140.5C 314.621,140.607 314.288,140.107 315.5,139C 314.027,138.29 313.36,137.124 313.5,135.5C 313.369,134.761 313.536,134.094 314,133.5C 314.278,134.416 314.778,135.082 315.5,135.5 Z"/></g>
<g><path style="opacity:0.007" fill="#dedede" d="M 335.5,139.5 C 333.496,138.327 331.996,136.66 331,134.5C 330.517,135.448 330.351,136.448 330.5,137.5C 329.212,135.965 329.212,134.299 330.5,132.5C 332.624,134.605 334.29,136.939 335.5,139.5 Z"/></g>
<g><path style="opacity:0.004" fill="#fefffe" d="M 366.5,136.5 C 367.833,137.167 367.833,137.167 366.5,136.5 Z"/></g>
<g><path style="opacity:0.006" fill="#d5d5d5" d="M 382.5,140.5 C 380.883,139.962 379.216,139.629 377.5,139.5C 378.469,138.691 379.302,137.691 380,136.5C 380.662,137.984 381.496,139.317 382.5,140.5 Z"/></g>
<g><path style="opacity:0.019" fill="#e4e4e4" d="M 316.5,136.5 C 318.011,137.502 319.678,138.169 321.5,138.5C 321.5,139.5 321.5,140.5 321.5,141.5C 319.596,141.262 318.262,140.262 317.5,138.5C 317.167,137.833 316.833,137.167 316.5,136.5 Z"/></g>
<g><path style="opacity:1" fill="#0a0a0a" d="M 377.5,139.5 C 379.216,139.629 380.883,139.962 382.5,140.5C 382.738,142.404 383.738,143.738 385.5,144.5C 385.41,147.152 386.076,149.485 387.5,151.5C 390.167,151.167 392.833,150.833 395.5,150.5C 401.167,150.5 406.833,150.5 412.5,150.5C 412.5,153.167 412.5,155.833 412.5,158.5C 412.5,158.833 412.5,159.167 412.5,159.5C 411.833,159.833 411.167,160.167 410.5,160.5C 408.973,160.427 407.973,161.094 407.5,162.5C 407.167,162.5 406.833,162.5 406.5,162.5C 404.847,162.66 403.514,163.326 402.5,164.5C 400.973,164.427 399.973,165.094 399.5,166.5C 399.5,167.5 399.5,168.5 399.5,169.5C 400.5,171.167 401.833,172.5 403.5,173.5C 403.81,175.144 404.81,176.144 406.5,176.5C 407.338,176.842 407.672,177.508 407.5,178.5C 408.048,181.084 409.715,182.084 412.5,181.5C 412.205,183.735 412.539,185.735 413.5,187.5C 414.338,187.842 414.672,188.508 414.5,189.5C 415.062,199.318 415.729,208.984 416.5,218.5C 417.143,220.076 418.143,221.41 419.5,222.5C 419.917,223.124 420.584,223.457 421.5,223.5C 425.891,221.235 430.557,219.902 435.5,219.5C 437.045,219.511 438.378,219.844 439.5,220.5C 441.475,222.137 443.475,223.804 445.5,225.5C 446.338,225.842 446.672,226.508 446.5,227.5C 447.162,231.466 447.495,235.466 447.5,239.5C 447.443,240.609 447.11,241.609 446.5,242.5C 445.275,243.937 444.275,245.604 443.5,247.5C 443.957,248.298 444.624,248.631 445.5,248.5C 445.842,249.338 446.508,249.672 447.5,249.5C 450.686,250.597 453.686,251.93 456.5,253.5C 457.436,254.974 458.77,255.974 460.5,256.5C 460.635,258.554 459.968,260.221 458.5,261.5C 454.556,261.887 450.889,261.22 447.5,259.5C 446.536,256.703 444.702,254.703 442,253.5C 440.624,253.684 439.791,254.351 439.5,255.5C 437.721,256.67 436.721,258.336 436.5,260.5C 436.027,261.906 435.027,262.573 433.5,262.5C 432.292,263.234 430.959,263.567 429.5,263.5C 429.167,263.5 428.833,263.5 428.5,263.5C 428.5,260.833 428.5,258.167 428.5,255.5C 428.932,254.29 429.599,253.29 430.5,252.5C 430.833,253.833 431.167,253.833 431.5,252.5C 432.167,252.5 432.5,252.167 432.5,251.5C 431.791,250.596 430.791,250.263 429.5,250.5C 428.486,249.326 427.153,248.66 425.5,248.5C 424.209,248.737 423.209,248.404 422.5,247.5C 419.916,245.528 416.916,244.528 413.5,244.5C 412.365,242.787 410.698,242.12 408.5,242.5C 406.421,242.029 404.421,241.363 402.5,240.5C 402.027,239.094 401.027,238.427 399.5,238.5C 397.83,238.249 396.33,237.582 395,236.5C 390.828,239.057 386.328,240.724 381.5,241.5C 376.156,241.334 370.823,241.501 365.5,242C 364.944,242.383 364.611,242.883 364.5,243.5C 364.5,244.167 364.167,244.5 363.5,244.5C 361.926,246.102 361.259,248.102 361.5,250.5C 360.076,252.515 359.41,254.848 359.5,257.5C 359.25,259.674 358.25,261.341 356.5,262.5C 355.167,263.167 354.167,264.167 353.5,265.5C 352.29,265.932 351.29,266.599 350.5,267.5C 350.027,268.906 349.027,269.573 347.5,269.5C 346.29,269.932 345.29,270.599 344.5,271.5C 343.035,272.737 341.368,273.737 339.5,274.5C 338.508,274.328 337.842,274.662 337.5,275.5C 335.804,277.525 334.137,279.525 332.5,281.5C 330.707,283.426 329.707,285.759 329.5,288.5C 327.833,289.5 326.5,290.833 325.5,292.5C 325.5,293.167 325.167,293.5 324.5,293.5C 322.738,294.262 321.738,295.596 321.5,297.5C 321.158,298.338 320.492,298.672 319.5,298.5C 317.906,298.92 316.406,299.586 315,300.5C 314.098,300.257 313.265,299.923 312.5,299.5C 312.5,297.5 312.5,295.5 312.5,293.5C 313.833,292.833 314.833,291.833 315.5,290.5C 315.842,289.662 316.508,289.328 317.5,289.5C 318.931,288.918 320.264,288.085 321.5,287C 322.252,286.329 322.586,285.496 322.5,284.5C 322.263,283.209 322.596,282.209 323.5,281.5C 324.338,281.158 324.672,280.492 324.5,279.5C 324.15,274.969 324.817,270.636 326.5,266.5C 326.833,266.5 327.167,266.5 327.5,266.5C 329.379,266.607 329.712,266.107 328.5,265C 327.207,264.51 325.873,264.343 324.5,264.5C 323.377,263.243 322.711,263.576 322.5,265.5C 322.5,266.167 322.167,266.5 321.5,266.5C 320.5,266.833 319.833,267.5 319.5,268.5C 318.974,270.23 317.974,271.564 316.5,272.5C 314.973,272.427 313.973,273.094 313.5,274.5C 313.5,275.167 313.167,275.5 312.5,275.5C 311.5,275.833 310.833,276.5 310.5,277.5C 310.158,278.338 309.492,278.672 308.5,278.5C 307.5,278.833 306.833,279.5 306.5,280.5C 304.5,280.5 303.5,281.5 303.5,283.5C 302.341,285.25 300.674,286.25 298.5,286.5C 297.167,286.5 295.833,286.5 294.5,286.5C 294.5,284.833 294.5,283.167 294.5,281.5C 294.5,280.833 294.5,280.167 294.5,279.5C 295.404,278.791 295.737,277.791 295.5,276.5C 296.833,275.833 297.833,274.833 298.5,273.5C 301.848,272.915 304.848,271.582 307.5,269.5C 308.906,269.027 309.573,268.027 309.5,266.5C 310.89,265.101 311.89,263.434 312.5,261.5C 314.89,260.109 316.557,258.109 317.5,255.5C 319.102,253.926 321.102,253.259 323.5,253.5C 325.527,253.662 327.527,253.495 329.5,253C 330.252,252.329 330.586,251.496 330.5,250.5C 330.5,249.833 330.833,249.5 331.5,249.5C 332.906,249.027 333.573,248.027 333.5,246.5C 333.989,245.005 334.655,243.671 335.5,242.5C 336.853,240.872 336.519,239.538 334.5,238.5C 334.204,236.597 333.537,234.93 332.5,233.5C 331.566,232.432 331.232,231.099 331.5,229.5C 331.975,226.918 331.308,224.918 329.5,223.5C 329.027,222.094 328.027,221.427 326.5,221.5C 322.547,219.198 321.547,215.864 323.5,211.5C 326.272,210.233 328.939,210.233 331.5,211.5C 332.912,212.533 334.578,213.199 336.5,213.5C 338.038,213.547 339.038,212.88 339.5,211.5C 341.027,211.573 342.027,210.906 342.5,209.5C 343.492,209.672 344.158,209.338 344.5,208.5C 345.568,207.566 346.901,207.232 348.5,207.5C 352.162,207.277 355.495,206.277 358.5,204.5C 360.265,203.539 362.265,203.205 364.5,203.5C 366.099,203.768 367.432,203.434 368.5,202.5C 368.833,202.5 369.167,202.5 369.5,202.5C 371.292,202.634 372.958,202.301 374.5,201.5C 374.833,201.5 375.167,201.5 375.5,201.5C 377.199,201.66 378.866,201.494 380.5,201C 381.252,200.329 381.586,199.496 381.5,198.5C 383.074,196.898 383.741,194.898 383.5,192.5C 383.598,190.447 382.931,188.78 381.5,187.5C 381.672,186.508 381.338,185.842 380.5,185.5C 379.89,184.609 379.557,183.609 379.5,182.5C 379.672,181.508 379.338,180.842 378.5,180.5C 377.89,179.609 377.557,178.609 377.5,177.5C 377.672,176.508 377.338,175.842 376.5,175.5C 376.5,175.167 376.5,174.833 376.5,174.5C 375.671,169.547 375.337,164.547 375.5,159.5C 376.906,156.661 375.906,154.994 372.5,154.5C 371.096,152.745 370.096,150.745 369.5,148.5C 370.506,148.062 370.506,147.396 369.5,146.5C 371.764,147.219 374.097,147.552 376.5,147.5C 376.5,146.167 376.5,144.833 376.5,143.5C 376.5,142.833 376.5,142.167 376.5,141.5C 376.328,140.508 376.662,139.842 377.5,139.5 Z M 431.5,231.5 C 432.833,231.833 434.167,232.167 435.5,232.5C 435.833,233.167 436.167,233.833 436.5,234.5C 435.243,235.623 435.576,236.289 437.5,236.5C 437.5,237.833 437.5,239.167 437.5,240.5C 436.18,241.942 434.514,242.608 432.5,242.5C 432.631,241.761 432.464,241.094 432,240.5C 431.329,241.252 430.496,241.586 429.5,241.5C 428.158,240.207 426.491,239.374 424.5,239C 425.381,238.292 426.047,237.458 426.5,236.5C 427.906,236.027 428.573,235.027 428.5,233.5C 430.027,233.573 431.027,232.906 431.5,231.5 Z"/></g>
<g><path style="opacity:0.008" fill="#dedede" d="M 316.5,140.5 C 317.5,140.833 318.167,141.5 318.5,142.5C 317.167,142.5 316.5,141.833 316.5,140.5 Z"/></g>
<g><path style="opacity:0.016" fill="#e8e8e8" d="M 361.5,131.5 C 362.5,132.833 363.5,134.167 364.5,135.5C 364.833,136.5 365.5,137.167 366.5,137.5C 368.988,139.255 371.322,141.255 373.5,143.5C 374.518,142.807 375.518,142.141 376.5,141.5C 376.5,142.167 376.5,142.833 376.5,143.5C 375.662,143.842 375.328,144.508 375.5,145.5C 375.167,145.5 374.833,145.5 374.5,145.5C 368.045,142.714 363.711,138.048 361.5,131.5 Z"/></g>
<g><path style="opacity:0.408" fill="#b8b8b8" d="M 382.5,140.5 C 384.262,141.262 385.262,142.596 385.5,144.5C 383.738,143.738 382.738,142.404 382.5,140.5 Z"/></g>
<g><path style="opacity:1" fill="#222222" d="M 330.5,120.5 C 331.203,122.716 332.536,124.549 334.5,126C 337.261,128.221 340.261,129.554 343.5,130C 342.915,128.698 342.249,127.531 341.5,126.5C 341.5,125.833 341.5,125.167 341.5,124.5C 341.34,122.801 341.506,121.134 342,119.5C 342.21,121.058 342.71,122.391 343.5,123.5C 344.338,123.842 344.672,124.508 344.5,125.5C 344.427,127.027 345.094,128.027 346.5,128.5C 346.81,130.144 347.81,131.144 349.5,131.5C 350.262,133.262 351.596,134.262 353.5,134.5C 354.492,134.328 355.158,134.662 355.5,135.5C 360.5,138.5 361.5,137.5 358.5,132.5C 358.216,130.585 358.549,128.919 359.5,127.5C 359.328,128.492 359.662,129.158 360.5,129.5C 361.338,129.842 361.672,130.508 361.5,131.5C 363.711,138.048 368.045,142.714 374.5,145.5C 374.833,146.833 375.167,146.833 375.5,145.5C 375.328,144.508 375.662,143.842 376.5,143.5C 376.5,144.833 376.5,146.167 376.5,147.5C 374.097,147.552 371.764,147.219 369.5,146.5C 367.833,145.833 366.167,145.167 364.5,144.5C 363.508,144.328 362.842,144.662 362.5,145.5C 364.679,146.677 367.013,147.677 369.5,148.5C 370.096,150.745 371.096,152.745 372.5,154.5C 370.847,154.34 369.514,153.674 368.5,152.5C 367.01,150.72 365.01,150.054 362.5,150.5C 351.367,150.983 340.367,150.317 329.5,148.5C 328.365,146.787 326.698,146.12 324.5,146.5C 323.71,145.599 322.71,144.932 321.5,144.5C 319.973,144.573 318.973,143.906 318.5,142.5C 318.167,141.5 317.5,140.833 316.5,140.5C 316.328,139.508 316.662,138.842 317.5,138.5C 318.262,140.262 319.596,141.262 321.5,141.5C 322.492,141.328 323.158,141.662 323.5,142.5C 327.449,144.789 331.783,145.623 336.5,145C 335.627,143.955 334.627,143.122 333.5,142.5C 333.167,141.5 332.5,140.833 331.5,140.5C 331.5,139.833 331.167,139.5 330.5,139.5C 330.5,138.833 330.5,138.167 330.5,137.5C 330.351,136.448 330.517,135.448 331,134.5C 331.996,136.66 333.496,138.327 335.5,139.5C 335.5,141.5 336.5,142.5 338.5,142.5C 339.492,142.328 340.158,142.662 340.5,143.5C 343.017,144.973 345.85,145.64 349,145.5C 350.833,145.333 352.667,145.167 354.5,145C 353.956,144.283 353.289,143.783 352.5,143.5C 350.376,141.941 348.709,139.941 347.5,137.5C 345.22,136.864 343.22,135.864 341.5,134.5C 340.71,133.599 339.71,132.932 338.5,132.5C 338.027,131.094 337.027,130.427 335.5,130.5C 334.5,130.167 333.833,129.5 333.5,128.5C 333.167,127.5 332.5,126.833 331.5,126.5C 329.738,125.738 328.738,124.404 328.5,122.5C 328.131,120.007 328.797,119.34 330.5,120.5 Z M 358.5,141.5 C 359.167,142.167 359.833,142.833 360.5,143.5C 359.5,143.5 358.5,143.5 357.5,143.5C 357.328,142.508 357.662,141.842 358.5,141.5 Z"/></g>
<g><path style="opacity:0.22" fill="#c7c7c7" d="M 323.5,142.5 C 325.167,142.5 326.833,142.5 328.5,142.5C 329.641,143.339 330.974,144.006 332.5,144.5C 333.298,144.043 333.631,143.376 333.5,142.5C 334.627,143.122 335.627,143.955 336.5,145C 331.783,145.623 327.449,144.789 323.5,142.5 Z"/></g>
<g><path style="opacity:0.008" fill="#ededed" d="M 331.5,140.5 C 332.5,140.833 333.167,141.5 333.5,142.5C 332.167,142.5 331.5,141.833 331.5,140.5 Z"/></g>
<g><path style="opacity:0.004" fill="#fefffe" d="M 328.5,142.5 C 328.897,141.475 329.563,141.308 330.5,142C 329.906,142.464 329.239,142.631 328.5,142.5 Z"/></g>
<g><path style="opacity:0.573" fill="#a9a9a9" d="M 335.5,139.5 C 336.833,140.167 337.833,141.167 338.5,142.5C 336.5,142.5 335.5,141.5 335.5,139.5 Z"/></g>
<g><path style="opacity:0.129" fill="#bebebe" d="M 356.5,140.5 C 357.492,140.328 358.158,140.662 358.5,141.5C 357.662,141.842 357.328,142.508 357.5,143.5C 354.352,142.526 352.519,140.526 352,137.5C 354,138.167 355.333,139.5 356,141.5C 356.399,141.272 356.565,140.938 356.5,140.5 Z"/></g>
<g><path style="opacity:0.004" fill="#fefffe" d="M 330.5,139.5 C 329.833,140.167 329.833,140.167 330.5,139.5 Z"/></g>
<g><path style="opacity:0.013" fill="#d4d4d4" d="M 358.5,132.5 C 361.5,137.5 360.5,138.5 355.5,135.5C 356.552,135.649 357.552,135.483 358.5,135C 357.402,134.23 357.402,133.397 358.5,132.5 Z"/></g>
<g><path style="opacity:0.01" fill="#e7e7e7" d="M 353.5,134.5 C 351.596,134.262 350.262,133.262 349.5,131.5C 350.117,131.389 350.617,131.056 351,130.5C 351.662,131.984 352.496,133.317 353.5,134.5 Z"/></g>
<g><path style="opacity:0.004" fill="#dfdfdf" d="M 346.5,128.5 C 348.19,128.856 349.19,129.856 349.5,131.5C 347.81,131.144 346.81,130.144 346.5,128.5 Z"/></g>
<g><path style="opacity:0.071" fill="#d4d4d4" d="M 340.5,143.5 C 344.658,144.539 348.658,144.539 352.5,143.5C 353.289,143.783 353.956,144.283 354.5,145C 352.667,145.167 350.833,145.333 349,145.5C 345.85,145.64 343.017,144.973 340.5,143.5 Z"/></g>
<g><path style="opacity:0.009" fill="#cbcbcb" d="M 364.5,144.5 C 366.167,145.167 367.833,145.833 369.5,146.5C 370.506,147.396 370.506,148.062 369.5,148.5C 367.013,147.677 364.679,146.677 362.5,145.5C 363.492,145.672 364.158,145.338 364.5,144.5 Z"/></g>
<g><path style="opacity:0.01" fill="#ebebeb" d="M 321.5,144.5 C 322.71,144.932 323.71,145.599 324.5,146.5C 322.821,146.715 321.821,146.048 321.5,144.5 Z"/></g>
<g><path style="opacity:0.855" fill="#898989" d="M 324.5,146.5 C 326.698,146.12 328.365,146.787 329.5,148.5C 327.597,148.204 325.93,147.537 324.5,146.5 Z"/></g>
<g><path style="opacity:0.063" fill="#d1d1d1" d="M 385.5,144.5 C 386.239,144.369 386.906,144.536 387.5,145C 387.014,147.027 387.014,149.193 387.5,151.5C 386.076,149.485 385.41,147.152 385.5,144.5 Z"/></g>
<g><path style="opacity:0.004" fill="#fefffe" d="M 388.5,149.5 C 389.833,150.167 389.833,150.167 388.5,149.5 Z"/></g>
<g><path style="opacity:0.55" fill="#b1b1b1" d="M 412.5,158.5 C 412.5,155.833 412.5,153.167 412.5,150.5C 406.833,150.5 401.167,150.5 395.5,150.5C 401.019,149.276 406.519,148.61 412,148.5C 412.956,149.579 413.789,150.745 414.5,152C 414.788,154.304 414.121,156.471 412.5,158.5 Z"/></g>
<g><path style="opacity:0.812" fill="#919191" d="M 362.5,150.5 C 365.01,150.054 367.01,150.72 368.5,152.5C 366.302,152.125 364.302,151.458 362.5,150.5 Z"/></g>
<g><path style="opacity:1" fill="#5d5d5d" d="M 372.5,154.5 C 375.906,154.994 376.906,156.661 375.5,159.5C 374.925,157.589 373.925,155.922 372.5,154.5 Z"/></g>
<g><path style="opacity:0.008" fill="#fefffe" d="M 412.5,159.5 C 413.833,160.167 413.833,160.167 412.5,159.5 Z"/></g>
<g><path style="opacity:0.008" fill="#e2e2e2" d="M 410.5,160.5 C 410.027,161.906 409.027,162.573 407.5,162.5C 407.973,161.094 408.973,160.427 410.5,160.5 Z"/></g>
<g><path style="opacity:0.01" fill="#dddddd" d="M 406.5,162.5 C 405.817,164.176 404.483,164.843 402.5,164.5C 403.514,163.326 404.847,162.66 406.5,162.5 Z"/></g>
<g><path style="opacity:0.004" fill="#dddddd" d="M 402.5,164.5 C 402.179,166.048 401.179,166.715 399.5,166.5C 399.973,165.094 400.973,164.427 402.5,164.5 Z"/></g>
<g><path style="opacity:0.004" fill="#f4f4f4" d="M 399.5,169.5 C 402.142,169.488 403.475,170.821 403.5,173.5C 401.833,172.5 400.5,171.167 399.5,169.5 Z"/></g>
<g><path style="opacity:0.006" fill="#c1c1c1" d="M 375.5,159.5 C 375.337,164.547 375.671,169.547 376.5,174.5C 374.975,171.25 373.975,167.75 373.5,164C 374.641,163.259 374.641,162.425 373.5,161.5C 373.855,160.478 374.522,159.811 375.5,159.5 Z"/></g>
<g><path style="opacity:0.011" fill="#e8e8e8" d="M 403.5,173.5 C 405.5,173.5 406.5,174.5 406.5,176.5C 404.81,176.144 403.81,175.144 403.5,173.5 Z"/></g>
<g><path style="opacity:0.192" fill="#e7e7e7" d="M 376.5,175.5 C 377.338,175.842 377.672,176.508 377.5,177.5C 375.895,176.994 375.561,176.327 376.5,175.5 Z"/></g>
<g><path style="opacity:0.38" fill="#a8a8a8" d="M 407.5,178.5 C 408.458,178.953 409.292,179.619 410,180.5C 412.021,179.764 413.521,180.597 414.5,183C 413.62,184.356 413.286,185.856 413.5,187.5C 412.539,185.735 412.205,183.735 412.5,181.5C 409.715,182.084 408.048,181.084 407.5,178.5 Z"/></g>
<g><path style="opacity:0.031" fill="#e9e9e9" d="M 378.5,180.5 C 379.338,180.842 379.672,181.508 379.5,182.5C 377.302,182.591 376.969,181.925 378.5,180.5 Z"/></g>
<g><path style="opacity:0.141" fill="#bfbfbf" d="M 380.5,185.5 C 381.338,185.842 381.672,186.508 381.5,187.5C 380.5,187.5 379.5,187.5 378.5,187.5C 379.167,186.833 379.833,186.167 380.5,185.5 Z"/></g>
<g><path style="opacity:0.847" fill="#8d8d8d" d="M 373.5,188.5 C 370.781,189.913 367.781,190.58 364.5,190.5C 367.219,189.087 370.219,188.42 373.5,188.5 Z"/></g>
<g><path style="opacity:0.91" fill="#7d7d7d" d="M 364.5,190.5 C 361.548,192.41 358.214,193.41 354.5,193.5C 355.008,191.767 355.841,191.434 357,192.5C 359.382,191.446 361.882,190.779 364.5,190.5 Z"/></g>
<g><path style="opacity:0.114" fill="#efefef" d="M 353.5,193.5 C 352.609,194.11 351.609,194.443 350.5,194.5C 351.221,192.618 352.221,192.285 353.5,193.5 Z"/></g>
<g><path style="opacity:0.306" fill="#b7b7b7" d="M 382.5,192.5 C 382.833,192.5 383.167,192.5 383.5,192.5C 383.741,194.898 383.074,196.898 381.5,198.5C 381.833,196.5 382.167,194.5 382.5,192.5 Z"/></g>
<g><path style="opacity:0.592" fill="#999999" d="M 345.5,195.5 C 342.592,197.605 339.258,198.605 335.5,198.5C 338.408,196.395 341.742,195.395 345.5,195.5 Z"/></g>
<g><path style="opacity:0.62" fill="#7d7d7d" d="M 414.5,189.5 C 415.222,189.918 415.722,190.584 416,191.5C 416.5,200.494 416.666,209.494 416.5,218.5C 415.729,208.984 415.062,199.318 414.5,189.5 Z"/></g>
<g><path style="opacity:0.006" fill="#e5e5e5" d="M 335.5,198.5 C 334.791,199.404 333.791,199.737 332.5,199.5C 332.369,198.761 332.536,198.094 333,197.5C 333.671,198.252 334.504,198.586 335.5,198.5 Z"/></g>
<g><path style="opacity:0.871" fill="#747474" d="M 332.5,199.5 C 329.548,201.41 326.214,202.41 322.5,202.5C 325.55,200.899 328.884,199.899 332.5,199.5 Z"/></g>
<g><path style="opacity:0.882" fill="#7c7c7c" d="M 381.5,198.5 C 381.586,199.496 381.252,200.329 380.5,201C 378.866,201.494 377.199,201.66 375.5,201.5C 377.588,200.799 379.588,199.799 381.5,198.5 Z"/></g>
<g><path style="opacity:0.004" fill="#f3f3f3" d="M 374.5,201.5 C 372.958,202.301 371.292,202.634 369.5,202.5C 370.641,201.661 371.974,200.994 373.5,200.5C 374.107,200.624 374.44,200.957 374.5,201.5 Z"/></g>
<g><path style="opacity:0.396" fill="#c4c4c4" d="M 368.5,202.5 C 367.432,203.434 366.099,203.768 364.5,203.5C 365.531,202.751 366.698,202.085 368,201.5C 368.399,201.728 368.565,202.062 368.5,202.5 Z"/></g>
<g><path style="opacity:0.275" fill="#bababa" d="M 319.5,203.5 C 317.786,204.738 315.786,205.405 313.5,205.5C 314.99,203.72 316.99,203.054 319.5,203.5 Z"/></g>
<g><path style="opacity:0.863" fill="#6d6d6d" d="M 358.5,204.5 C 355.495,206.277 352.162,207.277 348.5,207.5C 351.505,205.723 354.838,204.723 358.5,204.5 Z"/></g>
<g><path style="opacity:0.898" fill="#808080" d="M 313.5,205.5 C 310.619,207.68 307.286,208.68 303.5,208.5C 305.448,207.869 307.281,206.869 309,205.5C 310.299,205.966 311.799,205.966 313.5,205.5 Z"/></g>
<g><path style="opacity:0.082" fill="#d5d5d5" d="M 344.5,208.5 C 344.158,209.338 343.492,209.672 342.5,209.5C 342.409,207.302 343.075,206.969 344.5,208.5 Z"/></g>
<g><path style="opacity:0.42" fill="#cbcbcb" d="M 300.5,209.5 C 299.791,210.404 298.791,210.737 297.5,210.5C 298.172,209.733 299.005,209.066 300,208.5C 300.399,208.728 300.565,209.062 300.5,209.5 Z"/></g>
<g><path style="opacity:0.004" fill="#fefffe" d="M 323.5,211.5 C 322.833,210.167 322.833,210.167 323.5,211.5 Z"/></g>
<g><path style="opacity:0.573" fill="#a2a2a2" d="M 342.5,209.5 C 342.027,210.906 341.027,211.573 339.5,211.5C 339.973,210.094 340.973,209.427 342.5,209.5 Z"/></g>
<g><path style="opacity:0.831" fill="#959595" d="M 297.5,210.5 C 296.365,212.213 294.698,212.88 292.5,212.5C 292.783,211.711 293.283,211.044 294,210.5C 294.986,211.171 296.153,211.171 297.5,210.5 Z"/></g>
<g><path style="opacity:0.055" fill="#cfcfcf" d="M 331.5,211.5 C 334.256,212.254 336.922,212.254 339.5,211.5C 339.038,212.88 338.038,213.547 336.5,213.5C 334.578,213.199 332.912,212.533 331.5,211.5 Z"/></g>
<g><path style="opacity:0.012" fill="#dcdcdc" d="M 183.5,231.5 C 183.666,227.154 183.499,222.821 183,218.5C 181.246,216.75 179.079,216.083 176.5,216.5C 177.997,215.694 179.664,215.028 181.5,214.5C 182.799,215.09 183.632,216.09 184,217.5C 184.815,222.352 184.648,227.019 183.5,231.5 Z"/></g>
<g><path style="opacity:0.016" fill="#f7f7f7" d="M 285.5,214.5 C 284.329,215.345 282.995,216.011 281.5,216.5C 282.183,214.824 283.517,214.157 285.5,214.5 Z"/></g>
<g><path style="opacity:0.063" fill="#cccccc" d="M 301.5,214.5 C 300.22,215.931 298.553,216.598 296.5,216.5C 297.78,215.069 299.447,214.402 301.5,214.5 Z"/></g>
<g><path style="opacity:1" fill="#090909" d="M 176.5,216.5 C 179.079,216.083 181.246,216.75 183,218.5C 183.499,222.821 183.666,227.154 183.5,231.5C 183.373,236.151 182.373,240.485 180.5,244.5C 179.069,245.78 178.402,247.447 178.5,249.5C 177.735,252.67 176.735,255.67 175.5,258.5C 174.662,258.842 174.328,259.508 174.5,260.5C 174.204,262.403 173.537,264.07 172.5,265.5C 171.522,265.811 170.855,266.478 170.5,267.5C 171.958,268.782 173.292,268.782 174.5,267.5C 176.379,266.659 178.379,266.325 180.5,266.5C 182.698,266.88 184.365,266.213 185.5,264.5C 187.027,264.573 188.027,263.906 188.5,262.5C 188.5,262.167 188.5,261.833 188.5,261.5C 188.5,260.5 188.5,259.5 188.5,258.5C 190.434,257.89 192.101,256.89 193.5,255.5C 196.298,254.35 198.965,253.017 201.5,251.5C 201.842,250.662 202.508,250.328 203.5,250.5C 205.027,250.573 206.027,249.906 206.5,248.5C 206.833,248.5 207.167,248.5 207.5,248.5C 208.71,248.068 209.71,247.401 210.5,246.5C 214.065,246.201 215.398,247.535 214.5,250.5C 210.722,252.892 206.722,255.059 202.5,257C 203.491,259.875 202.824,262.375 200.5,264.5C 199.094,264.973 198.427,265.973 198.5,267.5C 197.833,268.833 196.833,269.833 195.5,270.5C 194.5,270.833 193.833,271.5 193.5,272.5C 193.5,273.167 193.167,273.5 192.5,273.5C 191.167,274.167 190.167,275.167 189.5,276.5C 188.571,277.315 187.571,278.148 186.5,279C 187.416,279.278 188.082,279.778 188.5,280.5C 189.177,283.075 190.677,285.075 193,286.5C 193.383,285.944 193.883,285.611 194.5,285.5C 196.144,285.81 197.144,286.81 197.5,288.5C 197.842,289.338 198.508,289.672 199.5,289.5C 199.56,290.043 199.893,290.376 200.5,290.5C 201.429,289.311 201.762,287.978 201.5,286.5C 201.5,286.167 201.5,285.833 201.5,285.5C 203.218,283.777 204.551,281.777 205.5,279.5C 207.5,278.167 209.167,276.5 210.5,274.5C 212.027,274.573 213.027,273.906 213.5,272.5C 215.426,270.707 217.759,269.707 220.5,269.5C 224.798,268.8 229.131,268.467 233.5,268.5C 233.833,268.5 234.167,268.5 234.5,268.5C 235.78,269.931 237.447,270.598 239.5,270.5C 240.167,270.833 240.833,271.167 241.5,271.5C 241.842,272.338 242.508,272.672 243.5,272.5C 244.5,272.833 245.167,273.5 245.5,274.5C 247.841,277.839 250.174,281.172 252.5,284.5C 255.598,292.623 255.098,300.623 251,308.5C 250.292,309.381 249.458,310.047 248.5,310.5C 246.738,311.262 245.738,312.596 245.5,314.5C 245.158,315.338 244.492,315.672 243.5,315.5C 242.29,315.932 241.29,316.599 240.5,317.5C 239.508,317.328 238.842,317.662 238.5,318.5C 238.167,318.5 237.833,318.5 237.5,318.5C 235.447,318.402 233.78,319.069 232.5,320.5C 229.171,320.264 226.171,321.097 223.5,323C 225.169,324.669 227.169,325.502 229.5,325.5C 230.492,325.328 231.158,325.662 231.5,326.5C 233.181,328.008 235.181,329.008 237.5,329.5C 239.5,329.5 241.5,329.5 243.5,329.5C 245.898,329.741 247.898,329.074 249.5,327.5C 253.424,325.853 257.424,324.186 261.5,322.5C 263.153,322.34 264.486,321.674 265.5,320.5C 266.5,320.167 267.167,319.5 267.5,318.5C 269.027,318.573 270.027,317.906 270.5,316.5C 271.906,316.027 272.573,315.027 272.5,313.5C 273.993,312.688 274.66,311.355 274.5,309.5C 274.48,308.274 274.147,307.274 273.5,306.5C 272.833,306.5 272.5,306.167 272.5,305.5C 272.5,303.5 271.5,302.5 269.5,302.5C 269.167,302.5 268.833,302.5 268.5,302.5C 266.833,301.167 265.167,301.167 263.5,302.5C 262.5,302.833 261.833,303.5 261.5,304.5C 258.691,304.042 258.024,302.709 259.5,300.5C 260.404,299.791 260.737,298.791 260.5,297.5C 260.833,296.5 261.5,295.833 262.5,295.5C 264.027,295.573 265.027,294.906 265.5,293.5C 269.724,292.031 273.724,292.364 277.5,294.5C 278.579,296.543 280.246,297.876 282.5,298.5C 283.5,298.833 284.167,299.5 284.5,300.5C 284.66,302.153 285.326,303.486 286.5,304.5C 286.5,308.5 286.5,312.5 286.5,316.5C 286.448,319.346 285.448,321.68 283.5,323.5C 282.167,324.167 281.167,325.167 280.5,326.5C 280.5,327.167 280.167,327.5 279.5,327.5C 277.46,329.177 275.46,330.844 273.5,332.5C 271.847,332.66 270.514,333.326 269.5,334.5C 268.209,334.263 267.209,334.596 266.5,335.5C 265.432,336.434 264.099,336.768 262.5,336.5C 260.585,336.216 258.919,336.549 257.5,337.5C 255.735,338.461 253.735,338.795 251.5,338.5C 249.265,338.205 247.265,338.539 245.5,339.5C 245.167,339.5 244.833,339.5 244.5,339.5C 234.639,340.004 224.973,341.004 215.5,342.5C 211.21,342.198 207.21,342.864 203.5,344.5C 201.585,344.216 199.919,344.549 198.5,345.5C 198.167,345.5 197.833,345.5 197.5,345.5C 194.572,345.565 191.905,346.232 189.5,347.5C 186.572,347.565 183.905,348.232 181.5,349.5C 181.167,349.5 180.833,349.5 180.5,349.5C 179.209,349.263 178.209,349.596 177.5,350.5C 177.158,351.338 176.492,351.672 175.5,351.5C 171.233,352.256 167.233,353.589 163.5,355.5C 159.703,355.872 156.37,357.206 153.5,359.5C 151.447,359.402 149.78,360.069 148.5,361.5C 147.07,362.537 145.403,363.204 143.5,363.5C 141.447,363.402 139.78,364.069 138.5,365.5C 137.486,366.674 136.153,367.34 134.5,367.5C 133.209,367.263 132.209,367.596 131.5,368.5C 129.447,368.402 127.78,369.069 126.5,370.5C 126.158,371.338 125.492,371.672 124.5,371.5C 123.508,371.328 122.842,371.662 122.5,372.5C 119.603,373.129 116.936,374.129 114.5,375.5C 113.486,376.674 112.153,377.34 110.5,377.5C 107.759,377.707 105.426,378.707 103.5,380.5C 101.102,380.259 99.1016,380.926 97.5,382.5C 96.791,383.404 95.791,383.737 94.5,383.5C 92.2143,383.595 90.2143,384.262 88.5,385.5C 87.209,385.263 86.209,385.596 85.5,386.5C 81.7643,387.989 77.7643,388.656 73.5,388.5C 66.4648,388.674 59.4648,388.341 52.5,387.5C 51.1007,386.11 49.4341,385.11 47.5,384.5C 44.9879,381.588 42.6545,378.588 40.5,375.5C 40.1667,375.5 39.8333,375.5 39.5,375.5C 39.5,374.833 39.5,374.167 39.5,373.5C 39.7373,372.209 39.404,371.209 38.5,370.5C 38.5,366.833 38.5,363.167 38.5,359.5C 38.5172,357.435 38.8505,355.435 39.5,353.5C 39.5,353.167 39.5,352.833 39.5,352.5C 40.3382,352.158 40.6716,351.492 40.5,350.5C 40.3284,349.508 40.6618,348.842 41.5,348.5C 42.9744,347.564 43.9744,346.23 44.5,344.5C 46.7952,343.525 48.7952,342.192 50.5,340.5C 52.6845,338.415 55.3511,337.415 58.5,337.5C 63.5,337.5 68.5,337.5 73.5,337.5C 74.5137,338.674 75.847,339.34 77.5,339.5C 79.4044,339.738 80.7377,340.738 81.5,342.5C 80.4851,344.964 81.4851,346.63 84.5,347.5C 84.5,347.833 84.5,348.167 84.5,348.5C 84.5172,350.565 84.8505,352.565 85.5,354.5C 85.5674,355.959 85.2341,357.292 84.5,358.5C 83.5116,359.795 82.5116,361.128 81.5,362.5C 81.5,363.167 81.1667,363.5 80.5,363.5C 78.8869,364.692 77.2202,365.692 75.5,366.5C 74.1667,367.833 72.8333,367.833 71.5,366.5C 69.7798,365.692 68.1131,364.692 66.5,363.5C 65.6618,363.158 65.3284,362.492 65.5,361.5C 65.5,359.833 65.5,358.167 65.5,356.5C 63.9689,355.075 64.3023,354.409 66.5,354.5C 67.64,353.199 68.9733,352.032 70.5,351C 69.9221,349.583 68.9221,348.75 67.5,348.5C 67.3893,347.883 67.056,347.383 66.5,347C 65.1667,346.833 63.8333,346.667 62.5,346.5C 60.1175,346.361 58.1175,347.028 56.5,348.5C 54.5,348.5 53.5,349.5 53.5,351.5C 52.0937,351.973 51.427,352.973 51.5,354.5C 50.0027,356.29 49.336,358.456 49.5,361C 49.5085,362.707 49.8418,364.207 50.5,365.5C 50.7497,367.674 51.7497,369.341 53.5,370.5C 54.5,372.167 55.8333,373.5 57.5,374.5C 58.2905,375.401 59.2905,376.068 60.5,376.5C 60.8333,376.5 61.1667,376.5 61.5,376.5C 61.8417,377.338 62.5084,377.672 63.5,377.5C 64.9187,378.451 66.5853,378.784 68.5,378.5C 72.1545,378.058 75.8212,377.724 79.5,377.5C 80.791,377.737 81.791,377.404 82.5,376.5C 82.8333,376.5 83.1667,376.5 83.5,376.5C 85.698,376.88 87.3646,376.213 88.5,374.5C 89.5676,373.566 90.901,373.232 92.5,373.5C 95.0177,372.736 97.351,371.736 99.5,370.5C 100.514,369.326 101.847,368.66 103.5,368.5C 104.492,368.672 105.158,368.338 105.5,367.5C 106.391,366.89 107.391,366.557 108.5,366.5C 109.873,366.657 111.207,366.49 112.5,366C 114.431,365.098 116.097,363.931 117.5,362.5C 120.66,358.852 123.327,354.852 125.5,350.5C 125.5,350.167 125.5,349.833 125.5,349.5C 126.627,348.878 127.627,348.045 128.5,347C 125.518,346.297 122.851,346.797 120.5,348.5C 116.354,349.647 112.02,349.814 107.5,349C 106.584,348.722 105.918,348.222 105.5,347.5C 104.101,346.11 102.434,345.11 100.5,344.5C 99.0552,342.937 97.3885,341.604 95.5,340.5C 95.1667,339.5 94.5,338.833 93.5,338.5C 92.8333,338.5 92.5,338.167 92.5,337.5C 92.573,335.973 91.9063,334.973 90.5,334.5C 89.8763,332.246 88.543,330.579 86.5,329.5C 83.8062,325.443 81.4728,321.11 79.5,316.5C 79.573,314.973 78.9063,313.973 77.5,313.5C 76.8333,313.167 76.1667,312.833 75.5,312.5C 74.5,311.167 73.5,309.833 72.5,308.5C 72.0269,307.094 71.0269,306.427 69.5,306.5C 69.0269,305.094 68.0269,304.427 66.5,304.5C 65.391,304.443 64.391,304.11 63.5,303.5C 62.2196,302.069 60.5529,301.402 58.5,301.5C 57.209,301.737 56.209,301.404 55.5,300.5C 54.2196,299.069 52.5529,298.402 50.5,298.5C 48.7298,299.385 47.7298,298.552 47.5,296C 47.5699,295.235 47.9033,294.735 48.5,294.5C 49.1667,294.5 49.5,294.167 49.5,293.5C 50.7095,293.068 51.7095,292.401 52.5,291.5C 53.1667,291.5 53.8333,291.5 54.5,291.5C 58.0048,291.306 58.3382,290.306 55.5,288.5C 55.573,286.973 54.9063,285.973 53.5,285.5C 52.5,285.167 51.8333,284.5 51.5,283.5C 51.1667,282.5 50.5,281.833 49.5,281.5C 48.5272,279.708 49.1939,278.375 51.5,277.5C 55.0595,275.717 55.0595,274.717 51.5,274.5C 50.0413,274.567 48.7079,274.234 47.5,273.5C 44.9333,272.283 42.6,270.616 40.5,268.5C 40.5,266.833 40.5,265.167 40.5,263.5C 41.5,263.167 42.1667,262.5 42.5,261.5C 45.5,261.5 48.5,261.5 51.5,261.5C 52.209,262.404 53.209,262.737 54.5,262.5C 55.391,263.11 56.391,263.443 57.5,263.5C 57.8417,264.338 58.5084,264.672 59.5,264.5C 59.5,264.833 59.5,265.167 59.5,265.5C 62.0233,268.239 62.6899,267.906 61.5,264.5C 62.2022,263.884 63.2022,263.884 64.5,264.5C 65.1667,265.833 65.8333,265.833 66.5,264.5C 66.5,261.833 66.5,259.167 66.5,256.5C 66.8799,254.302 66.2132,252.635 64.5,251.5C 62.6565,253.279 61.9898,255.612 62.5,258.5C 62.8795,261.567 61.8795,262.567 59.5,261.5C 58.6618,261.158 58.3284,260.492 58.5,259.5C 58.7373,258.209 58.404,257.209 57.5,256.5C 56.1667,253.833 56.1667,251.167 57.5,248.5C 60.1625,246.732 63.1625,246.065 66.5,246.5C 67.5082,248.544 68.5082,250.544 69.5,252.5C 69.1866,255.247 69.52,257.914 70.5,260.5C 71.5223,260.145 72.189,259.478 72.5,258.5C 72.5,257.833 72.8333,257.5 73.5,257.5C 74.5,257.167 75.1667,256.5 75.5,255.5C 76.391,254.89 77.391,254.557 78.5,254.5C 78.9321,255.71 79.5987,256.71 80.5,257.5C 81.0798,259.749 82.4131,261.415 84.5,262.5C 85.1667,262.5 85.5,262.833 85.5,263.5C 85.3284,264.492 85.6618,265.158 86.5,265.5C 87.1667,265.5 87.5,265.833 87.5,266.5C 88.375,268.806 89.7084,269.473 91.5,268.5C 91.8333,268.5 92.1667,268.5 92.5,268.5C 94.0269,268.573 95.0269,267.906 95.5,266.5C 97.649,265.264 99.9823,264.264 102.5,263.5C 103.959,263.433 105.292,263.766 106.5,264.5C 106.5,264.833 106.5,265.167 106.5,265.5C 106.427,267.027 107.094,268.027 108.5,268.5C 109.441,270.05 110.107,271.716 110.5,273.5C 110.12,275.698 110.787,277.365 112.5,278.5C 113.089,282.297 114.089,282.297 115.5,278.5C 115.5,277.833 115.5,277.167 115.5,276.5C 115.802,273.941 115.468,271.607 114.5,269.5C 114.167,269.5 113.833,269.5 113.5,269.5C 113.5,268.833 113.167,268.5 112.5,268.5C 112.5,267.833 112.5,267.167 112.5,266.5C 112.672,265.508 112.338,264.842 111.5,264.5C 110.699,262.958 110.366,261.292 110.5,259.5C 110.88,257.302 110.213,255.635 108.5,254.5C 107.069,253.22 106.402,251.553 106.5,249.5C 106.665,246.482 106.498,243.482 106,240.5C 104.955,241.373 104.122,242.373 103.5,243.5C 100.366,244.108 99.6989,245.774 101.5,248.5C 101.737,249.791 101.404,250.791 100.5,251.5C 99.5,251.833 98.8333,252.5 98.5,253.5C 95.4299,253.632 92.4299,253.299 89.5,252.5C 88.8333,252.5 88.5,252.167 88.5,251.5C 88.5,249.167 88.5,246.833 88.5,244.5C 91.1718,242.61 93.8385,240.943 96.5,239.5C 98.1526,236.869 99.8193,234.203 101.5,231.5C 103.773,231.043 105.106,229.71 105.5,227.5C 109.973,224.002 114.64,223.669 119.5,226.5C 121.137,227.38 122.97,228.046 125,228.5C 127.099,227.713 129.266,227.38 131.5,227.5C 133.027,227.427 134.027,228.094 134.5,229.5C 134.842,230.338 135.508,230.672 136.5,230.5C 137.833,231.167 138.833,232.167 139.5,233.5C 139.579,234.93 139.246,236.264 138.5,237.5C 140.003,238.052 141.669,238.052 143.5,237.5C 144.29,238.401 145.29,239.068 146.5,239.5C 148.213,240.635 148.88,242.302 148.5,244.5C 149.167,245.833 150.167,246.833 151.5,247.5C 151.833,248.5 152.5,249.167 153.5,249.5C 154.674,250.514 155.34,251.847 155.5,253.5C 155.857,255.589 156.523,257.589 157.5,259.5C 158.298,259.043 158.631,258.376 158.5,257.5C 158.5,257.167 158.5,256.833 158.5,256.5C 159.167,256.5 159.5,256.167 159.5,255.5C 160.89,254.101 161.89,252.434 162.5,250.5C 162.328,249.508 162.662,248.842 163.5,248.5C 164.89,247.101 165.89,245.434 166.5,243.5C 166.66,241.847 167.326,240.514 168.5,239.5C 170.293,237.574 171.293,235.241 171.5,232.5C 172.573,231.749 172.74,230.749 172,229.5C 171.578,227.574 170.411,226.574 168.5,226.5C 168.5,224.5 168.5,222.5 168.5,220.5C 170.514,220.392 172.18,221.058 173.5,222.5C 174.167,222.5 174.5,222.167 174.5,221.5C 174.893,219.716 175.559,218.05 176.5,216.5 Z M 64.5,251.5 C 64.1201,253.698 64.7868,255.365 66.5,256.5C 66.5,259.167 66.5,261.833 66.5,264.5C 65.7281,263.306 64.7281,262.306 63.5,261.5C 64.8146,260.105 64.4812,259.105 62.5,258.5C 61.9898,255.612 62.6565,253.279 64.5,251.5 Z M 52.5,266.5 C 53.287,268.104 54.6203,268.771 56.5,268.5C 57.5511,269.222 58.2178,270.222 58.5,271.5C 55.8728,270.908 53.2062,270.575 50.5,270.5C 49.713,268.896 48.3797,268.229 46.5,268.5C 47.9179,266.692 49.9179,266.025 52.5,266.5 Z M 212.5,325.5 C 213.833,325.5 215.167,325.5 216.5,325.5C 216.821,327.048 217.821,327.715 219.5,327.5C 219.833,327.5 220.167,327.5 220.5,327.5C 220.821,329.048 221.821,329.715 223.5,329.5C 223.833,330.167 224.167,330.833 224.5,331.5C 220.394,331.74 216.394,332.407 212.5,333.5C 209.417,334.066 206.417,334.066 203.5,333.5C 202.702,333.957 202.369,334.624 202.5,335.5C 200.5,335.5 198.5,335.5 196.5,335.5C 196.833,334.833 197.167,334.167 197.5,333.5C 199.027,333.573 200.027,332.906 200.5,331.5C 201.496,331.414 202.329,331.748 203,332.5C 203.483,331.552 203.649,330.552 203.5,329.5C 204.167,329.5 204.5,329.167 204.5,328.5C 206.322,329.429 207.655,328.762 208.5,326.5C 210.819,327.167 213.153,327.334 215.5,327C 214.263,326.768 213.263,326.268 212.5,325.5 Z M 181.5,334.5 C 181.167,335.833 180.833,337.167 180.5,338.5C 178.685,339.63 176.685,340.296 174.5,340.5C 171.038,339.518 167.371,339.185 163.5,339.5C 167.071,337.918 170.738,336.585 174.5,335.5C 177.165,335.217 179.499,334.883 181.5,334.5 Z M 150.5,345.5 C 152.5,346.167 154.5,346.833 156.5,347.5C 153.933,347.721 151.599,348.388 149.5,349.5C 147.371,349.484 145.538,350.151 144,351.5C 142.893,350.288 142.393,350.621 142.5,352.5C 142.167,352.5 141.833,352.5 141.5,352.5C 139.784,352.629 138.117,352.962 136.5,353.5C 135.5,354.167 134.5,354.833 133.5,355.5C 132.833,355.5 132.167,355.5 131.5,355.5C 131.5,354.5 131.5,353.5 131.5,352.5C 132.906,352.027 133.573,351.027 133.5,349.5C 134.167,349.5 134.5,349.167 134.5,348.5C 136.903,345.885 139.903,345.052 143.5,346C 144.126,346.75 144.626,347.584 145,348.5C 146.583,347.029 148.417,346.029 150.5,345.5 Z"/></g>
<g><path style="opacity:0.008" fill="#f4f4f4" d="M 176.5,216.5 C 175.559,218.05 174.893,219.716 174.5,221.5C 173.833,221.5 173.5,221.833 173.5,222.5C 172.18,221.058 170.514,220.392 168.5,220.5C 168.5,222.5 168.5,224.5 168.5,226.5C 167.167,226.833 167.167,227.167 168.5,227.5C 168.44,228.043 168.107,228.376 167.5,228.5C 166.345,225.554 166.179,222.554 167,219.5C 169.155,218.317 171.155,218.65 173,220.5C 173.49,219.207 173.657,217.873 173.5,216.5C 174.5,216.5 175.5,216.5 176.5,216.5 Z"/></g>
<g><path style="opacity:0.999" fill="#303030" d="M 378.5,187.5 C 379.5,187.5 380.5,187.5 381.5,187.5C 382.931,188.78 383.598,190.447 383.5,192.5C 383.167,192.5 382.833,192.5 382.5,192.5C 369.027,195.035 355.693,198.202 342.5,202C 328.842,206.329 315.176,210.496 301.5,214.5C 299.447,214.402 297.78,215.069 296.5,216.5C 287.717,220.208 278.717,223.541 269.5,226.5C 267.447,226.402 265.78,227.069 264.5,228.5C 261.449,230.352 258.116,231.686 254.5,232.5C 252.447,232.402 250.78,233.069 249.5,234.5C 238.021,240.07 226.355,245.403 214.5,250.5C 215.398,247.535 214.065,246.201 210.5,246.5C 213.314,244.93 216.314,243.597 219.5,242.5C 220.71,242.068 221.71,241.401 222.5,240.5C 222.833,240.5 223.167,240.5 223.5,240.5C 226.491,240.834 228.824,239.834 230.5,237.5C 231.514,236.326 232.847,235.66 234.5,235.5C 236.153,235.34 237.486,234.674 238.5,233.5C 240.553,233.598 242.22,232.931 243.5,231.5C 243.833,231.5 244.167,231.5 244.5,231.5C 246.027,231.573 247.027,230.906 247.5,229.5C 247.833,229.5 248.167,229.5 248.5,229.5C 250.153,229.34 251.486,228.674 252.5,227.5C 261.779,223.036 271.446,219.369 281.5,216.5C 282.995,216.011 284.329,215.345 285.5,214.5C 287.772,213.681 290.106,213.015 292.5,212.5C 294.698,212.88 296.365,212.213 297.5,210.5C 298.791,210.737 299.791,210.404 300.5,209.5C 301.391,208.89 302.391,208.557 303.5,208.5C 307.286,208.68 310.619,207.68 313.5,205.5C 315.786,205.405 317.786,204.738 319.5,203.5C 320.209,202.596 321.209,202.263 322.5,202.5C 326.214,202.41 329.548,201.41 332.5,199.5C 333.791,199.737 334.791,199.404 335.5,198.5C 339.258,198.605 342.592,197.605 345.5,195.5C 346.919,194.549 348.585,194.216 350.5,194.5C 351.609,194.443 352.609,194.11 353.5,193.5C 353.833,193.5 354.167,193.5 354.5,193.5C 358.214,193.41 361.548,192.41 364.5,190.5C 367.781,190.58 370.781,189.913 373.5,188.5C 374.919,187.549 376.585,187.216 378.5,187.5 Z"/></g>
<g><path style="opacity:0.208" fill="#b3b3b3" d="M 439.5,220.5 C 442.712,220.712 444.712,222.379 445.5,225.5C 443.475,223.804 441.475,222.137 439.5,220.5 Z"/></g>
<g><path style="opacity:0.004" fill="#fefffe" d="M 419.5,221.5 C 420.833,222.167 420.833,222.167 419.5,221.5 Z"/></g>
<g><path style="opacity:0.004" fill="#fefffe" d="M 326.5,222.5 C 325.833,223.167 325.833,223.167 326.5,222.5 Z"/></g>
<g><path style="opacity:0.353" fill="#a0a0a0" d="M 326.5,222.5 C 326.5,222.167 326.5,221.833 326.5,221.5C 328.027,221.427 329.027,222.094 329.5,223.5C 328.391,223.443 327.391,223.11 326.5,222.5 Z"/></g>
<g><path style="opacity:0.094" fill="#d8d8d8" d="M 329.5,223.5 C 331.308,224.918 331.975,226.918 331.5,229.5C 330.715,227.626 330.048,225.626 329.5,223.5 Z"/></g>
<g><path style="opacity:0.015" fill="#d7d7d7" d="M 119.5,226.5 C 123.702,226.183 127.702,226.517 131.5,227.5C 129.266,227.38 127.099,227.713 125,228.5C 122.97,228.046 121.137,227.38 119.5,226.5 Z"/></g>
<g><path style="opacity:0.831" fill="#838383" d="M 168.5,227.5 C 168.5,227.167 168.5,226.833 168.5,226.5C 170.411,226.574 171.578,227.574 172,229.5C 172.74,230.749 172.573,231.749 171.5,232.5C 171.25,230.326 170.25,228.659 168.5,227.5 Z"/></g>
<g><path style="opacity:0.008" fill="#efefef" d="M 136.5,230.5 C 135.508,230.672 134.842,230.338 134.5,229.5C 135.967,226.742 136.633,227.075 136.5,230.5 Z"/></g>
<g><path style="opacity:0.004" fill="#fefffe" d="M 248.5,228.5 C 247.833,227.167 247.833,227.167 248.5,228.5 Z"/></g>
<g><path style="opacity:0.025" fill="#d7d7d7" d="M 269.5,226.5 C 268.22,227.931 266.553,228.598 264.5,228.5C 265.78,227.069 267.447,226.402 269.5,226.5 Z"/></g>
<g><path style="opacity:0.737" fill="#a9a9a9" d="M 105.5,227.5 C 105.106,229.71 103.773,231.043 101.5,231.5C 102.326,229.736 103.659,228.402 105.5,227.5 Z"/></g>
<g><path style="opacity:0.376" fill="#d3d3d3" d="M 252.5,227.5 C 251.486,228.674 250.153,229.34 248.5,229.5C 248.5,229.167 248.5,228.833 248.5,228.5C 249.708,227.766 251.041,227.433 252.5,227.5 Z"/></g>
<g><path style="opacity:0.58" fill="#b2b2b2" d="M 247.5,229.5 C 247.027,230.906 246.027,231.573 244.5,231.5C 244.973,230.094 245.973,229.427 247.5,229.5 Z"/></g>
<g><path style="opacity:0.231" fill="#c0c0c0" d="M 431.5,231.5 C 433.128,230.147 434.462,230.481 435.5,232.5C 434.167,232.167 432.833,231.833 431.5,231.5 Z"/></g>
<g><path style="opacity:0.196" fill="#d3d3d3" d="M 243.5,231.5 C 242.22,232.931 240.553,233.598 238.5,233.5C 239.78,232.069 241.447,231.402 243.5,231.5 Z"/></g>
<g><path style="opacity:0.01" fill="#cfcfcf" d="M 254.5,232.5 C 253.22,233.931 251.553,234.598 249.5,234.5C 250.78,233.069 252.447,232.402 254.5,232.5 Z"/></g>
<g><path style="opacity:0.012" fill="#ececec" d="M 101.5,231.5 C 99.8193,234.203 98.1526,236.869 96.5,239.5C 95.1931,238.198 95.1931,236.865 96.5,235.5C 97.7737,233.549 99.4404,232.215 101.5,231.5 Z"/></g>
<g><path style="opacity:0.012" fill="#e0e0e0" d="M 171.5,232.5 C 171.293,235.241 170.293,237.574 168.5,239.5C 168.707,236.759 169.707,234.426 171.5,232.5 Z"/></g>
<g><path style="opacity:0.404" fill="#cacaca" d="M 238.5,233.5 C 237.486,234.674 236.153,235.34 234.5,235.5C 235.287,233.896 236.62,233.229 238.5,233.5 Z"/></g>
<g><path style="opacity:0.004" fill="#d1d1d1" d="M 428.5,233.5 C 428.573,235.027 427.906,236.027 426.5,236.5C 426.427,234.973 427.094,233.973 428.5,233.5 Z"/></g>
<g><path style="opacity:0.014" fill="#f0f0f0" d="M 436.5,234.5 C 437.338,234.842 437.672,235.508 437.5,236.5C 435.576,236.289 435.243,235.623 436.5,234.5 Z"/></g>
<g><path style="opacity:0.263" fill="#c6c6c6" d="M 446.5,227.5 C 447.926,229.679 448.592,232.179 448.5,235C 448.492,236.707 448.158,238.207 447.5,239.5C 447.495,235.466 447.162,231.466 446.5,227.5 Z"/></g>
<g><path style="opacity:0.009" fill="#e4e4e4" d="M 139.5,233.5 C 140.404,234.209 140.737,235.209 140.5,236.5C 141.791,236.263 142.791,236.596 143.5,237.5C 141.669,238.052 140.003,238.052 138.5,237.5C 139.246,236.264 139.579,234.93 139.5,233.5 Z"/></g>
<g><path style="opacity:0.012" fill="#dfdfdf" d="M 332.5,233.5 C 333.537,234.93 334.204,236.597 334.5,238.5C 332.787,237.365 332.12,235.698 332.5,233.5 Z"/></g>
<g><path style="opacity:0.188" fill="#d8d8d8" d="M 143.5,237.5 C 145.179,237.285 146.179,237.952 146.5,239.5C 145.29,239.068 144.29,238.401 143.5,237.5 Z"/></g>
<g><path style="opacity:0.004" fill="#fefffe" d="M 393.5,238.5 C 394.833,239.167 394.833,239.167 393.5,238.5 Z"/></g>
<g><path style="opacity:0.941" fill="#5f5f5f" d="M 230.5,237.5 C 228.824,239.834 226.491,240.834 223.5,240.5C 225.509,238.935 227.843,237.935 230.5,237.5 Z"/></g>
<g><path style="opacity:0.161" fill="#b9b9b9" d="M 399.5,238.5 C 401.027,238.427 402.027,239.094 402.5,240.5C 400.973,240.573 399.973,239.906 399.5,238.5 Z"/></g>
<g><path style="opacity:0.023" fill="#c6c6c6" d="M 96.5,239.5 C 93.8385,240.943 91.1718,242.61 88.5,244.5C 88.3433,243.127 88.51,241.793 89,240.5C 89.3333,240.833 89.6667,241.167 90,241.5C 92.154,240.77 94.3206,240.103 96.5,239.5 Z"/></g>
<g><path style="opacity:0.014" fill="#f6f6f6" d="M 222.5,240.5 C 221.71,241.401 220.71,242.068 219.5,242.5C 219.821,240.952 220.821,240.285 222.5,240.5 Z"/></g>
<g><path style="opacity:0.655" fill="#7e7e7e" d="M 334.5,238.5 C 336.519,239.538 336.853,240.872 335.5,242.5C 335.423,241.25 334.756,240.417 333.5,240C 334.056,239.617 334.389,239.117 334.5,238.5 Z"/></g>
<g><path style="opacity:0.763" fill="#838383" d="M 381.5,241.5 C 375.968,242.253 370.301,242.92 364.5,243.5C 364.611,242.883 364.944,242.383 365.5,242C 370.823,241.501 376.156,241.334 381.5,241.5 Z"/></g>
<g><path style="opacity:0.161" fill="#c8c8c8" d="M 432.5,242.5 C 431.209,242.737 430.209,242.404 429.5,241.5C 430.496,241.586 431.329,241.252 432,240.5C 432.464,241.094 432.631,241.761 432.5,242.5 Z"/></g>
<g><path style="opacity:0.005" fill="#eaeaea" d="M 437.5,240.5 C 437.443,241.609 437.11,242.609 436.5,243.5C 435.833,243.5 435.5,243.833 435.5,244.5C 433.973,244.573 432.973,243.906 432.5,242.5C 434.514,242.608 436.18,241.942 437.5,240.5 Z"/></g>
<g><path style="opacity:0.89" fill="#7d7d7d" d="M 408.5,242.5 C 410.698,242.12 412.365,242.787 413.5,244.5C 411.597,244.204 409.93,243.537 408.5,242.5 Z"/></g>
<g><path style="opacity:0.212" fill="#dcdcdc" d="M 106.5,249.5 C 106.06,247.156 105.06,245.156 103.5,243.5C 104.122,242.373 104.955,241.373 106,240.5C 106.498,243.482 106.665,246.482 106.5,249.5 Z"/></g>
<g><path style="opacity:0.014" fill="#e8e8e8" d="M 103.5,243.5 C 102.976,245.306 102.309,246.972 101.5,248.5C 99.6989,245.774 100.366,244.108 103.5,243.5 Z"/></g>
<g><path style="opacity:0.004" fill="#c4c4c4" d="M 148.5,244.5 C 150.5,244.5 151.5,245.5 151.5,247.5C 150.167,246.833 149.167,245.833 148.5,244.5 Z"/></g>
<g><path style="opacity:0.922" fill="#898989" d="M 413.5,244.5 C 416.916,244.528 419.916,245.528 422.5,247.5C 419.215,247.072 416.215,246.072 413.5,244.5 Z"/></g>
<g><path style="opacity:0.212" fill="#c6c6c6" d="M 166.5,243.5 C 165.89,245.434 164.89,247.101 163.5,248.5C 163.273,246.067 164.273,244.401 166.5,243.5 Z"/></g>
<g><path style="opacity:0.043" fill="#d6d6d6" d="M 363.5,244.5 C 363.611,245.117 363.944,245.617 364.5,246C 363.219,247.409 362.219,248.909 361.5,250.5C 361.259,248.102 361.926,246.102 363.5,244.5 Z"/></g>
<g><path style="opacity:0.153" fill="#c6c6c6" d="M 446.5,242.5 C 446.167,244.5 445.833,246.5 445.5,248.5C 444.624,248.631 443.957,248.298 443.5,247.5C 444.275,245.604 445.275,243.937 446.5,242.5 Z"/></g>
<g><path style="opacity:0.684" fill="#a1a1a1" d="M 88.5,244.5 C 88.5,246.833 88.5,249.167 88.5,251.5C 87.7109,251.217 87.0442,250.717 86.5,250C 87.8333,249 87.8333,248 86.5,247C 87.0659,246.005 87.7326,245.172 88.5,244.5 Z"/></g>
<g><path style="opacity:0.008" fill="#dfdfdf" d="M 210.5,246.5 C 209.71,247.401 208.71,248.068 207.5,248.5C 207.821,246.952 208.821,246.285 210.5,246.5 Z"/></g>
<g><path style="opacity:0.31" fill="#acacac" d="M 66.5,246.5 C 63.1625,246.065 60.1625,246.732 57.5,248.5C 57.6854,246.804 58.5187,245.471 60,244.5C 62.0733,244.738 64.24,245.404 66.5,246.5 Z"/></g>
<g><path style="opacity:0.016" fill="#eaeaea" d="M 151.5,247.5 C 152.833,247.5 153.5,248.167 153.5,249.5C 152.5,249.167 151.833,248.5 151.5,247.5 Z"/></g>
<g><path style="opacity:0.227" fill="#c0c0c0" d="M 180.5,244.5 C 180.598,246.553 179.931,248.22 178.5,249.5C 178.402,247.447 179.069,245.78 180.5,244.5 Z"/></g>
<g><path style="opacity:0.008" fill="#ededed" d="M 447.5,249.5 C 446.508,249.672 445.842,249.338 445.5,248.5C 446.925,246.969 447.591,247.302 447.5,249.5 Z"/></g>
<g><path style="opacity:0.006" fill="#e1e1e1" d="M 66.5,246.5 C 68.9754,247.687 69.9754,249.687 69.5,252.5C 68.5082,250.544 67.5082,248.544 66.5,246.5 Z"/></g>
<g><path style="opacity:0.082" fill="#e1e1e1" d="M 333.5,246.5 C 333.573,248.027 332.906,249.027 331.5,249.5C 331.427,247.973 332.094,246.973 333.5,246.5 Z"/></g>
<g><path style="opacity:0.635" fill="#9e9e9e" d="M 206.5,248.5 C 206.027,249.906 205.027,250.573 203.5,250.5C 203.973,249.094 204.973,248.427 206.5,248.5 Z"/></g>
<g><path style="opacity:0.016" fill="#d5d5d5" d="M 425.5,248.5 C 427.153,248.66 428.486,249.326 429.5,250.5C 427.62,250.771 426.287,250.104 425.5,248.5 Z"/></g>
<g><path style="opacity:0.016" fill="#e5e5e5" d="M 429.5,250.5 C 430.791,250.263 431.791,250.596 432.5,251.5C 431.833,251.5 431.5,251.833 431.5,252.5C 431.167,252.5 430.833,252.5 430.5,252.5C 430.167,251.833 429.833,251.167 429.5,250.5 Z"/></g>
<g><path style="opacity:0.009" fill="#dfdfdf" d="M 64.5,251.5 C 66.2132,252.635 66.8799,254.302 66.5,256.5C 64.7868,255.365 64.1201,253.698 64.5,251.5 Z"/></g>
<g><path style="opacity:0.004" fill="#dedede" d="M 100.5,251.5 C 100.5,252.833 99.8333,253.5 98.5,253.5C 98.8333,252.5 99.5,251.833 100.5,251.5 Z"/></g>
<g><path style="opacity:0.145" fill="#e5e5e5" d="M 162.5,250.5 C 161.89,252.434 160.89,254.101 159.5,255.5C 158.588,253.012 159.588,251.345 162.5,250.5 Z"/></g>
<g><path style="opacity:0.973" fill="#606060" d="M 330.5,250.5 C 330.586,251.496 330.252,252.329 329.5,253C 327.527,253.495 325.527,253.662 323.5,253.5C 325.934,252.869 328.268,251.869 330.5,250.5 Z"/></g>
<g><path style="opacity:0.022" fill="#f4f4f4" d="M 78.5,254.5 C 77.391,254.557 76.391,254.89 75.5,255.5C 76.0527,253.448 77.0527,253.115 78.5,254.5 Z"/></g>
<g><path style="opacity:0.733" fill="#8b8b8b" d="M 89.5,252.5 C 92.4299,253.299 95.4299,253.632 98.5,253.5C 98.631,254.239 98.4643,254.906 98,255.5C 95.595,254.726 93.095,254.226 90.5,254C 89.944,253.617 89.6107,253.117 89.5,252.5 Z"/></g>
<g><path style="opacity:0.267" fill="#cacaca" d="M 201.5,251.5 C 198.965,253.017 196.298,254.35 193.5,255.5C 195.412,252.851 198.079,251.518 201.5,251.5 Z"/></g>
<g><path style="opacity:0.012" fill="#c5c5c5" d="M 361.5,250.5 C 361.59,253.152 360.924,255.485 359.5,257.5C 359.41,254.848 360.076,252.515 361.5,250.5 Z"/></g>
<g><path style="opacity:1" fill="#808080" d="M 447.5,259.5 C 445.495,257.666 443.328,255.999 441,254.5C 440.617,255.056 440.117,255.389 439.5,255.5C 439.791,254.351 440.624,253.684 442,253.5C 444.702,254.703 446.536,256.703 447.5,259.5 Z"/></g>
<g><path style="opacity:0.014" fill="#eeeeee" d="M 78.5,254.5 C 80.0481,254.821 80.7148,255.821 80.5,257.5C 79.5987,256.71 78.9321,255.71 78.5,254.5 Z"/></g>
<g><path style="opacity:0.016" fill="#ececec" d="M 456.5,253.5 C 458.179,253.892 459.846,254.392 461.5,255C 460.944,255.383 460.611,255.883 460.5,256.5C 458.77,255.974 457.436,254.974 456.5,253.5 Z"/></g>
<g><path style="opacity:0.369" fill="#c5c5c5" d="M 69.5,252.5 C 70.5,254.5 71.5,256.5 72.5,258.5C 72.189,259.478 71.5223,260.145 70.5,260.5C 69.52,257.914 69.1866,255.247 69.5,252.5 Z"/></g>
<g><path style="opacity:0.059" fill="#eeeeee" d="M 75.5,255.5 C 75.1667,256.5 74.5,257.167 73.5,257.5C 73.5,256.167 74.1667,255.5 75.5,255.5 Z"/></g>
<g><path style="opacity:0.01" fill="#fafafa" d="M 108.5,254.5 C 110.213,255.635 110.88,257.302 110.5,259.5C 107.497,258.83 106.83,257.163 108.5,254.5 Z"/></g>
<g><path style="opacity:0.224" fill="#c8c8c8" d="M 193.5,255.5 C 192.101,256.89 190.434,257.89 188.5,258.5C 189.401,256.273 191.067,255.273 193.5,255.5 Z"/></g>
<g><path style="opacity:0.007" fill="#e1e1e1" d="M 57.5,256.5 C 58.404,257.209 58.7373,258.209 58.5,259.5C 57.3523,260.895 56.3523,260.728 55.5,259C 56.756,258.583 57.4226,257.75 57.5,256.5 Z"/></g>
<g><path style="opacity:0.651" fill="#a8a8a8" d="M 80.5,257.5 C 82.5869,258.585 83.9202,260.251 84.5,262.5C 82.4131,261.415 81.0798,259.749 80.5,257.5 Z"/></g>
<g><path style="opacity:0.761" fill="#888888" d="M 155.5,253.5 C 156.605,254.6 157.938,255.267 159.5,255.5C 159.5,256.167 159.167,256.5 158.5,256.5C 157.167,256.833 157.167,257.167 158.5,257.5C 158.631,258.376 158.298,259.043 157.5,259.5C 156.523,257.589 155.857,255.589 155.5,253.5 Z"/></g>
<g><path style="opacity:0.569" fill="#bbbbbb" d="M 317.5,255.5 C 316.557,258.109 314.89,260.109 312.5,261.5C 313.473,258.865 315.14,256.865 317.5,255.5 Z"/></g>
<g><path style="opacity:0.761" fill="#9f9f9f" d="M 428.5,255.5 C 428.5,258.167 428.5,260.833 428.5,263.5C 427.761,263.631 427.094,263.464 426.5,263C 426.193,260.393 426.86,257.893 428.5,255.5 Z"/></g>
<g><path style="opacity:0.914" fill="#6d6d6d" d="M 439.5,255.5 C 439.727,257.933 438.727,259.599 436.5,260.5C 436.721,258.336 437.721,256.67 439.5,255.5 Z"/></g>
<g><path style="opacity:0.043" fill="#d8d8d8" d="M 175.5,258.5 C 177.031,259.925 176.698,260.591 174.5,260.5C 174.328,259.508 174.662,258.842 175.5,258.5 Z"/></g>
<g><path style="opacity:0.224" fill="#e5e5e5" d="M 188.5,258.5 C 188.5,259.5 188.5,260.5 188.5,261.5C 185.833,260.5 185.833,259.5 188.5,258.5 Z"/></g>
<g><path style="opacity:0.017" fill="#d3d3d3" d="M 460.5,256.5 C 461.613,257.946 461.78,259.613 461,261.5C 460.23,262.598 459.397,262.598 458.5,261.5C 459.968,260.221 460.635,258.554 460.5,256.5 Z"/></g>
<g><path style="opacity:0.014" fill="#ededed" d="M 42.5,261.5 C 42.1667,262.5 41.5,263.167 40.5,263.5C 40.1307,261.007 40.7973,260.34 42.5,261.5 Z"/></g>
<g><path style="opacity:0.729" fill="#969696" d="M 51.5,261.5 C 48.5,261.5 45.5,261.5 42.5,261.5C 45.4468,259.12 48.4468,259.12 51.5,261.5 Z"/></g>
<g><path style="opacity:0.004" fill="#fefffe" d="M 104.5,261.5 C 103.833,260.167 103.833,260.167 104.5,261.5 Z"/></g>
<g><path style="opacity:0.016" fill="#fefffe" d="M 311.5,261.5 C 310.833,260.167 310.833,260.167 311.5,261.5 Z"/></g>
<g><path style="opacity:0.149" fill="#d2d2d2" d="M 54.5,262.5 C 53.209,262.737 52.209,262.404 51.5,261.5C 52.8946,260.185 53.8946,260.519 54.5,262.5 Z"/></g>
<g><path style="opacity:0.52" fill="#959595" d="M 447.5,259.5 C 450.889,261.22 454.556,261.887 458.5,261.5C 455.696,262.638 452.696,262.805 449.5,262C 448.619,261.292 447.953,260.458 447.5,259.5 Z"/></g>
<g><path style="opacity:0.004" fill="#fefffe" d="M 57.5,262.5 C 58.8333,263.167 58.8333,263.167 57.5,262.5 Z"/></g>
<g><path style="opacity:0.995" fill="#444444" d="M 62.5,258.5 C 64.4812,259.105 64.8146,260.105 63.5,261.5C 63.5569,262.609 63.8902,263.609 64.5,264.5C 63.2022,263.884 62.2022,263.884 61.5,264.5C 61.1667,264.5 60.8333,264.5 60.5,264.5C 60.1667,264.5 59.8333,264.5 59.5,264.5C 59.5,263.5 59.5,262.5 59.5,261.5C 61.8795,262.567 62.8795,261.567 62.5,258.5 Z"/></g>
<g><path style="opacity:0.012" fill="#dedede" d="M 63.5,261.5 C 64.7281,262.306 65.7281,263.306 66.5,264.5C 65.8333,265.833 65.1667,265.833 64.5,264.5C 63.8902,263.609 63.5569,262.609 63.5,261.5 Z"/></g>
<g><path style="opacity:0.812" fill="#8e8e8e" d="M 104.5,261.5 C 105.906,261.973 106.573,262.973 106.5,264.5C 105.292,263.766 103.959,263.433 102.5,263.5C 103.167,262.833 103.833,262.167 104.5,261.5 Z"/></g>
<g><path style="opacity:0.004" fill="#d8d8d8" d="M 85.5,263.5 C 87.6977,263.409 88.0311,264.075 86.5,265.5C 85.6618,265.158 85.3284,264.492 85.5,263.5 Z"/></g>
<g><path style="opacity:0.486" fill="#b6b6b6" d="M 188.5,262.5 C 188.027,263.906 187.027,264.573 185.5,264.5C 185.973,263.094 186.973,262.427 188.5,262.5 Z"/></g>
<g><path style="opacity:0.263" fill="#c8c8c8" d="M 311.5,261.5 C 311.833,261.5 312.167,261.5 312.5,261.5C 311.89,263.434 310.89,265.101 309.5,266.5C 309.392,264.486 310.058,262.82 311.5,261.5 Z"/></g>
<g><path style="opacity:0.271" fill="#cdcdcd" d="M 324.5,264.5 C 323.833,264.833 323.167,265.167 322.5,265.5C 322.711,263.576 323.377,263.243 324.5,264.5 Z"/></g>
<g><path style="opacity:0.012" fill="#e1e1e1" d="M 356.5,262.5 C 357.195,264.437 356.195,265.437 353.5,265.5C 354.167,264.167 355.167,263.167 356.5,262.5 Z"/></g>
<g><path style="opacity:0.018" fill="#f8f8f8" d="M 433.5,262.5 C 432.897,266.12 431.564,266.453 429.5,263.5C 430.959,263.567 432.292,263.234 433.5,262.5 Z"/></g>
<g><path style="opacity:0.855" fill="#858585" d="M 324.5,264.5 C 325.873,264.343 327.207,264.51 328.5,265C 329.712,266.107 329.379,266.607 327.5,266.5C 327.167,265.167 326.833,265.167 326.5,266.5C 325.5,266.167 324.833,265.5 324.5,264.5 Z"/></g>
<g><path style="opacity:0.043" fill="#cbcbcb" d="M 60.5,264.5 C 60.8333,264.5 61.1667,264.5 61.5,264.5C 62.6899,267.906 62.0233,268.239 59.5,265.5C 60.1667,265.5 60.5,265.167 60.5,264.5 Z"/></g>
<g><path style="opacity:0.216" fill="#c4c4c4" d="M 111.5,264.5 C 112.338,264.842 112.672,265.508 112.5,266.5C 109.075,266.633 108.742,265.967 111.5,264.5 Z"/></g>
<g><path style="opacity:0.82" fill="#8e8e8e" d="M 185.5,264.5 C 184.365,266.213 182.698,266.88 180.5,266.5C 181.93,265.463 183.597,264.796 185.5,264.5 Z"/></g>
<g><path style="opacity:0.016" fill="#cecece" d="M 200.5,264.5 C 200.573,266.027 199.906,267.027 198.5,267.5C 198.427,265.973 199.094,264.973 200.5,264.5 Z"/></g>
<g><path style="opacity:0.004" fill="#fefffe" d="M 308.5,266.5 C 307.833,265.167 307.833,265.167 308.5,266.5 Z"/></g>
<g><path style="opacity:0.019" fill="#f2f2f2" d="M 87.5,266.5 C 89.4147,266.216 91.0813,266.549 92.5,267.5C 90.7761,267.461 90.4427,267.794 91.5,268.5C 89.7084,269.473 88.375,268.806 87.5,266.5 Z"/></g>
<g><path style="opacity:0.01" fill="#fbfbfb" d="M 321.5,266.5 C 321.5,267.833 320.833,268.5 319.5,268.5C 319.833,267.5 320.5,266.833 321.5,266.5 Z"/></g>
<g><path style="opacity:0.004" fill="#ebebeb" d="M 353.5,265.5 C 353.179,267.048 352.179,267.715 350.5,267.5C 351.29,266.599 352.29,265.932 353.5,265.5 Z"/></g>
<g><path style="opacity:0.173" fill="#d1d1d1" d="M 52.5,266.5 C 49.9179,266.025 47.9179,266.692 46.5,268.5C 45.596,267.791 45.2627,266.791 45.5,265.5C 48.0593,265.198 50.3926,265.532 52.5,266.5 Z"/></g>
<g><path style="opacity:0.006" fill="#eaeaea" d="M 52.5,266.5 C 54.153,266.66 55.4863,267.326 56.5,268.5C 54.6203,268.771 53.287,268.104 52.5,266.5 Z"/></g>
<g><path style="opacity:0.722" fill="#939393" d="M 95.5,266.5 C 95.0269,267.906 94.0269,268.573 92.5,268.5C 92.5,268.167 92.5,267.833 92.5,267.5C 93.391,266.89 94.391,266.557 95.5,266.5 Z"/></g>
<g><path style="opacity:0.176" fill="#bababa" d="M 106.5,265.5 C 107.906,265.973 108.573,266.973 108.5,268.5C 107.094,268.027 106.427,267.027 106.5,265.5 Z"/></g>
<g><path style="opacity:0.005" fill="#fefffe" d="M 112.5,268.5 C 113.167,268.5 113.5,268.833 113.5,269.5C 113.5,269.833 113.5,270.167 113.5,270.5C 111.314,270.489 110.481,269.489 111,267.5C 111.383,268.056 111.883,268.389 112.5,268.5 Z"/></g>
<g><path style="opacity:0.569" fill="#858585" d="M 172.5,265.5 C 172.5,266.833 173.167,267.5 174.5,267.5C 173.292,268.782 171.958,268.782 170.5,267.5C 170.855,266.478 171.522,265.811 172.5,265.5 Z"/></g>
<g><path style="opacity:0.157" fill="#c4c4c4" d="M 233.5,268.5 C 229.131,268.467 224.798,268.8 220.5,269.5C 222.848,268.048 225.514,267.382 228.5,267.5C 230.369,267.507 232.036,267.84 233.5,268.5 Z"/></g>
<g><path style="opacity:0.018" fill="#e4e4e4" d="M 46.5,268.5 C 48.3797,268.229 49.713,268.896 50.5,270.5C 48.847,270.34 47.5137,269.674 46.5,268.5 Z"/></g>
<g><path style="opacity:0.282" fill="#b6b6b6" d="M 308.5,266.5 C 308.833,266.5 309.167,266.5 309.5,266.5C 309.573,268.027 308.906,269.027 307.5,269.5C 307.557,268.391 307.89,267.391 308.5,266.5 Z"/></g>
<g><path style="opacity:0.231" fill="#c8c8c8" d="M 234.5,268.5 C 236.553,268.402 238.22,269.069 239.5,270.5C 237.447,270.598 235.78,269.931 234.5,268.5 Z"/></g>
<g><path style="opacity:0.01" fill="#ececec" d="M 347.5,269.5 C 347.179,271.048 346.179,271.715 344.5,271.5C 345.29,270.599 346.29,269.932 347.5,269.5 Z"/></g>
<g><path style="opacity:0.588" fill="#7d7d7d" d="M 50.5,270.5 C 53.2062,270.575 55.8728,270.908 58.5,271.5C 55.7559,272.491 53.0893,272.157 50.5,270.5 Z"/></g>
<g><path style="opacity:0.004" fill="#d0d0d0" d="M 195.5,270.5 C 195.5,271.833 194.833,272.5 193.5,272.5C 193.833,271.5 194.5,270.833 195.5,270.5 Z"/></g>
<g><path style="opacity:0.204" fill="#e3e3e3" d="M 243.5,272.5 C 242.508,272.672 241.842,272.338 241.5,271.5C 242.327,270.561 242.994,270.895 243.5,272.5 Z"/></g>
<g><path style="opacity:0.016" fill="#dddddd" d="M 40.5,268.5 C 42.6,270.616 44.9333,272.283 47.5,273.5C 43.7632,273.759 41.4298,272.093 40.5,268.5 Z"/></g>
<g><path style="opacity:0.007" fill="#ededed" d="M 114.5,269.5 C 115.468,271.607 115.802,273.941 115.5,276.5C 114.637,277.463 113.97,277.463 113.5,276.5C 114.623,274.518 114.623,272.518 113.5,270.5C 114.167,270.5 114.5,270.167 114.5,269.5 Z"/></g>
<g><path style="opacity:0.757" fill="#858585" d="M 213.5,272.5 C 213.027,273.906 212.027,274.573 210.5,274.5C 210.973,273.094 211.973,272.427 213.5,272.5 Z"/></g>
<g><path style="opacity:0.012" fill="#d8d8d8" d="M 316.5,272.5 C 316.027,273.906 315.027,274.573 313.5,274.5C 313.973,273.094 314.973,272.427 316.5,272.5 Z"/></g>
<g><path style="opacity:0.014" fill="#fcfcfc" d="M 51.5,274.5 C 55.0595,274.717 55.0595,275.717 51.5,277.5C 51.5,276.5 51.5,275.5 51.5,274.5 Z"/></g>
<g><path style="opacity:0.016" fill="#fcfcfc" d="M 192.5,273.5 C 192.437,276.195 191.437,277.195 189.5,276.5C 190.167,275.167 191.167,274.167 192.5,273.5 Z"/></g>
<g><path style="opacity:0.006" fill="#f1f1f1" d="M 337.5,275.5 C 337.842,274.662 338.508,274.328 339.5,274.5C 339.591,276.698 338.925,277.031 337.5,275.5 Z"/></g>
<g><path style="opacity:0.161" fill="#c5c5c5" d="M 298.5,273.5 C 297.833,274.833 296.833,275.833 295.5,276.5C 295.5,274.5 296.5,273.5 298.5,273.5 Z"/></g>
<g><path style="opacity:0.969" fill="#787878" d="M 110.5,273.5 C 111.931,274.78 112.598,276.447 112.5,278.5C 110.787,277.365 110.12,275.698 110.5,273.5 Z"/></g>
<g><path style="opacity:0.416" fill="#c1c1c1" d="M 210.5,274.5 C 209.167,276.5 207.5,278.167 205.5,279.5C 206.412,277.405 207.579,275.405 209,273.5C 209.383,274.056 209.883,274.389 210.5,274.5 Z"/></g>
<g><path style="opacity:0.004" fill="#ededed" d="M 312.5,275.5 C 312.5,276.833 311.833,277.5 310.5,277.5C 310.833,276.5 311.5,275.833 312.5,275.5 Z"/></g>
<g><path style="opacity:0.009" fill="#dfdfdf" d="M 112.5,278.5 C 113.5,278.5 114.5,278.5 115.5,278.5C 114.089,282.297 113.089,282.297 112.5,278.5 Z"/></g>
<g><path style="opacity:0.255" fill="#dcdcdc" d="M 295.5,276.5 C 295.737,277.791 295.404,278.791 294.5,279.5C 294.062,279.565 293.728,279.399 293.5,279C 294.066,278.005 294.733,277.172 295.5,276.5 Z"/></g>
<g><path style="opacity:0.01" fill="#cbcbcb" d="M 245.5,274.5 C 249.424,276.752 251.757,280.085 252.5,284.5C 250.174,281.172 247.841,277.839 245.5,274.5 Z"/></g>
<g><path style="opacity:0.004" fill="#eeeeee" d="M 308.5,278.5 C 308.5,279.833 307.833,280.5 306.5,280.5C 306.833,279.5 307.5,278.833 308.5,278.5 Z"/></g>
<g><path style="opacity:0.078" fill="#dddddd" d="M 324.5,279.5 C 324.672,280.492 324.338,281.158 323.5,281.5C 321.969,280.075 322.302,279.409 324.5,279.5 Z"/></g>
<g><path style="opacity:0.012" fill="#fefffe" d="M 191.5,281.5 C 192.833,282.167 192.833,282.167 191.5,281.5 Z"/></g>
<g><path style="opacity:0.02" fill="#dfdfdf" d="M 49.5,281.5 C 50.5,281.833 51.1667,282.5 51.5,283.5C 50.1667,283.5 49.5,282.833 49.5,281.5 Z"/></g>
<g><path style="opacity:0.188" fill="#c1c1c1" d="M 205.5,279.5 C 204.551,281.777 203.218,283.777 201.5,285.5C 201.622,282.708 202.956,280.708 205.5,279.5 Z"/></g>
<g><path style="opacity:0.067" fill="#d9d9d9" d="M 306.5,280.5 C 305.833,281.833 304.833,282.833 303.5,283.5C 303.5,281.5 304.5,280.5 306.5,280.5 Z"/></g>
<g><path style="opacity:0.018" fill="#d7d7d7" d="M 332.5,281.5 C 332.293,284.241 331.293,286.574 329.5,288.5C 329.707,285.759 330.707,283.426 332.5,281.5 Z"/></g>
<g><path style="opacity:0.986" fill="#5e5e5e" d="M 188.5,280.5 C 189.5,281.167 190.5,281.833 191.5,282.5C 192.694,283.272 193.694,284.272 194.5,285.5C 193.883,285.611 193.383,285.944 193,286.5C 190.677,285.075 189.177,283.075 188.5,280.5 Z"/></g>
<g><path style="opacity:0.165" fill="#dddddd" d="M 294.5,281.5 C 294.5,283.167 294.5,284.833 294.5,286.5C 295.833,286.5 297.167,286.5 298.5,286.5C 296.579,289.106 294.579,289.106 292.5,286.5C 293.747,284.958 293.747,283.458 292.5,282C 293.094,281.536 293.761,281.369 294.5,281.5 Z"/></g>
<g><path style="opacity:0.011" fill="#e5e5e5" d="M 201.5,286.5 C 201.762,287.978 201.429,289.311 200.5,290.5C 199.893,290.376 199.56,290.043 199.5,289.5C 198.508,289.672 197.842,289.338 197.5,288.5C 198.315,287.571 199.148,286.571 200,285.5C 200.383,286.056 200.883,286.389 201.5,286.5 Z"/></g>
<g><path style="opacity:0.82" fill="#919191" d="M 322.5,284.5 C 322.586,285.496 322.252,286.329 321.5,287C 320.264,288.085 318.931,288.918 317.5,289.5C 318.5,287.167 320.167,285.5 322.5,284.5 Z"/></g>
<g><path style="opacity:0.012" fill="#d0d0d0" d="M 53.5,285.5 C 54.9063,285.973 55.573,286.973 55.5,288.5C 54.0937,288.027 53.427,287.027 53.5,285.5 Z"/></g>
<g><path style="opacity:0.004" fill="#fefffe" d="M 301.5,286.5 C 302.833,287.167 302.833,287.167 301.5,286.5 Z"/></g>
<g><path style="opacity:0.016" fill="#e8e8e8" d="M 55.5,288.5 C 58.3382,290.306 58.0048,291.306 54.5,291.5C 54.5569,290.391 54.8902,289.391 55.5,288.5 Z"/></g>
<g><path style="opacity:0.008" fill="#fefffe" d="M 52.5,291.5 C 51.8333,290.167 51.8333,290.167 52.5,291.5 Z"/></g>
<g><path style="opacity:0.016" fill="#f4f4f4" d="M 329.5,288.5 C 329.167,290.833 327.833,292.167 325.5,292.5C 326.5,290.833 327.833,289.5 329.5,288.5 Z"/></g>
<g><path style="opacity:0.006" fill="#f9f9f9" d="M 49.5,293.5 C 49.5,294.167 49.1667,294.5 48.5,294.5C 47.3207,292.591 47.654,292.258 49.5,293.5 Z"/></g>
<g><path style="opacity:0.18" fill="#b7b7b7" d="M 315.5,290.5 C 314.833,291.833 313.833,292.833 312.5,293.5C 312.5,291.5 313.5,290.5 315.5,290.5 Z"/></g>
<g><path style="opacity:0.624" fill="#a9a9a9" d="M 265.5,293.5 C 265.027,294.906 264.027,295.573 262.5,295.5C 262.973,294.094 263.973,293.427 265.5,293.5 Z"/></g>
<g><path style="opacity:0.008" fill="#dddddd" d="M 277.5,294.5 C 279.795,295.136 281.461,296.469 282.5,298.5C 280.246,297.876 278.579,296.543 277.5,294.5 Z"/></g>
<g><path style="opacity:0.004" fill="#e2e2e2" d="M 324.5,293.5 C 324.262,295.404 323.262,296.738 321.5,297.5C 321.738,295.596 322.738,294.262 324.5,293.5 Z"/></g>
<g><path style="opacity:0.125" fill="#e1e1e1" d="M 312.5,293.5 C 312.5,295.5 312.5,297.5 312.5,299.5C 310.269,297.358 310.269,295.358 312.5,293.5 Z"/></g>
<g><path style="opacity:0.018" fill="#e6e6e6" d="M 50.5,298.5 C 52.5529,298.402 54.2196,299.069 55.5,300.5C 53.4471,300.598 51.7804,299.931 50.5,298.5 Z"/></g>
<g><path style="opacity:0.792" fill="#7c7c7c" d="M 260.5,297.5 C 260.737,298.791 260.404,299.791 259.5,300.5C 259.586,299.504 259.252,298.671 258.5,298C 259.094,297.536 259.761,297.369 260.5,297.5 Z"/></g>
<g><path style="opacity:0.004" fill="#fefffe" d="M 285.5,299.5 C 286.833,300.167 286.833,300.167 285.5,299.5 Z"/></g>
<g><path style="opacity:0.015" fill="#f0f0f0" d="M 319.5,298.5 C 317.407,301.701 314.74,302.534 311.5,301C 312.056,300.617 312.389,300.117 312.5,299.5C 313.265,299.923 314.098,300.257 315,300.5C 316.406,299.586 317.906,298.92 319.5,298.5 Z"/></g>
<g><path style="opacity:0.082" fill="#e1e1e1" d="M 268.5,302.5 C 266.525,302.822 264.858,302.822 263.5,302.5C 265.167,301.167 266.833,301.167 268.5,302.5 Z"/></g>
<g><path style="opacity:0.014" fill="#e5e5e5" d="M 284.5,300.5 C 284.833,300.5 285.167,300.5 285.5,300.5C 286.234,301.708 286.567,303.041 286.5,304.5C 285.326,303.486 284.66,302.153 284.5,300.5 Z"/></g>
<g><path style="opacity:0.016" fill="#e8e8e8" d="M 58.5,301.5 C 60.5529,301.402 62.2196,302.069 63.5,303.5C 61.4471,303.598 59.7804,302.931 58.5,301.5 Z"/></g>
<g><path style="opacity:0.561" fill="#9f9f9f" d="M 269.5,302.5 C 271.5,302.5 272.5,303.5 272.5,305.5C 271.167,304.833 270.167,303.833 269.5,302.5 Z"/></g>
<g><path style="opacity:0.008" fill="#fefffe" d="M 261.5,304.5 C 262.833,305.167 262.833,305.167 261.5,304.5 Z"/></g>
<g><path style="opacity:0.149" fill="#cecece" d="M 66.5,304.5 C 68.0269,304.427 69.0269,305.094 69.5,306.5C 67.9731,306.573 66.9731,305.906 66.5,304.5 Z"/></g>
<g><path style="opacity:0.255" fill="#c7c7c7" d="M 69.5,306.5 C 71.0269,306.427 72.0269,307.094 72.5,308.5C 70.9731,308.573 69.9731,307.906 69.5,306.5 Z"/></g>
<g><path style="opacity:0.576" fill="#bababa" d="M 273.5,306.5 C 274.147,307.274 274.48,308.274 274.5,309.5C 274.66,311.355 273.993,312.688 272.5,313.5C 272.993,311.194 273.326,308.861 273.5,306.5 Z"/></g>
<g><path style="opacity:0.008" fill="#fefffe" d="M 75.5,312.5 C 74.8333,313.167 74.8333,313.167 75.5,312.5 Z"/></g>
<g><path style="opacity:0.004" fill="#e1e1e1" d="M 248.5,310.5 C 248.262,312.404 247.262,313.738 245.5,314.5C 245.738,312.596 246.738,311.262 248.5,310.5 Z"/></g>
<g><path style="opacity:0.447" fill="#b1b1b1" d="M 286.5,304.5 C 287.234,305.878 287.901,307.378 288.5,309C 288.255,310.911 288.255,312.911 288.5,315C 287.956,315.717 287.289,316.217 286.5,316.5C 286.5,312.5 286.5,308.5 286.5,304.5 Z"/></g>
<g><path style="opacity:0.011" fill="#e1e1e1" d="M 77.5,313.5 C 78.9063,313.973 79.573,314.973 79.5,316.5C 78.8826,316.611 78.3826,316.944 78,317.5C 77.51,316.207 77.3433,314.873 77.5,313.5 Z"/></g>
<g><path style="opacity:0.055" fill="#e3e3e3" d="M 272.5,313.5 C 272.573,315.027 271.906,316.027 270.5,316.5C 270.427,314.973 271.094,313.973 272.5,313.5 Z"/></g>
<g><path style="opacity:0.012" fill="#e6e6e6" d="M 243.5,315.5 C 243.179,317.048 242.179,317.715 240.5,317.5C 241.29,316.599 242.29,315.932 243.5,315.5 Z"/></g>
<g><path style="opacity:0.012" fill="#ececec" d="M 240.5,317.5 C 239.994,319.105 239.327,319.439 238.5,318.5C 238.842,317.662 239.508,317.328 240.5,317.5 Z"/></g>
<g><path style="opacity:0.431" fill="#c1c1c1" d="M 270.5,316.5 C 270.027,317.906 269.027,318.573 267.5,318.5C 267.973,317.094 268.973,316.427 270.5,316.5 Z"/></g>
<g><path style="opacity:0.067" fill="#ececec" d="M 267.5,318.5 C 267.167,319.5 266.5,320.167 265.5,320.5C 265.5,319.167 266.167,318.5 267.5,318.5 Z"/></g>
<g><path style="opacity:0.043" fill="#c9c9c9" d="M 237.5,318.5 C 236.22,319.931 234.553,320.598 232.5,320.5C 233.78,319.069 235.447,318.402 237.5,318.5 Z"/></g>
<g><path style="opacity:0.141" fill="#eaeaea" d="M 265.5,320.5 C 264.486,321.674 263.153,322.34 261.5,322.5C 262.287,320.896 263.62,320.229 265.5,320.5 Z"/></g>
<g><path style="opacity:0.263" fill="#9f9f9f" d="M 232.5,320.5 C 230.611,321.322 228.611,322.155 226.5,323C 227.942,323.377 228.942,324.21 229.5,325.5C 227.169,325.502 225.169,324.669 223.5,323C 226.171,321.097 229.171,320.264 232.5,320.5 Z"/></g>
<g><path style="opacity:0.005" fill="#e8e8e8" d="M 208.5,326.5 C 209.568,325.566 210.901,325.232 212.5,325.5C 213.263,326.268 214.263,326.768 215.5,327C 213.153,327.334 210.819,327.167 208.5,326.5 Z"/></g>
<g><path style="opacity:0.006" fill="#ececec" d="M 237.5,329.5 C 235.181,329.008 233.181,328.008 231.5,326.5C 234.249,325.511 236.249,326.511 237.5,329.5 Z"/></g>
<g><path style="opacity:0.008" fill="#eeeeee" d="M 283.5,323.5 C 283.5,325.5 282.5,326.5 280.5,326.5C 281.167,325.167 282.167,324.167 283.5,323.5 Z"/></g>
<g><path style="opacity:0.012" fill="#ededed" d="M 216.5,325.5 C 217.71,325.932 218.71,326.599 219.5,327.5C 217.821,327.715 216.821,327.048 216.5,325.5 Z"/></g>
<g><path style="opacity:0.004" fill="#e7e7e7" d="M 208.5,326.5 C 207.655,328.762 206.322,329.429 204.5,328.5C 205.287,326.896 206.62,326.229 208.5,326.5 Z"/></g>
<g><path style="opacity:0.008" fill="#d3d3d3" d="M 220.5,327.5 C 221.71,327.932 222.71,328.599 223.5,329.5C 221.821,329.715 220.821,329.048 220.5,327.5 Z"/></g>
<g><path style="opacity:0.749" fill="#9d9d9d" d="M 249.5,327.5 C 247.898,329.074 245.898,329.741 243.5,329.5C 243.783,328.711 244.283,328.044 245,327.5C 246.299,327.966 247.799,327.966 249.5,327.5 Z"/></g>
<g><path style="opacity:0.009" fill="#f0f0f0" d="M 203.5,329.5 C 203.649,330.552 203.483,331.552 203,332.5C 202.329,331.748 201.496,331.414 200.5,331.5C 200.973,330.094 201.973,329.427 203.5,329.5 Z"/></g>
<g><path style="opacity:0.012" fill="#dedede" d="M 279.5,327.5 C 278.732,330.562 276.732,332.228 273.5,332.5C 275.46,330.844 277.46,329.177 279.5,327.5 Z"/></g>
<g><path style="opacity:0.012" fill="#e8e8e8" d="M 86.5,329.5 C 88.543,330.579 89.8763,332.246 90.5,334.5C 89.8826,334.611 89.3826,334.944 89,335.5C 88.3448,333.372 87.5114,331.372 86.5,329.5 Z"/></g>
<g><path style="opacity:0.008" fill="#e7e7e7" d="M 223.5,329.5 C 224.922,329.709 226.255,330.209 227.5,331C 226.552,331.483 225.552,331.649 224.5,331.5C 224.167,330.833 223.833,330.167 223.5,329.5 Z"/></g>
<g><path style="opacity:0.322" fill="#a6a6a6" d="M 185.5,332.5 C 186.601,331.402 187.934,331.235 189.5,332C 188.756,333.039 187.756,333.539 186.5,333.5C 186.5,332.833 186.167,332.5 185.5,332.5 Z"/></g>
<g><path style="opacity:0.012" fill="#dadada" d="M 181.5,333.5 C 182.568,332.566 183.901,332.232 185.5,332.5C 186.167,332.5 186.5,332.833 186.5,333.5C 184.54,335.156 182.54,336.823 180.5,338.5C 180.833,337.167 181.167,335.833 181.5,334.5C 182.833,334.167 182.833,333.833 181.5,333.5 Z"/></g>
<g><path style="opacity:0.004" fill="#e0e0e0" d="M 200.5,331.5 C 200.027,332.906 199.027,333.573 197.5,333.5C 197.973,332.094 198.973,331.427 200.5,331.5 Z"/></g>
<g><path style="opacity:0.612" fill="#ababab" d="M 212.5,333.5 C 209.456,335.011 206.122,335.678 202.5,335.5C 202.369,334.624 202.702,333.957 203.5,333.5C 206.417,334.066 209.417,334.066 212.5,333.5 Z"/></g>
<g><path style="opacity:0.022" fill="#e5e5e5" d="M 273.5,332.5 C 272.713,334.104 271.38,334.771 269.5,334.5C 270.514,333.326 271.847,332.66 273.5,332.5 Z"/></g>
<g><path style="opacity:0.008" fill="#d5d5d5" d="M 181.5,333.5 C 181.5,333.833 181.5,334.167 181.5,334.5C 179.499,334.883 177.165,335.217 174.5,335.5C 176.515,334.076 178.848,333.41 181.5,333.5 Z"/></g>
<g><path style="opacity:0.006" fill="#e7e7e7" d="M 266.5,335.5 C 267.209,334.596 268.209,334.263 269.5,334.5C 269.631,335.239 269.464,335.906 269,336.5C 268.329,335.748 267.496,335.414 266.5,335.5 Z"/></g>
<g><path style="opacity:0.012" fill="#d5d5d5" d="M 90.5,334.5 C 91.9063,334.973 92.573,335.973 92.5,337.5C 91.0937,337.027 90.427,336.027 90.5,334.5 Z"/></g>
<g><path style="opacity:0.788" fill="#7b7b7b" d="M 73.5,337.5 C 68.5,337.5 63.5,337.5 58.5,337.5C 63.5407,335.128 68.5407,335.128 73.5,337.5 Z"/></g>
<g><path style="opacity:0.204" fill="#cdcdcd" d="M 195.5,335.5 C 195.5,335.833 195.5,336.167 195.5,336.5C 194.577,337.303 193.577,337.47 192.5,337C 193.244,335.961 194.244,335.461 195.5,335.5 Z"/></g>
<g><path style="opacity:0.008" fill="#dbdbdb" d="M 257.5,337.5 C 258.919,336.549 260.585,336.216 262.5,336.5C 260.926,337.928 259.259,338.261 257.5,337.5 Z"/></g>
<g><path style="opacity:0.094" fill="#d2d2d2" d="M 77.5,339.5 C 75.847,339.34 74.5137,338.674 73.5,337.5C 75.3217,336.571 76.6551,337.238 77.5,339.5 Z"/></g>
<g><path style="opacity:0.016" fill="#c9c9c9" d="M 174.5,335.5 C 170.738,336.585 167.071,337.918 163.5,339.5C 163.167,339.5 162.833,339.5 162.5,339.5C 162.5,338.833 162.167,338.5 161.5,338.5C 165.474,336.425 169.808,335.425 174.5,335.5 Z"/></g>
<g><path style="opacity:0.18" fill="#cfcfcf" d="M 245.5,339.5 C 247.265,338.539 249.265,338.205 251.5,338.5C 249.642,340.13 247.642,340.463 245.5,339.5 Z"/></g>
<g><path style="opacity:0.004" fill="#f2f2f2" d="M 93.5,338.5 C 94.5,338.833 95.1667,339.5 95.5,340.5C 94.1667,340.5 93.5,339.833 93.5,338.5 Z"/></g>
<g><path style="opacity:0.665" fill="#8b8b8b" d="M 161.5,338.5 C 162.167,338.5 162.5,338.833 162.5,339.5C 162.833,339.5 163.167,339.5 163.5,339.5C 167.371,339.185 171.038,339.518 174.5,340.5C 169.489,340.666 164.489,340.499 159.5,340C 159.167,339.667 158.833,339.333 158.5,339C 159.448,338.517 160.448,338.351 161.5,338.5 Z"/></g>
<g><path style="opacity:0.004" fill="#fefffe" d="M 46.5,341.5 C 45.8333,340.167 45.8333,340.167 46.5,341.5 Z"/></g>
<g><path style="opacity:0.376" fill="#c7c7c7" d="M 50.5,340.5 C 48.7952,342.192 46.7952,343.525 44.5,344.5C 44.7822,343.222 45.4489,342.222 46.5,341.5C 47.7079,340.766 49.0413,340.433 50.5,340.5 Z"/></g>
<g><path style="opacity:0.022" fill="#e9e9e9" d="M 95.5,340.5 C 97.3885,341.604 99.0552,342.937 100.5,344.5C 97.796,344.33 96.1293,342.997 95.5,340.5 Z"/></g>
<g><path style="opacity:0.013" fill="#cfcfcf" d="M 244.5,339.5 C 242.661,341.12 240.661,341.454 238.5,340.5C 230.898,341.884 223.231,342.55 215.5,342.5C 224.973,341.004 234.639,340.004 244.5,339.5 Z"/></g>
<g><path style="opacity:0.078" fill="#c9c9c9" d="M 215.5,342.5 C 211.705,343.617 207.705,344.283 203.5,344.5C 207.21,342.864 211.21,342.198 215.5,342.5 Z"/></g>
<g><path style="opacity:0.008" fill="#ededed" d="M 44.5,344.5 C 43.9744,346.23 42.9744,347.564 41.5,348.5C 40.4502,345.98 41.4502,344.646 44.5,344.5 Z"/></g>
<g><path style="opacity:0.994" fill="#545454" d="M 81.5,342.5 C 82.8897,343.899 83.8897,345.566 84.5,347.5C 81.4851,346.63 80.4851,344.964 81.5,342.5 Z"/></g>
<g><path style="opacity:0.016" fill="#e1e1e1" d="M 198.5,345.5 C 199.919,344.549 201.585,344.216 203.5,344.5C 201.926,345.928 200.259,346.261 198.5,345.5 Z"/></g>
<g><path style="opacity:0.011" fill="#d4d4d4" d="M 100.5,344.5 C 102.434,345.11 104.101,346.11 105.5,347.5C 103.011,347.759 101.344,346.759 100.5,344.5 Z"/></g>
<g><path style="opacity:0.016" fill="#efefef" d="M 150.5,345.5 C 154.182,345.335 157.848,345.501 161.5,346C 159.846,346.608 158.179,347.108 156.5,347.5C 154.5,346.833 152.5,346.167 150.5,345.5 Z"/></g>
<g><path style="opacity:0.006" fill="#e7e7e7" d="M 67.5,348.5 C 63.8505,347.272 60.1838,347.272 56.5,348.5C 58.1175,347.028 60.1175,346.361 62.5,346.5C 63.8333,346.667 65.1667,346.833 66.5,347C 67.056,347.383 67.3893,347.883 67.5,348.5 Z"/></g>
<g><path style="opacity:0.149" fill="#c1c1c1" d="M 125.5,349.5 C 125.631,348.761 125.464,348.094 125,347.5C 123.644,348.38 122.144,348.714 120.5,348.5C 122.851,346.797 125.518,346.297 128.5,347C 127.627,348.045 126.627,348.878 125.5,349.5 Z"/></g>
<g><path style="opacity:0.012" fill="#e7e7e7" d="M 150.5,345.5 C 148.417,346.029 146.583,347.029 145,348.5C 144.626,347.584 144.126,346.75 143.5,346C 139.903,345.052 136.903,345.885 134.5,348.5C 134.539,347.417 134.873,346.417 135.5,345.5C 140.652,344.186 145.652,344.186 150.5,345.5 Z"/></g>
<g><path style="opacity:0.012" fill="#d6d6d6" d="M 197.5,345.5 C 195.162,347.04 192.495,347.706 189.5,347.5C 191.905,346.232 194.572,345.565 197.5,345.5 Z"/></g>
<g><path style="opacity:0.018" fill="#d6d6d6" d="M 189.5,347.5 C 187.172,348.718 184.672,349.718 182,350.5C 181.601,350.272 181.435,349.938 181.5,349.5C 183.905,348.232 186.572,347.565 189.5,347.5 Z"/></g>
<g><path style="opacity:0.004" fill="#dfdfdf" d="M 56.5,348.5 C 55.8333,349.833 54.8333,350.833 53.5,351.5C 53.5,349.5 54.5,348.5 56.5,348.5 Z"/></g>
<g><path style="opacity:0.275" fill="#bdbdbd" d="M 177.5,350.5 C 178.209,349.596 179.209,349.263 180.5,349.5C 179.895,351.481 178.895,351.815 177.5,350.5 Z"/></g>
<g><path style="opacity:0.008" fill="#f7f7f7" d="M 40.5,350.5 C 40.6716,351.492 40.3382,352.158 39.5,352.5C 38.2426,351.377 38.5759,350.711 40.5,350.5 Z"/></g>
<g><path style="opacity:0.013" fill="#dfdfdf" d="M 67.5,348.5 C 68.9221,348.75 69.9221,349.583 70.5,351C 68.9733,352.032 67.64,353.199 66.5,354.5C 66.3433,353.127 66.51,351.793 67,350.5C 67.6543,351.696 68.1543,351.696 68.5,350.5C 68.1373,349.817 67.8039,349.15 67.5,348.5 Z"/></g>
<g><path style="opacity:0.784" fill="#8c8c8c" d="M 84.5,348.5 C 86.1511,350.402 86.4845,352.402 85.5,354.5C 84.8505,352.565 84.5172,350.565 84.5,348.5 Z"/></g>
<g><path style="opacity:0.067" fill="#dadada" d="M 133.5,349.5 C 133.573,351.027 132.906,352.027 131.5,352.5C 131.427,350.973 132.094,349.973 133.5,349.5 Z"/></g>
<g><path style="opacity:0.855" fill="#7a7a7a" d="M 149.5,349.5 C 147.68,351.448 145.346,352.448 142.5,352.5C 142.393,350.621 142.893,350.288 144,351.5C 145.538,350.151 147.371,349.484 149.5,349.5 Z"/></g>
<g><path style="opacity:0.043" fill="#d8d8d8" d="M 53.5,351.5 C 53.573,353.027 52.9063,354.027 51.5,354.5C 51.427,352.973 52.0937,351.973 53.5,351.5 Z"/></g>
<g><path style="opacity:0.004" fill="#dadada" d="M 175.5,351.5 C 175.389,352.117 175.056,352.617 174.5,353C 170.888,354.15 167.222,354.983 163.5,355.5C 167.233,353.589 171.233,352.256 175.5,351.5 Z"/></g>
<g><path style="opacity:0.011" fill="#ededed" d="M 39.5,353.5 C 38.8505,355.435 38.5172,357.435 38.5,359.5C 38.1667,359.5 37.8333,359.5 37.5,359.5C 35.8811,357.012 36.5478,355.012 39.5,353.5 Z"/></g>
<g><path style="opacity:0.011" fill="#e4e4e4" d="M 125.5,350.5 C 123.327,354.852 120.66,358.852 117.5,362.5C 118.943,357.669 121.609,353.669 125.5,350.5 Z"/></g>
<g><path style="opacity:0.745" fill="#8c8c8c" d="M 141.5,352.5 C 139.383,354.655 136.716,355.655 133.5,355.5C 134.5,354.833 135.5,354.167 136.5,353.5C 138.117,352.962 139.784,352.629 141.5,352.5 Z"/></g>
<g><path style="opacity:0.106" fill="#d1d1d1" d="M 131.5,352.5 C 131.5,353.5 131.5,354.5 131.5,355.5C 130.167,355.833 130.167,356.167 131.5,356.5C 130.749,357.573 129.749,357.74 128.5,357C 129.399,355.348 130.399,353.848 131.5,352.5 Z"/></g>
<g><path style="opacity:0.006" fill="#dedede" d="M 163.5,355.5 C 163.918,356.222 164.584,356.722 165.5,357C 164.216,357.684 163.049,357.517 162,356.5C 159.42,358.253 156.587,359.253 153.5,359.5C 156.37,357.206 159.703,355.872 163.5,355.5 Z"/></g>
<g><path style="opacity:0.235" fill="#bcbcbc" d="M 51.5,354.5 C 50.7117,358.247 50.3784,361.914 50.5,365.5C 49.8418,364.207 49.5085,362.707 49.5,361C 49.336,358.456 50.0027,356.29 51.5,354.5 Z"/></g>
<g><path style="opacity:0.224" fill="#d5d5d5" d="M 65.5,356.5 C 65.5,358.167 65.5,359.833 65.5,361.5C 64.6236,361.631 63.9569,361.298 63.5,360.5C 63.9943,358.974 64.661,357.641 65.5,356.5 Z"/></g>
<g><path style="opacity:0.027" fill="#dddddd" d="M 84.5,358.5 C 84.9118,360.973 83.9118,362.306 81.5,362.5C 82.5116,361.128 83.5116,359.795 84.5,358.5 Z"/></g>
<g><path style="opacity:0.01" fill="#dbdbdb" d="M 153.5,359.5 C 152.365,361.213 150.698,361.88 148.5,361.5C 149.78,360.069 151.447,359.402 153.5,359.5 Z"/></g>
<g><path style="opacity:0.595" fill="#8b8b8b" d="M 37.5,359.5 C 37.8333,359.5 38.1667,359.5 38.5,359.5C 38.5,363.167 38.5,366.833 38.5,370.5C 37.6236,370.631 36.9569,370.298 36.5,369.5C 37.4173,366.242 37.7507,362.909 37.5,359.5 Z"/></g>
<g><path style="opacity:0.71" fill="#7d7d7d" d="M 117.5,362.5 C 116.097,363.931 114.431,365.098 112.5,366C 111.207,366.49 109.873,366.657 108.5,366.5C 111.057,364.393 114.057,363.059 117.5,362.5 Z"/></g>
<g><path style="opacity:0.006" fill="#e1e1e1" d="M 143.5,363.5 C 142.365,365.213 140.698,365.88 138.5,365.5C 139.78,364.069 141.447,363.402 143.5,363.5 Z"/></g>
<g><path style="opacity:0.01" fill="#e9e9e9" d="M 66.5,363.5 C 68.1131,364.692 69.7798,365.692 71.5,366.5C 68.7287,367.773 67.062,366.773 66.5,363.5 Z"/></g>
<g><path style="opacity:0.016" fill="#e4e4e4" d="M 80.5,363.5 C 79.9517,366.084 78.285,367.084 75.5,366.5C 77.2202,365.692 78.8869,364.692 80.5,363.5 Z"/></g>
<g><path style="opacity:0.012" fill="#e6e6e6" d="M 50.5,365.5 C 52.2503,366.659 53.2503,368.326 53.5,370.5C 51.7497,369.341 50.7497,367.674 50.5,365.5 Z"/></g>
<g><path style="opacity:0.013" fill="#f2f2f2" d="M 105.5,367.5 C 105.158,368.338 104.492,368.672 103.5,368.5C 103.711,366.576 104.377,366.243 105.5,367.5 Z"/></g>
<g><path style="opacity:0.01" fill="#ececec" d="M 131.5,368.5 C 132.209,367.596 133.209,367.263 134.5,367.5C 134.631,368.239 134.464,368.906 134,369.5C 133.329,368.748 132.496,368.414 131.5,368.5 Z"/></g>
<g><path style="opacity:0.01" fill="#e0e0e0" d="M 131.5,368.5 C 130.365,370.213 128.698,370.88 126.5,370.5C 127.78,369.069 129.447,368.402 131.5,368.5 Z"/></g>
<g><path style="opacity:0.012" fill="#e8e8e8" d="M 99.5,370.5 C 97.351,371.736 95.0177,372.736 92.5,373.5C 94.0897,371.179 96.4231,370.179 99.5,370.5 Z"/></g>
<g><path style="opacity:0.067" fill="#dedede" d="M 122.5,372.5 C 122.842,371.662 123.508,371.328 124.5,371.5C 124.591,373.698 123.925,374.031 122.5,372.5 Z"/></g>
<g><path style="opacity:0.082" fill="#cccccc" d="M 38.5,370.5 C 39.404,371.209 39.7373,372.209 39.5,373.5C 38.7611,373.631 38.0944,373.464 37.5,373C 38.2524,372.329 38.5858,371.496 38.5,370.5 Z"/></g>
<g><path style="opacity:0.008" fill="#e6e6e6" d="M 57.5,374.5 C 59.1788,374.285 60.1788,374.952 60.5,376.5C 59.2905,376.068 58.2905,375.401 57.5,374.5 Z"/></g>
<g><path style="opacity:0.009" fill="#ebebeb" d="M 122.5,372.5 C 120.267,375.129 117.6,376.129 114.5,375.5C 116.936,374.129 119.603,373.129 122.5,372.5 Z"/></g>
<g><path style="opacity:0.012" fill="#fefffe" d="M 39.5,375.5 C 38.8333,376.167 38.8333,376.167 39.5,375.5 Z"/></g>
<g><path style="opacity:0.937" fill="#797979" d="M 88.5,374.5 C 87.3646,376.213 85.698,376.88 83.5,376.5C 84.7804,375.069 86.4471,374.402 88.5,374.5 Z"/></g>
<g><path style="opacity:0.224" fill="#e6e6e6" d="M 63.5,377.5 C 62.5084,377.672 61.8417,377.338 61.5,376.5C 62.3274,375.561 62.9941,375.895 63.5,377.5 Z"/></g>
<g><path style="opacity:0.22" fill="#d2d2d2" d="M 82.5,376.5 C 81.791,377.404 80.791,377.737 79.5,377.5C 80.1054,375.519 81.1054,375.185 82.5,376.5 Z"/></g>
<g><path style="opacity:0.22" fill="#cacaca" d="M 68.5,378.5 C 66.5853,378.784 64.9187,378.451 63.5,377.5C 65.4773,376.128 67.1439,376.462 68.5,378.5 Z"/></g>
<g><path style="opacity:0.01" fill="#dadada" d="M 110.5,377.5 C 108.815,379.818 106.481,380.818 103.5,380.5C 105.426,378.707 107.759,377.707 110.5,377.5 Z"/></g>
<g><path style="opacity:0.569" fill="#989898" d="M 40.5,375.5 C 42.6545,378.588 44.9879,381.588 47.5,384.5C 42.743,382.804 40.4096,379.804 40.5,375.5 Z"/></g>
<g><path style="opacity:0.106" fill="#cecece" d="M 103.5,380.5 C 101.909,381.219 100.409,382.219 99,383.5C 98.6174,382.944 98.1174,382.611 97.5,382.5C 99.1016,380.926 101.102,380.259 103.5,380.5 Z"/></g>
<g><path style="opacity:0.004" fill="#d2d2d2" d="M 94.5,383.5 C 92.8984,385.074 90.8984,385.741 88.5,385.5C 90.2143,384.262 92.2143,383.595 94.5,383.5 Z"/></g>
<g><path style="opacity:0.69" fill="#868686" d="M 47.5,384.5 C 49.4341,385.11 51.1007,386.11 52.5,387.5C 50.0672,387.727 48.4006,386.727 47.5,384.5 Z"/></g>
<g><path style="opacity:0.018" fill="#e5e5e5" d="M 85.5,386.5 C 86.209,385.596 87.209,385.263 88.5,385.5C 88.631,386.239 88.4643,386.906 88,387.5C 87.3292,386.748 86.4959,386.414 85.5,386.5 Z"/></g>
<g><path style="opacity:0.673" fill="#949494" d="M 52.5,387.5 C 59.4648,388.341 66.4648,388.674 73.5,388.5C 73.1344,389.695 72.301,390.361 71,390.5C 65.8717,389.741 60.705,389.241 55.5,389C 54.2625,388.768 53.2625,388.268 52.5,387.5 Z"/></g>
</svg>
