<?xml version="1.0" encoding="UTF-8"?>
<!DOCTYPE svg PUBLIC "-//W3C//DTD SVG 1.1//EN" "http://www.w3.org/Graphics/SVG/1.1/DTD/svg11.dtd">
<svg xmlns="http://www.w3.org/2000/svg" version="1.1" width="500px" height="500px" style="shape-rendering:geometricPrecision; text-rendering:geometricPrecision; image-rendering:optimizeQuality; fill-rule:evenodd; clip-rule:evenodd" xmlns:xlink="http://www.w3.org/1999/xlink">
<g><path style="opacity:1" fill="#d6e1e7" d="M 178.5,233.5 C 175.833,233.5 173.167,233.5 170.5,233.5C 161.699,256.8 161.366,280.3 169.5,304C 172.772,311.04 176.105,317.874 179.5,324.5C 167.337,323.293 155.337,321.126 143.5,318C 123.646,311.605 103.646,305.605 83.5,300C 81.508,299.426 80.008,298.259 79,296.5C 78.1237,289.684 78.7903,283.017 81,276.5C 86.3667,259.786 91.7,243.119 97,226.5C 107.337,223.804 117.837,221.804 128.5,220.5C 138.177,218.372 147.844,218.206 157.5,220C 155.524,222.147 154.191,224.647 153.5,227.5C 153.637,229.107 154.304,230.441 155.5,231.5C 163.296,232.137 170.963,232.804 178.5,233.5 Z"/></g>
<g><path style="opacity:1" fill="#141313" d="M 416.5,376.5 C 416.5,375.833 416.5,375.167 416.5,374.5C 413.825,372.624 414.158,371.124 417.5,370C 415.099,369.195 415.266,368.362 418,367.5C 418.333,368.167 418.667,368.833 419,369.5C 421.288,366.597 421.788,363.597 420.5,360.5C 419.704,341.202 409.871,329.868 391,326.5C 389.167,326.833 387.333,327.167 385.5,327.5C 384.487,329.527 383.487,331.527 382.5,333.5C 379.172,338.992 374.338,342.325 368,343.5C 362.639,342.304 359.472,338.971 358.5,333.5C 358.827,327.785 357.327,327.119 354,331.5C 353.751,330.376 353.251,329.376 352.5,328.5C 350.517,330.984 348.35,333.317 346,335.5C 343.361,329.177 342.527,322.677 343.5,316C 343.147,312.44 342.48,308.94 341.5,305.5C 341.667,304.5 341.833,303.5 342,302.5C 342.654,303.696 343.154,303.696 343.5,302.5C 342.315,301.147 340.981,299.98 339.5,299C 340.953,297.351 341.953,295.518 342.5,293.5C 345.728,296.069 347.728,299.402 348.5,303.5C 350.023,306.63 350.689,309.963 350.5,313.5C 350.18,316.898 350.513,320.232 351.5,323.5C 352.107,323.376 352.44,323.043 352.5,322.5C 354.89,322.315 355.89,320.982 355.5,318.5C 354.405,311.979 353.071,305.646 351.5,299.5C 350.499,288.656 346.666,278.989 340,270.5C 339.571,275.612 338.738,280.612 337.5,285.5C 336.778,285.082 336.278,284.416 336,283.5C 334.648,288.702 333.482,288.702 332.5,283.5C 331.818,284.243 331.151,284.909 330.5,285.5C 330.832,276.143 330.498,266.81 329.5,257.5C 328.583,256.873 327.583,256.539 326.5,256.5C 325.833,256.167 325.167,255.833 324.5,255.5C 323.833,254.5 323.167,253.5 322.5,252.5C 322.461,251.417 322.127,250.417 321.5,249.5C 322.025,248.808 322.692,248.308 323.5,248C 322.359,247.259 322.359,246.425 323.5,245.5C 324.7,244.708 326.033,244.708 327.5,245.5C 331.164,249.157 335.164,252.491 339.5,255.5C 341.167,257.833 343.167,259.833 345.5,261.5C 346.5,263.167 347.833,264.5 349.5,265.5C 352.229,269.954 354.729,274.62 357,279.5C 357.49,280.793 357.657,282.127 357.5,283.5C 358.162,287.466 358.495,291.466 358.5,295.5C 357.5,295.5 356.5,295.5 355.5,295.5C 357.257,305.967 358.757,305.967 360,295.5C 360.66,301.409 361.826,307.076 363.5,312.5C 364.11,313.391 364.443,314.391 364.5,315.5C 364.334,321.509 364.501,327.509 365,333.5C 365.333,333.167 365.667,332.833 366,332.5C 368.374,334.77 371.207,336.103 374.5,336.5C 375.357,333.957 376.69,331.623 378.5,329.5C 379.167,330.167 379.833,330.833 380.5,331.5C 380.833,329.833 381.167,328.167 381.5,326.5C 381.069,317.034 379.902,307.701 378,298.5C 377.617,297.944 377.117,297.611 376.5,297.5C 376.15,291.996 376.817,286.663 378.5,281.5C 380.942,281.646 381.609,280.813 380.5,279C 381.167,278.333 381.833,277.667 382.5,277C 385.997,276.088 388.997,274.422 391.5,272C 387.83,268.488 386.83,264.322 388.5,259.5C 387.655,255.122 386.655,250.788 385.5,246.5C 385.709,245.914 386.043,245.414 386.5,245C 385.309,244.302 384.309,243.469 383.5,242.5C 382.23,235.89 380.23,229.557 377.5,223.5C 375.713,216.804 373.713,210.137 371.5,203.5C 370.636,198.545 368.636,194.211 365.5,190.5C 365.47,187.148 364.137,184.482 361.5,182.5C 361.628,180.345 361.128,178.345 360,176.5C 356.054,170.221 351.721,164.221 347,158.5C 339.292,150.29 331.125,142.623 322.5,135.5C 321.089,133.086 319.089,131.419 316.5,130.5C 307.833,124.833 299.167,119.167 290.5,113.5C 289.024,109.422 286.024,107.422 281.5,107.5C 280.833,107.5 280.5,107.167 280.5,106.5C 278.434,104.801 276.1,103.468 273.5,102.5C 269.744,100.581 265.744,99.2479 261.5,98.5C 250.563,94.925 243.23,98.5916 239.5,109.5C 238.71,110.794 237.71,111.961 236.5,113C 232.796,114.381 229.463,116.214 226.5,118.5C 224.284,119.203 222.451,120.536 221,122.5C 218.224,126.397 215.724,130.397 213.5,134.5C 208.36,133.91 203.693,134.91 199.5,137.5C 198.508,137.328 197.842,137.662 197.5,138.5C 193.815,140.011 190.148,141.511 186.5,143C 182.969,145.403 179.969,148.237 177.5,151.5C 176.508,151.328 175.842,151.662 175.5,152.5C 172.491,155.002 169.491,157.502 166.5,160C 163.384,163.519 160.384,167.019 157.5,170.5C 156.5,170.833 155.833,171.5 155.5,172.5C 150.747,176.917 146.747,181.917 143.5,187.5C 140.283,190.061 138.283,193.395 137.5,197.5C 134.145,201.211 132.145,205.544 131.5,210.5C 133.833,210.5 136.167,210.5 138.5,210.5C 146.703,210.064 154.703,210.73 162.5,212.5C 163.822,212.33 164.989,212.663 166,213.5C 167.289,216.351 167.789,219.351 167.5,222.5C 167.611,223.117 167.944,223.617 168.5,224C 178.989,223.989 189.322,225.156 199.5,227.5C 200.167,227.5 200.833,227.5 201.5,227.5C 203.922,229.268 206.588,230.768 209.5,232C 212.934,232.558 216.267,233.391 219.5,234.5C 228.368,237.265 237.034,240.599 245.5,244.5C 251.316,247.882 257.316,250.882 263.5,253.5C 267.5,255.5 271.5,257.5 275.5,259.5C 277.849,261.341 280.515,262.674 283.5,263.5C 285.849,265.341 288.515,266.674 291.5,267.5C 292.492,267.328 293.158,267.662 293.5,268.5C 303.041,273.561 312.707,278.228 322.5,282.5C 319.291,282.589 316.125,282.256 313,281.5C 309.988,282.869 306.821,283.536 303.5,283.5C 277.281,270.787 250.948,258.287 224.5,246C 209.731,239.642 194.398,235.475 178.5,233.5C 170.963,232.804 163.296,232.137 155.5,231.5C 154.304,230.441 153.637,229.107 153.5,227.5C 154.191,224.647 155.524,222.147 157.5,220C 147.844,218.206 138.177,218.372 128.5,220.5C 128.196,219.85 127.863,219.183 127.5,218.5C 129.396,217.534 131.396,217.201 133.5,217.5C 130.624,212.824 129.957,207.824 131.5,202.5C 129.231,200.119 129.231,197.619 131.5,195C 130.448,193.284 131.114,192.284 133.5,192C 131.881,191.764 130.881,190.931 130.5,189.5C 144.461,167.367 162.128,148.867 183.5,134C 191.051,129.557 199.051,126.223 207.5,124C 213.16,115.165 220.826,108.665 230.5,104.5C 240.278,87.0745 254.278,82.5745 272.5,91C 302.768,106.927 329.934,127.094 354,151.5C 369.133,170.099 379.8,191.099 386,214.5C 389.96,227.674 393.294,241.008 396,254.5C 396.661,259.558 396.328,264.558 395,269.5C 392.439,275.725 389.439,281.725 386,287.5C 385.833,289 385.667,290.5 385.5,292C 387.077,300.136 388.41,308.303 389.5,316.5C 411.423,318.247 424.923,329.913 430,351.5C 431.927,360.162 431.927,368.829 430,377.5C 428.923,382.115 426.09,383.615 421.5,382C 419.598,380.27 417.931,378.437 416.5,376.5 Z"/></g>
<g><path style="opacity:1" fill="#d20a26" d="M 159.5,209.5 C 165.744,210.08 169.411,213.414 170.5,219.5C 173.167,219.5 175.833,219.5 178.5,219.5C 178.5,221.5 179.5,222.5 181.5,222.5C 185.329,221.931 188.663,222.598 191.5,224.5C 183.524,223.613 175.524,222.946 167.5,222.5C 167.789,219.351 167.289,216.351 166,213.5C 164.989,212.663 163.822,212.33 162.5,212.5C 161.694,211.272 160.694,210.272 159.5,209.5 Z"/></g>
<g><path style="opacity:1" fill="#2d0909" d="M 138.5,210.5 C 143.64,209.512 148.974,209.179 154.5,209.5C 156.167,209.5 157.833,209.5 159.5,209.5C 160.694,210.272 161.694,211.272 162.5,212.5C 154.703,210.73 146.703,210.064 138.5,210.5 Z"/></g>
<g><path style="opacity:1" fill="#a31124" d="M 137.5,197.5 C 136.872,201.33 135.872,204.997 134.5,208.5C 141.354,208.176 148.021,208.509 154.5,209.5C 148.974,209.179 143.64,209.512 138.5,210.5C 136.167,210.5 133.833,210.5 131.5,210.5C 132.145,205.544 134.145,201.211 137.5,197.5 Z"/></g>
<g><path style="opacity:1" fill="#971124" d="M 143.5,187.5 C 143.657,188.873 143.49,190.207 143,191.5C 141.251,193.621 139.418,195.621 137.5,197.5C 138.283,193.395 140.283,190.061 143.5,187.5 Z"/></g>
<g><path style="opacity:1" fill="#b82b2f" d="M 365.5,190.5 C 368.636,194.211 370.636,198.545 371.5,203.5C 368.733,199.626 366.733,195.293 365.5,190.5 Z"/></g>
<g><path style="opacity:1" fill="#9c1124" d="M 155.5,172.5 C 152.253,178.083 148.253,183.083 143.5,187.5C 146.747,181.917 150.747,176.917 155.5,172.5 Z"/></g>
<g><path style="opacity:1" fill="#eb2130" d="M 322.5,135.5 C 331.125,142.623 339.292,150.29 347,158.5C 351.721,164.221 356.054,170.221 360,176.5C 361.128,178.345 361.628,180.345 361.5,182.5C 359.583,181.884 358.416,180.55 358,178.5C 357.014,179.171 355.847,179.171 354.5,178.5C 350.853,171.886 346.686,165.553 342,159.5C 341.027,157.608 340.36,155.608 340,153.5C 335.174,151.341 331.674,147.841 329.5,143C 327.63,141.634 325.63,140.467 323.5,139.5C 322.571,138.311 322.238,136.978 322.5,135.5 Z"/></g>
<g><path style="opacity:1" fill="#af132a" d="M 175.5,152.5 C 170.521,159.479 164.521,165.479 157.5,170.5C 160.384,167.019 163.384,163.519 166.5,160C 169.491,157.502 172.491,155.002 175.5,152.5 Z"/></g>
<g><path style="opacity:1" fill="#f80011" d="M 255.5,98.5 C 257.5,98.5 259.5,98.5 261.5,98.5C 265.744,99.2479 269.744,100.581 273.5,102.5C 275.121,104.942 277.454,106.275 280.5,106.5C 280.5,107.167 280.833,107.5 281.5,107.5C 283.5,109.167 285.5,110.833 287.5,112.5C 285.174,111.849 282.841,111.182 280.5,110.5C 274.46,111.993 274.126,111.326 279.5,108.5C 279.167,108.167 278.833,107.833 278.5,107.5C 274.993,106.921 271.659,105.921 268.5,104.5C 264.476,105.837 260.476,106.337 256.5,106C 255.594,107.699 255.261,109.533 255.5,111.5C 253.833,111.5 252.167,111.5 250.5,111.5C 249.669,116.487 248.836,121.487 248,126.5C 247.075,127.047 246.242,127.713 245.5,128.5C 242.194,133.27 239.361,138.27 237,143.5C 235.964,146.753 235.297,150.086 235,153.5C 232.094,157.065 230.094,161.065 229,165.5C 224.559,167.942 220.726,171.108 217.5,175C 214.649,176.289 211.649,176.789 208.5,176.5C 208.326,178.861 207.993,181.194 207.5,183.5C 206.448,183.351 205.448,183.517 204.5,184C 200.72,187.996 196.387,190.829 191.5,192.5C 191.662,194.527 191.495,196.527 191,198.5C 188.503,202.694 185.67,206.528 182.5,210C 180.386,214.053 180.053,218.22 181.5,222.5C 179.5,222.5 178.5,221.5 178.5,219.5C 177.521,214.243 179.021,209.91 183,206.5C 183.57,201.688 185.904,198.022 190,195.5C 190.249,192.823 191.249,190.49 193,188.5C 197.286,185.242 200.619,181.242 203,176.5C 211.37,172.979 219.37,168.646 227,163.5C 228.887,157.578 231.221,151.912 234,146.5C 234.333,144.5 234.667,142.5 235,140.5C 238.333,135.833 241.667,131.167 245,126.5C 247.508,121.303 249.008,115.803 249.5,110C 250.513,107.976 251.846,106.143 253.5,104.5C 253.069,103.707 252.735,102.873 252.5,102C 253.544,100.826 254.544,99.6594 255.5,98.5 Z"/></g>
<g><path style="opacity:1" fill="#b5112a" d="M 197.5,138.5 C 197.631,139.376 197.298,140.043 196.5,140.5C 190.234,144.358 183.9,148.025 177.5,151.5C 179.969,148.237 182.969,145.403 186.5,143C 190.148,141.511 193.815,140.011 197.5,138.5 Z"/></g>
<g><path style="opacity:1" fill="#8d1821" d="M 213.5,134.5 C 208.9,135.334 204.234,136.334 199.5,137.5C 203.693,134.91 208.36,133.91 213.5,134.5 Z"/></g>
<g><path style="opacity:1" fill="#59040b" d="M 316.5,130.5 C 319.089,131.419 321.089,133.086 322.5,135.5C 319.911,134.581 317.911,132.914 316.5,130.5 Z"/></g>
<g><path style="opacity:1" fill="#ad132b" d="M 226.5,118.5 C 222.589,122.652 219.423,127.319 217,132.5C 215.887,133.305 214.721,133.972 213.5,134.5C 215.724,130.397 218.224,126.397 221,122.5C 222.451,120.536 224.284,119.203 226.5,118.5 Z"/></g>
<g><path style="opacity:1" fill="#e30018" d="M 255.5,98.5 C 254.544,99.6594 253.544,100.826 252.5,102C 252.735,102.873 253.069,103.707 253.5,104.5C 251.846,106.143 250.513,107.976 249.5,110C 249.008,115.803 247.508,121.303 245,126.5C 241.667,131.167 238.333,135.833 235,140.5C 234.667,142.5 234.333,144.5 234,146.5C 231.221,151.912 228.887,157.578 227,163.5C 219.37,168.646 211.37,172.979 203,176.5C 200.619,181.242 197.286,185.242 193,188.5C 191.249,190.49 190.249,192.823 190,195.5C 185.904,198.022 183.57,201.688 183,206.5C 179.021,209.91 177.521,214.243 178.5,219.5C 175.833,219.5 173.167,219.5 170.5,219.5C 169.411,213.414 165.744,210.08 159.5,209.5C 157.833,209.5 156.167,209.5 154.5,209.5C 148.021,208.509 141.354,208.176 134.5,208.5C 135.872,204.997 136.872,201.33 137.5,197.5C 139.418,195.621 141.251,193.621 143,191.5C 143.49,190.207 143.657,188.873 143.5,187.5C 148.253,183.083 152.253,178.083 155.5,172.5C 155.833,171.5 156.5,170.833 157.5,170.5C 164.521,165.479 170.521,159.479 175.5,152.5C 175.842,151.662 176.508,151.328 177.5,151.5C 183.9,148.025 190.234,144.358 196.5,140.5C 197.298,140.043 197.631,139.376 197.5,138.5C 197.842,137.662 198.508,137.328 199.5,137.5C 204.234,136.334 208.9,135.334 213.5,134.5C 214.721,133.972 215.887,133.305 217,132.5C 219.423,127.319 222.589,122.652 226.5,118.5C 229.463,116.214 232.796,114.381 236.5,113C 237.71,111.961 238.71,110.794 239.5,109.5C 240.5,109.5 241.5,109.5 242.5,109.5C 242.253,106.495 243.253,103.995 245.5,102C 248.583,100.075 251.917,98.908 255.5,98.5 Z"/></g>
<g><path style="opacity:1" fill="#400f0b" d="M 281.5,107.5 C 286.024,107.422 289.024,109.422 290.5,113.5C 289.391,113.443 288.391,113.11 287.5,112.5C 285.5,110.833 283.5,109.167 281.5,107.5 Z"/></g>
<g><path style="opacity:1" fill="#fe0007" d="M 287.5,112.5 C 288.391,113.11 289.391,113.443 290.5,113.5C 299.167,119.167 307.833,124.833 316.5,130.5C 317.911,132.914 319.911,134.581 322.5,135.5C 322.238,136.978 322.571,138.311 323.5,139.5C 325.63,140.467 327.63,141.634 329.5,143C 331.674,147.841 335.174,151.341 340,153.5C 340.36,155.608 341.027,157.608 342,159.5C 346.686,165.553 350.853,171.886 354.5,178.5C 364.731,201.357 372.898,225.023 379,249.5C 381.045,259.987 378.712,269.32 372,277.5C 370.531,280.658 369.531,283.991 369,287.5C 368.748,293.53 368.248,299.53 367.5,305.5C 369.475,311.957 370.808,318.624 371.5,325.5C 371.304,327.286 370.471,328.619 369,329.5C 368.667,328.833 368.333,328.167 368,327.5C 366.967,321.084 366.467,314.418 366.5,307.5C 365.5,307.5 364.5,307.5 363.5,307.5C 363.5,306.167 363.5,304.833 363.5,303.5C 363.739,297.816 362.739,292.482 360.5,287.5C 360.54,282.243 358.874,277.576 355.5,273.5C 357.252,269.751 356.419,266.751 353,264.5C 351.862,264.989 350.695,265.322 349.5,265.5C 347.833,264.5 346.5,263.167 345.5,261.5C 344.5,258.5 342.5,256.5 339.5,255.5C 335.164,252.491 331.164,249.157 327.5,245.5C 324.538,242.036 321.371,238.703 318,235.5C 315.875,231.587 314.042,227.587 312.5,223.5C 311.991,211.907 312.658,200.407 314.5,189C 312.732,186.39 310.732,183.89 308.5,181.5C 305.856,180.705 303.189,180.038 300.5,179.5C 300.511,177.983 301.177,176.816 302.5,176C 299.956,174.908 297.289,174.241 294.5,174C 292.886,171.873 290.886,170.373 288.5,169.5C 280.912,163.246 275.245,155.58 271.5,146.5C 270.904,141.71 268.237,139.543 263.5,140C 262.619,140.708 261.953,141.542 261.5,142.5C 260.5,142.5 259.5,142.5 258.5,142.5C 257.713,147.913 257.713,152.913 258.5,157.5C 260.781,158.185 263.114,158.351 265.5,158C 265.571,161.683 267.238,164.183 270.5,165.5C 270.833,165.5 271.167,165.5 271.5,165.5C 271.343,166.873 271.51,168.207 272,169.5C 274.663,171.334 277.163,173.334 279.5,175.5C 280.833,176.5 282.167,177.5 283.5,178.5C 284.29,179.401 285.29,180.068 286.5,180.5C 288.549,183.55 291.216,185.883 294.5,187.5C 295.388,189.809 297.054,191.476 299.5,192.5C 300.332,203.485 300.832,214.485 301,225.5C 301.377,226.942 302.21,227.942 303.5,228.5C 303.328,229.492 303.662,230.158 304.5,230.5C 305.5,232.5 306.5,234.5 307.5,236.5C 308.378,240.257 308.711,243.924 308.5,247.5C 309.167,246.833 309.833,246.167 310.5,245.5C 312.993,247.58 315.659,249.414 318.5,251C 319.113,253.147 319.779,255.314 320.5,257.5C 321.524,256.147 322.857,255.48 324.5,255.5C 324.712,257.384 325.712,258.717 327.5,259.5C 328.664,265.807 328.831,272.141 328,278.5C 326.534,280.325 324.701,280.825 322.5,280C 314.842,277.445 307.509,274.111 300.5,270C 300.833,269.667 301.167,269.333 301.5,269C 298.854,268.503 296.187,268.336 293.5,268.5C 293.158,267.662 292.492,267.328 291.5,267.5C 291.5,266.5 291.5,265.5 291.5,264.5C 288.833,264.167 286.167,263.833 283.5,263.5C 283.5,262.5 283.5,261.5 283.5,260.5C 280.833,260.167 278.167,259.833 275.5,259.5C 271.5,257.5 267.5,255.5 263.5,253.5C 262.375,251.871 261.041,250.371 259.5,249C 254.899,247.194 250.233,245.694 245.5,244.5C 241.49,241.736 237.323,239.069 233,236.5C 227.092,234.991 221.259,233.324 215.5,231.5C 211.915,229.194 207.915,227.861 203.5,227.5C 202.833,227.5 202.167,227.5 201.5,227.5C 200.833,227.5 200.167,227.5 199.5,227.5C 196.98,226.082 194.313,225.082 191.5,224.5C 188.663,222.598 185.329,221.931 181.5,222.5C 180.053,218.22 180.386,214.053 182.5,210C 185.67,206.528 188.503,202.694 191,198.5C 191.495,196.527 191.662,194.527 191.5,192.5C 196.387,190.829 200.72,187.996 204.5,184C 205.448,183.517 206.448,183.351 207.5,183.5C 207.993,181.194 208.326,178.861 208.5,176.5C 211.649,176.789 214.649,176.289 217.5,175C 220.726,171.108 224.559,167.942 229,165.5C 230.094,161.065 232.094,157.065 235,153.5C 235.297,150.086 235.964,146.753 237,143.5C 239.361,138.27 242.194,133.27 245.5,128.5C 246.242,127.713 247.075,127.047 248,126.5C 248.836,121.487 249.669,116.487 250.5,111.5C 252.167,111.5 253.833,111.5 255.5,111.5C 255.261,109.533 255.594,107.699 256.5,106C 260.476,106.337 264.476,105.837 268.5,104.5C 271.659,105.921 274.993,106.921 278.5,107.5C 278.833,107.833 279.167,108.167 279.5,108.5C 274.126,111.326 274.46,111.993 280.5,110.5C 282.841,111.182 285.174,111.849 287.5,112.5 Z"/></g>
<g><path style="opacity:1" fill="#cf0a22" d="M 300.5,179.5 C 303.189,180.038 305.856,180.705 308.5,181.5C 310.732,183.89 312.732,186.39 314.5,189C 312.658,200.407 311.991,211.907 312.5,223.5C 311.482,211.65 311.316,199.65 312,187.5C 308.147,184.765 304.314,182.099 300.5,179.5 Z"/></g>
<g><path style="opacity:1" fill="#d20f27" d="M 294.5,187.5 C 296.698,189.098 299.031,190.431 301.5,191.5C 301.333,202.172 301.5,212.839 302,223.5C 303.269,224.905 303.769,226.571 303.5,228.5C 302.21,227.942 301.377,226.942 301,225.5C 300.832,214.485 300.332,203.485 299.5,192.5C 297.054,191.476 295.388,189.809 294.5,187.5 Z"/></g>
<g><path style="opacity:1" fill="#180f0e" d="M 271.5,146.5 C 275.245,155.58 280.912,163.246 288.5,169.5C 291.619,173.957 295.619,177.291 300.5,179.5C 304.314,182.099 308.147,184.765 312,187.5C 311.316,199.65 311.482,211.65 312.5,223.5C 314.042,227.587 315.875,231.587 318,235.5C 321.371,238.703 324.538,242.036 327.5,245.5C 326.033,244.708 324.7,244.708 323.5,245.5C 322.359,246.425 322.359,247.259 323.5,248C 322.692,248.308 322.025,248.808 321.5,249.5C 322.127,250.417 322.461,251.417 322.5,252.5C 316.823,247.822 311.823,242.489 307.5,236.5C 306.5,234.5 305.5,232.5 304.5,230.5C 303.007,217.501 302.007,204.501 301.5,191.5C 299.031,190.431 296.698,189.098 294.5,187.5C 291.216,185.883 288.549,183.55 286.5,180.5C 288.736,181.389 290.736,182.722 292.5,184.5C 296.391,182.211 296.391,180.044 292.5,178C 293.833,177.333 293.833,176.667 292.5,176C 291.551,175.383 290.718,175.549 290,176.5C 289.517,175.552 289.351,174.552 289.5,173.5C 288.167,173.5 286.833,173.5 285.5,173.5C 287.484,170.139 286.484,168.472 282.5,168.5C 282.36,170.124 283.027,171.29 284.5,172C 282.956,172.29 281.623,172.956 280.5,174C 282.141,175.129 283.141,176.629 283.5,178.5C 282.167,177.5 280.833,176.5 279.5,175.5C 277.206,171.873 274.54,168.539 271.5,165.5C 271.167,165.5 270.833,165.5 270.5,165.5C 267.626,159.429 264.459,153.429 261,147.5C 260.36,145.735 260.527,144.068 261.5,142.5C 263.455,141.677 265.455,141.51 267.5,142C 269.07,143.397 270.404,144.897 271.5,146.5 Z"/></g>
<g><path style="opacity:1" fill="#0f1010" d="M 286.5,180.5 C 285.29,180.068 284.29,179.401 283.5,178.5C 283.141,176.629 282.141,175.129 280.5,174C 281.623,172.956 282.956,172.29 284.5,172C 283.027,171.29 282.36,170.124 282.5,168.5C 286.484,168.472 287.484,170.139 285.5,173.5C 286.833,173.5 288.167,173.5 289.5,173.5C 289.351,174.552 289.517,175.552 290,176.5C 290.718,175.549 291.551,175.383 292.5,176C 293.833,176.667 293.833,177.333 292.5,178C 296.391,180.044 296.391,182.211 292.5,184.5C 290.736,182.722 288.736,181.389 286.5,180.5 Z"/></g>
<g><path style="opacity:1" fill="#de071e" d="M 288.5,169.5 C 290.886,170.373 292.886,171.873 294.5,174C 297.289,174.241 299.956,174.908 302.5,176C 301.177,176.816 300.511,177.983 300.5,179.5C 295.619,177.291 291.619,173.957 288.5,169.5 Z"/></g>
<g><path style="opacity:1" fill="#b60a1b" d="M 271.5,165.5 C 274.54,168.539 277.206,171.873 279.5,175.5C 277.163,173.334 274.663,171.334 272,169.5C 271.51,168.207 271.343,166.873 271.5,165.5 Z"/></g>
<g><path style="opacity:1" fill="#e60519" d="M 261.5,142.5 C 260.527,144.068 260.36,145.735 261,147.5C 264.459,153.429 267.626,159.429 270.5,165.5C 267.238,164.183 265.571,161.683 265.5,158C 263.114,158.351 260.781,158.185 258.5,157.5C 257.713,152.913 257.713,147.913 258.5,142.5C 259.5,142.5 260.5,142.5 261.5,142.5 Z"/></g>
<g><path style="opacity:1" fill="#ad0c1d" d="M 271.5,146.5 C 270.404,144.897 269.07,143.397 267.5,142C 265.455,141.51 263.455,141.677 261.5,142.5C 261.953,141.542 262.619,140.708 263.5,140C 268.237,139.543 270.904,141.71 271.5,146.5 Z"/></g>
<g><path style="opacity:1" fill="#470305" d="M 273.5,102.5 C 276.1,103.468 278.434,104.801 280.5,106.5C 277.454,106.275 275.121,104.942 273.5,102.5 Z"/></g>
<g><path style="opacity:1" fill="#b31228" d="M 261.5,98.5 C 259.5,98.5 257.5,98.5 255.5,98.5C 251.917,98.908 248.583,100.075 245.5,102C 243.253,103.995 242.253,106.495 242.5,109.5C 241.5,109.5 240.5,109.5 239.5,109.5C 243.23,98.5916 250.563,94.925 261.5,98.5 Z"/></g>
<g><path style="opacity:1" fill="#45050c" d="M 301.5,191.5 C 302.007,204.501 303.007,217.501 304.5,230.5C 303.662,230.158 303.328,229.492 303.5,228.5C 303.769,226.571 303.269,224.905 302,223.5C 301.5,212.839 301.333,202.172 301.5,191.5 Z"/></g>
<g><path style="opacity:1" fill="#470407" d="M 167.5,222.5 C 175.524,222.946 183.524,223.613 191.5,224.5C 194.313,225.082 196.98,226.082 199.5,227.5C 189.322,225.156 178.989,223.989 168.5,224C 167.944,223.617 167.611,223.117 167.5,222.5 Z"/></g>
<g><path style="opacity:1" fill="#d10f2a" d="M 203.5,227.5 C 207.915,227.861 211.915,229.194 215.5,231.5C 211.233,230.744 207.233,229.411 203.5,227.5 Z"/></g>
<g><path style="opacity:1" fill="#420508" d="M 201.5,227.5 C 202.167,227.5 202.833,227.5 203.5,227.5C 207.233,229.411 211.233,230.744 215.5,231.5C 216.833,232.5 218.167,233.5 219.5,234.5C 216.267,233.391 212.934,232.558 209.5,232C 206.588,230.768 203.922,229.268 201.5,227.5 Z"/></g>
<g><path style="opacity:1" fill="#b12e30" d="M 377.5,223.5 C 380.23,229.557 382.23,235.89 383.5,242.5C 383.5,243.5 383.5,244.5 383.5,245.5C 382.207,244.158 381.374,242.491 381,240.5C 380.138,234.753 378.971,229.087 377.5,223.5 Z"/></g>
<g><path style="opacity:1" fill="#d30922" d="M 215.5,231.5 C 221.259,233.324 227.092,234.991 233,236.5C 237.323,239.069 241.49,241.736 245.5,244.5C 237.034,240.599 228.368,237.265 219.5,234.5C 218.167,233.5 216.833,232.5 215.5,231.5 Z"/></g>
<g><path style="opacity:1" fill="#e8f6fd" d="M 178.5,233.5 C 194.398,235.475 209.731,239.642 224.5,246C 250.948,258.287 277.281,270.787 303.5,283.5C 312.805,288.482 322.471,292.982 332.5,297C 337.576,301.318 340.409,306.818 341,313.5C 340.36,331.738 336.693,349.404 330,366.5C 325.581,374.624 318.747,377.79 309.5,376C 306.833,375.333 304.167,374.667 301.5,374C 283.186,365.177 265.186,355.844 247.5,346C 225.287,337.318 202.621,330.151 179.5,324.5C 176.105,317.874 172.772,311.04 169.5,304C 161.366,280.3 161.699,256.8 170.5,233.5C 173.167,233.5 175.833,233.5 178.5,233.5 Z"/></g>
<g><path style="opacity:1" fill="#d9051a" d="M 307.5,236.5 C 311.823,242.489 316.823,247.822 322.5,252.5C 323.167,253.5 323.833,254.5 324.5,255.5C 322.857,255.48 321.524,256.147 320.5,257.5C 319.779,255.314 319.113,253.147 318.5,251C 315.659,249.414 312.993,247.58 310.5,245.5C 309.833,246.167 309.167,246.833 308.5,247.5C 308.711,243.924 308.378,240.257 307.5,236.5 Z"/></g>
<g><path style="opacity:1" fill="#bc0821" d="M 245.5,244.5 C 250.233,245.694 254.899,247.194 259.5,249C 261.041,250.371 262.375,251.871 263.5,253.5C 257.316,250.882 251.316,247.882 245.5,244.5 Z"/></g>
<g><path style="opacity:1" fill="#a50d1f" d="M 339.5,255.5 C 342.5,256.5 344.5,258.5 345.5,261.5C 343.167,259.833 341.167,257.833 339.5,255.5 Z"/></g>
<g><path style="opacity:1" fill="#cb071e" d="M 275.5,259.5 C 278.167,259.833 280.833,260.167 283.5,260.5C 283.5,261.5 283.5,262.5 283.5,263.5C 280.515,262.674 277.849,261.341 275.5,259.5 Z"/></g>
<g><path style="opacity:1" fill="#c02f32" d="M 383.5,245.5 C 386.504,252.904 387.004,260.571 385,268.5C 384.617,269.056 384.117,269.389 383.5,269.5C 384.761,261.52 384.761,253.52 383.5,245.5 Z"/></g>
<g><path style="opacity:1" fill="#cc0621" d="M 283.5,263.5 C 286.167,263.833 288.833,264.167 291.5,264.5C 291.5,265.5 291.5,266.5 291.5,267.5C 288.515,266.674 285.849,265.341 283.5,263.5 Z"/></g>
<g><path style="opacity:1" fill="#e6061c" d="M 360.5,287.5 C 359.143,286.41 358.143,285.076 357.5,283.5C 357.657,282.127 357.49,280.793 357,279.5C 354.729,274.62 352.229,269.954 349.5,265.5C 350.695,265.322 351.862,264.989 353,264.5C 356.419,266.751 357.252,269.751 355.5,273.5C 358.874,277.576 360.54,282.243 360.5,287.5 Z"/></g>
<g><path style="opacity:1" fill="#200d0b" d="M 383.5,242.5 C 384.309,243.469 385.309,244.302 386.5,245C 386.043,245.414 385.709,245.914 385.5,246.5C 386.655,250.788 387.655,255.122 388.5,259.5C 386.83,264.322 387.83,268.488 391.5,272C 388.997,274.422 385.997,276.088 382.5,277C 381.833,277.667 381.167,278.333 380.5,279C 381.609,280.813 380.942,281.646 378.5,281.5C 376.817,286.663 376.15,291.996 376.5,297.5C 375.249,292.631 375.249,287.631 376.5,282.5C 380.064,278.909 382.398,274.575 383.5,269.5C 384.117,269.389 384.617,269.056 385,268.5C 387.004,260.571 386.504,252.904 383.5,245.5C 383.5,244.5 383.5,243.5 383.5,242.5 Z"/></g>
<g><path style="opacity:1" fill="#c90821" d="M 324.5,255.5 C 325.167,255.833 325.833,256.167 326.5,256.5C 326.811,257.478 327.478,258.145 328.5,258.5C 329.706,266.84 329.706,275.174 328.5,283.5C 326.379,283.675 324.379,283.341 322.5,282.5C 312.707,278.228 303.041,273.561 293.5,268.5C 296.187,268.336 298.854,268.503 301.5,269C 301.167,269.333 300.833,269.667 300.5,270C 307.509,274.111 314.842,277.445 322.5,280C 324.701,280.825 326.534,280.325 328,278.5C 328.831,272.141 328.664,265.807 327.5,259.5C 325.712,258.717 324.712,257.384 324.5,255.5 Z"/></g>
<g><path style="opacity:1" fill="#2d0b09" d="M 326.5,256.5 C 327.583,256.539 328.583,256.873 329.5,257.5C 330.498,266.81 330.832,276.143 330.5,285.5C 327.264,285.482 324.597,284.482 322.5,282.5C 324.379,283.341 326.379,283.675 328.5,283.5C 329.706,275.174 329.706,266.84 328.5,258.5C 327.478,258.145 326.811,257.478 326.5,256.5 Z"/></g>
<g><path style="opacity:1" fill="#f91728" d="M 354.5,178.5 C 355.847,179.171 357.014,179.171 358,178.5C 358.416,180.55 359.583,181.884 361.5,182.5C 364.137,184.482 365.47,187.148 365.5,190.5C 366.733,195.293 368.733,199.626 371.5,203.5C 373.713,210.137 375.713,216.804 377.5,223.5C 378.971,229.087 380.138,234.753 381,240.5C 381.374,242.491 382.207,244.158 383.5,245.5C 384.761,253.52 384.761,261.52 383.5,269.5C 382.398,274.575 380.064,278.909 376.5,282.5C 375.883,282.611 375.383,282.944 375,283.5C 373.917,291.836 374.751,299.836 377.5,307.5C 378.673,312.191 378.673,316.858 377.5,321.5C 376.099,324.182 374.599,326.848 373,329.5C 371.194,332.684 369.194,333.017 367,330.5C 366.162,325.357 365.328,320.357 364.5,315.5C 364.443,314.391 364.11,313.391 363.5,312.5C 363.5,310.833 363.5,309.167 363.5,307.5C 364.5,307.5 365.5,307.5 366.5,307.5C 366.467,314.418 366.967,321.084 368,327.5C 368.333,328.167 368.667,328.833 369,329.5C 370.471,328.619 371.304,327.286 371.5,325.5C 370.808,318.624 369.475,311.957 367.5,305.5C 368.248,299.53 368.748,293.53 369,287.5C 369.531,283.991 370.531,280.658 372,277.5C 378.712,269.32 381.045,259.987 379,249.5C 372.898,225.023 364.731,201.357 354.5,178.5 Z"/></g>
<g><path style="opacity:1" fill="#bb272e" d="M 376.5,282.5 C 375.249,287.631 375.249,292.631 376.5,297.5C 377.324,300.764 377.658,304.098 377.5,307.5C 374.751,299.836 373.917,291.836 375,283.5C 375.383,282.944 375.883,282.611 376.5,282.5 Z"/></g>
<g><path style="opacity:1" fill="#c81628" d="M 360.5,287.5 C 362.739,292.482 363.739,297.816 363.5,303.5C 361.899,298.401 360.899,293.067 360.5,287.5 Z"/></g>
<g><path style="opacity:1" fill="#250d0a" d="M 357.5,283.5 C 358.143,285.076 359.143,286.41 360.5,287.5C 360.899,293.067 361.899,298.401 363.5,303.5C 363.5,304.833 363.5,306.167 363.5,307.5C 363.5,309.167 363.5,310.833 363.5,312.5C 361.826,307.076 360.66,301.409 360,295.5C 358.757,305.967 357.257,305.967 355.5,295.5C 356.5,295.5 357.5,295.5 358.5,295.5C 358.495,291.466 358.162,287.466 357.5,283.5 Z"/></g>
<g><path style="opacity:0.949" fill="#edeeee" d="M 351.5,299.5 C 353.071,305.646 354.405,311.979 355.5,318.5C 355.89,320.982 354.89,322.315 352.5,322.5C 351.833,319.5 351.167,316.5 350.5,313.5C 350.689,309.963 350.023,306.63 348.5,303.5C 349.5,302.167 350.5,300.833 351.5,299.5 Z"/></g>
<g><path style="opacity:1" fill="#a6252d" d="M 377.5,307.5 C 379.439,311.531 379.939,315.864 379,320.5C 378.617,321.056 378.117,321.389 377.5,321.5C 378.673,316.858 378.673,312.191 377.5,307.5 Z"/></g>
<g><path style="opacity:1" fill="#787779" d="M 350.5,313.5 C 351.167,316.5 351.833,319.5 352.5,322.5C 352.44,323.043 352.107,323.376 351.5,323.5C 350.513,320.232 350.18,316.898 350.5,313.5 Z"/></g>
<g><path style="opacity:1" fill="#210e0d" d="M 376.5,297.5 C 377.117,297.611 377.617,297.944 378,298.5C 379.902,307.701 381.069,317.034 381.5,326.5C 381.167,328.167 380.833,329.833 380.5,331.5C 379.833,330.833 379.167,330.167 378.5,329.5C 376.69,331.623 375.357,333.957 374.5,336.5C 371.207,336.103 368.374,334.77 366,332.5C 365.667,332.833 365.333,333.167 365,333.5C 364.501,327.509 364.334,321.509 364.5,315.5C 365.328,320.357 366.162,325.357 367,330.5C 369.194,333.017 371.194,332.684 373,329.5C 374.599,326.848 376.099,324.182 377.5,321.5C 378.117,321.389 378.617,321.056 379,320.5C 379.939,315.864 379.439,311.531 377.5,307.5C 377.658,304.098 377.324,300.764 376.5,297.5 Z"/></g>
<g><path style="opacity:1" fill="#fafbfb" d="M 420.5,360.5 C 420.657,361.873 420.49,363.207 420,364.5C 416.808,361.32 412.974,359.32 408.5,358.5C 406.617,358.876 405.117,359.876 404,361.5C 405.939,372.421 404.272,382.754 399,392.5C 396.371,394.888 393.538,396.888 390.5,398.5C 388.288,397.128 386.288,396.128 384.5,395.5C 385.313,394.186 386.313,393.019 387.5,392C 386.398,389.599 386.231,387.099 387,384.5C 387.333,385.167 387.667,385.833 388,386.5C 388.395,372.472 387.895,358.472 386.5,344.5C 388.854,344.162 391.187,343.662 393.5,343C 392.141,341.796 391.141,340.296 390.5,338.5C 388.167,337.833 385.833,337.167 383.5,336.5C 382.614,335.675 382.281,334.675 382.5,333.5C 383.487,331.527 384.487,329.527 385.5,327.5C 387.333,327.167 389.167,326.833 391,326.5C 409.871,329.868 419.704,341.202 420.5,360.5 Z"/></g>
<g><path style="opacity:0.995" fill="#141616" d="M 130.5,189.5 C 130.881,190.931 131.881,191.764 133.5,192C 131.114,192.284 130.448,193.284 131.5,195C 129.231,197.619 129.231,200.119 131.5,202.5C 129.957,207.824 130.624,212.824 133.5,217.5C 131.396,217.201 129.396,217.534 127.5,218.5C 127.863,219.183 128.196,219.85 128.5,220.5C 117.837,221.804 107.337,223.804 97,226.5C 91.7,243.119 86.3667,259.786 81,276.5C 78.7903,283.017 78.1237,289.684 79,296.5C 80.008,298.259 81.508,299.426 83.5,300C 103.646,305.605 123.646,311.605 143.5,318C 155.337,321.126 167.337,323.293 179.5,324.5C 202.621,330.151 225.287,337.318 247.5,346C 265.186,355.844 283.186,365.177 301.5,374C 304.167,374.667 306.833,375.333 309.5,376C 318.747,377.79 325.581,374.624 330,366.5C 336.693,349.404 340.36,331.738 341,313.5C 340.409,306.818 337.576,301.318 332.5,297C 322.471,292.982 312.805,288.482 303.5,283.5C 306.821,283.536 309.988,282.869 313,281.5C 316.125,282.256 319.291,282.589 322.5,282.5C 324.597,284.482 327.264,285.482 330.5,285.5C 331.151,284.909 331.818,284.243 332.5,283.5C 333.482,288.702 334.648,288.702 336,283.5C 336.278,284.416 336.778,285.082 337.5,285.5C 337.351,286.552 337.517,287.552 338,288.5C 340.2,289.651 341.7,291.318 342.5,293.5C 341.953,295.518 340.953,297.351 339.5,299C 340.981,299.98 342.315,301.147 343.5,302.5C 343.154,303.696 342.654,303.696 342,302.5C 341.833,303.5 341.667,304.5 341.5,305.5C 342.48,308.94 343.147,312.44 343.5,316C 342.527,322.677 343.361,329.177 346,335.5C 348.35,333.317 350.517,330.984 352.5,328.5C 353.251,329.376 353.751,330.376 354,331.5C 357.327,327.119 358.827,327.785 358.5,333.5C 357.849,332.909 357.182,332.243 356.5,331.5C 353.864,332.971 351.364,334.637 349,336.5C 346.536,346.224 343.87,355.891 341,365.5C 338.326,383.655 345.826,395.155 363.5,400C 372.801,402.355 381.801,401.855 390.5,398.5C 393.538,396.888 396.371,394.888 399,392.5C 404.272,382.754 405.939,372.421 404,361.5C 405.117,359.876 406.617,358.876 408.5,358.5C 412.974,359.32 416.808,361.32 420,364.5C 420.49,363.207 420.657,361.873 420.5,360.5C 421.788,363.597 421.288,366.597 419,369.5C 418.667,368.833 418.333,368.167 418,367.5C 415.266,368.362 415.099,369.195 417.5,370C 414.158,371.124 413.825,372.624 416.5,374.5C 414.952,374.821 414.285,375.821 414.5,377.5C 411.45,399.71 398.616,411.376 376,412.5C 358.97,411.82 345.303,404.82 335,391.5C 333.107,388.382 331.774,385.049 331,381.5C 322.046,386.654 312.546,387.821 302.5,385C 283.792,376.479 265.459,367.146 247.5,357C 230.594,349.809 213.261,343.809 195.5,339C 174.121,334.548 152.788,329.881 131.5,325C 112.428,319.198 93.4279,313.198 74.5,307C 67.9582,299.966 66.1249,291.799 69,282.5C 75.2763,261.672 81.943,241.005 89,220.5C 90.214,218.951 91.714,217.785 93.5,217C 101.804,214.973 110.137,213.139 118.5,211.5C 122.002,203.825 126.002,196.492 130.5,189.5 Z"/></g>
<g><path style="opacity:1" fill="#e7f5fb" d="M 358.5,333.5 C 359.472,338.971 362.639,342.304 368,343.5C 374.338,342.325 379.172,338.992 382.5,333.5C 382.281,334.675 382.614,335.675 383.5,336.5C 385.833,337.167 388.167,337.833 390.5,338.5C 391.141,340.296 392.141,341.796 393.5,343C 391.187,343.662 388.854,344.162 386.5,344.5C 387.895,358.472 388.395,372.472 388,386.5C 387.667,385.833 387.333,385.167 387,384.5C 386.231,387.099 386.398,389.599 387.5,392C 386.313,393.019 385.313,394.186 384.5,395.5C 386.288,396.128 388.288,397.128 390.5,398.5C 381.801,401.855 372.801,402.355 363.5,400C 345.826,395.155 338.326,383.655 341,365.5C 343.87,355.891 346.536,346.224 349,336.5C 351.364,334.637 353.864,332.971 356.5,331.5C 357.182,332.243 357.849,332.909 358.5,333.5 Z"/></g>
<g><path style="opacity:0.125" fill="#d9d9d9" d="M 416.5,374.5 C 416.5,375.167 416.5,375.833 416.5,376.5C 415.833,376.833 415.167,377.167 414.5,377.5C 414.285,375.821 414.952,374.821 416.5,374.5 Z"/></g>
</svg>
