<?xml version="1.0" encoding="UTF-8"?>
<!DOCTYPE svg PUBLIC "-//W3C//DTD SVG 1.1//EN" "http://www.w3.org/Graphics/SVG/1.1/DTD/svg11.dtd">
<svg xmlns="http://www.w3.org/2000/svg" version="1.1" width="128px" height="128px" style="shape-rendering:geometricPrecision; text-rendering:geometricPrecision; image-rendering:optimizeQuality; fill-rule:evenodd; clip-rule:evenodd" xmlns:xlink="http://www.w3.org/1999/xlink">
<g><path style="opacity:1" fill="#6f5758" d="M 52.5,-0.5 C 54.1667,-0.5 55.8333,-0.5 57.5,-0.5C 77.9248,9.75425 84.2581,25.7543 76.5,47.5C 76.8269,37.985 76.4936,28.6517 75.5,19.5C 74.9744,17.7697 73.9744,16.4363 72.5,15.5C 70.5144,11.5143 67.5144,8.51434 63.5,6.5C 62.1007,5.11028 60.4341,4.11028 58.5,3.5C 57.1805,2.05817 55.5138,1.39151 53.5,1.5C 51.5853,1.78448 49.9187,1.45115 48.5,0.5C 50.099,0.767809 51.4324,0.434475 52.5,-0.5 Z"/></g>
<g><path style="opacity:1" fill="#560911" d="M 47.5,0.5 C 47.8333,0.5 48.1667,0.5 48.5,0.5C 49.9187,1.45115 51.5853,1.78448 53.5,1.5C 52.1667,3.16667 50.8333,4.83333 49.5,6.5C 45.922,9.31098 43.5886,12.9777 42.5,17.5C 41.2433,22.7029 41.2433,28.0362 42.5,33.5C 40.9016,31.1433 39.9016,28.4766 39.5,25.5C 39.3359,22.8127 39.5026,20.146 40,17.5C 42.0771,12.7585 44.5771,8.25849 47.5,4C 47.1639,2.97008 46.4972,2.47008 45.5,2.5C 45.5,1.16667 46.1667,0.5 47.5,0.5 Z"/></g>
<g><path style="opacity:1" fill="#d20012" d="M 63.5,6.5 C 67.5144,8.51434 70.5144,11.5143 72.5,15.5C 68.2828,13.6613 65.2828,10.6613 63.5,6.5 Z"/></g>
<g><path style="opacity:1" fill="#e41c03" d="M 49.5,6.5 C 53.0237,10.8806 55.5237,15.8806 57,21.5C 59.069,30.3852 60.2356,39.3852 60.5,48.5C 59.8333,48.5 59.1667,48.5 58.5,48.5C 58.8236,34.2961 55.8236,20.9628 49.5,8.5C 47.1713,9.7708 46.0047,11.7708 46,14.5C 45.2411,16.0629 44.0744,17.0629 42.5,17.5C 43.5886,12.9777 45.922,9.31098 49.5,6.5 Z"/></g>
<g><path style="opacity:1" fill="#fda103" d="M 53.5,1.5 C 55.5138,1.39151 57.1805,2.05817 58.5,3.5C 62.2575,12.5244 65.0908,21.8578 67,31.5C 67.4994,36.8229 67.666,42.1563 67.5,47.5C 67.5,47.8333 67.5,48.1667 67.5,48.5C 65.1667,48.5 62.8333,48.5 60.5,48.5C 60.2356,39.3852 59.069,30.3852 57,21.5C 55.5237,15.8806 53.0237,10.8806 49.5,6.5C 50.8333,4.83333 52.1667,3.16667 53.5,1.5 Z"/></g>
<g><path style="opacity:1" fill="#f60000" d="M 58.5,48.5 C 55.1401,48.6159 51.8067,48.9492 48.5,49.5C 47.6739,44.8556 46.8405,40.1889 46,35.5C 42.7827,30.0364 41.6161,24.0364 42.5,17.5C 44.0744,17.0629 45.2411,16.0629 46,14.5C 46.0047,11.7708 47.1713,9.7708 49.5,8.5C 55.8236,20.9628 58.8236,34.2961 58.5,48.5 Z"/></g>
<g><path style="opacity:1" fill="#4c3d43" d="M 44.5,-0.5 C 45.5,-0.5 46.5,-0.5 47.5,-0.5C 47.5,-0.166667 47.5,0.166667 47.5,0.5C 46.1667,0.5 45.5,1.16667 45.5,2.5C 38.7284,10.1613 36.0618,19.1613 37.5,29.5C 37.5,30.1667 37.5,30.8333 37.5,31.5C 34.8887,24.6037 35.0554,17.6037 38,10.5C 40.1896,6.77811 42.3563,3.11144 44.5,-0.5 Z"/></g>
<g><path style="opacity:1" fill="#be0513" d="M 72.5,15.5 C 73.9744,16.4363 74.9744,17.7697 75.5,19.5C 75.6665,29.1724 75.4998,38.8391 75,48.5C 73.3005,49.4061 71.4672,49.7394 69.5,49.5C 69.1583,48.6618 68.4916,48.3284 67.5,48.5C 67.5,48.1667 67.5,47.8333 67.5,47.5C 69.8333,47.5 72.1667,47.5 74.5,47.5C 74.967,36.7107 74.3003,26.044 72.5,15.5 Z"/></g>
<g><path style="opacity:1" fill="#76191d" d="M 45.5,2.5 C 46.4972,2.47008 47.1639,2.97008 47.5,4C 44.5771,8.25849 42.0771,12.7585 40,17.5C 39.5026,20.146 39.3359,22.8127 39.5,25.5C 39.8432,27.4832 39.1765,28.8166 37.5,29.5C 36.0618,19.1613 38.7284,10.1613 45.5,2.5 Z"/></g>
<g><path style="opacity:1" fill="#f20300" d="M 58.5,3.5 C 60.4341,4.11028 62.1007,5.11028 63.5,6.5C 65.2828,10.6613 68.2828,13.6613 72.5,15.5C 74.3003,26.044 74.967,36.7107 74.5,47.5C 72.1667,47.5 69.8333,47.5 67.5,47.5C 67.666,42.1563 67.4994,36.8229 67,31.5C 65.0908,21.8578 62.2575,12.5244 58.5,3.5 Z"/></g>
<g><path style="opacity:1" fill="#422b33" d="M 39.5,25.5 C 39.9016,28.4766 40.9016,31.1433 42.5,33.5C 44.918,39.2371 46.5846,45.2371 47.5,51.5C 49.1667,51.5 50.8333,51.5 52.5,51.5C 52.8333,51.5 53.1667,51.5 53.5,51.5C 51.7095,52.3913 49.8761,53.3913 48,54.5C 47.7216,53.5842 47.2216,52.9175 46.5,52.5C 43.778,45.3884 40.778,38.3884 37.5,31.5C 37.5,30.8333 37.5,30.1667 37.5,29.5C 39.1765,28.8166 39.8432,27.4832 39.5,25.5 Z"/></g>
<g><path style="opacity:1" fill="#ca000d" d="M 42.5,17.5 C 41.6161,24.0364 42.7827,30.0364 46,35.5C 46.8405,40.1889 47.6739,44.8556 48.5,49.5C 51.8067,48.9492 55.1401,48.6159 58.5,48.5C 56.2488,49.0149 54.2488,50.0149 52.5,51.5C 50.8333,51.5 49.1667,51.5 47.5,51.5C 46.5846,45.2371 44.918,39.2371 42.5,33.5C 41.2433,28.0362 41.2433,22.7029 42.5,17.5 Z"/></g>
<g><path style="opacity:1" fill="#45140a" d="M 58.5,48.5 C 59.1667,48.5 59.8333,48.5 60.5,48.5C 62.8333,48.5 65.1667,48.5 67.5,48.5C 68.4916,48.3284 69.1583,48.6618 69.5,49.5C 66.9407,49.1984 64.6074,49.5318 62.5,50.5C 59.4552,50.5079 56.4552,50.8413 53.5,51.5C 53.1667,51.5 52.8333,51.5 52.5,51.5C 54.2488,50.0149 56.2488,49.0149 58.5,48.5 Z"/></g>
<g><path style="opacity:1" fill="#451f20" d="M 75.5,19.5 C 76.4936,28.6517 76.8269,37.985 76.5,47.5C 76.5,48.8333 76.5,50.1667 76.5,51.5C 71.8969,50.6167 67.2303,50.2834 62.5,50.5C 64.6074,49.5318 66.9407,49.1984 69.5,49.5C 71.4672,49.7394 73.3005,49.4061 75,48.5C 75.4998,38.8391 75.6665,29.1724 75.5,19.5 Z"/></g>
<g><path style="opacity:1" fill="#e8e5e3" d="M 62.5,50.5 C 67.2303,50.2834 71.8969,50.6167 76.5,51.5C 79.2406,54.6836 81.2406,58.3502 82.5,62.5C 81.0335,59.7417 80.3668,60.075 80.5,63.5C 76.8259,61.9509 76.1593,62.4509 78.5,65C 78.4301,65.7648 78.0967,66.2648 77.5,66.5C 76.3065,66.9704 75.6399,67.9704 75.5,69.5C 76.6565,71.7712 77.1565,74.1046 77,76.5C 75.3916,79.8261 73.5582,83.4928 71.5,87.5C 70.6099,85.1739 70.4433,82.8406 71,80.5C 69.6439,79.6198 68.1439,79.2865 66.5,79.5C 64.139,79.6741 61.8056,80.0074 59.5,80.5C 59.5,79.5 59.5,78.5 59.5,77.5C 64.91,79.6331 69.2433,78.2997 72.5,73.5C 72.3333,73.1667 72.1667,72.8333 72,72.5C 68.2101,76.4966 63.7101,77.4966 58.5,75.5C 54.0702,75.5697 51.7369,73.403 51.5,69C 50.5632,68.3083 49.8966,68.475 49.5,69.5C 50.0431,69.56 50.3764,69.8933 50.5,70.5C 48.2113,72.816 46.5446,72.6494 45.5,70C 44.0715,69.4209 42.7382,69.5876 41.5,70.5C 41.3433,69.1266 41.51,67.7932 42,66.5C 44.0084,65.2364 45.1751,63.4031 45.5,61C 45.1639,59.9701 44.4972,59.4701 43.5,59.5C 46.0907,58.0087 47.0907,55.6753 46.5,52.5C 47.2216,52.9175 47.7216,53.5842 48,54.5C 49.8761,53.3913 51.7095,52.3913 53.5,51.5C 56.4552,50.8413 59.4552,50.5079 62.5,50.5 Z"/></g>
<g><path style="opacity:1" fill="#f5ccb8" d="M 67.5,71.5 C 66.9782,68.4318 66.1449,65.4318 65,62.5C 64.4626,65.1872 64.9626,67.6872 66.5,70C 65.0953,71.2692 63.4286,71.7692 61.5,71.5C 59.4004,71.4772 57.5671,72.1439 56,73.5C 55.228,73.3552 54.5613,73.0219 54,72.5C 53.2286,69.6536 52.3953,66.8202 51.5,64C 51.6667,62.8333 51.8333,61.6667 52,60.5C 57.309,55.0981 63.809,53.0981 71.5,54.5C 71.5,56.1667 71.5,57.8333 71.5,59.5C 72.8333,59.5 74.1667,59.5 75.5,59.5C 75.196,62.5219 74.696,65.5219 74,68.5C 72.9805,69.6872 71.8139,70.6872 70.5,71.5C 69.4728,70.2086 68.4728,70.2086 67.5,71.5 Z"/></g>
<g><path style="opacity:1" fill="#3e3127" d="M 69.5,61.5 C 71.4646,61.9483 71.7979,62.9483 70.5,64.5C 69.6143,63.675 69.281,62.675 69.5,61.5 Z"/></g>
<g><path style="opacity:0.678" fill="#98a0a1" d="M 43.5,61.5 C 43.7148,63.1788 43.0481,64.1788 41.5,64.5C 41.9321,63.2905 42.5987,62.2905 43.5,61.5 Z"/></g>
<g><path style="opacity:1" fill="#432f1f" d="M 56.5,62.5 C 58.4646,62.9483 58.7979,63.9483 57.5,65.5C 56.6143,64.675 56.281,63.675 56.5,62.5 Z"/></g>
<g><path style="opacity:1" fill="#242a2a" d="M 49.5,63.5 C 47.7706,64.2362 46.7706,65.5695 46.5,67.5C 44.9652,64.6702 45.9652,63.3369 49.5,63.5 Z"/></g>
<g><path style="opacity:1" fill="#85817a" d="M 49.5,63.5 C 50.0431,63.56 50.3764,63.8933 50.5,64.5C 47.2498,65.9142 46.9165,67.5809 49.5,69.5C 47.6682,70.7181 46.6682,70.0514 46.5,67.5C 46.7706,65.5695 47.7706,64.2362 49.5,63.5 Z"/></g>
<g><path style="opacity:1" fill="#3f2b20" d="M 67.5,71.5 C 65.3888,72.7416 63.3888,72.7416 61.5,71.5C 63.4286,71.7692 65.0953,71.2692 66.5,70C 64.9626,67.6872 64.4626,65.1872 65,62.5C 66.1449,65.4318 66.9782,68.4318 67.5,71.5 Z"/></g>
<g><path style="opacity:1" fill="#494546" d="M 80.5,63.5 C 80.6168,65.4835 79.9501,67.1502 78.5,68.5C 77.7025,68.0431 77.3691,67.3764 77.5,66.5C 78.0967,66.2648 78.4301,65.7648 78.5,65C 76.1593,62.4509 76.8259,61.9509 80.5,63.5 Z"/></g>
<g><path style="opacity:1" fill="#4c413e" d="M 59.5,77.5 C 58.6618,77.1583 58.3284,76.4916 58.5,75.5C 63.7101,77.4966 68.2101,76.4966 72,72.5C 72.1667,72.8333 72.3333,73.1667 72.5,73.5C 69.2433,78.2997 64.91,79.6331 59.5,77.5 Z"/></g>
<g><path style="opacity:1" fill="#e8eae9" d="M 49.5,69.5 C 49.8966,68.475 50.5632,68.3083 51.5,69C 51.7369,73.403 54.0702,75.5697 58.5,75.5C 58.3284,76.4916 58.6618,77.1583 59.5,77.5C 59.5,78.5 59.5,79.5 59.5,80.5C 61.8056,80.0074 64.139,79.6741 66.5,79.5C 65.7369,82.1411 65.5702,84.8078 66,87.5C 67.3848,86.4495 68.3848,85.1161 69,83.5C 69.2178,86.4262 69.7178,89.2595 70.5,92C 69.6383,94.7344 68.805,94.9011 68,92.5C 63.4118,95.561 62.2451,94.3943 64.5,89C 64.604,86.8546 63.9373,85.0212 62.5,83.5C 61.5067,88.1196 61.1734,92.7863 61.5,97.5C 58.6146,97.1936 55.9479,97.5269 53.5,98.5C 53.1667,98.5 52.8333,98.5 52.5,98.5C 52.0962,97.2436 51.4295,96.0769 50.5,95C 51.0025,90.168 51.5025,85.3347 52,80.5C 51.6667,79.8333 51.3333,79.1667 51,78.5C 50.4695,82.0086 49.4695,85.342 48,88.5C 46.486,86.2344 44.3193,85.0677 41.5,85C 40.6479,82.7939 39.6479,80.6272 38.5,78.5C 39.7516,75.8481 40.7516,73.1815 41.5,70.5C 42.7382,69.5876 44.0715,69.4209 45.5,70C 46.5446,72.6494 48.2113,72.816 50.5,70.5C 50.3764,69.8933 50.0431,69.56 49.5,69.5 Z"/></g>
<g><path style="opacity:1" fill="#3c3a3d" d="M 43.5,59.5 C 44.4972,59.4701 45.1639,59.9701 45.5,61C 45.1751,63.4031 44.0084,65.2364 42,66.5C 41.51,67.7932 41.3433,69.1266 41.5,70.5C 40.7516,73.1815 39.7516,75.8481 38.5,78.5C 39.6479,80.6272 40.6479,82.7939 41.5,85C 44.3193,85.0677 46.486,86.2344 48,88.5C 49.4695,85.342 50.4695,82.0086 51,78.5C 51.3333,79.1667 51.6667,79.8333 52,80.5C 51.5025,85.3347 51.0025,90.168 50.5,95C 51.4295,96.0769 52.0962,97.2436 52.5,98.5C 52.5,99.1667 52.5,99.8333 52.5,100.5C 52.1667,100.5 51.8333,100.5 51.5,100.5C 51.573,98.9731 50.9063,97.9731 49.5,97.5C 50.1717,94.0581 49.1717,91.3914 46.5,89.5C 46.1667,88.5 45.5,87.8333 44.5,87.5C 39.3504,86.9442 36.6837,83.9442 36.5,78.5C 37.5689,73.5197 39.2356,68.8531 41.5,64.5C 43.0481,64.1788 43.7148,63.1788 43.5,61.5C 43.5,60.8333 43.5,60.1667 43.5,59.5 Z"/></g>
<g><path style="opacity:1" fill="#e9e8ea" d="M 80.5,63.5 C 83.8134,66.6251 85.6467,70.6251 86,75.5C 87.2362,76.3992 88.0696,77.5659 88.5,79C 87.3114,80.8948 86.3114,82.8948 85.5,85C 84.2068,85.49 82.8734,85.6567 81.5,85.5C 81.313,83.4357 80.813,81.4357 80,79.5C 79.6258,80.4162 79.1258,81.2496 78.5,82C 79.0126,84.7181 79.0126,87.5515 78.5,90.5C 78.1667,92.5 77.8333,94.5 77.5,96.5C 76.5093,102.979 76.176,109.646 76.5,116.5C 75.5,116.5 74.5,116.5 73.5,116.5C 74.388,113.946 74.7214,111.279 74.5,108.5C 74.8076,106.076 74.4742,103.743 73.5,101.5C 72.7025,101.957 72.3691,102.624 72.5,103.5C 69.8333,103.5 67.1667,103.5 64.5,103.5C 61.1825,101.274 57.5158,99.6069 53.5,98.5C 55.9479,97.5269 58.6146,97.1936 61.5,97.5C 61.1734,92.7863 61.5067,88.1196 62.5,83.5C 63.9373,85.0212 64.604,86.8546 64.5,89C 62.2451,94.3943 63.4118,95.561 68,92.5C 68.805,94.9011 69.6383,94.7344 70.5,92C 69.7178,89.2595 69.2178,86.4262 69,83.5C 68.3848,85.1161 67.3848,86.4495 66,87.5C 65.5702,84.8078 65.7369,82.1411 66.5,79.5C 68.1439,79.2865 69.6439,79.6198 71,80.5C 70.4433,82.8406 70.6099,85.1739 71.5,87.5C 73.5582,83.4928 75.3916,79.8261 77,76.5C 77.1565,74.1046 76.6565,71.7712 75.5,69.5C 75.6399,67.9704 76.3065,66.9704 77.5,66.5C 77.3691,67.3764 77.7025,68.0431 78.5,68.5C 79.9501,67.1502 80.6168,65.4835 80.5,63.5 Z"/></g>
<g><path style="opacity:1" fill="#444a4c" d="M 82.5,62.5 C 86.0504,65.6896 87.7171,69.523 87.5,74C 89.1243,75.1171 90.1243,76.6171 90.5,78.5C 89.5031,81.1617 88.5031,83.8284 87.5,86.5C 87.0431,87.2975 86.3764,87.6309 85.5,87.5C 83.6203,87.2291 82.287,87.8958 81.5,89.5C 80.391,89.5569 79.391,89.8902 78.5,90.5C 79.0126,87.5515 79.0126,84.7181 78.5,82C 79.1258,81.2496 79.6258,80.4162 80,79.5C 80.813,81.4357 81.313,83.4357 81.5,85.5C 82.8734,85.6567 84.2068,85.49 85.5,85C 86.3114,82.8948 87.3114,80.8948 88.5,79C 88.0696,77.5659 87.2362,76.3992 86,75.5C 85.6467,70.6251 83.8134,66.6251 80.5,63.5C 80.3668,60.075 81.0335,59.7417 82.5,62.5 Z"/></g>
<g><path style="opacity:0.984" fill="#d26770" d="M 44.5,87.5 C 45.5,87.8333 46.1667,88.5 46.5,89.5C 44.1667,89.5 41.8333,89.5 39.5,89.5C 41.1667,88.8333 42.8333,88.1667 44.5,87.5 Z"/></g>
<g><path style="opacity:1" fill="#dd686a" d="M 85.5,87.5 C 85.8333,88.1667 86.1667,88.8333 86.5,89.5C 84.8333,89.5 83.1667,89.5 81.5,89.5C 82.287,87.8958 83.6203,87.2291 85.5,87.5 Z"/></g>
<g><path style="opacity:0.996" fill="#604d52" d="M 36.5,90.5 C 35.4154,92.5869 33.7488,93.9202 31.5,94.5C 32.5846,92.4131 34.2512,91.0798 36.5,90.5 Z"/></g>
<g><path style="opacity:1" fill="#f40000" d="M 41.5,90.5 C 43.1992,90.3398 44.8659,90.5065 46.5,91C 46.8592,93.6305 47.8592,95.7971 49.5,97.5C 49.756,99.9124 48.756,101.579 46.5,102.5C 47.1054,104.481 48.1054,104.815 49.5,103.5C 50.657,106.784 50.8236,110.118 50,113.5C 49.3333,112.167 48.3333,111.167 47,110.5C 42.9178,111.956 38.7512,113.289 34.5,114.5C 33.8333,113.5 33.1667,112.5 32.5,111.5C 32.4431,110.391 32.1098,109.391 31.5,108.5C 31.3225,107.305 30.9891,106.138 30.5,105C 34.2931,100.701 38.2931,96.7013 42.5,93C 41.7476,92.3292 41.4142,91.4959 41.5,90.5 Z"/></g>
<g><path style="opacity:1" fill="#b3011a" d="M 39.5,89.5 C 41.8333,89.5 44.1667,89.5 46.5,89.5C 49.1717,91.3914 50.1717,94.0581 49.5,97.5C 47.8592,95.7971 46.8592,93.6305 46.5,91C 44.8659,90.5065 43.1992,90.3398 41.5,90.5C 40.078,91.925 38.4113,92.925 36.5,93.5C 37.5,92.1667 38.5,90.8333 39.5,89.5 Z"/></g>
<g><path style="opacity:1" fill="#f30001" d="M 81.5,89.5 C 83.1667,89.5 84.8333,89.5 86.5,89.5C 91.4601,92.7923 95.7934,96.7923 99.5,101.5C 99.5569,102.609 99.8902,103.609 100.5,104.5C 99.0473,106.229 97.0473,107.229 94.5,107.5C 93.6143,108.325 93.281,109.325 93.5,110.5C 91.0072,110.671 89.1739,109.671 88,107.5C 86.6485,109.594 86.1485,111.927 86.5,114.5C 83.8806,114.768 81.3806,114.435 79,113.5C 78.8333,110.333 78.6667,107.167 78.5,104C 78.5393,98.8701 79.5393,94.0368 81.5,89.5 Z"/></g>
<g><path style="opacity:0.733" fill="#918b8a" d="M 31.5,94.5 C 30.1667,96.5 28.5,98.1667 26.5,99.5C 27.1667,96.8333 28.8333,95.1667 31.5,94.5 Z"/></g>
<g><path style="opacity:1" fill="#551019" d="M 39.5,89.5 C 38.5,90.8333 37.5,92.1667 36.5,93.5C 32.5428,96.1218 28.8761,99.1218 25.5,102.5C 25.5,101.833 25.5,101.167 25.5,100.5C 25.5,99.8333 25.8333,99.5 26.5,99.5C 28.5,98.1667 30.1667,96.5 31.5,94.5C 33.7488,93.9202 35.4154,92.5869 36.5,90.5C 37.209,89.596 38.209,89.2627 39.5,89.5 Z"/></g>
<g><path style="opacity:0.996" fill="#572e32" d="M 86.5,89.5 C 87.8734,89.3433 89.2068,89.51 90.5,90C 97.3266,94.5007 102.66,100.334 106.5,107.5C 106.5,108.5 106.5,109.5 106.5,110.5C 102.958,110.187 99.6248,110.521 96.5,111.5C 96.1667,111.5 95.8333,111.5 95.5,111.5C 95.5,110.833 95.5,110.167 95.5,109.5C 98.5,109.5 101.5,109.5 104.5,109.5C 104.348,105.859 102.682,103.193 99.5,101.5C 95.7934,96.7923 91.4601,92.7923 86.5,89.5 Z"/></g>
<g><path style="opacity:0.988" fill="#736468" d="M 25.5,100.5 C 25.5,101.167 25.5,101.833 25.5,102.5C 24.1667,103.167 23.1667,104.167 22.5,105.5C 22.1667,105.5 21.8333,105.5 21.5,105.5C 22.0798,103.251 23.4131,101.585 25.5,100.5 Z"/></g>
<g><path style="opacity:1" fill="#393445" d="M 74.5,108.5 C 73.8333,106.833 73.1667,105.167 72.5,103.5C 72.3691,102.624 72.7025,101.957 73.5,101.5C 74.4742,103.743 74.8076,106.076 74.5,108.5 Z"/></g>
<g><path style="opacity:1" fill="#d40008" d="M 41.5,90.5 C 41.4142,91.4959 41.7476,92.3292 42.5,93C 38.2931,96.7013 34.2931,100.701 30.5,105C 30.9891,106.138 31.3225,107.305 31.5,108.5C 29.283,107.631 26.9496,107.298 24.5,107.5C 24.6287,105.784 24.962,104.117 25.5,102.5C 28.8761,99.1218 32.5428,96.1218 36.5,93.5C 38.4113,92.925 40.078,91.925 41.5,90.5 Z"/></g>
<g><path style="opacity:0.522" fill="#90979b" d="M 21.5,105.5 C 21.573,107.027 20.9063,108.027 19.5,108.5C 19.427,106.973 20.0937,105.973 21.5,105.5 Z"/></g>
<g><path style="opacity:1" fill="#2b2b44" d="M 52.5,98.5 C 52.8333,98.5 53.1667,98.5 53.5,98.5C 57.5158,99.6069 61.1825,101.274 64.5,103.5C 63.1667,103.5 61.8333,103.5 60.5,103.5C 59.8333,103.5 59.5,103.167 59.5,102.5C 58.4324,101.566 57.099,101.232 55.5,101.5C 55.5,105.167 55.5,108.833 55.5,112.5C 54.2946,108.401 53.2946,104.401 52.5,100.5C 52.5,99.8333 52.5,99.1667 52.5,98.5 Z"/></g>
<g><path style="opacity:1" fill="#db090c" d="M 81.5,89.5 C 79.5393,94.0368 78.5393,98.8701 78.5,104C 78.6667,107.167 78.8333,110.333 79,113.5C 81.3806,114.435 83.8806,114.768 86.5,114.5C 86.1485,111.927 86.6485,109.594 88,107.5C 89.1739,109.671 91.0072,110.671 93.5,110.5C 93.281,109.325 93.6143,108.325 94.5,107.5C 97.0473,107.229 99.0473,106.229 100.5,104.5C 101.478,104.811 102.145,105.478 102.5,106.5C 99.7833,106.974 97.4499,107.974 95.5,109.5C 94.9348,111.386 93.9348,113.053 92.5,114.5C 89.4036,110.288 88.4036,110.622 89.5,115.5C 85.5,115.5 81.5,115.5 77.5,115.5C 77.5,109.167 77.5,102.833 77.5,96.5C 77.8333,94.5 78.1667,92.5 78.5,90.5C 79.391,89.8902 80.391,89.5569 81.5,89.5 Z"/></g>
<g><path style="opacity:1" fill="#a60116" d="M 99.5,101.5 C 102.682,103.193 104.348,105.859 104.5,109.5C 101.5,109.5 98.5,109.5 95.5,109.5C 97.4499,107.974 99.7833,106.974 102.5,106.5C 102.145,105.478 101.478,104.811 100.5,104.5C 99.8902,103.609 99.5569,102.609 99.5,101.5 Z"/></g>
<g><path style="opacity:1" fill="#3f3a40" d="M 21.5,105.5 C 21.8333,105.5 22.1667,105.5 22.5,105.5C 22.5,106.833 22.5,108.167 22.5,109.5C 25.3854,109.194 28.0521,109.527 30.5,110.5C 26.4862,110.334 22.4862,110.501 18.5,111C 17.944,111.383 17.6107,111.883 17.5,112.5C 16.6981,113.952 16.1981,115.618 16,117.5C 15.5065,115.866 15.3398,114.199 15.5,112.5C 15.8333,110.167 17.1667,108.833 19.5,108.5C 20.9063,108.027 21.573,107.027 21.5,105.5 Z"/></g>
<g><path style="opacity:1" fill="#7e08bd" d="M 59.5,102.5 C 59.5,103.167 59.8333,103.5 60.5,103.5C 63.9619,104.482 67.6286,104.815 71.5,104.5C 71.5,108.167 71.5,111.833 71.5,115.5C 66.8333,115.5 62.1667,115.5 57.5,115.5C 57.8064,112.615 57.4731,109.948 56.5,107.5C 56.5,105.833 56.5,104.167 56.5,102.5C 57.5,102.5 58.5,102.5 59.5,102.5 Z"/></g>
<g><path style="opacity:1" fill="#404b4f" d="M 106.5,107.5 C 111.905,110.055 113.238,113.722 110.5,118.5C 110.662,116.473 110.495,114.473 110,112.5C 109.184,111.177 108.017,110.511 106.5,110.5C 106.5,109.5 106.5,108.5 106.5,107.5 Z"/></g>
<g><path style="opacity:1" fill="#e10204" d="M 49.5,97.5 C 50.9063,97.9731 51.573,98.9731 51.5,100.5C 51.5,101.167 51.5,101.833 51.5,102.5C 51.5,106.833 51.5,111.167 51.5,115.5C 45.642,115.822 39.9753,115.489 34.5,114.5C 38.7512,113.289 42.9178,111.956 47,110.5C 48.3333,111.167 49.3333,112.167 50,113.5C 50.8236,110.118 50.657,106.784 49.5,103.5C 48.1054,104.815 47.1054,104.481 46.5,102.5C 48.756,101.579 49.756,99.9124 49.5,97.5 Z"/></g>
<g><path style="opacity:1" fill="#320f57" d="M 59.5,102.5 C 58.5,102.5 57.5,102.5 56.5,102.5C 56.5,104.167 56.5,105.833 56.5,107.5C 56.8064,110.385 56.4731,113.052 55.5,115.5C 54.375,114.652 54.375,113.652 55.5,112.5C 55.5,108.833 55.5,105.167 55.5,101.5C 57.099,101.232 58.4324,101.566 59.5,102.5 Z"/></g>
<g><path style="opacity:1" fill="#cad4d8" d="M 106.5,110.5 C 108.017,110.511 109.184,111.177 110,112.5C 110.495,114.473 110.662,116.473 110.5,118.5C 110.5,119.167 110.167,119.5 109.5,119.5C 109.087,117.11 108.421,114.777 107.5,112.5C 106.893,112.624 106.56,112.957 106.5,113.5C 105.862,129.159 105.028,128.826 104,112.5C 103.825,117.019 103.325,121.353 102.5,125.5C 102.167,125.5 101.833,125.5 101.5,125.5C 100.57,121.6 100.237,117.6 100.5,113.5C 100.44,112.957 100.107,112.624 99.5,112.5C 98.5091,116.445 98.1758,120.445 98.5,124.5C 98.5,124.833 98.5,125.167 98.5,125.5C 96.5636,121.285 95.8969,116.619 96.5,111.5C 99.6248,110.521 102.958,110.187 106.5,110.5 Z"/></g>
<g><path style="opacity:1" fill="#e1e9ed" d="M 30.5,110.5 C 30.9415,115.691 30.4415,120.691 29,125.5C 28.8283,120.798 28.3283,116.132 27.5,111.5C 26.8933,111.624 26.56,111.957 26.5,112.5C 26.6655,116.514 26.4988,120.514 26,124.5C 25.31,125.738 24.81,125.738 24.5,124.5C 24.8256,120.116 24.4922,115.783 23.5,111.5C 22.8933,111.624 22.56,111.957 22.5,112.5C 22.1525,128.446 21.1525,128.446 19.5,112.5C 18.8281,113.949 18.1614,115.282 17.5,116.5C 17.5,115.167 17.5,113.833 17.5,112.5C 17.6107,111.883 17.944,111.383 18.5,111C 22.4862,110.501 26.4862,110.334 30.5,110.5 Z"/></g>
<g><path style="opacity:1" fill="#321c57" d="M 72.5,103.5 C 73.1667,105.167 73.8333,106.833 74.5,108.5C 74.7214,111.279 74.388,113.946 73.5,116.5C 72.8333,116.5 72.1667,116.5 71.5,116.5C 71.5,116.167 71.5,115.833 71.5,115.5C 72.4834,111.702 72.8168,107.702 72.5,103.5 Z"/></g>
<g><path style="opacity:1" fill="#690512" d="M 25.5,102.5 C 24.962,104.117 24.6287,105.784 24.5,107.5C 26.9496,107.298 29.283,107.631 31.5,108.5C 32.1098,109.391 32.4431,110.391 32.5,111.5C 32.5,113.167 32.5,114.833 32.5,116.5C 31.8333,114.5 31.1667,112.5 30.5,110.5C 28.0521,109.527 25.3854,109.194 22.5,109.5C 22.5,108.167 22.5,106.833 22.5,105.5C 23.1667,104.167 24.1667,103.167 25.5,102.5 Z"/></g>
<g><path style="opacity:1" fill="#ecc6d2" d="M 51.5,100.5 C 51.8333,100.5 52.1667,100.5 52.5,100.5C 53.2946,104.401 54.2946,108.401 55.5,112.5C 54.375,113.652 54.375,114.652 55.5,115.5C 55.5,115.833 55.5,116.167 55.5,116.5C 54.5,116.5 53.5,116.5 52.5,116.5C 52.8195,111.637 52.4861,106.97 51.5,102.5C 51.5,101.833 51.5,101.167 51.5,100.5 Z"/></g>
<g><path style="opacity:1" fill="#662a9a" d="M 60.5,103.5 C 61.8333,103.5 63.1667,103.5 64.5,103.5C 67.1667,103.5 69.8333,103.5 72.5,103.5C 72.8168,107.702 72.4834,111.702 71.5,115.5C 71.5,111.833 71.5,108.167 71.5,104.5C 67.6286,104.815 63.9619,104.482 60.5,103.5 Z"/></g>
<g><path style="opacity:1" fill="#949ba1" d="M 15.5,112.5 C 15.3398,114.199 15.5065,115.866 16,117.5C 16.1981,115.618 16.6981,113.952 17.5,112.5C 17.5,113.833 17.5,115.167 17.5,116.5C 17.5,117.167 17.5,117.833 17.5,118.5C 16.5,118.5 15.5,118.5 14.5,118.5C 14.2053,116.265 14.5386,114.265 15.5,112.5 Z"/></g>
<g><path style="opacity:1" fill="#6d1e1c" d="M 95.5,109.5 C 95.5,110.167 95.5,110.833 95.5,111.5C 95.5,113.167 95.5,114.833 95.5,116.5C 94.3478,115.375 93.3478,115.375 92.5,116.5C 91.7978,117.116 90.7978,117.116 89.5,116.5C 89.5,116.167 89.5,115.833 89.5,115.5C 88.4036,110.622 89.4036,110.288 92.5,114.5C 93.9348,113.053 94.9348,111.386 95.5,109.5 Z"/></g>
<g><path style="opacity:0.776" fill="#c83a47" d="M 51.5,102.5 C 52.4861,106.97 52.8195,111.637 52.5,116.5C 46.5,116.5 40.5,116.5 34.5,116.5C 33.8333,116.5 33.1667,116.5 32.5,116.5C 32.5,114.833 32.5,113.167 32.5,111.5C 33.1667,112.5 33.8333,113.5 34.5,114.5C 39.9753,115.489 45.642,115.822 51.5,115.5C 51.5,111.167 51.5,106.833 51.5,102.5 Z"/></g>
<g><path style="opacity:0.871" fill="#763aa0" d="M 56.5,107.5 C 57.4731,109.948 57.8064,112.615 57.5,115.5C 62.1667,115.5 66.8333,115.5 71.5,115.5C 71.5,115.833 71.5,116.167 71.5,116.5C 66.1667,116.5 60.8333,116.5 55.5,116.5C 55.5,116.167 55.5,115.833 55.5,115.5C 56.4731,113.052 56.8064,110.385 56.5,107.5 Z"/></g>
<g><path style="opacity:0.776" fill="#cb424d" d="M 77.5,96.5 C 77.5,102.833 77.5,109.167 77.5,115.5C 81.5,115.5 85.5,115.5 89.5,115.5C 89.5,115.833 89.5,116.167 89.5,116.5C 85.1667,116.5 80.8333,116.5 76.5,116.5C 76.176,109.646 76.5093,102.979 77.5,96.5 Z"/></g>
<g><path style="opacity:0.784" fill="#6d676c" d="M 92.5,116.5 C 93.3478,115.375 94.3478,115.375 95.5,116.5C 95.5,119.5 95.5,122.5 95.5,125.5C 94.6829,123.031 94.1829,120.365 94,117.5C 93.6174,116.944 93.1174,116.611 92.5,116.5 Z"/></g>
<g><path style="opacity:1" fill="#575d62" d="M 106.5,113.5 C 106.56,112.957 106.893,112.624 107.5,112.5C 108.421,114.777 109.087,117.11 109.5,119.5C 108.952,121.626 108.285,123.626 107.5,125.5C 107.817,121.298 107.483,117.298 106.5,113.5 Z"/></g>
<g><path style="opacity:1" fill="#757f82" d="M 22.5,112.5 C 22.56,111.957 22.8933,111.624 23.5,111.5C 24.4922,115.783 24.8256,120.116 24.5,124.5C 23.8333,120.5 23.1667,116.5 22.5,112.5 Z"/></g>
<g><path style="opacity:1" fill="#60696d" d="M 100.5,113.5 C 99.8333,117.167 99.1667,120.833 98.5,124.5C 98.1758,120.445 98.5091,116.445 99.5,112.5C 100.107,112.624 100.44,112.957 100.5,113.5 Z"/></g>
<g><path style="opacity:1" fill="#141f24" d="M 100.5,113.5 C 100.237,117.6 100.57,121.6 101.5,125.5C 100.5,126.833 99.5,126.833 98.5,125.5C 98.5,125.167 98.5,124.833 98.5,124.5C 99.1667,120.833 99.8333,117.167 100.5,113.5 Z"/></g>
<g><path style="opacity:1" fill="#2c3439" d="M 22.5,112.5 C 23.1667,116.5 23.8333,120.5 24.5,124.5C 24.81,125.738 25.31,125.738 26,124.5C 26.4988,120.514 26.6655,116.514 26.5,112.5C 27.4861,116.97 27.8195,121.637 27.5,126.5C 26.8333,126.5 26.5,126.833 26.5,127.5C 24.5,127.5 22.5,127.5 20.5,127.5C 18.9745,124.722 17.9745,121.722 17.5,118.5C 17.5,117.833 17.5,117.167 17.5,116.5C 18.1614,115.282 18.8281,113.949 19.5,112.5C 21.1525,128.446 22.1525,128.446 22.5,112.5 Z"/></g>
<g><path style="opacity:1" fill="#11191d" d="M 106.5,113.5 C 107.483,117.298 107.817,121.298 107.5,125.5C 107.5,125.833 107.5,126.167 107.5,126.5C 105.585,126.784 103.919,126.451 102.5,125.5C 103.325,121.353 103.825,117.019 104,112.5C 105.028,128.826 105.862,129.159 106.5,113.5 Z"/></g>
<g><path style="opacity:0.957" fill="#535559" d="M 30.5,110.5 C 31.1667,112.5 31.8333,114.5 32.5,116.5C 33.1667,116.5 33.8333,116.5 34.5,116.5C 33.0855,120.119 31.7521,123.786 30.5,127.5C 29.5,127.5 28.5,127.5 27.5,127.5C 27.5,127.167 27.5,126.833 27.5,126.5C 27.8195,121.637 27.4861,116.97 26.5,112.5C 26.56,111.957 26.8933,111.624 27.5,111.5C 28.3283,116.132 28.8283,120.798 29,125.5C 30.4415,120.691 30.9415,115.691 30.5,110.5 Z"/></g>
<g><path style="opacity:1" fill="#495056" d="M 95.5,111.5 C 95.8333,111.5 96.1667,111.5 96.5,111.5C 95.8969,116.619 96.5636,121.285 98.5,125.5C 99.5,126.833 100.5,126.833 101.5,125.5C 101.833,125.5 102.167,125.5 102.5,125.5C 103.919,126.451 105.585,126.784 107.5,126.5C 107.5,126.833 107.5,127.167 107.5,127.5C 103.5,127.5 99.5,127.5 95.5,127.5C 95.5,126.833 95.5,126.167 95.5,125.5C 95.5,122.5 95.5,119.5 95.5,116.5C 95.5,114.833 95.5,113.167 95.5,111.5 Z"/></g>
</svg>
