<?xml version="1.0" encoding="UTF-8"?>
<!DOCTYPE svg PUBLIC "-//W3C//DTD SVG 1.1//EN" "http://www.w3.org/Graphics/SVG/1.1/DTD/svg11.dtd">
<svg xmlns="http://www.w3.org/2000/svg" version="1.1" width="268px" height="248px" style="shape-rendering:geometricPrecision; text-rendering:geometricPrecision; image-rendering:optimizeQuality; fill-rule:evenodd; clip-rule:evenodd" xmlns:xlink="http://www.w3.org/1999/xlink">
<g><path style="opacity:1" fill="#eec83a" d="M 211.5,19.5 C 211.167,19.5 210.833,19.5 210.5,19.5C 209.903,18.8614 209.07,18.528 208,18.5C 204.801,19.1063 201.634,19.7729 198.5,20.5C 199.167,19.5 199.833,18.5 200.5,17.5C 205.14,16.6027 209.806,16.4361 214.5,17C 216.158,17.7253 216.658,18.892 216,20.5C 214.644,19.6198 213.144,19.2865 211.5,19.5 Z"/></g>
<g><path style="opacity:1" fill="#f4db7d" d="M 225.5,31.5 C 225.172,26.4599 222.838,22.7932 218.5,20.5C 218.167,20.8333 217.833,21.1667 217.5,21.5C 218.63,22.6223 219.297,23.9557 219.5,25.5C 217.092,23.0838 214.426,21.0838 211.5,19.5C 213.144,19.2865 214.644,19.6198 216,20.5C 216.658,18.892 216.158,17.7253 214.5,17C 209.806,16.4361 205.14,16.6027 200.5,17.5C 211.515,12.4827 220.015,15.4827 226,26.5C 226.78,28.3869 226.613,30.0536 225.5,31.5 Z"/></g>
<g><path style="opacity:0.859" fill="#f8e8a5" d="M 200.5,17.5 C 199.833,18.5 199.167,19.5 198.5,20.5C 196.605,21.973 194.939,23.6397 193.5,25.5C 194.431,21.5713 196.764,18.9047 200.5,17.5 Z"/></g>
<g><path style="opacity:1" fill="#f6db72" d="M 210.5,19.5 C 204.223,19.7972 199.89,22.7972 197.5,28.5C 198.092,25.8728 198.425,23.2062 198.5,20.5C 201.634,19.7729 204.801,19.1063 208,18.5C 209.07,18.528 209.903,18.8614 210.5,19.5 Z"/></g>
<g><path style="opacity:1" fill="#edca34" d="M 225.5,31.5 C 225.5,31.8333 225.5,32.1667 225.5,32.5C 224.442,33.6002 223.608,34.9336 223,36.5C 222.667,33.5 222.333,30.5 222,27.5C 221.329,26.7476 220.496,26.4142 219.5,26.5C 219.5,26.1667 219.5,25.8333 219.5,25.5C 219.297,23.9557 218.63,22.6223 217.5,21.5C 217.833,21.1667 218.167,20.8333 218.5,20.5C 222.838,22.7932 225.172,26.4599 225.5,31.5 Z"/></g>
<g><path style="opacity:0.941" fill="#eb8d99" d="M 169.5,24.5 C 169.5,25.1667 169.5,25.8333 169.5,26.5C 168.833,26.1667 168.167,25.8333 167.5,25.5C 163.085,25.8606 159.085,27.1939 155.5,29.5C 154.167,29.5 152.833,29.5 151.5,29.5C 157.132,25.9291 163.132,24.2624 169.5,24.5 Z"/></g>
<g><path style="opacity:1" fill="#d5615f" d="M 173.5,27.5 C 176.432,28.7997 178.766,30.7997 180.5,33.5C 178.784,33.3713 177.117,33.038 175.5,32.5C 174.517,30.7088 173.184,29.2088 171.5,28C 172.094,27.5357 172.761,27.369 173.5,27.5 Z"/></g>
<g><path style="opacity:1" fill="#efc934" d="M 198.5,20.5 C 198.425,23.2062 198.092,25.8728 197.5,28.5C 197.5,28.8333 197.5,29.1667 197.5,29.5C 195.656,31.2789 194.99,33.6122 195.5,36.5C 191.731,36.244 188.064,36.5773 184.5,37.5C 184.167,37.5 183.833,37.5 183.5,37.5C 182.5,36.1667 181.5,34.8333 180.5,33.5C 180.833,33.5 181.167,33.5 181.5,33.5C 185.182,33.6653 188.848,33.4986 192.5,33C 193.423,30.9592 193.756,28.7925 193.5,26.5C 193.5,26.1667 193.5,25.8333 193.5,25.5C 194.939,23.6397 196.605,21.973 198.5,20.5 Z"/></g>
<g><path style="opacity:0.686" fill="#f9e9aa" d="M 193.5,26.5 C 193.756,28.7925 193.423,30.9592 192.5,33C 188.848,33.4986 185.182,33.6653 181.5,33.5C 184.641,32.6787 187.975,32.1787 191.5,32C 192.109,30.0517 192.776,28.2184 193.5,26.5 Z"/></g>
<g><path style="opacity:1" fill="#efd77b" d="M 212.5,28.5 C 218.601,31.5274 218.767,34.5274 213,37.5C 211.331,36.1537 210.164,34.487 209.5,32.5C 211.011,33.5025 212.678,34.1692 214.5,34.5C 214.296,32.3146 213.63,30.3146 212.5,28.5 Z"/></g>
<g><path style="opacity:1" fill="#e14e5c" d="M 151.5,29.5 C 152.833,29.5 154.167,29.5 155.5,29.5C 151.371,31.5424 147.371,33.8757 143.5,36.5C 142.833,36.5 142.167,36.5 141.5,36.5C 141.5,36.1667 141.5,35.8333 141.5,35.5C 144.161,32.4977 147.495,30.4977 151.5,29.5 Z"/></g>
<g><path style="opacity:1" fill="#ee223b" d="M 167.5,25.5 C 166.665,26.9432 165.332,27.9432 163.5,28.5C 164.687,29.5195 165.687,30.6861 166.5,32C 162.577,32.7927 158.744,32.626 155,31.5C 153.899,33.9361 152.399,36.1028 150.5,38C 152,40.1667 153.167,40 154,37.5C 154.483,38.448 154.649,39.448 154.5,40.5C 151.028,41.0371 148.195,40.0371 146,37.5C 143.553,38.9964 142.719,38.6631 143.5,36.5C 147.371,33.8757 151.371,31.5424 155.5,29.5C 159.085,27.1939 163.085,25.8606 167.5,25.5 Z"/></g>
<g><path style="opacity:0.667" fill="#f6e494" d="M 197.5,29.5 C 196.735,32.0961 196.401,34.7628 196.5,37.5C 192.881,38.2436 189.215,38.577 185.5,38.5C 184.833,38.5 184.5,38.1667 184.5,37.5C 188.064,36.5773 191.731,36.244 195.5,36.5C 194.99,33.6122 195.656,31.2789 197.5,29.5 Z"/></g>
<g><path style="opacity:1" fill="#2e1d28" d="M 99.5,45.5 C 98.1266,45.6567 96.7932,45.49 95.5,45C 96.1381,41.9293 96.1381,38.7626 95.5,35.5C 96.6701,37.6502 97.6701,39.9836 98.5,42.5C 99.325,43.3857 100.325,43.719 101.5,43.5C 100.658,40.5019 100.158,37.5019 100,34.5C 100.667,35.8333 101.333,35.8333 102,34.5C 102.273,36.3289 103.107,37.8289 104.5,39C 108.5,39.3333 112.5,39.6667 116.5,40C 110.642,41.5645 104.976,43.3979 99.5,45.5 Z"/></g>
<g><path style="opacity:1" fill="#f7e49b" d="M 207.5,35.5 C 208.855,40.2673 211.855,41.6007 216.5,39.5C 215.848,40.7251 214.681,41.3917 213,41.5C 208.914,41.5803 207.081,39.5803 207.5,35.5 Z"/></g>
<g><path style="opacity:1" fill="#f4e08f" d="M 219.5,26.5 C 220.496,26.4142 221.329,26.7476 222,27.5C 222.333,30.5 222.667,33.5 223,36.5C 223.608,34.9336 224.442,33.6002 225.5,32.5C 225.938,32.4346 226.272,32.6012 226.5,33C 225.126,35.5829 223.626,38.0829 222,40.5C 221.184,41.8228 220.017,42.4894 218.5,42.5C 220.129,40.8041 219.796,39.8041 217.5,39.5C 221.897,35.7169 222.564,31.3836 219.5,26.5 Z"/></g>
<g><path style="opacity:1" fill="#f2d072" d="M 141.5,35.5 C 141.5,35.8333 141.5,36.1667 141.5,36.5C 138.833,37.1667 137.167,38.8333 136.5,41.5C 135.599,42.2905 134.932,43.2905 134.5,44.5C 134.167,44.5 133.833,44.5 133.5,44.5C 133.414,43.5041 133.748,42.6708 134.5,42C 129.182,41.978 123.849,42.1447 118.5,42.5C 117.699,40.9582 117.366,39.2915 117.5,37.5C 123.349,37.6075 129.183,37.6075 135,37.5C 137.087,36.6028 139.254,35.9361 141.5,35.5 Z"/></g>
<g><path style="opacity:0.02" fill="#fef8cc" d="M 91.5,39.5 C 91.5,40.1667 91.5,40.8333 91.5,41.5C 88.1667,41.5 84.8333,41.5 81.5,41.5C 84.7254,40.7632 88.0588,40.0965 91.5,39.5 Z"/></g>
<g><path style="opacity:1" fill="#f0cb3c" d="M 212.5,28.5 C 213.63,30.3146 214.296,32.3146 214.5,34.5C 212.678,34.1692 211.011,33.5025 209.5,32.5C 209.716,30.3193 208.883,28.6526 207,27.5C 206.211,29.7116 206.378,31.7116 207.5,33.5C 207.5,34.1667 207.5,34.8333 207.5,35.5C 207.081,39.5803 208.914,41.5803 213,41.5C 214.681,41.3917 215.848,40.7251 216.5,39.5C 216.833,39.5 217.167,39.5 217.5,39.5C 219.796,39.8041 220.129,40.8041 218.5,42.5C 218.027,43.9063 217.027,44.573 215.5,44.5C 204.005,44.4978 200.005,38.8312 203.5,27.5C 204.085,25.078 205.585,23.4113 208,22.5C 210.127,24.1137 211.627,26.1137 212.5,28.5 Z"/></g>
<g><path style="opacity:0.184" fill="#f9efa5" d="M 209.5,32.5 C 208.033,29.7417 207.367,30.075 207.5,33.5C 206.378,31.7116 206.211,29.7116 207,27.5C 208.883,28.6526 209.716,30.3193 209.5,32.5 Z"/></g>
<g><path style="opacity:1" fill="#e3a88d" d="M 117.5,37.5 C 117.366,39.2915 117.699,40.9582 118.5,42.5C 117.758,45.5501 115.758,47.2167 112.5,47.5C 111.824,48.6016 111.158,49.6016 110.5,50.5C 109.596,51.209 109.263,52.209 109.5,53.5C 108.833,53.5 108.5,53.1667 108.5,52.5C 108.84,48.1117 111.173,45.1117 115.5,43.5C 114.667,43.1667 113.833,42.8333 113,42.5C 108.776,44.5131 104.276,45.5131 99.5,45.5C 104.976,43.3979 110.642,41.5645 116.5,40C 112.5,39.6667 108.5,39.3333 104.5,39C 103.107,37.8289 102.273,36.3289 102,34.5C 101.333,35.8333 100.667,35.8333 100,34.5C 100.158,37.5019 100.658,40.5019 101.5,43.5C 100.325,43.719 99.325,43.3857 98.5,42.5C 97.6701,39.9836 96.6701,37.6502 95.5,35.5C 97.7586,33.2445 100.592,32.2445 104,32.5C 109.228,32.4237 113.728,34.0904 117.5,37.5 Z"/></g>
<g><path style="opacity:1" fill="#988893" d="M 102.5,39.5 C 107.774,40.5556 107.774,41.5556 102.5,42.5C 102.5,41.5 102.5,40.5 102.5,39.5 Z"/></g>
<g><path style="opacity:0.212" fill="#f7e698" d="M 203.5,27.5 C 200.005,38.8312 204.005,44.4978 215.5,44.5C 210.602,47.5489 206.435,46.5489 203,41.5C 200.859,36.5911 201.026,31.9245 203.5,27.5 Z"/></g>
<g><path style="opacity:1" fill="#eecb42" d="M 79.5,41.5 C 80.1667,41.5 80.8333,41.5 81.5,41.5C 84.8333,41.5 88.1667,41.5 91.5,41.5C 92.0431,41.56 92.3764,41.8933 92.5,42.5C 90.7086,43.1698 89.0419,43.8365 87.5,44.5C 86.4324,45.4345 85.099,45.7678 83.5,45.5C 76.0838,45.5337 68.7504,46.2004 61.5,47.5C 61.5,46.1667 61.5,44.8333 61.5,43.5C 67.6781,43.1558 73.6781,42.4891 79.5,41.5 Z"/></g>
<g><path style="opacity:1" fill="#deaa91" d="M 95.5,35.5 C 96.1381,38.7626 96.1381,41.9293 95.5,45C 96.7932,45.49 98.1266,45.6567 99.5,45.5C 99.7678,47.099 99.4345,48.4324 98.5,49.5C 95.2017,47.0174 91.535,45.3508 87.5,44.5C 89.0419,43.8365 90.7086,43.1698 92.5,42.5C 92.3764,41.8933 92.0431,41.56 91.5,41.5C 91.5,40.8333 91.5,40.1667 91.5,39.5C 91.8333,37.1667 93.1667,35.8333 95.5,35.5 Z"/></g>
<g><path style="opacity:0.545" fill="#f6ecad" d="M 79.5,41.5 C 73.6781,42.4891 67.6781,43.1558 61.5,43.5C 61.5,44.8333 61.5,46.1667 61.5,47.5C 60.661,46.3588 59.9943,45.0255 59.5,43.5C 66.0459,41.7939 72.7126,41.1272 79.5,41.5 Z"/></g>
<g><path style="opacity:0.173" fill="#f8c1cd" d="M 188.5,43.5 C 189.906,43.9731 190.573,44.9731 190.5,46.5C 189.094,46.0269 188.427,45.0269 188.5,43.5 Z"/></g>
<g><path style="opacity:1" fill="#e03522" d="M 175.5,32.5 C 177.117,33.038 178.784,33.3713 180.5,33.5C 181.5,34.8333 182.5,36.1667 183.5,37.5C 182.503,37.4701 181.836,37.9701 181.5,39C 186.121,47.2227 188.454,56.0561 188.5,65.5C 188.401,68.6393 187.068,70.9726 184.5,72.5C 188.396,57.6509 185.396,44.3176 175.5,32.5 Z"/></g>
<g><path style="opacity:0.02" fill="#f8e9a7" d="M 83.5,45.5 C 77.3662,47.1391 71.0329,48.4724 64.5,49.5C 62.9704,49.3601 61.9704,48.6935 61.5,47.5C 68.7504,46.2004 76.0838,45.5337 83.5,45.5 Z"/></g>
<g><path style="opacity:1" fill="#e92b2f" d="M 167.5,25.5 C 168.167,25.8333 168.833,26.1667 169.5,26.5C 175.876,34.5809 180.71,43.5809 184,53.5C 185.899,62.8806 184.066,71.3806 178.5,79C 171.761,79.5599 165.428,78.3932 159.5,75.5C 165.442,76.989 171.442,77.8224 177.5,78C 181.212,73.1818 182.879,67.6818 182.5,61.5C 182.333,58.5 182.167,55.5 182,52.5C 181.974,55.1047 180.807,56.2713 178.5,56C 177.736,53.9307 177.236,51.764 177,49.5C 174.667,51.1667 172.667,53.1667 171,55.5C 168.539,54.7819 166.039,54.1153 163.5,53.5C 162.68,57.6309 161.68,61.6309 160.5,65.5C 163.665,64.9635 166.331,65.7969 168.5,68C 168,68.5 167.5,69 167,69.5C 164.435,67.8207 161.602,67.154 158.5,67.5C 158.737,68.791 158.404,69.791 157.5,70.5C 158.83,64.1869 160.163,57.8536 161.5,51.5C 164.877,51.9595 168.211,52.6261 171.5,53.5C 172.167,50.8333 172.833,48.1667 173.5,45.5C 171.5,45.5 169.5,45.5 167.5,45.5C 166.34,44.735 165.34,43.735 164.5,42.5C 165.482,39.9044 166.149,37.2377 166.5,34.5C 163.167,34.1667 159.833,33.8333 156.5,33.5C 156.037,36.4824 155.704,39.4824 155.5,42.5C 151.815,42.1046 148.148,41.9379 144.5,42C 143.915,43.3024 143.249,44.469 142.5,45.5C 143.215,38.97 141.381,37.97 137,42.5C 136.601,42.2716 136.435,41.9382 136.5,41.5C 137.167,38.8333 138.833,37.1667 141.5,36.5C 142.167,36.5 142.833,36.5 143.5,36.5C 142.719,38.6631 143.553,38.9964 146,37.5C 148.195,40.0371 151.028,41.0371 154.5,40.5C 154.649,39.448 154.483,38.448 154,37.5C 153.167,40 152,40.1667 150.5,38C 152.399,36.1028 153.899,33.9361 155,31.5C 158.744,32.626 162.577,32.7927 166.5,32C 165.687,30.6861 164.687,29.5195 163.5,28.5C 165.332,27.9432 166.665,26.9432 167.5,25.5 Z"/></g>
<g><path style="opacity:1" fill="#f19c70" d="M 108.5,52.5 C 105.544,51.8629 102.544,51.3629 99.5,51C 98.944,50.6174 98.6107,50.1174 98.5,49.5C 99.4345,48.4324 99.7678,47.099 99.5,45.5C 104.276,45.5131 108.776,44.5131 113,42.5C 113.833,42.8333 114.667,43.1667 115.5,43.5C 111.173,45.1117 108.84,48.1117 108.5,52.5 Z"/></g>
<g><path style="opacity:1" fill="#e57587" d="M 133.5,44.5 C 133.833,44.5 134.167,44.5 134.5,44.5C 133.309,47.8888 131.809,51.2221 130,54.5C 129.501,58.8206 129.334,63.1539 129.5,67.5C 129.167,67.5 128.833,67.5 128.5,67.5C 128.5,64.8333 128.5,62.1667 128.5,59.5C 128.39,53.8288 130.057,48.8288 133.5,44.5 Z"/></g>
<g><path style="opacity:1" fill="#f4d780" d="M 94.5,49.5 C 92.1432,49.3367 89.8098,49.5034 87.5,50C 86.6634,51.0113 86.33,52.1779 86.5,53.5C 85.5084,53.3284 84.8417,53.6618 84.5,54.5C 83.5166,58.2984 83.1832,62.2984 83.5,66.5C 82.5269,64.0521 82.1936,61.3854 82.5,58.5C 82.5447,54.2388 83.878,50.4054 86.5,47C 89.4741,46.9092 92.1407,47.7425 94.5,49.5 Z"/></g>
<g><path style="opacity:1" fill="#eeb23b" d="M 94.5,49.5 C 95.8333,49.5 97.1667,49.5 98.5,49.5C 98.6107,50.1174 98.944,50.6174 99.5,51C 102.544,51.3629 105.544,51.8629 108.5,52.5C 108.5,53.1667 108.833,53.5 109.5,53.5C 110.78,54.9313 112.447,55.5979 114.5,55.5C 114.5,57.1667 114.5,58.8333 114.5,60.5C 114.784,62.4147 114.451,64.0813 113.5,65.5C 113.167,65.5 112.833,65.5 112.5,65.5C 112.5,62.5 112.5,59.5 112.5,56.5C 109.493,55.4861 106.493,54.4861 103.5,53.5C 103.719,54.675 103.386,55.675 102.5,56.5C 100.5,55.1667 98.5,55.1667 96.5,56.5C 95.7132,55.7579 95.0465,54.9246 94.5,54C 91.854,53.5026 89.1873,53.3359 86.5,53.5C 86.33,52.1779 86.6634,51.0113 87.5,50C 89.8098,49.5034 92.1432,49.3367 94.5,49.5 Z"/></g>
<g><path style="opacity:0.659" fill="#f9e9b5" d="M 110.5,50.5 C 110.5,51.5 110.5,52.5 110.5,53.5C 116.378,53.6574 117.711,55.9908 114.5,60.5C 114.5,58.8333 114.5,57.1667 114.5,55.5C 112.447,55.5979 110.78,54.9313 109.5,53.5C 109.263,52.209 109.596,51.209 110.5,50.5 Z"/></g>
<g><path style="opacity:1" fill="#ed2339" d="M 142.5,45.5 C 142.461,46.5832 142.127,47.5832 141.5,48.5C 144.768,49.487 148.102,49.8204 151.5,49.5C 151.717,52.4206 151.051,55.0872 149.5,57.5C 148.504,57.4142 147.671,57.7476 147,58.5C 145.985,62.4402 145.485,66.4402 145.5,70.5C 144.022,70.762 142.689,70.4287 141.5,69.5C 142.471,68.0379 142.138,66.7046 140.5,65.5C 139.614,66.325 139.281,67.325 139.5,68.5C 136.5,68.5 133.5,68.5 130.5,68.5C 129.833,68.5 129.5,68.1667 129.5,67.5C 129.334,63.1539 129.501,58.8206 130,54.5C 131.809,51.2221 133.309,47.8888 134.5,44.5C 134.932,43.2905 135.599,42.2905 136.5,41.5C 136.435,41.9382 136.601,42.2716 137,42.5C 141.381,37.97 143.215,38.97 142.5,45.5 Z"/></g>
<g><path style="opacity:1" fill="#f49b50" d="M 167.5,45.5 C 169.5,45.5 171.5,45.5 173.5,45.5C 172.833,48.1667 172.167,50.8333 171.5,53.5C 168.211,52.6261 164.877,51.9595 161.5,51.5C 160.163,57.8536 158.83,64.1869 157.5,70.5C 153.803,69.9922 150.136,69.3255 146.5,68.5C 146.892,64.6576 147.892,60.9909 149.5,57.5C 151.051,55.0872 151.717,52.4206 151.5,49.5C 148.102,49.8204 144.768,49.487 141.5,48.5C 142.127,47.5832 142.461,46.5832 142.5,45.5C 143.249,44.469 143.915,43.3024 144.5,42C 148.148,41.9379 151.815,42.1046 155.5,42.5C 155.704,39.4824 156.037,36.4824 156.5,33.5C 159.833,33.8333 163.167,34.1667 166.5,34.5C 166.149,37.2377 165.482,39.9044 164.5,42.5C 165.34,43.735 166.34,44.735 167.5,45.5 Z"/></g>
<g><path style="opacity:1" fill="#eb273d" d="M 183.5,37.5 C 183.833,37.5 184.167,37.5 184.5,37.5C 184.5,38.1667 184.833,38.5 185.5,38.5C 186.925,39.922 187.925,41.5887 188.5,43.5C 188.427,45.0269 189.094,46.0269 190.5,46.5C 190.5,46.8333 190.5,47.1667 190.5,47.5C 190.32,51.2155 190.654,54.8822 191.5,58.5C 191.357,61.406 190.357,63.7393 188.5,65.5C 188.454,56.0561 186.121,47.2227 181.5,39C 181.836,37.9701 182.503,37.4701 183.5,37.5 Z"/></g>
<g><path style="opacity:0.141" fill="#f9c2d7" d="M 191.5,49.5 C 192.973,52.0169 193.64,54.8502 193.5,58C 193.494,60.0326 193.161,61.866 192.5,63.5C 192.563,58.7971 192.229,54.1304 191.5,49.5 Z"/></g>
<g><path style="opacity:1" fill="#f3c512" d="M 86.5,53.5 C 89.1873,53.3359 91.854,53.5026 94.5,54C 95.0465,54.9246 95.7132,55.7579 96.5,56.5C 98.5,55.1667 100.5,55.1667 102.5,56.5C 103.386,55.675 103.719,54.675 103.5,53.5C 106.493,54.4861 109.493,55.4861 112.5,56.5C 112.5,59.5 112.5,62.5 112.5,65.5C 112.167,65.5 111.833,65.5 111.5,65.5C 111.03,64.3065 110.03,63.6399 108.5,63.5C 106.178,63.0848 103.845,62.7515 101.5,62.5C 95.8138,62.5078 90.4804,62.5078 85.5,62.5C 84.52,59.9135 84.1866,57.2469 84.5,54.5C 84.8417,53.6618 85.5084,53.3284 86.5,53.5 Z"/></g>
<g><path style="opacity:1" fill="#e63029" d="M 167.5,45.5 C 168.568,46.4345 169.901,46.7678 171.5,46.5C 171.709,48.7144 170.876,50.381 169,51.5C 166.208,49.9379 163.375,49.6046 160.5,50.5C 158.533,56.3678 157.199,62.3678 156.5,68.5C 153.327,68.5988 150.327,67.9322 147.5,66.5C 150.016,60.4985 152.183,54.4985 154,48.5C 150.589,47.7069 147.089,47.2069 143.5,47C 144.167,46 144.833,45 145.5,44C 149.188,43.5499 152.854,43.7166 156.5,44.5C 156.704,41.4824 157.037,38.4824 157.5,35.5C 159.833,35.5 162.167,35.5 164.5,35.5C 164.041,38.8774 163.374,42.2107 162.5,45.5C 164.167,45.5 165.833,45.5 167.5,45.5 Z"/></g>
<g><path style="opacity:1" fill="#e05f64" d="M 190.5,47.5 C 191.338,47.8417 191.672,48.5084 191.5,49.5C 192.229,54.1304 192.563,58.7971 192.5,63.5C 190.309,71.8775 185.642,78.5442 178.5,83.5C 180.214,79.7433 182.214,76.0766 184.5,72.5C 187.068,70.9726 188.401,68.6393 188.5,65.5C 190.357,63.7393 191.357,61.406 191.5,58.5C 190.654,54.8822 190.32,51.2155 190.5,47.5 Z"/></g>
<g><path style="opacity:0.016" fill="#fdfbc5" d="M 82.5,58.5 C 82.1936,61.3854 82.5269,64.0521 83.5,66.5C 84.5676,67.4345 85.901,67.7678 87.5,67.5C 87.5,68.1667 87.5,68.8333 87.5,69.5C 87.1667,69.5 86.8333,69.5 86.5,69.5C 85.1225,68.7656 83.6225,68.0989 82,67.5C 81.1955,64.3035 81.3622,61.3035 82.5,58.5 Z"/></g>
<g><path style="opacity:1" fill="#eeab32" d="M 84.5,54.5 C 84.1866,57.2469 84.52,59.9135 85.5,62.5C 90.4804,62.5078 95.8138,62.5078 101.5,62.5C 103.845,62.7515 106.178,63.0848 108.5,63.5C 110.03,63.6399 111.03,64.3065 111.5,65.5C 103.325,65.8412 95.3247,66.5079 87.5,67.5C 85.901,67.7678 84.5676,67.4345 83.5,66.5C 83.1832,62.2984 83.5166,58.2984 84.5,54.5 Z"/></g>
<g><path style="opacity:1" fill="#df541a" d="M 111.5,65.5 C 111.5,66.1667 111.5,66.8333 111.5,67.5C 111.167,67.5 110.833,67.5 110.5,67.5C 102.833,67.5 95.1667,67.5 87.5,67.5C 95.3247,66.5079 103.325,65.8412 111.5,65.5 Z"/></g>
<g><path style="opacity:0.012" fill="#feeee5" d="M 111.5,65.5 C 111.833,65.5 112.167,65.5 112.5,65.5C 112.833,65.5 113.167,65.5 113.5,65.5C 112.976,67.3057 112.309,68.9724 111.5,70.5C 111.5,69.5 111.5,68.5 111.5,67.5C 111.5,66.8333 111.5,66.1667 111.5,65.5 Z"/></g>
<g><path style="opacity:1" fill="#e33825" d="M 149.5,57.5 C 147.892,60.9909 146.892,64.6576 146.5,68.5C 150.136,69.3255 153.803,69.9922 157.5,70.5C 155.031,71.3171 152.365,71.8171 149.5,72C 151.491,72.3736 153.158,73.207 154.5,74.5C 146.24,73.1016 138.24,71.1016 130.5,68.5C 133.5,68.5 136.5,68.5 139.5,68.5C 139.281,67.325 139.614,66.325 140.5,65.5C 142.138,66.7046 142.471,68.0379 141.5,69.5C 142.689,70.4287 144.022,70.762 145.5,70.5C 145.485,66.4402 145.985,62.4402 147,58.5C 147.671,57.7476 148.504,57.4142 149.5,57.5 Z"/></g>
<g><path style="opacity:0.098" fill="#ffefe9" d="M 128.5,59.5 C 128.5,62.1667 128.5,64.8333 128.5,67.5C 128.433,68.9587 128.766,70.2921 129.5,71.5C 129.5,72.5 129.5,73.5 129.5,74.5C 128.009,71.8136 127.343,68.8136 127.5,65.5C 127.505,63.3035 127.838,61.3035 128.5,59.5 Z"/></g>
<g><path style="opacity:1" fill="#ef2238" d="M 159.5,75.5 C 157.585,75.7845 155.919,75.4511 154.5,74.5C 153.158,73.207 151.491,72.3736 149.5,72C 152.365,71.8171 155.031,71.3171 157.5,70.5C 158.404,69.791 158.737,68.791 158.5,67.5C 161.602,67.154 164.435,67.8207 167,69.5C 167.5,69 168,68.5 168.5,68C 166.331,65.7969 163.665,64.9635 160.5,65.5C 161.68,61.6309 162.68,57.6309 163.5,53.5C 166.039,54.1153 168.539,54.7819 171,55.5C 172.667,53.1667 174.667,51.1667 177,49.5C 177.236,51.764 177.736,53.9307 178.5,56C 180.807,56.2713 181.974,55.1047 182,52.5C 182.167,55.5 182.333,58.5 182.5,61.5C 182.879,67.6818 181.212,73.1818 177.5,78C 171.442,77.8224 165.442,76.989 159.5,75.5 Z"/></g>
<g><path style="opacity:0.149" fill="#fbcfdb" d="M 86.5,69.5 C 86.8333,69.5 87.1667,69.5 87.5,69.5C 88.5664,71.7014 89.233,74.0347 89.5,76.5C 87.9348,74.4907 86.9348,72.1573 86.5,69.5 Z"/></g>
<g><path style="opacity:0.271" fill="#e9ddd3" d="M 85.5,86.5 C 81.6924,86.8368 78.0257,86.3368 74.5,85C 73.5769,82.9592 73.2436,80.7925 73.5,78.5C 75.2029,76.1488 75.7029,73.4822 75,70.5C 73.2927,72.0375 71.7927,73.7041 70.5,75.5C 69.1984,74.1931 67.865,74.1931 66.5,75.5C 65.1451,74.8118 64.1451,73.8118 63.5,72.5C 62.8697,70.2929 61.5363,68.6262 59.5,67.5C 60.3764,67.6309 61.0431,67.2975 61.5,66.5C 56.9453,54.5652 59.612,52.0652 69.5,59C 72.564,61.2072 74.564,64.0406 75.5,67.5C 76.8734,67.3433 78.2068,67.51 79.5,68C 82.3333,71.5 85.1667,75 88,78.5C 89.1634,81.9711 88.3301,84.6377 85.5,86.5 Z"/></g>
<g><path style="opacity:1" fill="#1a213d" d="M 63.5,72.5 C 63.2904,67.8023 63.1237,63.1356 63,58.5C 67.7299,60.3954 70.8965,63.7287 72.5,68.5C 72.4096,70.4251 71.4096,71.5917 69.5,72C 67.5273,72.4955 65.5273,72.6621 63.5,72.5 Z"/></g>
<g><path style="opacity:1" fill="#dd4759" d="M 110.5,67.5 C 110.833,67.5 111.167,67.5 111.5,67.5C 111.5,68.5 111.5,69.5 111.5,70.5C 111.5,73.1667 111.5,75.8333 111.5,78.5C 111.337,80.8568 111.503,83.1902 112,85.5C 112.383,86.056 112.883,86.3893 113.5,86.5C 113.5,88.8333 113.5,91.1667 113.5,93.5C 113.5,94.1667 113.167,94.5 112.5,94.5C 111.094,87.8301 110.094,80.9968 109.5,74C 109.566,71.7446 109.899,69.578 110.5,67.5 Z"/></g>
<g><path style="opacity:0.439" fill="#bab6bf" d="M 122.5,77.5 C 120.585,77.2155 118.919,77.5489 117.5,78.5C 116.833,78.5 116.167,78.5 115.5,78.5C 116.312,77.0069 117.645,76.3402 119.5,76.5C 120.726,76.5195 121.726,76.8529 122.5,77.5 Z"/></g>
<g><path style="opacity:1" fill="#e97a84" d="M 89.5,76.5 C 92.4599,78.6519 94.1266,81.6519 94.5,85.5C 92.0764,82.9922 90.4097,79.9922 89.5,76.5 Z"/></g>
<g><path style="opacity:1" fill="#141e35" d="M 78.5,71.5 C 82.5224,74.0383 84.189,77.5383 83.5,82C 80.4459,82.8214 77.4459,82.6548 74.5,81.5C 75.6454,78.0581 76.9787,74.7248 78.5,71.5 Z"/></g>
<g><path style="opacity:1" fill="#413c44" d="M 117.5,78.5 C 118.919,77.5489 120.585,77.2155 122.5,77.5C 123.492,77.3284 124.158,77.6618 124.5,78.5C 124.5,79.1667 124.5,79.8333 124.5,80.5C 122.412,79.0605 120.079,78.3939 117.5,78.5 Z"/></g>
<g><path style="opacity:1" fill="#f5d6c5" d="M 129.5,74.5 C 132.185,76.2591 135.185,77.2591 138.5,77.5C 138.5,78.5 138.5,79.5 138.5,80.5C 135.287,80.19 132.287,80.5233 129.5,81.5C 129.5,82.1667 129.167,82.5 128.5,82.5C 128.575,79.7938 128.908,77.1272 129.5,74.5 Z"/></g>
<g><path style="opacity:1" fill="#e53034" d="M 129.5,71.5 C 144.762,73.9188 159.762,77.4188 174.5,82C 173.316,83.1455 173.316,84.3121 174.5,85.5C 174.5,86.1667 174.167,86.5 173.5,86.5C 167.427,85.4816 161.427,84.1483 155.5,82.5C 149.865,81.0699 144.199,79.4033 138.5,77.5C 135.185,77.2591 132.185,76.2591 129.5,74.5C 129.5,73.5 129.5,72.5 129.5,71.5 Z"/></g>
<g><path style="opacity:1" fill="#f2954e" d="M 169.5,24.5 C 171.23,25.0256 172.564,26.0256 173.5,27.5C 172.761,27.369 172.094,27.5357 171.5,28C 173.184,29.2088 174.517,30.7088 175.5,32.5C 185.396,44.3176 188.396,57.6509 184.5,72.5C 182.214,76.0766 180.214,79.7433 178.5,83.5C 177.395,84.6005 176.062,85.2671 174.5,85.5C 173.316,84.3121 173.316,83.1455 174.5,82C 159.762,77.4188 144.762,73.9188 129.5,71.5C 128.766,70.2921 128.433,68.9587 128.5,67.5C 128.833,67.5 129.167,67.5 129.5,67.5C 129.5,68.1667 129.833,68.5 130.5,68.5C 138.24,71.1016 146.24,73.1016 154.5,74.5C 155.919,75.4511 157.585,75.7845 159.5,75.5C 165.428,78.3932 171.761,79.5599 178.5,79C 184.066,71.3806 185.899,62.8806 184,53.5C 180.71,43.5809 175.876,34.5809 169.5,26.5C 169.5,25.8333 169.5,25.1667 169.5,24.5 Z"/></g>
<g><path style="opacity:0.376" fill="#d3bcbe" d="M 46.5,75.5 C 46.0254,78.0821 46.6921,80.0821 48.5,81.5C 48.5,81.8333 48.5,82.1667 48.5,82.5C 47.5041,82.4142 46.6708,82.7476 46,83.5C 45.1993,80.633 45.3659,77.9664 46.5,75.5 Z"/></g>
<g><path style="opacity:1" fill="#774136" d="M 59.5,67.5 C 61.5363,68.6262 62.8697,70.2929 63.5,72.5C 64.1451,73.8118 65.1451,74.8118 66.5,75.5C 67.865,74.1931 69.1984,74.1931 70.5,75.5C 71.8333,76.1667 72.8333,77.1667 73.5,78.5C 73.2436,80.7925 73.5769,82.9592 74.5,85C 78.0257,86.3368 81.6924,86.8368 85.5,86.5C 89.6829,88.0875 93.3495,90.4208 96.5,93.5C 94.5328,93.2606 92.6995,93.5939 91,94.5C 90.7367,91.736 89.2367,90.0694 86.5,89.5C 85.6143,90.325 85.281,91.325 85.5,92.5C 84.5,92.5 83.5,92.5 82.5,92.5C 82.9662,90.7988 82.9662,89.2988 82.5,88C 80.4325,87.3131 78.4325,87.4798 76.5,88.5C 75.2519,87.9598 74.0852,87.2931 73,86.5C 71.5496,74.6199 70.2163,74.6199 69,86.5C 68.6667,86.1667 68.3333,85.8333 68,85.5C 67.3333,86.8333 66.3333,87.8333 65,88.5C 64.2303,87.4019 63.397,87.4019 62.5,88.5C 60.5189,85.8716 59.0189,82.8716 58,79.5C 56.1091,86.8895 53.9424,86.5562 51.5,78.5C 50.1451,79.1882 49.1451,80.1882 48.5,81.5C 46.6921,80.0821 46.0254,78.0821 46.5,75.5C 47.0304,66.4073 51.3637,63.7406 59.5,67.5 Z"/></g>
<g><path style="opacity:1" fill="#ed2339" d="M 87.5,67.5 C 95.1667,67.5 102.833,67.5 110.5,67.5C 109.899,69.578 109.566,71.7446 109.5,74C 110.094,80.9968 111.094,87.8301 112.5,94.5C 112.167,94.5 111.833,94.5 111.5,94.5C 108.207,93.3414 104.207,92.3414 99.5,91.5C 99.5123,88.858 98.179,87.5246 95.5,87.5C 95.1667,86.8333 94.8333,86.1667 94.5,85.5C 94.1266,81.6519 92.4599,78.6519 89.5,76.5C 89.233,74.0347 88.5664,71.7014 87.5,69.5C 87.5,68.8333 87.5,68.1667 87.5,67.5 Z"/></g>
<g><path style="opacity:0.792" fill="#989ea7" d="M 124.5,78.5 C 125.906,78.9731 126.573,79.9731 126.5,81.5C 125.833,81.1667 125.167,80.8333 124.5,80.5C 124.5,79.8333 124.5,79.1667 124.5,78.5 Z"/></g>
<g><path style="opacity:1" fill="#2c222a" d="M 124.5,80.5 C 125.167,80.8333 125.833,81.1667 126.5,81.5C 126.5,82.1667 126.5,82.8333 126.5,83.5C 125.094,83.0269 124.427,82.0269 124.5,80.5 Z"/></g>
<g><path style="opacity:0.608" fill="#eb96ad" d="M 111.5,78.5 C 112.167,79.8333 112.833,81.1667 113.5,82.5C 113.5,83.8333 113.5,85.1667 113.5,86.5C 112.883,86.3893 112.383,86.056 112,85.5C 111.503,83.1902 111.337,80.8568 111.5,78.5 Z"/></g>
<g><path style="opacity:1" fill="#443139" d="M 126.5,81.5 C 127.167,81.8333 127.833,82.1667 128.5,82.5C 129.167,82.5 129.5,82.1667 129.5,81.5C 130.097,81.7352 130.43,82.2352 130.5,83C 129.68,84.8003 129.014,86.6336 128.5,88.5C 127.069,87.2196 126.402,85.5529 126.5,83.5C 126.5,82.8333 126.5,82.1667 126.5,81.5 Z"/></g>
<g><path style="opacity:1" fill="#eacbb9" d="M 62.5,88.5 C 62.5,89.1667 62.5,89.8333 62.5,90.5C 60.9548,88.6284 58.9548,87.6284 56.5,87.5C 54.6455,87.3402 53.3121,88.0069 52.5,89.5C 51.8333,89.5 51.1667,89.5 50.5,89.5C 50.1667,88.8333 49.8333,88.1667 49.5,87.5C 48.962,85.8828 48.6287,84.2161 48.5,82.5C 49.8333,82.1667 49.8333,81.8333 48.5,81.5C 49.1451,80.1882 50.1451,79.1882 51.5,78.5C 53.9424,86.5562 56.1091,86.8895 58,79.5C 59.0189,82.8716 60.5189,85.8716 62.5,88.5 Z"/></g>
<g><path style="opacity:1" fill="#f0a076" d="M 154.5,85.5 C 155.5,85.5 156.5,85.5 157.5,85.5C 157.817,88.5719 157.484,91.5719 156.5,94.5C 153.819,94.0676 151.819,92.7343 150.5,90.5C 149.199,89.1184 148.366,87.4517 148,85.5C 146.817,86.731 145.651,86.731 144.5,85.5C 146.49,84.5019 148.49,83.5019 150.5,82.5C 151.386,83.325 151.719,84.325 151.5,85.5C 152.5,85.5 153.5,85.5 154.5,85.5 Z"/></g>
<g><path style="opacity:1" fill="#e57889" d="M 95.5,87.5 C 98.179,87.5246 99.5123,88.858 99.5,91.5C 97.8333,90.5 96.5,89.1667 95.5,87.5 Z"/></g>
<g><path style="opacity:1" fill="#e2a388" d="M 138.5,77.5 C 144.199,79.4033 149.865,81.0699 155.5,82.5C 153.204,82.8041 152.871,83.8041 154.5,85.5C 153.5,85.5 152.5,85.5 151.5,85.5C 151.719,84.325 151.386,83.325 150.5,82.5C 148.49,83.5019 146.49,84.5019 144.5,85.5C 145.651,86.731 146.817,86.731 148,85.5C 148.366,87.4517 149.199,89.1184 150.5,90.5C 149.833,90.5 149.167,90.5 148.5,90.5C 147.399,89.4017 146.066,89.235 144.5,90C 143.402,90.7697 143.402,91.603 144.5,92.5C 142.883,91.962 141.216,91.6287 139.5,91.5C 137.451,90.3586 135.451,90.3586 133.5,91.5C 133.281,90.325 133.614,89.325 134.5,88.5C 136.516,89.7059 138.516,89.7059 140.5,88.5C 140.376,87.8933 140.043,87.56 139.5,87.5C 139.821,85.9519 140.821,85.2852 142.5,85.5C 142.351,86.552 142.517,87.552 143,88.5C 144.174,84.3385 142.841,83.0052 139,84.5C 138.051,81.8003 136.217,80.967 133.5,82C 132.177,82.8159 131.511,83.9826 131.5,85.5C 130.728,86.6935 129.728,87.6935 128.5,88.5C 129.014,86.6336 129.68,84.8003 130.5,83C 130.43,82.2352 130.097,81.7352 129.5,81.5C 132.287,80.5233 135.287,80.19 138.5,80.5C 138.5,79.5 138.5,78.5 138.5,77.5 Z"/></g>
<g><path style="opacity:1" fill="#3f2529" d="M 139.5,87.5 C 137.088,87.3059 136.088,85.9726 136.5,83.5C 134.678,83.8308 133.011,84.4975 131.5,85.5C 131.511,83.9826 132.177,82.8159 133.5,82C 136.217,80.967 138.051,81.8003 139,84.5C 142.841,83.0052 144.174,84.3385 143,88.5C 142.517,87.552 142.351,86.552 142.5,85.5C 140.821,85.2852 139.821,85.9519 139.5,87.5 Z"/></g>
<g><path style="opacity:1" fill="#e79a78" d="M 117.5,78.5 C 120.079,78.3939 122.412,79.0605 124.5,80.5C 124.427,82.0269 125.094,83.0269 126.5,83.5C 126.402,85.5529 127.069,87.2196 128.5,88.5C 129.728,87.6935 130.728,86.6935 131.5,85.5C 133.011,84.4975 134.678,83.8308 136.5,83.5C 136.088,85.9726 137.088,87.3059 139.5,87.5C 140.043,87.56 140.376,87.8933 140.5,88.5C 138.516,89.7059 136.516,89.7059 134.5,88.5C 133.614,89.325 133.281,90.325 133.5,91.5C 133.369,92.2389 133.536,92.9056 134,93.5C 138.364,92.2943 138.531,92.7943 134.5,95C 129.572,96.4178 124.572,96.7511 119.5,96C 113.766,90.7578 113.099,84.9245 117.5,78.5 Z"/></g>
<g><path style="opacity:1" fill="#e34f5b" d="M 99.5,91.5 C 104.207,92.3414 108.207,93.3414 111.5,94.5C 109.898,96.0739 107.898,96.7406 105.5,96.5C 103.091,95.2993 101.091,93.6326 99.5,91.5 Z"/></g>
<g><path style="opacity:0.012" fill="#ded9d7" d="M 17.5,91.5 C 17.5,92.8333 17.5,94.1667 17.5,95.5C 17.5,97.5 17.5,99.5 17.5,101.5C 16.6782,103.55 15.6782,103.217 14.5,100.5C 15.184,97.4083 16.184,94.4083 17.5,91.5 Z"/></g>
<g><path style="opacity:1" fill="#753b2f" d="M 96.5,93.5 C 99.117,94.7859 101.45,96.4525 103.5,98.5C 104.167,99.8333 105.167,100.833 106.5,101.5C 107.5,101.833 108.167,102.5 108.5,103.5C 108.611,104.117 108.944,104.617 109.5,105C 103.099,113.434 105.099,116.601 115.5,114.5C 115.582,117.333 115.748,120.333 116,123.5C 116.875,126.215 118.708,127.548 121.5,127.5C 121.5,128.833 121.5,130.167 121.5,131.5C 120.167,131.5 118.833,131.5 117.5,131.5C 117.5,132.833 117.5,134.167 117.5,135.5C 116.833,135.5 116.167,135.5 115.5,135.5C 113.712,134.378 111.712,134.211 109.5,135C 108.177,135.816 107.511,136.983 107.5,138.5C 102.109,131.409 96.9428,124.075 92,116.5C 91.8287,117.894 91.3287,118.728 90.5,119C 88.1244,115.081 85.6244,111.248 83,107.5C 81.9563,108.623 81.2896,109.956 81,111.5C 77.9215,105.009 74.5882,98.6754 71,92.5C 70.7679,93.7375 70.2679,94.7375 69.5,95.5C 66.9066,94.2464 64.5732,92.5798 62.5,90.5C 62.5,89.8333 62.5,89.1667 62.5,88.5C 63.397,87.4019 64.2303,87.4019 65,88.5C 66.3333,87.8333 67.3333,86.8333 68,85.5C 68.3333,85.8333 68.6667,86.1667 69,86.5C 70.2163,74.6199 71.5496,74.6199 73,86.5C 74.0852,87.2931 75.2519,87.9598 76.5,88.5C 78.4325,87.4798 80.4325,87.3131 82.5,88C 82.9662,89.2988 82.9662,90.7988 82.5,92.5C 83.5,92.5 84.5,92.5 85.5,92.5C 85.281,91.325 85.6143,90.325 86.5,89.5C 89.2367,90.0694 90.7367,91.736 91,94.5C 92.6995,93.5939 94.5328,93.2606 96.5,93.5 Z"/></g>
<g><path style="opacity:1" fill="#744a3a" d="M 49.5,87.5 C 49.8333,88.1667 50.1667,88.8333 50.5,89.5C 46.3241,88.8307 44.9907,90.3307 46.5,94C 48.0657,94.765 49.3991,94.5983 50.5,93.5C 53.1769,95.432 56.1769,95.932 59.5,95C 60.7911,93.7083 60.7911,92.5417 59.5,91.5C 59.3893,90.8826 59.056,90.3826 58.5,90C 56.5273,89.5045 54.5273,89.3379 52.5,89.5C 53.3121,88.0069 54.6455,87.3402 56.5,87.5C 58.9548,87.6284 60.9548,88.6284 62.5,90.5C 62.9193,93.3245 61.9193,95.4912 59.5,97C 54.1658,96.1528 48.8325,95.6528 43.5,95.5C 40.8598,93.1206 40.8598,90.6206 43.5,88C 45.4727,87.5045 47.4727,87.3379 49.5,87.5 Z"/></g>
<g><path style="opacity:1" fill="#e8cfbe" d="M 52.5,89.5 C 54.5273,89.3379 56.5273,89.5045 58.5,90C 59.056,90.3826 59.3893,90.8826 59.5,91.5C 60.7911,92.5417 60.7911,93.7083 59.5,95C 56.1769,95.932 53.1769,95.432 50.5,93.5C 51.6005,92.3951 52.2671,91.0618 52.5,89.5 Z"/></g>
<g><path style="opacity:1" fill="#343230" d="M 59.5,91.5 C 59.27,93.9828 58.6034,94.4828 57.5,93C 57.8361,91.9701 58.5028,91.4701 59.5,91.5 Z"/></g>
<g><path style="opacity:0.855" fill="#af958b" d="M 50.5,89.5 C 51.1667,89.5 51.8333,89.5 52.5,89.5C 52.2671,91.0618 51.6005,92.3951 50.5,93.5C 49.3991,94.5983 48.0657,94.765 46.5,94C 44.9907,90.3307 46.3241,88.8307 50.5,89.5 Z"/></g>
<g><path style="opacity:1" fill="#472d31" d="M 115.5,78.5 C 116.167,78.5 116.833,78.5 117.5,78.5C 113.099,84.9245 113.766,90.7578 119.5,96C 124.572,96.7511 129.572,96.4178 134.5,95C 138.531,92.7943 138.364,92.2943 134,93.5C 133.536,92.9056 133.369,92.2389 133.5,91.5C 135.451,90.3586 137.451,90.3586 139.5,91.5C 140.598,92.397 140.598,93.2303 139.5,94C 133.34,97.8734 126.673,99.2067 119.5,98C 117.298,96.6122 115.298,95.1122 113.5,93.5C 113.5,91.1667 113.5,88.8333 113.5,86.5C 113.5,85.1667 113.5,83.8333 113.5,82.5C 113.66,80.847 114.326,79.5137 115.5,78.5 Z"/></g>
<g><path style="opacity:1" fill="#524e56" d="M 148.5,90.5 C 148.392,92.5138 149.058,94.1805 150.5,95.5C 149.833,95.5 149.167,95.5 148.5,95.5C 148.217,94.7109 147.717,94.0442 147,93.5C 145.441,95.2166 144.608,97.2166 144.5,99.5C 144.5,99.8333 144.5,100.167 144.5,100.5C 143.032,99.1309 141.365,97.9643 139.5,97C 142.901,97.266 144.567,95.766 144.5,92.5C 143.402,91.603 143.402,90.7697 144.5,90C 146.066,89.235 147.399,89.4017 148.5,90.5 Z"/></g>
<g><path style="opacity:1" fill="#191637" d="M 17.5,95.5 C 18.6935,95.9704 19.3601,96.9704 19.5,98.5C 19.3601,100.03 18.6935,101.03 17.5,101.5C 17.5,99.5 17.5,97.5 17.5,95.5 Z"/></g>
<g><path style="opacity:1" fill="#f2dbc3" d="M 155.5,82.5 C 161.427,84.1483 167.427,85.4816 173.5,86.5C 174.361,88.3863 175.361,90.2196 176.5,92C 175.833,93 175.167,94 174.5,95C 176.066,95.6082 177.4,96.4415 178.5,97.5C 177.761,97.369 177.094,97.5357 176.5,98C 180.114,101.103 183.114,104.603 185.5,108.5C 185.719,109.675 185.386,110.675 184.5,111.5C 182.146,112.06 179.813,112.727 177.5,113.5C 178.246,114.736 178.579,116.07 178.5,117.5C 176.833,117.5 175.167,117.5 173.5,117.5C 172.86,115.668 171.86,115.335 170.5,116.5C 172.062,118.901 171.729,120.901 169.5,122.5C 166.528,120.694 163.695,118.694 161,116.5C 160.506,118.134 160.34,119.801 160.5,121.5C 159.067,122.833 157.733,124.333 156.5,126C 154.866,126.494 153.199,126.66 151.5,126.5C 149.254,125.545 146.921,124.878 144.5,124.5C 143.681,132.984 140.848,133.651 136,126.5C 134.39,128.731 132.557,130.731 130.5,132.5C 129.365,130.293 128.699,127.96 128.5,125.5C 126.167,126.167 123.833,126.833 121.5,127.5C 118.708,127.548 116.875,126.215 116,123.5C 115.748,120.333 115.582,117.333 115.5,114.5C 105.099,116.601 103.099,113.434 109.5,105C 108.944,104.617 108.611,104.117 108.5,103.5C 109.478,103.189 110.145,102.522 110.5,101.5C 109.042,100.218 107.708,100.218 106.5,101.5C 105.167,100.833 104.167,99.8333 103.5,98.5C 104.833,98.5 105.5,97.8333 105.5,96.5C 107.898,96.7406 109.898,96.0739 111.5,94.5C 111.833,94.5 112.167,94.5 112.5,94.5C 113.167,94.5 113.5,94.1667 113.5,93.5C 115.298,95.1122 117.298,96.6122 119.5,98C 126.673,99.2067 133.34,97.8734 139.5,94C 140.598,93.2303 140.598,92.397 139.5,91.5C 141.216,91.6287 142.883,91.962 144.5,92.5C 144.567,95.766 142.901,97.266 139.5,97C 141.365,97.9643 143.032,99.1309 144.5,100.5C 145.212,102.928 146.212,105.261 147.5,107.5C 146.271,108.281 144.938,108.781 143.5,109C 143.833,109.333 144.167,109.667 144.5,110C 148.027,110.808 151.36,110.641 154.5,109.5C 158.07,107.224 158.403,104.558 155.5,101.5C 154.557,98.8908 152.89,96.8908 150.5,95.5C 149.058,94.1805 148.392,92.5138 148.5,90.5C 149.167,90.5 149.833,90.5 150.5,90.5C 151.819,92.7343 153.819,94.0676 156.5,94.5C 157.484,91.5719 157.817,88.5719 157.5,85.5C 156.5,85.5 155.5,85.5 154.5,85.5C 152.871,83.8041 153.204,82.8041 155.5,82.5 Z"/></g>
<g><path style="opacity:1" fill="#ddd8d7" d="M 148.5,95.5 C 147.5,97.1667 146.167,98.5 144.5,99.5C 144.608,97.2166 145.441,95.2166 147,93.5C 147.717,94.0442 148.217,94.7109 148.5,95.5 Z"/></g>
<g><path style="opacity:1" fill="#e6a080" d="M 163.5,87.5 C 165.833,87.5 168.167,87.5 170.5,87.5C 170.192,94.4677 166.525,97.4677 159.5,96.5C 159.34,94.8008 159.506,93.1341 160,91.5C 160.333,91.8333 160.667,92.1667 161,92.5C 161.366,90.5483 162.199,88.8816 163.5,87.5 Z"/></g>
<g><path style="opacity:1" fill="#734127" d="M 163.5,91.5 C 164.978,91.238 166.311,91.5713 167.5,92.5C 166.047,92.0598 164.881,92.7265 164,94.5C 162.272,93.6477 162.105,92.6477 163.5,91.5 Z"/></g>
<g><path style="opacity:1" fill="#1a1c39" d="M 148.5,95.5 C 149.167,95.5 149.833,95.5 150.5,95.5C 152.89,96.8908 154.557,98.8908 155.5,101.5C 154.508,101.328 153.842,101.662 153.5,102.5C 152.007,103.312 151.34,104.645 151.5,106.5C 151.64,108.03 152.307,109.03 153.5,109.5C 153.833,109.5 154.167,109.5 154.5,109.5C 151.36,110.641 148.027,110.808 144.5,110C 144.167,109.667 143.833,109.333 143.5,109C 144.938,108.781 146.271,108.281 147.5,107.5C 146.212,105.261 145.212,102.928 144.5,100.5C 144.5,100.167 144.5,99.8333 144.5,99.5C 146.167,98.5 147.5,97.1667 148.5,95.5 Z"/></g>
<g><path style="opacity:0.918" fill="#c0a7a6" d="M 17.5,91.5 C 17.56,90.9569 17.8933,90.6236 18.5,90.5C 20.9841,93.2936 22.1507,96.6269 22,100.5C 22.3826,101.056 22.8826,101.389 23.5,101.5C 22.9924,103.233 22.159,103.566 21,102.5C 21.2025,98.2296 20.0358,94.563 17.5,91.5 Z"/></g>
<g><path style="opacity:0.1" fill="#f1d6d0" d="M 33.5,98.5 C 33.5,99.5 33.5,100.5 33.5,101.5C 33.5,101.833 33.5,102.167 33.5,102.5C 32.596,103.209 32.2627,104.209 32.5,105.5C 31.209,105.737 30.209,105.404 29.5,104.5C 30.8333,102.5 32.1667,100.5 33.5,98.5 Z"/></g>
<g><path style="opacity:1" fill="#6d4442" d="M 17.5,91.5 C 20.0358,94.563 21.2025,98.2296 21,102.5C 22.159,103.566 22.9924,103.233 23.5,101.5C 24.8333,100.5 26.1667,99.5 27.5,98.5C 26.5588,100.466 25.5588,102.466 24.5,104.5C 27.8054,104.238 30.1387,102.238 31.5,98.5C 30.675,97.6143 29.675,97.281 28.5,97.5C 28.5,97.1667 28.5,96.8333 28.5,96.5C 29.6591,94.6231 31.3258,94.1231 33.5,95C 34.6843,96.1455 34.6843,97.3121 33.5,98.5C 32.1667,100.5 30.8333,102.5 29.5,104.5C 27.6366,106.705 25.3033,108.039 22.5,108.5C 22.6882,106.897 22.1882,105.563 21,104.5C 19.4838,111.131 18.3171,111.131 17.5,104.5C 14.8239,103.992 12.1572,103.825 9.5,104C 8.9152,105.302 8.24853,106.469 7.5,107.5C 7.40517,103.942 8.57183,100.942 11,98.5C 12.3026,98.9783 13.4693,99.645 14.5,100.5C 15.6782,103.217 16.6782,103.55 17.5,101.5C 18.6935,101.03 19.3601,100.03 19.5,98.5C 19.3601,96.9704 18.6935,95.9704 17.5,95.5C 17.5,94.1667 17.5,92.8333 17.5,91.5 Z"/></g>
<g><path style="opacity:1" fill="#1c1534" d="M 28.5,97.5 C 29.675,97.281 30.675,97.6143 31.5,98.5C 30.1387,102.238 27.8054,104.238 24.5,104.5C 25.5588,102.466 26.5588,100.466 27.5,98.5C 27.5,97.8333 27.8333,97.5 28.5,97.5 Z"/></g>
<g><path style="opacity:0.518" fill="#d2c5c1" d="M 28.5,96.5 C 28.5,96.8333 28.5,97.1667 28.5,97.5C 27.8333,97.5 27.5,97.8333 27.5,98.5C 26.1667,99.5 24.8333,100.5 23.5,101.5C 24.1667,98.8333 25.8333,97.1667 28.5,96.5 Z"/></g>
<g><path style="opacity:1" fill="#cb2c46" d="M 153.5,102.5 C 154.649,102.791 155.316,103.624 155.5,105C 154.926,106.607 154.26,108.107 153.5,109.5C 152.307,109.03 151.64,108.03 151.5,106.5C 151.34,104.645 152.007,103.312 153.5,102.5 Z"/></g>
<g><path style="opacity:1" fill="#7c3443" d="M 153.5,102.5 C 153.842,101.662 154.508,101.328 155.5,101.5C 158.403,104.558 158.07,107.224 154.5,109.5C 154.167,109.5 153.833,109.5 153.5,109.5C 154.26,108.107 154.926,106.607 155.5,105C 155.316,103.624 154.649,102.791 153.5,102.5 Z"/></g>
<g><path style="opacity:1" fill="#dd5d64" d="M 178.5,97.5 C 184.897,100.231 189.23,104.897 191.5,111.5C 190.072,109.556 188.239,107.889 186,106.5C 185.536,107.094 185.369,107.761 185.5,108.5C 183.114,104.603 180.114,101.103 176.5,98C 177.094,97.5357 177.761,97.369 178.5,97.5 Z"/></g>
<g><path style="opacity:1" fill="#f3dec8" d="M 62.5,90.5 C 64.5732,92.5798 66.9066,94.2464 69.5,95.5C 65.4026,97.837 61.0692,100.67 56.5,104C 63.0334,105.541 66.2001,109.708 66,116.5C 68.1335,120.933 71.3001,124.433 75.5,127C 74.4258,127.739 73.7591,128.739 73.5,130C 75.9244,133.439 77.2577,137.273 77.5,141.5C 71.6077,130.718 65.941,119.718 60.5,108.5C 59.9984,107.479 59.3317,107.312 58.5,108C 55.4769,110.177 53.4769,113.011 52.5,116.5C 49.6747,115.726 47.508,114.059 46,111.5C 43.2279,107.612 40.7279,103.612 38.5,99.5C 41.204,99.3304 42.8707,97.9971 43.5,95.5C 48.8325,95.6528 54.1658,96.1528 59.5,97C 61.9193,95.4912 62.9193,93.3245 62.5,90.5 Z"/></g>
<g><path style="opacity:1" fill="#783d33" d="M 33.5,102.5 C 33.3398,104.199 33.5065,105.866 34,107.5C 37.8486,111.357 39.8486,116.023 40,121.5C 40.8159,122.823 41.9826,123.489 43.5,123.5C 45.7257,124.756 48.059,124.756 50.5,123.5C 50.5,125.167 50.5,126.833 50.5,128.5C 49.5,132.833 46.8333,135.5 42.5,136.5C 37.1301,136.608 31.7968,136.275 26.5,135.5C 21.2867,133.73 16.9534,130.73 13.5,126.5C 12.8288,125.153 12.8288,123.986 13.5,123C 11.5831,119.693 9.58311,116.527 7.5,113.5C 6.16667,111.5 6.16667,109.5 7.5,107.5C 8.24853,106.469 8.9152,105.302 9.5,104C 12.1572,103.825 14.8239,103.992 17.5,104.5C 18.3171,111.131 19.4838,111.131 21,104.5C 22.1882,105.563 22.6882,106.897 22.5,108.5C 25.3033,108.039 27.6366,106.705 29.5,104.5C 30.209,105.404 31.209,105.737 32.5,105.5C 32.2627,104.209 32.596,103.209 33.5,102.5 Z"/></g>
<g><path style="opacity:1" fill="#e3323b" d="M 38.5,99.5 C 40.7279,103.612 43.2279,107.612 46,111.5C 47.508,114.059 49.6747,115.726 52.5,116.5C 53.1667,116.5 53.5,116.833 53.5,117.5C 53.5,119.167 53.5,120.833 53.5,122.5C 52.609,123.11 51.609,123.443 50.5,123.5C 48.059,124.756 45.7257,124.756 43.5,123.5C 41.9826,123.489 40.8159,122.823 40,121.5C 39.8486,116.023 37.8486,111.357 34,107.5C 33.5065,105.866 33.3398,104.199 33.5,102.5C 33.5,102.167 33.5,101.833 33.5,101.5C 34.8195,100.058 36.4862,99.3915 38.5,99.5 Z"/></g>
<g><path style="opacity:1" fill="#f2dcc2" d="M 107.5,138.5 C 107.5,139.167 107.5,139.833 107.5,140.5C 106.952,142.394 105.952,144.06 104.5,145.5C 98.4014,150.445 91.4014,153.112 83.5,153.5C 81.3603,153.444 79.6936,152.777 78.5,151.5C 79.8583,152.626 81.1916,152.626 82.5,151.5C 80.809,148.153 79.1423,144.819 77.5,141.5C 77.2577,137.273 75.9244,133.439 73.5,130C 73.7591,128.739 74.4258,127.739 75.5,127C 71.3001,124.433 68.1335,120.933 66,116.5C 66.2001,109.708 63.0334,105.541 56.5,104C 61.0692,100.67 65.4026,97.837 69.5,95.5C 70.2679,94.7375 70.7679,93.7375 71,92.5C 74.5882,98.6754 77.9215,105.009 81,111.5C 81.2896,109.956 81.9563,108.623 83,107.5C 85.6244,111.248 88.1244,115.081 90.5,119C 91.3287,118.728 91.8287,117.894 92,116.5C 96.9428,124.075 102.109,131.409 107.5,138.5 Z"/></g>
<g><path style="opacity:1" fill="#eb253b" d="M 191.5,111.5 C 192.459,117.81 192.459,124.143 191.5,130.5C 190.525,132.795 189.192,134.795 187.5,136.5C 180.314,142.453 171.981,145.453 162.5,145.5C 157.821,145.666 153.155,145.499 148.5,145C 149.942,144.623 150.942,143.79 151.5,142.5C 157.5,138.5 162.5,133.5 166.5,127.5C 168.104,126.713 168.771,125.38 168.5,123.5C 169.822,123.67 170.989,123.337 172,122.5C 172.198,120.618 172.698,118.952 173.5,117.5C 175.167,117.5 176.833,117.5 178.5,117.5C 178.579,116.07 178.246,114.736 177.5,113.5C 179.813,112.727 182.146,112.06 184.5,111.5C 185.386,110.675 185.719,109.675 185.5,108.5C 185.369,107.761 185.536,107.094 186,106.5C 188.239,107.889 190.072,109.556 191.5,111.5 Z"/></g>
<g><path style="opacity:1" fill="#edc7b7" d="M 33.5,116.5 C 33.6309,117.376 33.2975,118.043 32.5,118.5C 31.1482,117.476 29.8149,116.476 28.5,115.5C 28.281,114.325 28.6143,113.325 29.5,112.5C 30.84,113.867 32.1733,115.2 33.5,116.5 Z"/></g>
<g><path style="opacity:1" fill="#957570" d="M 7.5,113.5 C 9.58311,116.527 11.5831,119.693 13.5,123C 12.8288,123.986 12.8288,125.153 13.5,126.5C 9.63141,123.093 7.63141,118.759 7.5,113.5 Z"/></g>
<g><path style="opacity:1" fill="#ab816f" d="M 28.5,115.5 C 29.8149,116.476 31.1482,117.476 32.5,118.5C 33.2975,118.043 33.6309,117.376 33.5,116.5C 35.2369,118.64 36.4035,120.973 37,123.5C 33.9334,118.532 30.4334,118.199 26.5,122.5C 25.354,121.855 24.354,121.022 23.5,120C 25.9228,119.303 27.5895,117.803 28.5,115.5 Z"/></g>
<g><path style="opacity:1" fill="#e1baa9" d="M 16.5,119.5 C 19.9184,118.67 22.5851,120.003 24.5,123.5C 24.1667,123.833 23.8333,124.167 23.5,124.5C 21.3134,122.578 18.9801,120.912 16.5,119.5 Z"/></g>
<g><path style="opacity:1" fill="#f2af39" d="M 43.5,123.5 C 41.752,122.211 41.4186,120.711 42.5,119C 44.7695,118.242 46.9361,118.409 49,119.5C 48.9595,122.806 47.1262,124.139 43.5,123.5 Z"/></g>
<g><path style="opacity:1" fill="#d97681" d="M 53.5,117.5 C 56.1667,119.167 56.1667,120.833 53.5,122.5C 53.5,120.833 53.5,119.167 53.5,117.5 Z"/></g>
<g><path style="opacity:1" fill="#753a30" d="M 241.5,119.5 C 242.723,122.274 244.223,124.941 246,127.5C 246.497,129.81 246.663,132.143 246.5,134.5C 246.5,134.833 246.5,135.167 246.5,135.5C 245.504,135.414 244.671,135.748 244,136.5C 243.295,140.243 241.795,143.576 239.5,146.5C 238.82,150.105 237.82,153.605 236.5,157C 237.148,158.44 237.481,159.94 237.5,161.5C 236.975,166.14 237.642,170.473 239.5,174.5C 242.64,175.641 245.973,175.808 249.5,175C 250.942,174.623 251.942,173.79 252.5,172.5C 255.598,172.413 255.932,172.913 253.5,174C 253.957,174.414 254.291,174.914 254.5,175.5C 252.758,177.382 250.758,178.882 248.5,180C 248.957,180.414 249.291,180.914 249.5,181.5C 247.423,182.885 245.423,184.218 243.5,185.5C 241.976,186.174 240.642,187.174 239.5,188.5C 238.808,187.975 238.308,187.308 238,186.5C 237.666,188.847 237.833,191.181 238.5,193.5C 236.801,193.34 235.134,193.506 233.5,194C 232.167,194.667 232.167,195.333 233.5,196C 230.688,197.549 227.688,198.382 224.5,198.5C 224.335,194.818 224.501,191.152 225,187.5C 226.908,186.182 227.742,184.348 227.5,182C 227.212,179.813 226.878,177.646 226.5,175.5C 225.5,175.5 224.5,175.5 223.5,175.5C 215.373,174.984 208.039,177.151 201.5,182C 202.056,182.383 202.389,182.883 202.5,183.5C 200.139,183.674 197.806,184.007 195.5,184.5C 198.576,178.174 200.909,171.508 202.5,164.5C 202.427,162.973 203.094,161.973 204.5,161.5C 205.222,161.918 205.722,162.584 206,163.5C 206.133,160.586 207.3,158.253 209.5,156.5C 212.555,146.812 208.888,142.145 198.5,142.5C 204.054,135.45 210.72,129.616 218.5,125C 219.305,123.887 219.972,122.721 220.5,121.5C 224.704,118.945 229.37,117.612 234.5,117.5C 237.205,117.316 239.538,117.983 241.5,119.5 Z"/></g>
<g><path style="opacity:1" fill="#8d6765" d="M 241.5,119.5 C 244.091,120.254 245.924,121.921 247,124.5C 247.808,128.027 247.641,131.36 246.5,134.5C 246.663,132.143 246.497,129.81 246,127.5C 244.223,124.941 242.723,122.274 241.5,119.5 Z"/></g>
<g><path style="opacity:1" fill="#de293f" d="M 173.5,117.5 C 172.698,118.952 172.198,120.618 172,122.5C 170.989,123.337 169.822,123.67 168.5,123.5C 168.771,125.38 168.104,126.713 166.5,127.5C 167.292,126.033 167.292,124.7 166.5,123.5C 164.917,126.331 163.084,128.997 161,131.5C 156.297,135.897 151.463,139.897 146.5,143.5C 145.167,143.5 143.833,143.5 142.5,143.5C 139.189,142.189 136.855,139.855 135.5,136.5C 145.201,135.566 153.368,131.566 160,124.5C 160.483,123.552 160.649,122.552 160.5,121.5C 160.34,119.801 160.506,118.134 161,116.5C 163.695,118.694 166.528,120.694 169.5,122.5C 171.729,120.901 172.062,118.901 170.5,116.5C 171.86,115.335 172.86,115.668 173.5,117.5 Z"/></g>
<g><path style="opacity:1" fill="#ee929d" d="M 191.5,111.5 C 195.342,117.814 195.342,124.147 191.5,130.5C 192.459,124.143 192.459,117.81 191.5,111.5 Z"/></g>
<g><path style="opacity:1" fill="#f0cfbb" d="M 30.5,121.5 C 33.9594,122.436 36.7928,124.436 39,127.5C 39.6987,129.074 39.3654,130.407 38,131.5C 35.2386,128.286 32.7386,124.953 30.5,121.5 Z"/></g>
<g><path style="opacity:0.745" fill="#f8e4b4" d="M 53.5,122.5 C 54.1667,123.833 54.8333,125.167 55.5,126.5C 53.8235,127.183 53.1568,128.517 53.5,130.5C 52.5,129.833 51.5,129.167 50.5,128.5C 50.5,126.833 50.5,125.167 50.5,123.5C 51.609,123.443 52.609,123.11 53.5,122.5 Z"/></g>
<g><path style="opacity:1" fill="#edcbb8" d="M 27.5,123.5 C 28.2389,123.369 28.9056,123.536 29.5,124C 31.5,126.333 33.5,128.667 35.5,131C 31.1114,130.448 28.4447,127.948 27.5,123.5 Z"/></g>
<g><path style="opacity:1" fill="#db303b" d="M 151.5,126.5 C 151.297,128.044 150.63,129.378 149.5,130.5C 144.723,132.722 139.723,134.056 134.5,134.5C 129.637,134.181 124.97,134.514 120.5,135.5C 120.043,137.557 119.043,137.557 117.5,135.5C 117.5,134.167 117.5,132.833 117.5,131.5C 118.833,131.5 120.167,131.5 121.5,131.5C 121.5,130.167 121.5,128.833 121.5,127.5C 123.833,126.833 126.167,126.167 128.5,125.5C 128.699,127.96 129.365,130.293 130.5,132.5C 132.557,130.731 134.39,128.731 136,126.5C 140.848,133.651 143.681,132.984 144.5,124.5C 146.921,124.878 149.254,125.545 151.5,126.5 Z"/></g>
<g><path style="opacity:1" fill="#691128" d="M 160.5,121.5 C 160.649,122.552 160.483,123.552 160,124.5C 153.368,131.566 145.201,135.566 135.5,136.5C 134.662,136.158 134.328,135.492 134.5,134.5C 139.723,134.056 144.723,132.722 149.5,130.5C 150.63,129.378 151.297,128.044 151.5,126.5C 153.199,126.66 154.866,126.494 156.5,126C 157.733,124.333 159.067,122.833 160.5,121.5 Z"/></g>
<g><path style="opacity:1" fill="#690c28" d="M 166.5,127.5 C 162.5,133.5 157.5,138.5 151.5,142.5C 149.883,143.038 148.216,143.371 146.5,143.5C 151.463,139.897 156.297,135.897 161,131.5C 163.084,128.997 164.917,126.331 166.5,123.5C 167.292,124.7 167.292,126.033 166.5,127.5 Z"/></g>
<g><path style="opacity:0.831" fill="#ad918b" d="M 208.5,129.5 C 206.431,132.573 203.764,134.906 200.5,136.5C 202.569,133.427 205.236,131.094 208.5,129.5 Z"/></g>
<g><path style="opacity:0.843" fill="#b29492" d="M 26.5,135.5 C 31.7968,136.275 37.1301,136.608 42.5,136.5C 37.0885,138.829 31.7552,138.495 26.5,135.5 Z"/></g>
<g><path style="opacity:1" fill="#ea9439" d="M 120.5,135.5 C 124.97,134.514 129.637,134.181 134.5,134.5C 134.328,135.492 134.662,136.158 135.5,136.5C 136.855,139.855 139.189,142.189 142.5,143.5C 142.263,144.791 142.596,145.791 143.5,146.5C 145.002,148.829 144.336,150.163 141.5,150.5C 140.699,148.256 139.366,146.256 137.5,144.5C 137.709,143.914 138.043,143.414 138.5,143C 135.955,141.725 133.955,139.892 132.5,137.5C 131.486,136.235 129.986,135.569 128,135.5C 125.879,135.698 124.046,136.364 122.5,137.5C 122.5,136.167 121.833,135.5 120.5,135.5 Z"/></g>
<g><path style="opacity:1" fill="#e59b7d" d="M 115.5,135.5 C 115.917,138.079 115.25,140.246 113.5,142C 114.191,143.067 114.691,144.234 115,145.5C 116.975,145.512 119.142,145.178 121.5,144.5C 119.165,147.165 116.165,148.498 112.5,148.5C 112.373,144.738 111.706,141.072 110.5,137.5C 109.614,138.325 109.281,139.325 109.5,140.5C 108.833,140.5 108.167,140.5 107.5,140.5C 107.5,139.833 107.5,139.167 107.5,138.5C 107.511,136.983 108.177,135.816 109.5,135C 111.712,134.211 113.712,134.378 115.5,135.5 Z"/></g>
<g><path style="opacity:1" fill="#f29c6c" d="M 115.5,135.5 C 116.167,135.5 116.833,135.5 117.5,135.5C 119.043,137.557 120.043,137.557 120.5,135.5C 121.833,135.5 122.5,136.167 122.5,137.5C 121.532,139.607 121.198,141.941 121.5,144.5C 119.142,145.178 116.975,145.512 115,145.5C 114.691,144.234 114.191,143.067 113.5,142C 115.25,140.246 115.917,138.079 115.5,135.5 Z"/></g>
<g><path style="opacity:1" fill="#f3ddc4" d="M 187.5,136.5 C 189.467,138.493 191.467,140.493 193.5,142.5C 194.518,141.807 195.518,141.141 196.5,140.5C 195.37,142.315 194.704,144.315 194.5,146.5C 195.5,146.5 196.5,146.5 197.5,146.5C 195.679,162.383 187.512,174.383 173,182.5C 172.7,184.066 173.2,185.399 174.5,186.5C 175.455,188.746 176.122,191.079 176.5,193.5C 172.033,193.867 167.7,193.367 163.5,192C 164.5,191 165.5,190 166.5,189C 165.167,188.333 164.167,187.333 163.5,186C 158.816,185.565 154.149,185.065 149.5,184.5C 149.41,182.304 149.077,180.137 148.5,178C 150.194,174.394 151.194,170.561 151.5,166.5C 153.117,163.216 155.45,160.549 158.5,158.5C 161.368,158.145 163.701,156.812 165.5,154.5C 164.478,151.013 162.145,149.68 158.5,150.5C 158.5,151.833 158.5,153.167 158.5,154.5C 157.178,154.67 156.011,154.337 155,153.5C 153.086,154.676 153.252,155.676 155.5,156.5C 151.823,160.68 149.156,160.014 147.5,154.5C 146.311,153.571 144.978,153.238 143.5,153.5C 142.609,154.11 141.609,154.443 140.5,154.5C 140.5,154.167 140.5,153.833 140.5,153.5C 140.557,152.391 140.89,151.391 141.5,150.5C 144.336,150.163 145.002,148.829 143.5,146.5C 150.022,146.823 156.355,146.49 162.5,145.5C 171.981,145.453 180.314,142.453 187.5,136.5 Z"/></g>
<g><path style="opacity:1" fill="#f4c617" d="M 132.5,137.5 C 133.955,139.892 135.955,141.725 138.5,143C 138.043,143.414 137.709,143.914 137.5,144.5C 139.366,146.256 140.699,148.256 141.5,150.5C 140.89,151.391 140.557,152.391 140.5,153.5C 137.892,153.4 135.558,154.067 133.5,155.5C 132.5,155.5 131.5,155.5 130.5,155.5C 130.167,153.5 129.833,151.5 129.5,149.5C 129.938,149.565 130.272,149.399 130.5,149C 129.642,146.118 128.142,143.618 126,141.5C 125.506,139.866 125.34,138.199 125.5,136.5C 127.95,136.298 130.283,136.631 132.5,137.5 Z"/></g>
<g><path style="opacity:1" fill="#f0d567" d="M 55.5,126.5 C 61.4316,136.096 68.7649,144.43 77.5,151.5C 76.0695,151.579 74.7362,151.246 73.5,150.5C 72.7025,150.957 72.3691,151.624 72.5,152.5C 64.0346,147.033 57.7013,139.699 53.5,130.5C 53.1568,128.517 53.8235,127.183 55.5,126.5 Z"/></g>
<g><path style="opacity:1" fill="#7d4e49" d="M 220.5,121.5 C 219.972,122.721 219.305,123.887 218.5,125C 210.72,129.616 204.054,135.45 198.5,142.5C 208.888,142.145 212.555,146.812 209.5,156.5C 207.3,158.253 206.133,160.586 206,163.5C 205.722,162.584 205.222,161.918 204.5,161.5C 205.38,158.738 206.546,156.071 208,153.5C 208.896,150.975 208.396,148.808 206.5,147C 203.518,146.502 200.518,146.335 197.5,146.5C 196.5,146.5 195.5,146.5 194.5,146.5C 194.704,144.315 195.37,142.315 196.5,140.5C 197.5,138.833 198.833,137.5 200.5,136.5C 203.764,134.906 206.431,132.573 208.5,129.5C 211.803,125.844 215.803,123.178 220.5,121.5 Z"/></g>
<g><path style="opacity:1" fill="#b9333f" d="M 151.5,142.5 C 150.942,143.79 149.942,144.623 148.5,145C 153.155,145.499 157.821,145.666 162.5,145.5C 156.355,146.49 150.022,146.823 143.5,146.5C 142.596,145.791 142.263,144.791 142.5,143.5C 143.833,143.5 145.167,143.5 146.5,143.5C 148.216,143.371 149.883,143.038 151.5,142.5 Z"/></g>
<g><path style="opacity:1" fill="#f0ca44" d="M 107.5,140.5 C 108.167,140.5 108.833,140.5 109.5,140.5C 109.5,140.833 109.5,141.167 109.5,141.5C 109.657,142.873 109.49,144.207 109,145.5C 99.6087,155.112 88.4421,158.112 75.5,154.5C 73.9731,154.573 72.9731,153.906 72.5,152.5C 72.3691,151.624 72.7025,150.957 73.5,150.5C 74.7362,151.246 76.0695,151.579 77.5,151.5C 77.8333,151.5 78.1667,151.5 78.5,151.5C 79.6936,152.777 81.3603,153.444 83.5,153.5C 91.4014,153.112 98.4014,150.445 104.5,145.5C 105.952,144.06 106.952,142.394 107.5,140.5 Z"/></g>
<g><path style="opacity:1" fill="#462725" d="M 121.5,144.5 C 122.167,144.5 122.5,144.833 122.5,145.5C 122.33,146.822 122.663,147.989 123.5,149C 122.551,149.617 121.718,149.451 121,148.5C 120.45,153.07 119.283,153.403 117.5,149.5C 116.719,150.729 116.219,152.062 116,153.5C 115.517,152.552 115.351,151.552 115.5,150.5C 113.833,150.5 112.167,150.5 110.5,150.5C 110.81,147.287 110.477,144.287 109.5,141.5C 109.5,141.167 109.5,140.833 109.5,140.5C 109.281,139.325 109.614,138.325 110.5,137.5C 111.706,141.072 112.373,144.738 112.5,148.5C 116.165,148.498 119.165,147.165 121.5,144.5 Z"/></g>
<g><path style="opacity:1" fill="#f1bb38" d="M 132.5,137.5 C 130.283,136.631 127.95,136.298 125.5,136.5C 125.34,138.199 125.506,139.866 126,141.5C 128.142,143.618 129.642,146.118 130.5,149C 130.272,149.399 129.938,149.565 129.5,149.5C 128.849,148.909 128.182,148.243 127.5,147.5C 127.167,147.833 126.833,148.167 126.5,148.5C 127.112,151.433 128.445,153.766 130.5,155.5C 131.5,155.5 132.5,155.5 133.5,155.5C 133.5,155.833 133.5,156.167 133.5,156.5C 130.833,156.5 128.167,156.5 125.5,156.5C 125.568,152.43 124.568,148.763 122.5,145.5C 122.5,144.833 122.167,144.5 121.5,144.5C 121.198,141.941 121.532,139.607 122.5,137.5C 124.046,136.364 125.879,135.698 128,135.5C 129.986,135.569 131.486,136.235 132.5,137.5 Z"/></g>
<g><path style="opacity:1" fill="#8d635c" d="M 246.5,135.5 C 243.476,144.24 240.476,152.907 237.5,161.5C 237.481,159.94 237.148,158.44 236.5,157C 237.82,153.605 238.82,150.105 239.5,146.5C 241.795,143.576 243.295,140.243 244,136.5C 244.671,135.748 245.504,135.414 246.5,135.5 Z"/></g>
<g><path style="opacity:1" fill="#de8f18" d="M 129.5,149.5 C 129.833,151.5 130.167,153.5 130.5,155.5C 128.445,153.766 127.112,151.433 126.5,148.5C 126.833,148.167 127.167,147.833 127.5,147.5C 128.182,148.243 128.849,148.909 129.5,149.5 Z"/></g>
<g><path style="opacity:1" fill="#d34839" d="M 140.5,153.5 C 140.5,153.833 140.5,154.167 140.5,154.5C 137.962,155.043 135.628,156.043 133.5,157.5C 133.5,157.167 133.5,156.833 133.5,156.5C 133.5,156.167 133.5,155.833 133.5,155.5C 135.558,154.067 137.892,153.4 140.5,153.5 Z"/></g>
<g><path style="opacity:1" fill="#f1dcc1" d="M 109.5,141.5 C 110.477,144.287 110.81,147.287 110.5,150.5C 112.167,150.5 113.833,150.5 115.5,150.5C 115.351,151.552 115.517,152.552 116,153.5C 116.219,152.062 116.719,150.729 117.5,149.5C 119.283,153.403 120.45,153.07 121,148.5C 121.718,149.451 122.551,149.617 123.5,149C 122.663,147.989 122.33,146.822 122.5,145.5C 124.568,148.763 125.568,152.43 125.5,156.5C 128.167,156.5 130.833,156.5 133.5,156.5C 133.5,156.833 133.5,157.167 133.5,157.5C 128.7,160.187 128.533,163.52 133,167.5C 135.989,163.537 138.489,163.704 140.5,168C 136.171,170.164 131.838,172.331 127.5,174.5C 126.127,174.343 124.793,174.51 123.5,175C 122.743,176.512 121.743,177.846 120.5,179C 123.252,181.534 126.586,182.867 130.5,183C 126.5,184 126.5,185 130.5,186C 128.024,186.424 125.691,187.257 123.5,188.5C 118.607,185.875 113.274,184.542 107.5,184.5C 106.438,180.794 103.938,178.794 100,178.5C 99.5172,177.552 99.3505,176.552 99.5,175.5C 88.2865,177.126 76.9532,177.959 65.5,178C 63.9391,178.318 62.7724,179.151 62,180.5C 61.6905,179.234 61.1905,178.067 60.5,177C 67.9883,176.503 75.3216,175.17 82.5,173C 81.1669,171.16 81.3335,170.66 83,171.5C 84.115,169.092 85.7816,167.092 88,165.5C 88.1667,164.333 88.3333,163.167 88.5,162C 88.3917,160.319 87.7251,159.152 86.5,158.5C 83.1779,157.777 79.8445,156.943 76.5,156C 75.944,155.617 75.6107,155.117 75.5,154.5C 88.4421,158.112 99.6087,155.112 109,145.5C 109.49,144.207 109.657,142.873 109.5,141.5 Z"/></g>
<g><path style="opacity:1" fill="#171d3c" d="M 143.5,153.5 C 145.144,155.481 146.81,157.481 148.5,159.5C 146.954,160.684 145.287,161.684 143.5,162.5C 144.48,163.981 145.647,165.315 147,166.5C 147.667,167.167 147.667,167.833 147,168.5C 140.538,174.465 133.038,178.465 124.5,180.5C 124.028,177.642 125.028,175.642 127.5,174.5C 131.838,172.331 136.171,170.164 140.5,168C 138.489,163.704 135.989,163.537 133,167.5C 128.533,163.52 128.7,160.187 133.5,157.5C 135.628,156.043 137.962,155.043 140.5,154.5C 141.609,154.443 142.609,154.11 143.5,153.5 Z"/></g>
<g><path style="opacity:1" fill="#363940" d="M 158.5,158.5 C 155.45,160.549 153.117,163.216 151.5,166.5C 147.485,172.591 146.485,179.257 148.5,186.5C 153.261,186.794 157.928,187.627 162.5,189C 160.19,189.497 157.857,189.663 155.5,189.5C 152.67,189.037 150.003,188.371 147.5,187.5C 145.087,182.264 144.92,176.931 147,171.5C 150.284,163.579 155.451,157.245 162.5,152.5C 162.833,152.833 163.167,153.167 163.5,153.5C 161.479,154.855 159.812,156.521 158.5,158.5 Z"/></g>
<g><path style="opacity:1" fill="#ac8d8c" d="M 252.5,172.5 C 251.942,173.79 250.942,174.623 249.5,175C 245.973,175.808 242.64,175.641 239.5,174.5C 243.993,174.731 248.326,174.064 252.5,172.5 Z"/></g>
<g><path style="opacity:1" fill="#a17d78" d="M 223.5,175.5 C 223.5,175.833 223.5,176.167 223.5,176.5C 220.813,176.336 218.146,176.503 215.5,177C 211.114,179.193 206.78,181.36 202.5,183.5C 202.389,182.883 202.056,182.383 201.5,182C 208.039,177.151 215.373,174.984 223.5,175.5 Z"/></g>
<g><path style="opacity:1" fill="#956e6b" d="M 244.5,188.5 C 244.737,187.209 244.404,186.209 243.5,185.5C 245.423,184.218 247.423,182.885 249.5,181.5C 249.291,180.914 248.957,180.414 248.5,180C 250.758,178.882 252.758,177.382 254.5,175.5C 254.291,174.914 253.957,174.414 253.5,174C 255.932,172.913 255.598,172.413 252.5,172.5C 255.737,170.539 259.071,168.539 262.5,166.5C 262.833,166.833 263.167,167.167 263.5,167.5C 257.514,174.819 251.181,181.819 244.5,188.5 Z"/></g>
<g><path style="opacity:1" fill="#865c57" d="M 202.5,164.5 C 200.909,171.508 198.576,178.174 195.5,184.5C 197.806,184.007 200.139,183.674 202.5,183.5C 200.081,185.862 197.081,186.862 193.5,186.5C 194.31,178.221 197.31,170.887 202.5,164.5 Z"/></g>
<g><path style="opacity:1" fill="#eddcc8" d="M 158.5,158.5 C 159.812,156.521 161.479,154.855 163.5,153.5C 163.167,153.167 162.833,152.833 162.5,152.5C 155.451,157.245 150.284,163.579 147,171.5C 144.92,176.931 145.087,182.264 147.5,187.5C 146.735,187.077 145.902,186.743 145,186.5C 133.938,190.696 122.772,191.196 111.5,188C 109.907,187.051 108.574,185.885 107.5,184.5C 113.274,184.542 118.607,185.875 123.5,188.5C 125.691,187.257 128.024,186.424 130.5,186C 126.5,185 126.5,184 130.5,183C 126.586,182.867 123.252,181.534 120.5,179C 121.743,177.846 122.743,176.512 123.5,175C 124.793,174.51 126.127,174.343 127.5,174.5C 125.028,175.642 124.028,177.642 124.5,180.5C 133.038,178.465 140.538,174.465 147,168.5C 147.667,167.833 147.667,167.167 147,166.5C 145.647,165.315 144.48,163.981 143.5,162.5C 145.287,161.684 146.954,160.684 148.5,159.5C 146.81,157.481 145.144,155.481 143.5,153.5C 144.978,153.238 146.311,153.571 147.5,154.5C 149.156,160.014 151.823,160.68 155.5,156.5C 153.252,155.676 153.086,154.676 155,153.5C 156.011,154.337 157.178,154.67 158.5,154.5C 158.5,153.167 158.5,151.833 158.5,150.5C 162.145,149.68 164.478,151.013 165.5,154.5C 163.701,156.812 161.368,158.145 158.5,158.5 Z"/></g>
<g><path style="opacity:1" fill="#f1e2cf" d="M 86.5,158.5 C 87.7251,159.152 88.3917,160.319 88.5,162C 88.3333,163.167 88.1667,164.333 88,165.5C 85.7816,167.092 84.115,169.092 83,171.5C 81.3335,170.66 81.1669,171.16 82.5,173C 75.3216,175.17 67.9883,176.503 60.5,177C 61.1905,178.067 61.6905,179.234 62,180.5C 62.7724,179.151 63.9391,178.318 65.5,178C 76.9532,177.959 88.2865,177.126 99.5,175.5C 99.3505,176.552 99.5172,177.552 100,178.5C 103.938,178.794 106.438,180.794 107.5,184.5C 105.976,183.826 104.642,182.826 103.5,181.5C 102.914,181.709 102.414,182.043 102,182.5C 98.3839,192.399 94.2173,202.066 89.5,211.5C 89.6667,211.833 89.8333,212.167 90,212.5C 93.2506,210.264 96.7506,208.43 100.5,207C 101.171,206.014 101.171,204.847 100.5,203.5C 105.17,204.585 108.17,202.918 109.5,198.5C 113.12,201.445 113.453,204.945 110.5,209C 100.473,214.842 89.8064,219.008 78.5,221.5C 84.0467,207.076 90.3801,192.91 97.5,179C 97.1667,178.5 96.8333,178 96.5,177.5C 85.8388,179.166 75.1721,180.833 64.5,182.5C 65.9289,188.025 68.4289,193.025 72,197.5C 72.3826,196.944 72.8826,196.611 73.5,196.5C 73.1603,201.133 74.4936,205.133 77.5,208.5C 73.5587,211.316 70.0587,210.65 67,206.5C 62.1722,196.683 58.3389,186.516 55.5,176C 64.804,174.086 73.804,171.086 82.5,167C 84.6509,165.595 86.3176,163.761 87.5,161.5C 86.8728,160.583 86.5394,159.583 86.5,158.5 Z"/></g>
<g><path style="opacity:1" fill="#efdfcb" d="M 151.5,166.5 C 151.194,170.561 150.194,174.394 148.5,178C 149.077,180.137 149.41,182.304 149.5,184.5C 154.149,185.065 158.816,185.565 163.5,186C 164.167,187.333 165.167,188.333 166.5,189C 165.5,190 164.5,191 163.5,192C 167.7,193.367 172.033,193.867 176.5,193.5C 176.122,191.079 175.455,188.746 174.5,186.5C 177.479,188.812 180.146,191.479 182.5,194.5C 173.002,195.52 163.669,197.354 154.5,200C 151.006,201.579 147.673,203.413 144.5,205.5C 143.438,206.425 143.438,207.425 144.5,208.5C 140.418,208.892 136.418,209.558 132.5,210.5C 133.307,205.184 135.974,201.017 140.5,198C 145.458,194.827 150.458,191.993 155.5,189.5C 157.857,189.663 160.19,189.497 162.5,189C 157.928,187.627 153.261,186.794 148.5,186.5C 146.485,179.257 147.485,172.591 151.5,166.5 Z"/></g>
<g><path style="opacity:1" fill="#81564f" d="M 223.5,175.5 C 224.5,175.5 225.5,175.5 226.5,175.5C 226.878,177.646 227.212,179.813 227.5,182C 227.742,184.348 226.908,186.182 225,187.5C 224.501,191.152 224.335,194.818 224.5,198.5C 227.688,198.382 230.688,197.549 233.5,196C 232.167,195.333 232.167,194.667 233.5,194C 235.134,193.506 236.801,193.34 238.5,193.5C 237.833,191.181 237.666,188.847 238,186.5C 238.308,187.308 238.808,187.975 239.5,188.5C 240.642,187.174 241.976,186.174 243.5,185.5C 244.404,186.209 244.737,187.209 244.5,188.5C 240.659,194.014 235.659,198.014 229.5,200.5C 227.097,200.552 224.764,200.219 222.5,199.5C 221.745,192.961 222.411,186.461 224.5,180C 224.011,178.862 223.678,177.695 223.5,176.5C 223.5,176.167 223.5,175.833 223.5,175.5 Z"/></g>
<g><path style="opacity:1" fill="#232d4b" d="M 109.5,198.5 C 108.17,202.918 105.17,204.585 100.5,203.5C 100.062,203.565 99.7284,203.399 99.5,203C 100.088,199.392 101.088,195.892 102.5,192.5C 105.467,193.804 107.801,195.804 109.5,198.5 Z"/></g>
<g><path style="opacity:1" fill="#1f2746" d="M 80.5,199.5 C 81.038,201.117 81.3713,202.784 81.5,204.5C 81.1667,206.833 79.8333,208.167 77.5,208.5C 74.4936,205.133 73.1603,201.133 73.5,196.5C 73.56,195.957 73.8933,195.624 74.5,195.5C 76.5286,196.844 78.5286,198.177 80.5,199.5 Z"/></g>
<g><path style="opacity:0.894" fill="#8a96a3" d="M 80.5,199.5 C 82.5969,200.879 82.9302,202.545 81.5,204.5C 81.3713,202.784 81.038,201.117 80.5,199.5 Z"/></g>
<g><path style="opacity:0.482" fill="#c1a7a8" d="M 222.5,199.5 C 224.764,200.219 227.097,200.552 229.5,200.5C 228.726,201.147 227.726,201.48 226.5,201.5C 224.645,201.66 223.312,200.993 222.5,199.5 Z"/></g>
<g><path style="opacity:1" fill="#40475c" d="M 144.5,208.5 C 145.167,208.5 145.5,208.833 145.5,209.5C 141.538,210.376 137.538,211.042 133.5,211.5C 133.5,213.833 133.5,216.167 133.5,218.5C 132.527,216.052 132.194,213.385 132.5,210.5C 136.418,209.558 140.418,208.892 144.5,208.5 Z"/></g>
<g><path style="opacity:1" fill="#162243" d="M 145.5,209.5 C 147.167,210.5 148.5,211.833 149.5,213.5C 149.167,214.167 148.833,214.833 148.5,215.5C 147.292,216.234 145.959,216.567 144.5,216.5C 140.653,216.381 136.986,217.047 133.5,218.5C 133.5,216.167 133.5,213.833 133.5,211.5C 137.538,211.042 141.538,210.376 145.5,209.5 Z"/></g>
<g><path style="opacity:0.059" fill="#d6d9e0" d="M 149.5,213.5 C 150.757,214.623 150.424,215.289 148.5,215.5C 148.833,214.833 149.167,214.167 149.5,213.5 Z"/></g>
<g><path style="opacity:1" fill="#656e88" d="M 144.5,216.5 C 141.388,217.749 138.222,219.083 135,220.5C 134.283,219.956 133.783,219.289 133.5,218.5C 136.986,217.047 140.653,216.381 144.5,216.5 Z"/></g>
</svg>
