<?xml version="1.0" encoding="UTF-8"?>
<!DOCTYPE svg PUBLIC "-//W3C//DTD SVG 1.1//EN" "http://www.w3.org/Graphics/SVG/1.1/DTD/svg11.dtd">
<svg xmlns="http://www.w3.org/2000/svg" version="1.1" width="128px" height="128px" style="shape-rendering:geometricPrecision; text-rendering:geometricPrecision; image-rendering:optimizeQuality; fill-rule:evenodd; clip-rule:evenodd" xmlns:xlink="http://www.w3.org/1999/xlink">
<g><path style="opacity:0.798" fill="#171a21" d="M 44.5,-0.5 C 45.5,-0.5 46.5,-0.5 47.5,-0.5C 49.1667,0.833333 50.8333,0.833333 52.5,-0.5C 54.1667,-0.5 55.8333,-0.5 57.5,-0.5C 65.7899,3.5615 72.2899,9.5615 77,17.5C 77.9057,19.7438 78.4057,22.0772 78.5,24.5C 77.8661,33.5183 77.1995,42.5183 76.5,51.5C 66.1657,49.4802 56.1657,50.4802 46.5,54.5C 44.1219,45.738 40.6219,37.4046 36,29.5C 34.4795,18.2324 37.3128,8.23244 44.5,-0.5 Z"/></g>
<g><path style="opacity:1" fill="#7f1919" d="M 45.5,2.5 C 46.9778,2.23798 48.3112,2.57131 49.5,3.5C 40.8174,11.3808 37.6508,21.0475 40,32.5C 37.5758,27.4302 36.9091,22.0969 38,16.5C 39.7346,11.3606 42.2346,6.69396 45.5,2.5 Z"/></g>
<g><path style="opacity:1" fill="#f5a818" d="M 57.5,2.5 C 64.6888,16.9543 68.0221,32.2876 67.5,48.5C 65.1667,48.5 62.8333,48.5 60.5,48.5C 60.3528,38.303 58.8528,28.303 56,18.5C 54.5818,13.9901 52.4151,9.99008 49.5,6.5C 51.1881,2.74205 53.8548,1.40871 57.5,2.5 Z"/></g>
<g><path style="opacity:1" fill="#dc1213" d="M 57.5,2.5 C 65.0644,5.89591 70.8977,11.2292 75,18.5C 75.4998,28.828 75.6665,39.1613 75.5,49.5C 72.8333,49.1667 70.1667,48.8333 67.5,48.5C 68.0221,32.2876 64.6888,16.9543 57.5,2.5 Z"/></g>
<g><path style="opacity:1" fill="#df0e13" d="M 49.5,6.5 C 52.4151,9.99008 54.5818,13.9901 56,18.5C 58.8528,28.303 60.3528,38.303 60.5,48.5C 57.0861,49.3336 53.5861,50.3336 50,51.5C 49.228,51.3552 48.5613,51.0219 48,50.5C 45.8195,42.7758 43.4862,35.1091 41,27.5C 40.5205,19.1299 43.3539,12.1299 49.5,6.5 Z"/></g>
<g><path style="opacity:0.995" fill="#e6e5e5" d="M 76.5,51.5 C 77.2832,53.0758 78.4499,54.4092 80,55.5C 80.49,56.7932 80.6567,58.1266 80.5,59.5C 80.5,60.8333 80.5,62.1667 80.5,63.5C 83.8134,66.6251 85.6467,70.6251 86,75.5C 87.2362,76.3992 88.0696,77.5659 88.5,79C 87.3114,80.8948 86.3114,82.8948 85.5,85C 84.2068,85.49 82.8734,85.6567 81.5,85.5C 81.313,83.4357 80.813,81.4357 80,79.5C 79.6258,80.4162 79.1258,81.2496 78.5,82C 78.9288,85.0469 78.9288,88.2136 78.5,91.5C 76.6723,99.6911 76.0056,108.024 76.5,116.5C 75.8333,116.5 75.1667,116.5 74.5,116.5C 74.5,116.167 74.5,115.833 74.5,115.5C 74.8266,110.786 74.4933,106.12 73.5,101.5C 72.7025,101.957 72.3691,102.624 72.5,103.5C 69.8333,103.5 67.1667,103.5 64.5,103.5C 61.3929,101.172 57.7262,99.672 53.5,99C 52.6667,98.1667 51.8333,97.3333 51,96.5C 51.0099,92.9222 50.8432,89.4222 50.5,86C 52.9585,83.6605 53.1252,81.1605 51,78.5C 50.3802,82.2209 49.5468,85.8876 48.5,89.5C 46.9212,86.4762 44.4212,84.8095 41,84.5C 40.4456,82.3904 39.6123,80.3904 38.5,78.5C 40.1009,74.6876 41.2676,70.6876 42,66.5C 44.9723,64.4207 45.8057,61.754 44.5,58.5C 45.8062,57.5326 46.4729,56.1993 46.5,54.5C 56.1657,50.4802 66.1657,49.4802 76.5,51.5 Z"/></g>
<g><path style="opacity:1" fill="#f5cbb5" d="M 67.5,71.5 C 67.112,68.1212 66.4453,64.7879 65.5,61.5C 64.1432,64.527 64.4765,67.3603 66.5,70C 65.0953,71.2692 63.4286,71.7692 61.5,71.5C 59.4004,71.4772 57.5671,72.1439 56,73.5C 51.6912,70.1464 50.5245,65.8131 52.5,60.5C 54.881,61.3332 57.2143,60.9998 59.5,59.5C 58.2713,58.7189 56.938,58.2189 55.5,58C 58.4163,55.2501 61.9163,54.0834 66,54.5C 72.3603,54.029 75.1936,57.029 74.5,63.5C 75.3501,69.1931 73.0167,71.8597 67.5,71.5 Z"/></g>
<g><path style="opacity:1" fill="#2e3539" d="M 69.5,61.5 C 71.4646,61.9483 71.7979,62.9483 70.5,64.5C 69.6143,63.675 69.281,62.675 69.5,61.5 Z"/></g>
<g><path style="opacity:1" fill="#3f4244" d="M 56.5,61.5 C 57.5862,61.62 58.2528,62.2867 58.5,63.5C 58.1667,64.1667 57.8333,64.8333 57.5,65.5C 56.5713,64.3112 56.238,62.9778 56.5,61.5 Z"/></g>
<g><path style="opacity:1" fill="#253139" d="M 46.5,63.5 C 47.552,63.3505 48.552,63.5172 49.5,64C 45.675,65.7683 45.675,67.7683 49.5,70C 45.6223,69.4264 44.6223,67.2597 46.5,63.5 Z"/></g>
<g><path style="opacity:1" fill="#44494c" d="M 80.5,63.5 C 80.6168,65.4835 79.9501,67.1502 78.5,68.5C 77.548,67.467 77.548,66.3004 78.5,65C 76.1593,62.4509 76.8259,61.9509 80.5,63.5 Z"/></g>
<g><path style="opacity:1" fill="#383c3f" d="M 67.5,71.5 C 65.3888,72.7416 63.3888,72.7416 61.5,71.5C 63.4286,71.7692 65.0953,71.2692 66.5,70C 64.4765,67.3603 64.1432,64.527 65.5,61.5C 66.4453,64.7879 67.112,68.1212 67.5,71.5 Z"/></g>
<g><path style="opacity:0.725" fill="#16232b" d="M 80.5,59.5 C 85.4182,65.0169 88.7515,71.5169 90.5,79C 89.291,81.3192 88.4577,83.8192 88,86.5C 87.0053,87.0659 86.172,87.7326 85.5,88.5C 84.8501,88.1961 84.1835,87.8627 83.5,87.5C 81.8144,88.8569 80.1477,90.1902 78.5,91.5C 78.9288,88.2136 78.9288,85.0469 78.5,82C 79.1258,81.2496 79.6258,80.4162 80,79.5C 80.813,81.4357 81.313,83.4357 81.5,85.5C 82.8734,85.6567 84.2068,85.49 85.5,85C 86.3114,82.8948 87.3114,80.8948 88.5,79C 88.0696,77.5659 87.2362,76.3992 86,75.5C 85.6467,70.6251 83.8134,66.6251 80.5,63.5C 80.5,62.1667 80.5,60.8333 80.5,59.5 Z"/></g>
<g><path style="opacity:1" fill="#494b4b" d="M 71.5,72.5 C 72.525,72.8966 72.6917,73.5632 72,74.5C 67.9564,78.7028 63.4564,79.3694 58.5,76.5C 61.3331,76.4185 64.3331,76.2518 67.5,76C 69.3237,75.34 70.657,74.1733 71.5,72.5 Z"/></g>
<g><path style="opacity:1" fill="#de0914" d="M 39.5,89.5 C 40.9187,88.5489 42.5853,88.2155 44.5,88.5C 46.1003,89.252 47.6003,90.252 49,91.5C 49.3534,92.6716 49.1868,93.8382 48.5,95C 49.741,96.7309 50.741,98.5642 51.5,100.5C 52.1942,105.805 52.5276,111.138 52.5,116.5C 46.5,116.5 40.5,116.5 34.5,116.5C 32.8356,115.051 32.0023,113.051 32,110.5C 31.1841,109.177 30.0174,108.511 28.5,108.5C 31.8159,103.019 36.3159,98.6855 42,95.5C 42.9724,92.7058 42.1391,90.7058 39.5,89.5 Z"/></g>
<g><path style="opacity:0.999" fill="#de0d15" d="M 85.5,88.5 C 86.1667,88.8333 86.8333,89.1667 87.5,89.5C 93.8209,94.8226 99.4875,100.823 104.5,107.5C 101.893,108.318 99.2263,108.818 96.5,109C 95.0292,111.243 94.0292,113.743 93.5,116.5C 92.396,114.611 91.0627,112.945 89.5,111.5C 89.1667,111.833 88.8333,112.167 88.5,112.5C 89.5244,113.852 90.5244,115.185 91.5,116.5C 86.5,116.5 81.5,116.5 76.5,116.5C 76.0056,108.024 76.6723,99.6911 78.5,91.5C 80.1477,90.1902 81.8144,88.8569 83.5,87.5C 84.1835,87.8627 84.8501,88.1961 85.5,88.5 Z"/></g>
<g><path style="opacity:1" fill="#c40915" d="M 38.5,89.5 C 38.8333,89.5 39.1667,89.5 39.5,89.5C 42.1391,90.7058 42.9724,92.7058 42,95.5C 36.3159,98.6855 31.8159,103.019 28.5,108.5C 26.1432,108.663 23.8098,108.497 21.5,108C 27.0828,101.591 32.7495,95.4244 38.5,89.5 Z"/></g>
<g><path style="opacity:0.832" fill="#1a232c" d="M 38.5,89.5 C 32.7495,95.4244 27.0828,101.591 21.5,108C 23.8098,108.497 26.1432,108.663 28.5,108.5C 30.0174,108.511 31.1841,109.177 32,110.5C 32.0023,113.051 32.8356,115.051 34.5,116.5C 33.0855,120.119 31.7521,123.786 30.5,127.5C 29.5,127.5 28.5,127.5 27.5,127.5C 27.1667,126.167 26.8333,126.167 26.5,127.5C 24.5,127.5 22.5,127.5 20.5,127.5C 18.9867,125.484 18.1534,123.151 18,120.5C 14.9288,118.26 13.9288,115.26 15,111.5C 20.1091,105.718 25.2758,99.8844 30.5,94C 32.8171,91.8431 35.4838,90.3431 38.5,89.5 Z"/></g>
<g><path style="opacity:0.796" fill="#191f28" d="M 87.5,89.5 C 89.3084,89.4914 90.9751,89.9914 92.5,91C 99.0043,97.1712 105.171,103.671 111,110.5C 113.536,114.649 112.869,117.982 109,120.5C 108.71,122.92 108.21,125.254 107.5,127.5C 103.5,127.5 99.5,127.5 95.5,127.5C 94.5863,124.272 94.2529,120.939 94.5,117.5C 93.209,117.737 92.209,117.404 91.5,116.5C 90.5244,115.185 89.5244,113.852 88.5,112.5C 88.8333,112.167 89.1667,111.833 89.5,111.5C 91.0627,112.945 92.396,114.611 93.5,116.5C 94.0292,113.743 95.0292,111.243 96.5,109C 99.2263,108.818 101.893,108.318 104.5,107.5C 99.4875,100.823 93.8209,94.8226 87.5,89.5 Z"/></g>
<g><path style="opacity:1" fill="#711db5" d="M 64.5,103.5 C 67.1667,103.5 69.8333,103.5 72.5,103.5C 72.3347,107.182 72.5014,110.848 73,114.5C 73.3826,115.056 73.8826,115.389 74.5,115.5C 74.5,115.833 74.5,116.167 74.5,116.5C 68.1667,116.5 61.8333,116.5 55.5,116.5C 55.5,116.167 55.5,115.833 55.5,115.5C 56.5157,110.896 56.5157,106.23 55.5,101.5C 58.4261,102.461 61.4261,103.127 64.5,103.5 Z"/></g>
<g><path style="opacity:1" fill="#e5dade" d="M 51.5,100.5 C 53.779,101.868 54.4457,103.702 53.5,106C 54.4765,109.44 55.1432,112.607 55.5,115.5C 55.5,115.833 55.5,116.167 55.5,116.5C 54.5,116.5 53.5,116.5 52.5,116.5C 52.5276,111.138 52.1942,105.805 51.5,100.5 Z"/></g>
<g><path style="opacity:1" fill="#1c2835" d="M 74.5,115.5 C 73.8826,115.389 73.3826,115.056 73,114.5C 72.5014,110.848 72.3347,107.182 72.5,103.5C 72.3691,102.624 72.7025,101.957 73.5,101.5C 74.4933,106.12 74.8266,110.786 74.5,115.5 Z"/></g>
<g><path style="opacity:1" fill="#e2e3e4" d="M 28.5,124.5 C 28.8256,120.116 28.4922,115.783 27.5,111.5C 26.8933,111.624 26.56,111.957 26.5,112.5C 26.6655,116.514 26.4988,120.514 26,124.5C 25.31,125.738 24.81,125.738 24.5,124.5C 24.8256,120.116 24.4922,115.783 23.5,111.5C 22.8933,111.624 22.56,111.957 22.5,112.5C 22.1546,129.783 21.1546,129.783 19.5,112.5C 18.7189,113.729 18.2189,115.062 18,116.5C 17.3333,114.833 17.3333,113.167 18,111.5C 22.0659,110.536 26.2325,110.203 30.5,110.5C 30.6658,115.179 30.4992,119.845 30,124.5C 29.31,125.738 28.81,125.738 28.5,124.5 Z"/></g>
<g><path style="opacity:1" fill="#e3e4e4" d="M 109.5,112.5 C 109.657,113.873 109.49,115.207 109,116.5C 108.79,114.942 108.29,113.609 107.5,112.5C 106.834,116.684 106.167,121.018 105.5,125.5C 104.009,108.204 102.842,108.204 102,125.5C 100.891,121.311 100.058,116.977 99.5,112.5C 98.8333,116.833 98.1667,121.167 97.5,125.5C 96.5059,120.544 96.1725,115.544 96.5,110.5C 100.514,110.334 104.514,110.501 108.5,111C 109.056,111.383 109.389,111.883 109.5,112.5 Z"/></g>
<g><path style="opacity:1" fill="#1a252f" d="M 44.5,58.5 C 45.8057,61.754 44.9723,64.4207 42,66.5C 41.2676,70.6876 40.1009,74.6876 38.5,78.5C 39.6123,80.3904 40.4456,82.3904 41,84.5C 44.4212,84.8095 46.9212,86.4762 48.5,89.5C 49.5468,85.8876 50.3802,82.2209 51,78.5C 53.1252,81.1605 52.9585,83.6605 50.5,86C 50.8432,89.4222 51.0099,92.9222 51,96.5C 51.8333,97.3333 52.6667,98.1667 53.5,99C 57.7262,99.672 61.3929,101.172 64.5,103.5C 61.4261,103.127 58.4261,102.461 55.5,101.5C 56.5157,106.23 56.5157,110.896 55.5,115.5C 55.1432,112.607 54.4765,109.44 53.5,106C 54.4457,103.702 53.779,101.868 51.5,100.5C 50.741,98.5642 49.741,96.7309 48.5,95C 49.1868,93.8382 49.3534,92.6716 49,91.5C 47.6003,90.252 46.1003,89.252 44.5,88.5C 42.5522,87.8688 40.7189,86.8688 39,85.5C 37.8333,83.1667 36.6667,80.8333 35.5,78.5C 37.76,74.4758 39.26,70.1425 40,65.5C 42.036,63.4078 43.536,61.0745 44.5,58.5 Z"/></g>
<g><path style="opacity:1" fill="#798186" d="M 107.5,112.5 C 108.29,113.609 108.79,114.942 109,116.5C 109.49,115.207 109.657,113.873 109.5,112.5C 110.622,114.288 110.789,116.288 110,118.5C 107.984,117.045 107.151,115.045 107.5,112.5 Z"/></g>
<g><path style="opacity:1" fill="#777f83" d="M 22.5,112.5 C 22.56,111.957 22.8933,111.624 23.5,111.5C 24.4922,115.783 24.8256,120.116 24.5,124.5C 23.8333,120.5 23.1667,116.5 22.5,112.5 Z"/></g>
<g><path style="opacity:1" fill="#6c757a" d="M 26.5,112.5 C 26.56,111.957 26.8933,111.624 27.5,111.5C 28.4922,115.783 28.8256,120.116 28.5,124.5C 27.8333,120.5 27.1667,116.5 26.5,112.5 Z"/></g>
</svg>
